<svg width="211" height="102" viewBox="0 0 211 102" fill="none" xmlns="http://www.w3.org/2000/svg">
<path d="M105.778 6.82898C111.914 6.86349 118.008 7.533 123.86 8.81495L105.778 47.6823V6.82898Z" fill="#E9E8E8" stroke="black"/>
<path d="M106.859 47.7285L124.858 9.0399C130.662 10.3867 136.144 12.3241 141.128 14.7872L106.859 47.7285Z" fill="black" stroke="black"/>
<path d="M167.691 58.3852C167.691 70.2207 160.822 80.9872 149.613 88.8156C138.406 96.6429 122.897 101.5 105.742 101.5C88.5869 101.5 73.0776 96.6429 61.8703 88.8156C50.6615 80.9872 43.7933 70.2207 43.7933 58.3852V56.9204C46.1251 65.9946 52.4081 74.0808 61.2978 80.2894C72.6925 88.2476 88.4074 93.154 105.742 93.154C123.076 93.154 138.791 88.2476 150.186 80.2894C159.076 74.0808 165.359 65.9946 167.691 56.9204V58.3852Z" stroke="black"/>
<path d="M104.778 6.82896V49.9424V51.1166L105.625 50.3028L142.074 15.2645C154.234 21.5161 162.237 30.3497 165.528 39.9232C168.843 49.567 167.397 60.0161 160.516 69.4484C146.722 88.3559 115.174 97.5347 86.091 90.9349C71.5659 87.6388 59.8697 80.9058 52.4077 72.4013C44.9504 63.9022 41.7244 53.6431 44.0859 43.2301C46.4501 32.8046 54.0792 23.7074 64.977 17.2068C75.7528 10.7791 89.6921 6.91262 104.778 6.82896Z" stroke="black"/>
<path d="M1.54309 86.3801H0.789129V87.6689H0.368317V84.4849H1.42619C1.78466 84.4849 2.05936 84.5666 2.25029 84.7299C2.44511 84.8931 2.54252 85.1303 2.54252 85.4413C2.54252 85.6396 2.48797 85.8125 2.37887 85.9603C2.27366 86.108 2.1256 86.2188 1.93468 86.2927L2.68279 87.6397V87.6689H2.23275L1.54309 86.3801ZM0.789129 86.0361H1.43788C1.64829 86.0361 1.81389 85.9836 1.93468 85.8786C2.05936 85.7698 2.1217 85.624 2.1217 85.4413C2.1217 85.2469 2.06326 85.0972 1.94636 84.9923C1.82947 84.8873 1.65998 84.8329 1.43788 84.829H0.789129V86.0361ZM4.7927 86.1994H3.40752V87.3248H5.01479V87.6689H2.98671V84.4849H4.99726V84.829H3.40752V85.8553H4.7927V86.1994ZM6.14865 84.4849L7.19484 87.0799L8.23518 84.4849H8.78457V87.6689H8.36376V86.4268L8.40467 85.0914L7.35264 87.6689H7.03119L5.985 85.0972L6.02591 86.4268V87.6689H5.6051V84.4849H6.14865ZM11.1107 86.835H9.77231L9.47424 87.6689H9.04174L10.2574 84.4849H10.6256L11.8472 87.6689H11.4147L11.1107 86.835ZM9.9009 86.4909H10.988L10.4444 85.0039L9.9009 86.4909ZM12.794 87.6689H12.3732V84.4849H12.794V87.6689ZM15.915 87.6689H15.4942L13.8869 85.2139V87.6689H13.4603V84.4849H13.8869L15.4942 86.9516V84.4849H15.915V87.6689ZM17.2827 87.6689H16.8618V84.4849H17.2827V87.6689ZM20.4037 87.6689H19.9829L18.3756 85.2139V87.6689H17.9489V84.4849H18.3756L19.9829 86.9516V84.4849H20.4037V87.6689ZM23.6767 87.249C23.5676 87.4045 23.4156 87.5211 23.2208 87.5989C23.026 87.6766 22.8 87.7155 22.5428 87.7155C22.2857 87.7155 22.0558 87.6553 21.8532 87.5347C21.6505 87.4103 21.4947 87.2354 21.3856 87.0099C21.2765 86.7844 21.22 86.524 21.2161 86.2285V85.9544C21.2161 85.4724 21.3271 85.0992 21.5492 84.8348C21.7752 84.5705 22.0908 84.4383 22.4961 84.4383C22.8312 84.4383 23.1 84.5238 23.3026 84.6949C23.5052 84.8659 23.6299 85.107 23.6767 85.418H23.2559C23.174 84.9981 22.9227 84.7882 22.5019 84.7882C22.2175 84.7882 22.0032 84.8873 21.859 85.0856C21.7148 85.28 21.6408 85.5657 21.6369 85.9428V86.1994C21.6369 86.557 21.7187 86.8427 21.8824 87.0566C22.046 87.2665 22.2681 87.3715 22.5487 87.3715C22.7045 87.3715 22.8409 87.354 22.9578 87.319C23.0786 87.284 23.1779 87.2237 23.2559 87.1382V86.4268H22.5194V86.0827H23.6767V87.249Z" fill="black"/>
<path d="M1.81784 92.9871C1.73602 93.0881 1.63471 93.1698 1.51392 93.232C1.39703 93.2903 1.26845 93.3194 1.12818 93.3194C0.945045 93.3194 0.785292 93.2747 0.648917 93.1853C0.512543 93.0959 0.407339 92.9696 0.333307 92.8063C0.259276 92.6391 0.22226 92.4564 0.22226 92.2581C0.22226 92.0482 0.261224 91.8577 0.339152 91.6867C0.420976 91.5156 0.535921 91.3854 0.683985 91.296C0.835945 91.2027 1.01128 91.156 1.21 91.156C1.52561 91.156 1.77303 91.2746 1.95227 91.5117C2.1354 91.7489 2.22696 92.0696 2.22696 92.4739V92.5905C2.22696 93.2125 2.10423 93.6654 1.85875 93.9492C1.61328 94.233 1.24312 94.3788 0.748275 94.3866H0.666451V94.0484H0.75412C1.08921 94.0406 1.34638 93.9531 1.52561 93.7859C1.70485 93.6188 1.80226 93.3525 1.81784 92.9871ZM1.19247 92.9871C1.32884 92.9871 1.45353 92.9462 1.56652 92.8646C1.68342 92.7791 1.76914 92.676 1.82369 92.5555V92.3923C1.82369 92.1279 1.76524 91.9121 1.64835 91.745C1.53145 91.5778 1.38534 91.4942 1.21 91.4942C1.03077 91.4942 0.886598 91.5623 0.777499 91.6983C0.672296 91.8344 0.619694 92.0152 0.619694 92.2406C0.619694 92.4583 0.670347 92.6372 0.771654 92.7771C0.876857 92.9171 1.01713 92.9871 1.19247 92.9871ZM4.88627 93.0279C4.88627 93.5022 4.80444 93.8559 4.64079 94.0892C4.48104 94.3185 4.22777 94.4332 3.88099 94.4332C3.542 94.4332 3.29069 94.3205 3.12704 94.095C2.96339 93.8695 2.87767 93.5313 2.86987 93.0804V92.5439C2.86987 92.0735 2.94975 91.7255 3.1095 91.5001C3.27315 91.2707 3.52837 91.156 3.87515 91.156C4.21803 91.156 4.4713 91.2668 4.63495 91.4884C4.7986 91.7061 4.88237 92.0443 4.88627 92.503V93.0279ZM4.47714 92.4739C4.47714 92.1318 4.42844 91.883 4.33103 91.7275C4.23751 91.5681 4.08555 91.4884 3.87515 91.4884C3.66864 91.4884 3.51668 91.5681 3.41927 91.7275C3.32575 91.883 3.279 92.1221 3.279 92.4447V93.092C3.279 93.4341 3.3277 93.6888 3.42511 93.8559C3.52642 94.0192 3.67838 94.1008 3.88099 94.1008C4.07971 94.1008 4.22777 94.0231 4.32518 93.8676C4.42259 93.7121 4.47325 93.4691 4.47714 93.1387V92.4739ZM5.52918 95.0222L5.30124 94.8647C5.43761 94.6743 5.50969 94.476 5.51749 94.2699V93.9084H5.91492V94.2233C5.91492 94.371 5.87791 94.5188 5.80387 94.6665C5.72984 94.8142 5.63828 94.9328 5.52918 95.0222ZM8.25277 93.0279C8.25277 93.5022 8.17095 93.8559 8.0073 94.0892C7.84754 94.3185 7.59428 94.4332 7.2475 94.4332C6.90851 94.4332 6.65719 94.3205 6.49354 94.095C6.32989 93.8695 6.24417 93.5313 6.23638 93.0804V92.5439C6.23638 92.0735 6.31625 91.7255 6.476 91.5001C6.63965 91.2707 6.89487 91.156 7.24165 91.156C7.58453 91.156 7.8378 91.2668 8.00145 91.4884C8.1651 91.7061 8.24887 92.0443 8.25277 92.503V93.0279ZM7.84365 92.4739C7.84365 92.1318 7.79494 91.883 7.69753 91.7275C7.60402 91.5681 7.45206 91.4884 7.24165 91.4884C7.03514 91.4884 6.88318 91.5681 6.78577 91.7275C6.69226 91.883 6.6455 92.1221 6.6455 92.4447V93.092C6.6455 93.4341 6.6942 93.6888 6.79161 93.8559C6.89292 94.0192 7.04488 94.1008 7.2475 94.1008C7.44621 94.1008 7.59428 94.0231 7.69169 93.8676C7.7891 93.7121 7.83975 93.4691 7.84365 93.1387V92.4739ZM8.83139 91.8149C8.83139 91.6245 8.89178 91.467 9.01257 91.3426C9.13726 91.2182 9.29506 91.156 9.48599 91.156C9.68081 91.156 9.83861 91.2182 9.9594 91.3426C10.0802 91.467 10.1406 91.6283 10.1406 91.8266V91.9841C10.1406 92.1746 10.0782 92.332 9.95356 92.4564C9.83277 92.5769 9.67886 92.6372 9.49183 92.6372C9.30091 92.6372 9.1431 92.5769 9.01842 92.4564C8.89373 92.332 8.83139 92.1687 8.83139 91.9666V91.8149ZM9.13531 91.9841C9.13531 92.0968 9.16648 92.1901 9.22882 92.264C9.29506 92.3378 9.38273 92.3748 9.49183 92.3748C9.59703 92.3748 9.68081 92.3398 9.74315 92.2698C9.80549 92.1959 9.83666 92.0968 9.83666 91.9724V91.8149C9.83666 91.7022 9.80549 91.6089 9.74315 91.535C9.68081 91.4573 9.59508 91.4184 9.48599 91.4184C9.37689 91.4184 9.29116 91.4573 9.22882 91.535C9.16648 91.6089 9.13531 91.7042 9.13531 91.8208V91.9841ZM10.3861 93.6052C10.3861 93.4147 10.4465 93.2592 10.5672 93.1387C10.6919 93.0143 10.8497 92.9521 11.0407 92.9521C11.2316 92.9521 11.3874 93.0143 11.5082 93.1387C11.6329 93.2592 11.6953 93.4205 11.6953 93.6227V93.7743C11.6953 93.9648 11.6349 94.1222 11.5141 94.2466C11.3933 94.371 11.2374 94.4332 11.0465 94.4332C10.8556 94.4332 10.6978 94.373 10.5731 94.2525C10.4484 94.1281 10.3861 93.9648 10.3861 93.7626V93.6052ZM10.69 93.7743C10.69 93.8909 10.7211 93.9862 10.7835 94.06C10.8497 94.1339 10.9374 94.1708 11.0465 94.1708C11.1517 94.1708 11.2355 94.1358 11.2978 94.0659C11.3602 93.992 11.3913 93.8929 11.3913 93.7685V93.6052C11.3913 93.4885 11.3582 93.3952 11.292 93.3253C11.2296 93.2514 11.1459 93.2145 11.0407 93.2145C10.9355 93.2145 10.8497 93.2514 10.7835 93.3253C10.7211 93.3952 10.69 93.4924 10.69 93.6168V93.7743ZM9.58534 94.1475L9.35156 94.0017L10.9121 91.5117L11.14 91.6575L9.58534 94.1475Z" fill="black"/>
<path d="M0 89.3483H40.5851H86.9452" stroke="black" stroke-miterlimit="10"/>
<path d="M87.6935 89.3482C87.6935 88.9359 87.3585 88.6017 86.9453 88.6017C86.5322 88.6017 86.1972 88.9359 86.1972 89.3482C86.1972 89.7604 86.5322 90.0946 86.9453 90.0946C87.3585 90.0946 87.6935 89.7604 87.6935 89.3482Z" fill="black"/>
<path d="M199.329 3.18392V0H200.375C200.722 0 200.981 0.0719198 201.152 0.21576C201.327 0.355713 201.415 0.565641 201.415 0.845546C201.415 0.997161 201.372 1.13128 201.287 1.24791C201.205 1.36065 201.09 1.44812 200.942 1.51032C201.117 1.55697 201.253 1.64833 201.351 1.78439C201.452 1.91657 201.503 2.07596 201.503 2.26257C201.503 2.55025 201.409 2.77572 201.222 2.939C201.039 3.10228 200.778 3.18392 200.439 3.18392H199.329ZM199.749 1.69692V2.83987H200.445C200.644 2.83987 200.799 2.78933 200.912 2.68825C201.025 2.58718 201.082 2.44723 201.082 2.2684C201.082 1.88742 200.872 1.69692 200.451 1.69692H199.749ZM199.749 1.35871H200.386C200.57 1.35871 200.716 1.314 200.825 1.22458C200.938 1.13128 200.994 1.00494 200.994 0.845546C200.994 0.670606 200.944 0.54426 200.842 0.466508C200.741 0.38487 200.585 0.34405 200.375 0.34405H199.749V1.35871ZM204.197 0V2.16343C204.193 2.46278 204.098 2.70964 203.911 2.90401C203.724 3.09451 203.47 3.20141 203.151 3.22474L203.034 3.23057C202.687 3.23057 202.409 3.13727 202.198 2.95067C201.992 2.76017 201.889 2.49971 201.889 2.16926V0H202.303V2.1576C202.303 2.38697 202.366 2.5658 202.491 2.69409C202.619 2.82238 202.8 2.88652 203.034 2.88652C203.276 2.88652 203.459 2.82238 203.583 2.69409C203.708 2.5658 203.77 2.38697 203.77 2.1576V0H204.197ZM206.114 1.89519H205.36V3.18392H204.939V0H205.997C206.356 0 206.63 0.081639 206.821 0.244917C207.016 0.408195 207.114 0.645337 207.114 0.956342C207.114 1.15461 207.059 1.32761 206.95 1.47533C206.845 1.62306 206.697 1.73386 206.506 1.80772L207.254 3.15476V3.18392H206.804L206.114 1.89519ZM205.36 1.55114H206.009C206.219 1.55114 206.385 1.49866 206.506 1.39369C206.63 1.28484 206.693 1.13906 206.693 0.956342C206.693 0.761964 206.634 0.612292 206.517 0.507328C206.401 0.402363 206.231 0.347937 206.009 0.34405H205.36V1.55114ZM210.013 3.18392H209.592L207.984 0.728919V3.18392H207.558V0H207.984L209.592 2.46666V0H210.013V3.18392Z" fill="black"/>
<path d="M201.655 8.30374L201.818 6.71761H203.455V7.09082H202.163L202.064 7.95969C202.223 7.86639 202.403 7.81974 202.601 7.81974C202.89 7.81974 203.12 7.91693 203.291 8.1113C203.463 8.3018 203.548 8.56032 203.548 8.88687C203.548 9.21343 203.459 9.47195 203.279 9.66244C203.104 9.85294 202.857 9.94818 202.537 9.94818C202.257 9.94818 202.027 9.87043 201.847 9.71493C201.668 9.55554 201.567 9.33783 201.544 9.06181H201.923C201.951 9.24453 202.017 9.38254 202.122 9.47584C202.227 9.56914 202.366 9.61579 202.537 9.61579C202.724 9.61579 202.872 9.55165 202.981 9.42336C203.09 9.29507 203.145 9.11818 203.145 8.89271C203.145 8.67889 203.087 8.50784 202.97 8.37955C202.853 8.25126 202.697 8.18711 202.502 8.18711C202.327 8.18711 202.188 8.22404 202.087 8.29791L201.982 8.38538L201.655 8.30374ZM204.115 10.5371L203.887 10.3797C204.024 10.1892 204.096 9.99094 204.104 9.7849V9.42336H204.501V9.73825C204.501 9.88598 204.464 10.0337 204.39 10.1814C204.316 10.3292 204.224 10.4477 204.115 10.5371ZM206.839 8.54282C206.839 9.01711 206.757 9.37088 206.593 9.60413C206.434 9.8335 206.18 9.94818 205.834 9.94818C205.495 9.94818 205.243 9.83544 205.08 9.60996C204.916 9.38448 204.83 9.04627 204.822 8.59531V8.05882C204.822 7.58843 204.902 7.24049 205.062 7.01501C205.226 6.78564 205.481 6.67096 205.828 6.67096C206.171 6.67096 206.424 6.78176 206.587 7.00335C206.751 7.22105 206.835 7.55927 206.839 8.018V8.54282ZM206.43 7.98885C206.43 7.64674 206.381 7.39794 206.284 7.24243C206.19 7.08304 206.038 7.00335 205.828 7.00335C205.621 7.00335 205.469 7.08304 205.372 7.24243C205.278 7.39794 205.232 7.63702 205.232 7.95969V8.60697C205.232 8.94908 205.28 9.20371 205.378 9.37088C205.479 9.53415 205.631 9.61579 205.834 9.61579C206.032 9.61579 206.18 9.53804 206.278 9.38254C206.375 9.22704 206.426 8.98406 206.43 8.65362V7.98885ZM207.417 7.3299C207.417 7.13941 207.478 6.98197 207.599 6.85756C207.723 6.73316 207.881 6.67096 208.072 6.67096C208.267 6.67096 208.425 6.73316 208.545 6.85756C208.666 6.98197 208.727 7.1433 208.727 7.34157V7.49901C208.727 7.6895 208.664 7.84695 208.54 7.97135C208.419 8.09187 208.265 8.15212 208.078 8.15212C207.887 8.15212 207.729 8.09187 207.604 7.97135C207.48 7.84695 207.417 7.68367 207.417 7.48152V7.3299ZM207.721 7.49901C207.721 7.61175 207.753 7.70505 207.815 7.77892C207.881 7.85278 207.969 7.88971 208.078 7.88971C208.183 7.88971 208.267 7.85472 208.329 7.78475C208.392 7.71088 208.423 7.61175 208.423 7.48735V7.3299C208.423 7.21716 208.392 7.12386 208.329 7.05C208.267 6.97225 208.181 6.93337 208.072 6.93337C207.963 6.93337 207.877 6.97225 207.815 7.05C207.753 7.12386 207.721 7.21911 207.721 7.33573V7.49901ZM208.972 9.12013C208.972 8.92964 209.032 8.77413 209.153 8.65362C209.278 8.52922 209.436 8.46702 209.627 8.46702C209.818 8.46702 209.973 8.52922 210.094 8.65362C210.219 8.77413 210.281 8.93547 210.281 9.13762V9.28924C210.281 9.47973 210.221 9.63718 210.1 9.76158C209.979 9.88598 209.823 9.94818 209.633 9.94818C209.442 9.94818 209.284 9.88792 209.159 9.76741C209.034 9.64301 208.972 9.47973 208.972 9.27758V9.12013ZM209.276 9.28924C209.276 9.40586 209.307 9.50111 209.37 9.57497C209.436 9.64884 209.523 9.68577 209.633 9.68577C209.738 9.68577 209.821 9.65078 209.884 9.58081C209.946 9.50694 209.977 9.40781 209.977 9.28341V9.12013C209.977 9.0035 209.944 8.9102 209.878 8.84022C209.816 8.76636 209.732 8.72943 209.627 8.72943C209.521 8.72943 209.436 8.76636 209.37 8.84022C209.307 8.9102 209.276 9.00739 209.276 9.13179V9.28924ZM208.171 9.66244L207.938 9.51666L209.498 7.02667L209.726 7.17246L208.171 9.66244Z" fill="black"/>
<path d="M210.556 4.86328H169.971L114.559 9.01823" stroke="black" stroke-miterlimit="10"/>
<path d="M115.307 9.01814C115.307 8.60591 114.972 8.27173 114.559 8.27173C114.146 8.27173 113.811 8.60591 113.811 9.01814C113.811 9.43037 114.146 9.76456 114.559 9.76456C114.972 9.76456 115.307 9.43037 115.307 9.01814Z" fill="black"/>
<path d="M194.361 14.6657H193.022L192.724 15.4996H192.292L193.507 12.3157H193.876L195.097 15.4996H194.665L194.361 14.6657ZM193.151 14.3217H194.238L193.694 12.8347L193.151 14.3217ZM196.044 15.4996H195.623V12.3157H196.044V15.4996ZM197.885 14.2109H197.131V15.4996H196.71V12.3157H197.768C198.127 12.3157 198.401 12.3973 198.592 12.5606C198.787 12.7239 198.884 12.961 198.884 13.272C198.884 13.4703 198.83 13.6433 198.721 13.791C198.616 13.9388 198.468 14.0495 198.277 14.1234L199.025 15.4705V15.4996H198.575L197.885 14.2109ZM197.131 13.8668H197.78C197.99 13.8668 198.156 13.8144 198.277 13.7094C198.401 13.6005 198.464 13.4548 198.464 13.272C198.464 13.0777 198.405 12.928 198.288 12.823C198.171 12.7181 198.002 12.6636 197.78 12.6597H197.131V13.8668ZM199.329 15.4996V12.3157H200.235C200.511 12.3157 200.755 12.3779 200.965 12.5023C201.179 12.6228 201.345 12.7958 201.462 13.0213C201.579 13.2468 201.637 13.5072 201.637 13.8027V14.001C201.637 14.3042 201.579 14.5685 201.462 14.794C201.349 15.0195 201.183 15.1925 200.965 15.313C200.751 15.4335 200.501 15.4957 200.217 15.4996H199.329ZM199.749 12.6597V15.1556H200.194C200.517 15.1556 200.768 15.0564 200.948 14.8582C201.131 14.656 201.222 14.3683 201.222 13.9951V13.8085C201.222 13.447 201.137 13.1671 200.965 12.9688C200.798 12.7667 200.556 12.6636 200.24 12.6597H199.749ZM203.496 14.2109H202.742V15.4996H202.321V12.3157H203.379C203.737 12.3157 204.012 12.3973 204.203 12.5606C204.398 12.7239 204.495 12.961 204.495 13.272C204.495 13.4703 204.441 13.6433 204.332 13.791C204.226 13.9388 204.078 14.0495 203.887 14.1234L204.636 15.4705V15.4996H204.186L203.496 14.2109ZM202.742 13.8668H203.391C203.601 13.8668 203.767 13.8144 203.887 13.7094C204.012 13.6005 204.074 13.4548 204.074 13.272C204.074 13.0777 204.016 12.928 203.899 12.823C203.782 12.7181 203.613 12.6636 203.391 12.6597H202.742V13.8668ZM207.394 14.0126C207.394 14.3236 207.342 14.5958 207.236 14.829C207.131 15.0584 206.981 15.2353 206.786 15.3597C206.595 15.4841 206.371 15.5463 206.114 15.5463C205.865 15.5463 205.643 15.4841 205.448 15.3597C205.253 15.2353 205.101 15.0603 204.992 14.8348C204.887 14.6055 204.832 14.3392 204.828 14.0359V13.8085C204.828 13.5014 204.881 13.2312 204.986 12.998C205.095 12.7647 205.247 12.5859 205.442 12.4615C205.637 12.3332 205.861 12.269 206.114 12.269C206.368 12.269 206.592 12.3312 206.786 12.4556C206.981 12.58 207.131 12.7589 207.236 12.9921C207.342 13.2254 207.394 13.4975 207.394 13.8085V14.0126ZM206.979 13.8027C206.979 13.4256 206.903 13.136 206.751 12.9338C206.599 12.7317 206.387 12.6306 206.114 12.6306C205.845 12.6306 205.635 12.7317 205.483 12.9338C205.331 13.136 205.253 13.4159 205.249 13.7735V14.0126C205.249 14.378 205.325 14.6657 205.477 14.8757C205.633 15.0817 205.845 15.1847 206.114 15.1847C206.387 15.1847 206.597 15.0875 206.745 14.8932C206.897 14.6949 206.975 14.4111 206.979 14.0418V13.8027ZM208.353 14.2517V15.4996H207.932V12.3157H209.113C209.459 12.3157 209.732 12.4051 209.931 12.5839C210.13 12.7589 210.229 12.9941 210.229 13.2895C210.229 13.5966 210.131 13.8338 209.937 14.001C209.746 14.1681 209.469 14.2517 209.107 14.2517H208.353ZM208.353 13.9077H209.113C209.339 13.9077 209.51 13.8552 209.627 13.7502C209.748 13.6452 209.808 13.4936 209.808 13.2954C209.808 13.1049 209.748 12.9533 209.627 12.8405C209.51 12.7239 209.346 12.6636 209.136 12.6597H208.353V13.9077Z" fill="black"/>
<path d="M201.655 20.6197L201.818 19.0335H203.455V19.4067H202.163L202.064 20.2756C202.223 20.1823 202.403 20.1357 202.601 20.1357C202.89 20.1357 203.12 20.2328 203.291 20.4272C203.463 20.6177 203.548 20.8762 203.548 21.2028C203.548 21.5293 203.459 21.7879 203.279 21.9784C203.104 22.1689 202.857 22.2641 202.537 22.2641C202.257 22.2641 202.027 22.1863 201.847 22.0308C201.668 21.8715 201.567 21.6537 201.544 21.3777H201.923C201.951 21.5604 202.017 21.6985 202.122 21.7918C202.227 21.8851 202.366 21.9317 202.537 21.9317C202.724 21.9317 202.872 21.8676 202.981 21.7393C203.09 21.611 203.145 21.4341 203.145 21.2086C203.145 20.9948 203.087 20.8238 202.97 20.6955C202.853 20.5672 202.697 20.503 202.502 20.503C202.327 20.503 202.188 20.54 202.087 20.6138L201.982 20.7013L201.655 20.6197ZM204.115 22.8531L203.887 22.6956C204.024 22.5051 204.096 22.3069 204.104 22.1008V21.7393H204.501V22.0542C204.501 22.2019 204.464 22.3496 204.39 22.4974C204.316 22.6451 204.224 22.7637 204.115 22.8531ZM206.839 20.8587C206.839 21.333 206.757 21.6868 206.593 21.92C206.434 22.1494 206.18 22.2641 205.834 22.2641C205.495 22.2641 205.243 22.1514 205.08 21.9259C204.916 21.7004 204.83 21.3622 204.822 20.9112V20.3747C204.822 19.9043 204.902 19.5564 205.062 19.3309C205.226 19.1016 205.481 18.9869 205.828 18.9869C206.171 18.9869 206.424 19.0977 206.587 19.3193C206.751 19.537 206.835 19.8752 206.839 20.3339V20.8587ZM206.43 20.3048C206.43 19.9627 206.381 19.7139 206.284 19.5584C206.19 19.399 206.038 19.3193 205.828 19.3193C205.621 19.3193 205.469 19.399 205.372 19.5584C205.278 19.7139 205.232 19.9529 205.232 20.2756V20.9229C205.232 21.265 205.28 21.5196 205.378 21.6868C205.479 21.8501 205.631 21.9317 205.834 21.9317C206.032 21.9317 206.18 21.854 206.278 21.6985C206.375 21.543 206.426 21.3 206.43 20.9695V20.3048ZM207.417 19.6458C207.417 19.4553 207.478 19.2979 207.599 19.1735C207.723 19.0491 207.881 18.9869 208.072 18.9869C208.267 18.9869 208.425 19.0491 208.545 19.1735C208.666 19.2979 208.727 19.4592 208.727 19.6575V19.8149C208.727 20.0054 208.664 20.1629 208.54 20.2873C208.419 20.4078 208.265 20.468 208.078 20.468C207.887 20.468 207.729 20.4078 207.604 20.2873C207.48 20.1629 207.417 19.9996 207.417 19.7974V19.6458ZM207.721 19.8149C207.721 19.9277 207.753 20.021 207.815 20.0948C207.881 20.1687 207.969 20.2056 208.078 20.2056C208.183 20.2056 208.267 20.1706 208.329 20.1007C208.392 20.0268 208.423 19.9277 208.423 19.8033V19.6458C208.423 19.5331 208.392 19.4398 208.329 19.3659C208.267 19.2882 208.181 19.2493 208.072 19.2493C207.963 19.2493 207.877 19.2882 207.815 19.3659C207.753 19.4398 207.721 19.535 207.721 19.6517V19.8149ZM208.972 21.436C208.972 21.2456 209.032 21.0901 209.153 20.9695C209.278 20.8451 209.436 20.7829 209.627 20.7829C209.818 20.7829 209.973 20.8451 210.094 20.9695C210.219 21.0901 210.281 21.2514 210.281 21.4535V21.6052C210.281 21.7956 210.221 21.9531 210.1 22.0775C209.979 22.2019 209.823 22.2641 209.633 22.2641C209.442 22.2641 209.284 22.2038 209.159 22.0833C209.034 21.9589 208.972 21.7956 208.972 21.5935V21.436ZM209.276 21.6052C209.276 21.7218 209.307 21.817 209.37 21.8909C209.436 21.9648 209.523 22.0017 209.633 22.0017C209.738 22.0017 209.821 21.9667 209.884 21.8967C209.946 21.8229 209.977 21.7237 209.977 21.5993V21.436C209.977 21.3194 209.944 21.2261 209.878 21.1561C209.816 21.0823 209.732 21.0453 209.627 21.0453C209.521 21.0453 209.436 21.0823 209.37 21.1561C209.307 21.2261 209.276 21.3233 209.276 21.4477V21.6052ZM208.171 21.9784L207.938 21.8326L209.498 19.3426L209.726 19.4884L208.171 21.9784Z" fill="black"/>
<path d="M210.556 17.179H169.971L132.211 13.024" stroke="black" stroke-miterlimit="10"/>
<path d="M132.96 13.0244C132.96 12.6121 132.625 12.278 132.212 12.278C131.799 12.278 131.464 12.6121 131.464 13.0244C131.464 13.4366 131.799 13.7708 132.212 13.7708C132.625 13.7708 132.96 13.4366 132.96 13.0244Z" fill="black"/>
</svg>
