<svg width="105" height="105" viewBox="0 0 105 105" fill="none" xmlns="http://www.w3.org/2000/svg">
<circle cx="52.5" cy="52.5" r="52.5" fill="black"/>
<path d="M81.1611 60.574C79.7732 61.4221 78.154 61.5764 76.9203 60.8824C75.3782 59.9571 74.4529 57.8753 74.4529 55.0224V46.3095C74.4529 42.1458 72.8337 39.1387 70.0579 38.3676C65.3545 36.9797 61.8077 42.7626 60.4969 44.9216L52.1695 58.2608V41.8374C52.0924 38.0592 50.8587 35.8232 48.5456 35.1292C47.0034 34.6666 44.6903 34.8979 42.4542 38.2906L23.8718 68.0532C21.4045 63.3498 20.0937 58.1066 20.0937 52.7863C20.0937 34.8208 34.5124 20.2479 52.1695 20.2479C69.8266 20.2479 84.2453 34.8208 84.2453 52.7863V52.8635V52.9406C84.3995 56.4103 83.32 59.1861 81.1611 60.574ZM91.339 52.7863V52.7092V52.6321C91.2619 30.8113 73.6819 13 52.1695 13C30.58 13 13 30.8113 13 52.7863C13 74.6843 30.58 92.5727 52.1695 92.5727C62.1161 92.5727 71.5229 88.7945 78.7708 81.9321C80.2358 80.5442 80.3129 78.3082 78.925 76.8432C77.6143 75.3782 75.3782 75.3011 73.9132 76.6119C73.9132 76.6119 73.9132 76.6119 73.8361 76.689C67.9761 82.2406 60.1113 85.4019 52.0153 85.4019C42.5313 85.4019 34.0498 81.2382 28.1897 74.6071L44.9216 47.7745V60.1885C44.9216 66.1256 47.2348 68.0532 49.1624 68.5929C51.09 69.1327 54.02 68.7472 57.1813 63.7353L66.3569 48.854C66.6653 48.3913 66.8966 47.9287 67.205 47.6203V55.1766C67.205 60.7282 69.4411 65.2003 73.2964 67.3592C76.7661 69.364 81.1611 69.1327 84.7851 66.8966C89.2572 63.9666 91.6474 58.8777 91.339 52.7863Z" fill="white"/>
</svg>
