<svg width="105" height="105" viewBox="0 0 105 105" fill="none" xmlns="http://www.w3.org/2000/svg">
<circle cx="52.5" cy="52.5" r="52.5" fill="black"/>
<g clip-path="url(#clip0_3_72)">
<path fill-rule="evenodd" clip-rule="evenodd" d="M43.5185 19.3373C39.0022 21.6932 35.3072 23.6867 35.308 23.7677C35.31 23.977 46.1473 29.4729 46.532 29.4595C46.707 29.4536 47.9763 28.8686 49.3525 28.1595L51.8552 26.8705L54.5885 28.2773L57.3216 29.6845L61.7977 27.6705C68.5421 24.6357 69.2426 24.3031 69.1328 24.1914C68.9871 24.0431 66.568 22.7418 60.0048 19.2818C56.8329 17.6095 53.7543 15.97 53.1633 15.6382C52.5724 15.3064 52.0082 15.0395 51.9096 15.0447C51.8111 15.0499 48.0349 16.9816 43.5185 19.3373ZM23.7099 29.6088L19.0085 32.0406V42.7131C19.0085 48.583 19.0702 53.3855 19.1459 53.3855C19.2214 53.3855 21.5345 52.3815 24.2861 51.1543L29.289 48.923V37.6735L31.7337 39.0072C33.6176 40.034 35.5026 41.0588 37.3887 42.0814L40.5989 43.8219L42.0274 43.1751C42.9232 42.7688 43.8173 42.3585 44.7096 41.9443C45.3991 41.6228 47.0916 40.8594 48.4707 40.2476C49.8497 39.6356 51.1263 39.0201 51.3073 38.8798C51.5478 38.6935 48.6157 37.071 40.4622 32.8783C34.3163 29.718 29.0906 27.1423 28.8496 27.1546C28.6087 27.167 26.2958 28.2712 23.7099 29.6088ZM69.9801 30.2917C66.7781 31.7392 64.1561 32.9813 64.1531 33.0522C64.1503 33.1229 65.8955 34.162 68.0315 35.3609C70.1674 36.56 71.9151 37.6053 71.9151 37.684C71.9151 37.7625 70.025 38.6796 67.7152 39.7222C65.405 40.7647 59.566 43.4052 54.7393 45.5901L38.5664 52.9104C34.4981 54.752 30.831 56.4119 30.4173 56.5996C22.1076 60.3664 19.8236 61.4116 19.51 61.591C19.1946 61.7716 19.1231 62.8211 19.067 68.0882L19 74.3702L23.2043 76.5153L27.4084 78.6602L33.2381 76.0257C36.4446 74.5768 39.0679 73.3154 39.0679 73.2225C39.0679 73.1299 38.4754 72.7433 37.7515 72.3631C37.0273 71.9829 35.5324 71.1412 34.4291 70.4924C33.3259 69.8435 32.2259 69.2482 31.9844 69.1692C31.743 69.0905 31.5489 68.9527 31.5529 68.8629C31.5569 68.7733 34.124 67.5523 37.2573 66.1493C43.343 63.4246 48.0003 61.3246 57.9989 56.7969C62.4699 54.7727 66.9415 52.7498 71.4136 50.728C75.344 48.9516 79.9137 46.8768 81.5687 46.1175L84.5776 44.7369L84.6445 38.3833L84.7117 32.0301L80.4476 29.8384C78.1022 28.6331 76.0975 27.6499 75.9923 27.6535C75.8873 27.6568 73.1818 28.8439 69.9801 30.2917ZM83.4351 53.2129C82.8068 53.5202 81.5656 54.0956 80.677 54.4915C79.7884 54.8874 78.1022 55.6493 76.9299 56.1849L74.7986 57.1583L74.75 62.7361C74.7231 65.8038 74.6103 68.3002 74.4993 68.284C74.247 68.2465 70.2524 66.1951 66.237 64.0405C63.3389 62.4857 63.1569 62.4239 62.4759 62.7616C62.0822 62.957 59.729 64.0137 57.2467 65.1104C54.7643 66.207 52.6524 67.1758 52.553 67.2635C52.454 67.3511 57.45 70.0626 63.6556 73.2894L74.9383 79.1563L79.7581 76.6596C82.4086 75.2867 84.6626 74.0343 84.7663 73.8768C85 73.5226 84.98 52.6054 84.7461 52.6337C84.6535 52.6448 84.0635 52.9055 83.4351 53.2129ZM56.7452 77.7643C55.9092 78.1242 55.0734 78.4847 54.2378 78.8456C51.7145 79.9387 52.209 79.975 49.2071 78.4786C47.2077 77.4819 46.3459 77.1744 45.9718 77.3237C45.6912 77.4356 43.2763 78.5236 40.6049 79.7413C37.9337 80.959 35.6555 81.9553 35.5422 81.9553C34.4214 81.9553 36.2846 83.07 43.4745 86.7017L51.9064 90.9604L55.4541 89.2066C57.4054 88.2419 61.341 86.3102 64.2002 84.914C67.0592 83.5174 69.363 82.3385 69.3199 82.2941C69.2765 82.2497 66.8809 81.0179 63.9962 79.5567L58.7512 76.9003L56.7452 77.7643Z" fill="white"/>
</g>
<defs>
<clipPath id="clip0_3_72">
<rect width="66" height="76" fill="white" transform="translate(19 15)"/>
</clipPath>
</defs>
</svg>
