<svg width="574" height="699" viewBox="0 0 574 699" fill="none" xmlns="http://www.w3.org/2000/svg">
<path fill-rule="evenodd" clip-rule="evenodd" d="M283.636 18.6745C285.305 17.7752 287.314 17.7752 288.984 18.6745L462.346 112.074C464.171 113.057 465.31 114.964 465.31 117.037V157.066C465.31 160.179 462.785 162.703 459.672 162.703H112.947C109.834 162.703 107.31 160.179 107.31 157.066V117.037C107.31 114.964 108.448 113.057 110.273 112.074L283.636 18.6745ZM118.585 120.404V151.428H454.034V120.404L286.31 30.0417L118.585 120.404Z" fill="#54FF65"/>
<path fill-rule="evenodd" clip-rule="evenodd" d="M374.165 156.638C374.165 153.524 376.689 151 379.803 151H433.362C436.476 151 439 153.524 439 156.638V290.066C439 293.179 436.476 295.703 433.362 295.703H379.803C376.689 295.703 374.165 293.179 374.165 290.066V156.638ZM385.441 162.276V284.428H427.724V162.276H385.441Z" fill="#54FF65"/>
<path fill-rule="evenodd" clip-rule="evenodd" d="M134.559 156.638C134.559 153.524 137.083 151 140.196 151H193.755C196.869 151 199.393 153.524 199.393 156.638V290.066C199.393 293.179 196.869 295.703 193.755 295.703H140.196C137.083 295.703 134.559 293.179 134.559 290.066V156.638ZM145.834 162.276V284.428H188.118V162.276H145.834Z" fill="#54FF65"/>
<path fill-rule="evenodd" clip-rule="evenodd" d="M107.31 290.493C107.31 287.38 109.834 284.856 112.947 284.856H459.672C462.785 284.856 465.31 287.38 465.31 290.493V329.958C465.31 333.072 462.785 335.596 459.672 335.596H112.947C109.834 335.596 107.31 333.072 107.31 329.958V290.493ZM118.585 296.131V324.32H454.034V296.131H118.585Z" fill="#54FF65"/>
<path fill-rule="evenodd" clip-rule="evenodd" d="M81 329.958C81 326.844 83.5241 324.32 86.6378 324.32H486.921C490.035 324.32 492.559 326.844 492.559 329.958V370.362C492.559 373.476 490.035 376 486.921 376H86.6378C83.5241 376 81 373.476 81 370.362V329.958ZM92.2756 335.596V364.724H481.283V335.596H92.2756Z" fill="#54FF65"/>
<path fill-rule="evenodd" clip-rule="evenodd" d="M294.053 249.809L284.102 222.879C283.96 222.483 283.946 222.045 284.102 221.635C284.44 220.701 285.472 220.221 286.42 220.56L313.152 230.442C313.491 229.338 313.76 228.207 313.972 227.062C314.269 225.366 314.438 223.599 314.438 221.775C314.438 213.647 311.144 206.267 305.815 200.938C300.486 195.622 293.121 192.315 284.978 192.315C276.849 192.315 269.484 195.622 264.14 200.938C258.825 206.267 255.517 213.647 255.517 221.775C255.517 229.904 258.825 237.269 264.155 242.598C269.484 247.928 276.849 251.236 284.978 251.236C286.873 251.236 288.696 251.052 290.462 250.727C291.679 250.502 292.881 250.192 294.053 249.809ZM313.223 249.682C309.293 253.599 304.528 256.694 299.241 258.645C298.308 258.998 297.262 258.503 296.923 257.57L295.311 253.201C293.953 253.654 292.554 254.007 291.127 254.276C289.12 254.657 287.07 254.856 284.977 254.856C275.844 254.856 267.575 251.152 261.595 245.158C255.602 239.178 251.897 230.908 251.897 221.776C251.897 212.658 255.602 204.402 261.567 198.422L261.595 198.394C267.589 192.4 275.858 188.697 284.977 188.697C294.096 188.697 302.351 192.4 308.33 198.366L308.359 198.38C314.352 204.374 318.057 212.644 318.057 221.776C318.057 223.77 317.872 225.749 317.519 227.7C317.279 229.057 316.939 230.4 316.544 231.686L321.11 233.383C322.043 233.722 322.523 234.768 322.183 235.701C320.233 240.989 317.151 245.738 313.25 249.655L313.223 249.682ZM299.666 254.588C303.794 252.806 307.526 250.261 310.664 247.138L310.707 247.094C313.817 243.971 316.36 240.253 318.128 236.124L313.66 234.485L313.618 234.456L313.576 234.442L288.851 225.309L298.039 250.205L298.067 250.246L298.081 250.29L299.666 254.588ZM255.786 255.039C263.802 263.056 274.87 268.017 287.099 268.017C299.326 268.017 310.396 263.056 318.411 255.039C326.427 247.024 331.389 235.956 331.389 223.727C331.389 211.499 326.427 200.43 318.411 192.415C310.396 184.413 299.326 179.451 287.099 179.451C274.87 179.451 263.802 184.412 255.786 192.415C247.771 200.43 242.822 211.499 242.822 223.727C242.822 235.956 247.771 247.024 255.786 255.039ZM287.099 271.495C273.909 271.495 261.978 266.138 253.327 257.5C244.688 248.862 239.345 236.916 239.345 223.728C239.345 210.553 244.688 198.607 253.327 189.956C261.978 181.318 273.91 175.974 287.099 175.974C300.288 175.974 312.234 181.318 320.871 189.956C329.508 198.607 334.866 210.539 334.866 223.728C334.866 236.916 329.508 248.863 320.871 257.5C312.233 266.137 300.288 271.495 287.099 271.495ZM324.363 186.478C323.683 185.799 323.683 184.696 324.363 184.018C325.026 183.34 326.144 183.34 326.808 184.018C337.777 194.988 343.263 209.365 343.263 223.728C343.263 238.105 337.777 252.482 326.808 263.452C326.144 264.116 325.026 264.116 324.363 263.452C323.683 262.773 323.683 261.67 324.363 260.993C334.639 250.701 339.785 237.215 339.785 223.728C339.785 210.241 334.64 196.768 324.363 186.478ZM249.849 260.991C250.527 261.67 250.527 262.773 249.849 263.45C249.17 264.114 248.067 264.114 247.388 263.45C236.419 252.48 230.934 238.104 230.934 223.726C230.934 209.363 236.419 194.987 247.388 184.017C248.068 183.338 249.17 183.338 249.849 184.017C250.527 184.696 250.527 185.798 249.849 186.476C239.557 196.768 234.411 210.24 234.411 223.726C234.412 237.214 239.557 250.7 249.849 260.991ZM202.336 193.969C202.676 193.136 202.138 192.118 201.417 191.82C200.357 191.397 199.438 191.891 199.056 192.839L197.954 196.189C197.289 197.842 199.905 199.582 201.163 197.489C201.6 196.416 201.94 195.101 202.336 193.969ZM224.784 183.791C205.191 193.136 187.393 206.777 172.211 223.727C187.394 240.691 205.191 254.318 224.784 263.677C244.053 272.88 265.088 277.926 287.099 277.926C309.123 277.926 330.145 272.88 349.412 263.677C357.753 259.704 365.754 254.954 373.374 249.498C373.22 249.654 373.091 249.851 372.993 250.105C372.582 251.194 372.258 252.382 371.862 253.485C371.522 254.333 372.074 255.351 372.78 255.634C373.84 256.058 374.774 255.563 375.155 254.63L376.258 251.28C376.865 249.739 375.014 248.607 373.784 249.202C383.934 241.893 393.392 233.354 402 223.727C386.818 206.777 369.019 193.136 349.412 183.791C330.145 174.588 309.124 169.528 287.099 169.528C265.088 169.528 244.053 174.589 224.784 183.791Z" fill="#54FF65"/>
<g clip-path="url(#clip0_60_2186)">
<path d="M286.292 0.506135C287.096 7.42843 285.981 15.8216 285.907 22.9205C285.828 30.2962 283.303 41.3519 286.508 48.1582C286.972 49.1388 288.62 49.1256 289.089 48.1582C292.611 40.8457 290.425 28.4484 290.412 20.469C290.399 13.1434 290.526 6.74305 287.254 0.245165C287.03 -0.19242 286.234 -0.00526013 286.292 0.506135Z" fill="#54FF65"/>
<path d="M286.292 383.615C287.096 390.537 285.981 398.931 285.907 406.03C285.828 413.405 283.303 424.458 286.508 431.267C286.972 432.248 288.62 432.235 289.089 431.267C292.608 423.955 290.425 411.557 290.412 403.575C290.399 396.25 290.526 389.852 287.254 383.354C287.03 382.917 286.234 383.104 286.292 383.615Z" fill="#54FF65"/>
<path d="M502.494 214.314C495.572 215.118 487.178 214.003 480.08 213.929C472.704 213.853 461.648 211.325 454.842 214.53C453.859 214.994 453.872 216.642 454.842 217.111C462.154 220.633 474.554 218.45 482.534 218.434C489.859 218.419 496.26 218.548 502.755 215.279C503.192 215.052 503.005 214.254 502.494 214.314Z" fill="#54FF65"/>
<path d="M119.385 214.314C112.462 215.118 104.072 214.003 96.9701 213.929C89.5971 213.853 78.5414 211.325 71.7325 214.53C70.7493 214.994 70.7624 216.642 71.7325 217.111C79.0476 220.633 91.445 218.45 99.4217 218.434C106.747 218.419 113.145 218.548 119.643 215.279C120.083 215.052 119.896 214.254 119.385 214.314Z" fill="#54FF65"/>
<path d="M440.261 366.615C438.36 365.157 436.639 362.311 434.91 360.502C431.53 356.965 427.832 353.693 424.413 350.187C421.163 346.853 417.963 343.468 414.755 340.091C412.443 337.655 409.923 334.028 406.535 333.158C405.42 332.871 404.421 333.883 404.698 334.993C405.544 338.365 409.095 341.001 411.438 343.405C415.1 347.164 418.761 350.92 422.473 354.629C427.843 359.999 432.609 365.289 439.866 367.556C440.469 367.746 440.691 366.945 440.261 366.615Z" fill="#54FF65"/>
<path d="M169.365 95.7153C167.464 94.2602 165.74 91.4106 164.011 89.6023C160.631 86.0647 156.936 82.796 153.514 79.2874C150.261 75.9528 147.064 72.5681 143.858 69.1939C141.544 66.7582 139.024 63.131 135.639 62.2611C134.524 61.9738 133.525 62.986 133.802 64.0958C134.648 67.4673 138.198 70.1034 140.542 72.5075C144.203 76.2665 147.865 80.0229 151.574 83.7318C156.943 89.1014 161.709 94.392 168.967 96.659C169.573 96.8462 169.794 96.0448 169.365 95.7153Z" fill="#54FF65"/>
<path d="M136.384 368.284C137.842 366.383 140.689 364.662 142.5 362.933C146.037 359.553 149.309 355.855 152.815 352.436C156.149 349.186 159.534 345.985 162.911 342.777C165.347 340.465 168.974 337.945 169.844 334.561C170.131 333.446 169.119 332.447 168.006 332.726C164.635 333.57 161.999 337.123 159.595 339.466C155.838 343.128 152.079 346.789 148.37 350.501C143.001 355.871 137.71 360.637 135.443 367.894C135.256 368.489 136.055 368.714 136.384 368.284Z" fill="#54FF65"/>
<path d="M407.285 97.3839C408.742 95.4807 411.589 93.762 413.4 92.0327C416.935 88.6533 420.209 84.9549 423.715 81.5359C427.05 78.2857 430.434 75.0855 433.811 71.8801C436.247 69.5656 439.874 67.0455 440.744 63.6608C441.031 62.5458 440.019 61.5441 438.907 61.8261C435.535 62.6723 432.899 66.2231 430.495 68.5665C426.739 72.228 422.98 75.8895 419.271 79.6011C413.901 84.9681 408.608 89.7367 406.343 96.9938C406.156 97.5895 406.955 97.8136 407.285 97.3839Z" fill="#54FF65"/>
<path d="M370.564 17.2767C368.685 23.7245 364.359 31.0923 361.62 37.3398C358.807 43.7639 351.542 53.7677 352.112 60.951C352.22 62.3138 353.627 62.8437 354.661 62.0054C357.526 59.6857 358.662 55.2782 360.117 51.9778C362.237 47.1749 364.346 42.3694 366.394 37.5322C369.267 30.7444 372.077 24.7104 371.576 17.4112C371.537 16.8444 370.733 16.6994 370.564 17.2767Z" fill="#54FF65"/>
<path d="M220.532 369.784C218.653 376.232 214.327 383.599 211.588 389.847C208.773 396.271 201.511 406.275 202.077 413.461C202.185 414.824 203.593 415.353 204.626 414.515C207.492 412.193 208.628 407.785 210.083 404.485C212.202 399.682 214.311 394.874 216.359 390.039C219.233 383.251 222.043 377.217 221.542 369.918C221.505 369.351 220.701 369.207 220.532 369.784Z" fill="#54FF65"/>
<path d="M485.723 298.584C479.275 296.704 471.908 292.379 465.66 289.64C459.236 286.827 449.23 279.562 442.046 280.129C440.684 280.237 440.154 281.644 440.992 282.678C443.312 285.546 447.722 286.677 451.022 288.134C455.825 290.256 460.633 292.363 465.468 294.411C472.256 297.287 478.292 300.094 485.589 299.596C486.158 299.559 486.301 298.752 485.723 298.584Z" fill="#54FF65"/>
<path d="M133.213 148.552C126.765 146.673 119.397 142.347 113.152 139.608C106.731 136.796 96.7219 129.531 89.5386 130.1C88.1758 130.208 87.6459 131.616 88.4842 132.649C90.8039 135.517 95.2114 136.651 98.5118 138.106C103.315 140.225 108.123 142.334 112.957 144.38C119.745 147.256 125.779 150.063 133.078 149.565C133.648 149.528 133.79 148.721 133.213 148.552Z" fill="#54FF65"/>
<path d="M368.914 414.423C365.664 408.494 363.549 400.296 361.048 393.89C358.499 387.361 356.559 375.169 351.081 370.495C350.04 369.607 348.671 370.232 348.532 371.55C348.147 375.227 350.467 379.158 351.772 382.526C353.669 387.422 355.578 392.314 357.547 397.18C360.294 403.96 362.611 410.26 368.102 415.045C368.542 415.427 369.204 414.95 368.914 414.423Z" fill="#54FF65"/>
<path d="M225.742 59.0741C222.492 53.1456 220.378 44.9475 217.876 38.5418C215.327 32.015 213.387 19.8205 207.909 15.1494C206.868 14.2611 205.5 14.8832 205.36 16.2039C204.975 19.8785 207.295 23.8115 208.602 27.1804C210.5 32.0729 212.409 36.9655 214.378 41.8316C217.125 48.6116 219.442 54.9118 224.933 59.6962C225.37 60.0784 226.035 59.6013 225.742 59.0741Z" fill="#54FF65"/>
<path d="M88.579 296.936C94.5075 293.686 102.706 291.575 109.114 289.07C115.641 286.521 127.835 284.584 132.509 279.106C133.397 278.065 132.773 276.697 131.455 276.557C127.777 276.172 123.847 278.489 120.478 279.797C115.583 281.695 110.693 283.6 105.824 285.572C99.0442 288.319 92.7467 290.636 87.9569 296.127C87.5747 296.565 88.0492 297.226 88.579 296.936Z" fill="#54FF65"/>
<path d="M443.928 153.767C449.854 150.514 458.055 148.4 464.461 145.901C470.99 143.349 483.182 141.411 487.856 135.934C488.744 134.892 488.119 133.524 486.801 133.385C483.124 133 479.194 135.319 475.822 136.624C470.927 138.522 466.037 140.431 461.171 142.4C454.391 145.147 448.091 147.464 443.304 152.957C442.924 153.392 443.401 154.054 443.928 153.767Z" fill="#54FF65"/>
<path d="M286.522 72.7421C286.553 74.1075 285.81 75.7867 285.683 77.2708C285.393 80.6713 285.728 84.2089 285.681 87.6253C285.617 92.2278 283.482 101.19 286.638 104.939C287.136 105.529 288.251 105.521 288.749 104.939C291.907 101.259 290.191 92.1988 290.188 87.6253C290.186 81.9472 290.431 77.2102 287.481 72.4837C287.217 72.0593 286.508 72.2122 286.522 72.7421Z" fill="#54FF65"/>
<path d="M286.521 327.138C286.552 328.503 285.809 330.182 285.683 331.669C285.393 335.067 285.73 338.604 285.683 342.023C285.619 346.623 283.484 355.586 286.639 359.334C287.138 359.925 288.253 359.917 288.751 359.334C291.909 355.654 290.193 346.594 290.19 342.023C290.188 336.345 290.433 331.606 287.483 326.879C287.217 326.457 286.508 326.61 286.521 327.138Z" fill="#54FF65"/>
<path d="M430.26 214.544C428.894 214.575 427.215 213.829 425.731 213.705C422.331 213.418 418.793 213.75 415.377 213.705C410.774 213.639 401.811 211.504 398.063 214.66C397.472 215.155 397.48 216.273 398.063 216.771C401.746 219.929 410.803 218.213 415.377 218.21C421.055 218.208 425.794 218.453 430.521 215.506C430.943 215.237 430.787 214.53 430.26 214.544Z" fill="#54FF65"/>
<path d="M175.859 214.544C174.494 214.575 172.815 213.829 171.331 213.705C167.93 213.418 164.393 213.75 160.976 213.705C156.374 213.639 147.411 211.504 143.663 214.66C143.072 215.155 143.08 216.273 143.663 216.771C147.345 219.926 156.403 218.213 160.976 218.21C166.654 218.208 171.391 218.453 176.12 215.506C176.542 215.237 176.389 214.53 175.859 214.544Z" fill="#54FF65"/>
<path d="M389.127 315.784C388.02 314.759 387.007 312.544 385.895 311.276C383.773 308.859 381.192 306.721 378.946 304.407C376.545 301.929 374.186 299.409 371.816 296.899C370.398 295.399 368.563 292.898 366.275 293.095C365.405 293.169 364.859 293.723 364.783 294.587C364.575 296.849 367.047 298.763 368.487 300.229C370.904 302.691 373.316 305.158 375.754 307.596C378.058 309.903 380.402 312.17 382.835 314.339C384.798 316.092 386.325 316.15 388.626 316.646C389.103 316.746 389.528 316.15 389.127 315.784Z" fill="#54FF65"/>
<path d="M209.242 135.897C208.132 134.871 207.12 132.657 206.01 131.389C203.886 128.972 201.308 126.837 199.062 124.517C196.66 122.042 194.301 119.519 191.931 117.012C190.513 115.512 188.678 113.011 186.39 113.208C185.52 113.282 184.977 113.836 184.898 114.7C184.69 116.962 187.162 118.876 188.602 120.341C191.019 122.803 193.431 125.268 195.869 127.709C198.176 130.013 200.517 132.28 202.95 134.452C204.914 136.203 206.44 136.261 208.741 136.756C209.218 136.859 209.64 136.263 209.242 135.897Z" fill="#54FF65"/>
<path d="M187.22 317.147C188.243 316.04 190.46 315.027 191.725 313.918C194.143 311.793 196.281 309.215 198.598 306.969C201.076 304.568 203.596 302.206 206.103 299.839C207.602 298.423 210.101 296.586 209.906 294.298C209.833 293.428 209.279 292.885 208.414 292.806C206.153 292.6 204.241 295.067 202.773 296.509C200.311 298.926 197.846 301.336 195.405 303.777C193.102 306.081 190.834 308.424 188.665 310.857C186.912 312.821 186.854 314.347 186.358 316.649C186.256 317.126 186.849 317.55 187.22 317.147Z" fill="#54FF65"/>
<path d="M367.108 137.26C368.131 136.152 370.348 135.14 371.613 134.028C374.03 131.903 376.168 129.328 378.485 127.079C380.963 124.678 383.483 122.318 385.99 119.951C387.49 118.533 389.992 116.696 389.794 114.408C389.72 113.538 389.167 112.995 388.302 112.916C386.04 112.71 384.127 115.18 382.661 116.619C380.199 119.037 377.731 121.449 375.293 123.887C372.989 126.191 370.722 128.534 368.553 130.965C366.8 132.929 366.742 134.455 366.246 136.756C366.143 137.236 366.739 137.663 367.108 137.26Z" fill="#54FF65"/>
<path d="M342.487 83.8293C342.184 84.6017 340.95 85.7115 340.305 86.9557C338.665 90.1163 337.502 93.5537 336.063 96.8145C334.671 99.9646 333.216 103.091 331.777 106.22C330.799 108.347 329.046 110.933 329.953 113.271C330.219 113.957 330.983 114.645 331.79 114.315C335.662 112.726 337.218 105.453 338.762 101.878C340.974 96.7645 343.555 91.632 344.224 86.0621C344.296 85.4769 343.853 84.947 343.412 84.6465C343.776 84.8969 343.428 83.4893 343.481 83.8293C343.391 83.2678 342.651 83.4102 342.487 83.8293Z" fill="#54FF65"/>
<path d="M242.86 317.906C242.557 318.678 241.323 319.788 240.678 321.038C239.038 324.198 237.878 327.633 236.436 330.894C235.044 334.047 233.589 337.173 232.15 340.302C231.172 342.429 229.419 345.015 230.326 347.354C230.592 348.039 231.356 348.727 232.163 348.395C236.035 346.803 237.591 339.532 239.135 335.958C241.347 330.844 243.928 325.709 244.597 320.139C244.669 319.554 244.226 319.026 243.785 318.723C244.149 318.974 243.799 317.563 243.854 317.903C243.764 317.347 243.024 317.49 242.86 317.906Z" fill="#54FF65"/>
<path d="M419.17 270.507C418.398 270.207 417.288 268.97 416.041 268.324C412.88 266.685 409.446 265.522 406.182 264.083C403.029 262.691 399.906 261.239 396.774 259.797C394.647 258.819 392.061 257.066 389.723 257.975C389.037 258.242 388.347 259.006 388.679 259.81C390.271 263.685 397.544 265.238 401.118 266.785C406.232 268.997 411.365 271.577 416.937 272.247C417.522 272.315 418.05 271.873 418.353 271.432C418.102 271.796 419.51 271.448 419.17 271.501C419.731 271.411 419.587 270.671 419.17 270.507Z" fill="#54FF65"/>
<path d="M185.091 170.88C184.319 170.579 183.209 169.346 181.962 168.697C178.802 167.06 175.364 165.898 172.106 164.458C168.953 163.067 165.83 161.612 162.698 160.172C160.571 159.194 157.982 157.441 155.646 158.351C154.961 158.617 154.273 159.379 154.603 160.185C156.192 164.058 163.468 165.613 167.039 167.158C172.153 169.369 177.286 171.95 182.856 172.62C183.438 172.688 183.968 172.248 184.271 171.805C184.021 172.172 185.429 171.821 185.089 171.874C185.65 171.784 185.508 171.043 185.091 170.88Z" fill="#54FF65"/>
<path d="M341.707 347.509C341.375 346.747 341.462 345.076 341.035 343.732C339.96 340.339 338.352 337.086 337.065 333.759C335.821 330.546 334.64 327.309 333.443 324.074C332.65 321.926 332.02 318.831 329.769 317.838C328.809 317.416 327.974 317.777 327.576 318.731C326.012 322.485 330.744 330.027 332.152 333.554C334.039 338.275 335.742 343.138 338.903 347.161C339.274 347.636 339.965 347.68 340.497 347.583C340.023 347.67 341.267 348.405 341.001 348.213C341.473 348.553 341.889 347.923 341.707 347.509Z" fill="#54FF65"/>
<path d="M246.638 111.542C246.306 110.78 246.393 109.109 245.966 107.765C244.89 104.372 243.282 101.119 241.996 97.7925C240.752 94.5792 239.571 91.3421 238.374 88.1076C237.58 85.9619 236.95 82.8672 234.699 81.8734C233.74 81.4516 232.904 81.8127 232.506 82.767C230.94 86.5207 235.675 94.0625 237.082 97.5869C238.97 102.308 240.673 107.172 243.833 111.194C244.205 111.669 244.895 111.714 245.428 111.616C244.953 111.703 246.198 112.436 245.931 112.246C246.401 112.589 246.817 111.959 246.638 111.542Z" fill="#54FF65"/>
<path d="M155.49 269.729C156.252 269.395 157.923 269.482 159.265 269.057C162.66 267.984 165.913 266.374 169.24 265.087C172.453 263.841 175.693 262.66 178.925 261.465C181.073 260.669 184.168 260.039 185.164 257.791C185.589 256.831 185.228 255.993 184.271 255.598C180.517 254.032 172.972 258.766 169.448 260.174C164.727 262.061 159.863 263.764 155.838 266.925C155.366 267.296 155.319 267.984 155.416 268.52C155.329 268.042 154.594 269.284 154.786 269.02C154.446 269.492 155.079 269.909 155.49 269.729Z" fill="#54FF65"/>
<path d="M391.46 174.66C392.222 174.325 393.893 174.412 395.235 173.988C398.627 172.912 401.88 171.304 405.207 170.015C408.42 168.771 411.66 167.587 414.892 166.393C417.04 165.597 420.135 164.97 421.129 162.719C421.553 161.759 421.192 160.921 420.235 160.525C416.479 158.96 408.939 163.694 405.412 165.102C400.689 166.989 395.828 168.692 391.802 171.853C391.331 172.227 391.283 172.915 391.381 173.447C391.294 172.973 390.558 174.217 390.753 173.951C390.416 174.423 391.043 174.839 391.46 174.66Z" fill="#54FF65"/>
<path d="M286.718 129.28C286.628 129.842 285.816 130.812 285.661 131.605C285.35 133.171 285.548 134.856 285.537 136.445C285.511 140.128 285.128 143.842 285.392 147.519C285.598 150.403 289.576 150.361 289.839 147.519C290.179 143.852 290.047 140.122 289.984 136.445C289.958 134.824 289.96 133.192 289.605 131.605C289.238 129.96 288.479 130.029 287.58 129.054C287.335 128.785 286.781 128.895 286.718 129.28Z" fill="#54FF65"/>
<path d="M286.718 282.691C286.628 283.252 285.816 284.223 285.661 285.016C285.35 286.582 285.548 288.266 285.537 289.856C285.511 293.538 285.128 297.25 285.392 300.927C285.598 303.811 289.576 303.769 289.839 300.927C290.179 297.26 290.047 293.533 289.984 289.856C289.958 288.235 289.96 286.603 289.605 285.016C289.238 283.371 288.479 283.44 287.58 282.464C287.335 282.198 286.781 282.309 286.718 282.691Z" fill="#54FF65"/>
<path d="M373.722 214.741C373.16 214.652 372.187 213.84 371.397 213.684C369.831 213.373 368.146 213.571 366.554 213.56C362.872 213.534 359.157 213.152 355.48 213.415C352.596 213.621 352.636 217.596 355.48 217.862C359.147 218.202 362.874 218.071 366.554 218.007C368.175 217.978 369.807 217.984 371.397 217.628C373.042 217.259 372.973 216.5 373.948 215.601C374.215 215.358 374.104 214.802 373.722 214.741Z" fill="#54FF65"/>
<path d="M220.308 214.741C219.747 214.652 218.774 213.84 217.983 213.684C216.417 213.373 214.73 213.571 213.143 213.56C209.461 213.534 205.747 213.152 202.072 213.415C199.188 213.621 199.228 217.596 202.072 217.862C205.736 218.202 209.466 218.071 213.143 218.007C214.765 217.978 216.396 217.984 217.983 217.628C219.628 217.261 219.56 216.5 220.535 215.601C220.801 215.358 220.693 214.802 220.308 214.741Z" fill="#54FF65"/>
<path d="M349.006 275.94C348.861 275.745 349.114 274.981 348.858 274.625C348.492 274.121 348.152 273.594 347.78 273.093C346.805 271.778 345.4 270.678 344.255 269.503C341.83 267.012 339.468 263.442 336.403 261.721C334.531 260.669 332.517 262.749 333.521 264.602C335.182 267.676 338.617 270.254 341.095 272.666C342.218 273.76 343.446 275.278 344.817 276.059C345.394 276.386 345.99 276.654 346.604 276.905C347.506 277.282 347.812 276.697 348.56 276.718C348.921 276.723 349.243 276.256 349.006 275.94Z" fill="#54FF65"/>
<path d="M240.527 167.458C240.379 167.263 240.635 166.499 240.379 166.146C240.01 165.639 239.673 165.112 239.299 164.611C238.323 163.296 236.918 162.197 235.774 161.024C233.349 158.53 230.99 154.963 227.924 153.242C226.053 152.19 224.039 154.27 225.043 156.123C226.704 159.197 230.138 161.772 232.616 164.184C233.739 165.278 234.965 166.797 236.341 167.577C236.918 167.904 237.514 168.173 238.128 168.426C239.03 168.8 239.336 168.215 240.084 168.236C240.443 168.244 240.767 167.775 240.527 167.458Z" fill="#54FF65"/>
<path d="M227.062 277.029C227.257 276.881 228.021 277.137 228.377 276.878C228.883 276.509 229.408 276.169 229.908 275.8C231.226 274.825 232.323 273.42 233.499 272.276C235.992 269.851 239.559 267.491 241.28 264.423C242.332 262.551 240.252 260.54 238.399 261.542C235.326 263.203 232.75 266.637 230.338 269.113C229.244 270.236 227.726 271.464 226.948 272.837C226.621 273.415 226.352 274.01 226.099 274.625C225.725 275.526 226.308 275.832 226.289 276.581C226.279 276.942 226.745 277.266 227.062 277.029Z" fill="#54FF65"/>
<path d="M335.541 168.55C335.739 168.399 336.501 168.658 336.856 168.399C337.363 168.03 337.887 167.693 338.388 167.319C339.703 166.346 340.803 164.941 341.978 163.794C344.472 161.369 348.039 159.01 349.76 155.944C350.812 154.07 348.732 152.056 346.879 153.06C343.805 154.723 341.23 158.156 338.818 160.634C337.724 161.757 336.205 162.982 335.428 164.356C335.101 164.933 334.832 165.529 334.579 166.146C334.205 167.047 334.787 167.35 334.769 168.101C334.758 168.465 335.225 168.787 335.541 168.55Z" fill="#54FF65"/>
<path d="M320.819 135.689C318.156 136.577 317.397 140.362 316.38 142.661C314.935 145.922 313.23 149.085 312.072 152.462C311.25 154.858 314.943 156.366 316.127 154.17C318.088 150.53 319.596 146.599 321.125 142.758C321.338 142.221 323.777 134.7 320.819 135.689Z" fill="#54FF65"/>
<path d="M260.74 276.844C258.078 277.733 257.316 281.518 256.299 283.817C254.854 287.077 253.149 290.241 251.991 293.617C251.169 296.014 254.862 297.521 256.046 295.326C258.007 291.685 259.512 287.755 261.044 283.914C261.257 283.382 263.698 275.858 260.74 276.844Z" fill="#54FF65"/>
<path d="M367.311 248.839C366.425 246.174 362.637 245.414 360.339 244.397C357.078 242.952 353.915 241.247 350.538 240.087C348.142 239.265 346.634 242.96 348.83 244.144C352.47 246.105 356.403 247.61 360.244 249.142C360.779 249.361 368.294 251.796 367.311 248.839Z" fill="#54FF65"/>
<path d="M226.155 188.76C225.266 186.095 221.481 185.339 219.182 184.321C215.922 182.879 212.758 181.174 209.382 180.014C206.985 179.191 205.478 182.887 207.673 184.068C211.314 186.029 215.247 187.537 219.085 189.066C219.617 189.282 227.141 191.718 226.155 188.76Z" fill="#54FF65"/>
<path d="M320.36 295.526C321.62 293.003 319.477 289.785 318.567 287.425C317.283 284.096 316.248 280.661 314.676 277.453C313.559 275.17 309.908 276.781 310.622 279.164C311.808 283.129 313.53 286.967 315.164 290.765C315.386 291.279 318.973 298.307 320.36 295.526Z" fill="#54FF65"/>
<path d="M263.028 153.231C264.288 150.709 262.145 147.49 261.235 145.131C259.951 141.802 258.915 138.367 257.344 135.159C256.227 132.876 252.576 134.486 253.29 136.867C254.476 140.831 256.198 144.67 257.832 148.468C258.053 148.982 261.641 156.01 263.028 153.231Z" fill="#54FF65"/>
<path d="M207.473 248.383C209.996 249.643 213.214 247.5 215.576 246.588C218.906 245.304 222.34 244.265 225.551 242.697C227.834 241.582 226.221 237.928 223.843 238.642C219.878 239.829 216.04 241.553 212.239 243.187C211.72 243.408 204.692 246.993 207.473 248.383Z" fill="#54FF65"/>
<path d="M349.77 191.051C352.293 192.308 355.509 190.168 357.87 189.256C361.2 187.972 364.635 186.936 367.845 185.362C370.128 184.245 368.515 180.594 366.137 181.308C362.172 182.497 358.334 184.218 354.533 185.853C354.017 186.077 346.986 189.664 349.77 191.051Z" fill="#54FF65"/>
<path d="M330.248 4.90572C329.607 12.1364 326.684 20.4374 325.086 27.6312C323.584 34.39 318.907 44.5573 320.705 51.4111C320.969 52.4128 322.485 52.9716 323.202 52.0701C328.007 46.0414 328.379 33.9261 329.929 26.5161C331.505 18.9849 333.258 12.1865 331.257 4.76864C331.099 4.17816 330.295 4.34951 330.248 4.90572Z" fill="#54FF65"/>
<path d="M251.949 379.93C251.308 387.158 248.385 395.459 246.787 402.653C245.285 409.409 240.609 419.579 242.406 426.433C242.67 427.434 244.186 427.993 244.903 427.092C249.708 421.063 250.08 408.948 251.63 401.538C253.206 394.009 254.959 387.211 252.961 379.793C252.8 379.202 251.999 379.374 251.949 379.93Z" fill="#54FF65"/>
<path d="M498.094 258.268C490.863 257.627 482.562 254.704 475.368 253.106C468.609 251.604 458.439 246.928 451.586 248.728C450.587 248.992 450.025 250.505 450.927 251.222C456.958 256.027 469.071 256.399 476.483 257.949C484.014 259.525 490.813 261.278 498.231 259.28C498.821 259.122 498.65 258.318 498.094 258.268Z" fill="#54FF65"/>
<path d="M123.072 179.969C115.841 179.328 107.543 176.405 100.346 174.808C93.5876 173.305 83.4203 168.629 76.5639 170.429C75.5648 170.693 75.006 172.206 75.9049 172.923C81.9335 177.728 94.0489 178.1 101.459 179.653C108.99 181.229 115.788 182.982 123.206 180.981C123.797 180.823 123.628 180.019 123.072 179.969Z" fill="#54FF65"/>
<path d="M406.174 394.671C404.656 392.884 403.493 389.715 402.223 387.667C399.605 383.439 396.597 379.413 393.922 375.211C391.425 371.292 388.992 367.33 386.546 363.376C384.798 360.547 383.138 356.574 380.051 355.046C379.091 354.568 377.757 355.133 377.805 356.335C377.945 359.817 380.681 362.888 382.497 365.74C385.357 370.235 388.215 374.729 391.133 379.187C395.322 385.59 398.954 391.75 405.552 395.48C406.079 395.778 406.543 395.103 406.174 394.671Z" fill="#54FF65"/>
<path d="M196.359 74.1234C194.841 72.3361 193.678 69.1676 192.408 67.1193C189.79 62.8911 186.782 58.8658 184.109 54.664C181.613 50.7441 179.177 46.7822 176.734 42.8281C174.986 40.0022 173.328 36.0297 170.239 34.5008C169.279 34.0236 167.942 34.5877 167.993 35.7898C168.132 39.272 170.869 42.3404 172.685 45.1952C175.545 49.6871 178.405 54.1816 181.318 58.6391C185.507 65.0421 189.139 71.2026 195.737 74.9326C196.264 75.2305 196.728 74.5583 196.359 74.1234Z" fill="#54FF65"/>
<path d="M108.333 334.194C110.118 332.679 113.286 331.513 115.337 330.246C119.565 327.625 123.588 324.618 127.79 321.945C131.712 319.448 135.674 317.015 139.629 314.569C142.457 312.821 146.43 311.163 147.958 308.074C148.433 307.111 147.871 305.778 146.669 305.825C143.187 305.965 140.116 308.701 137.261 310.517C132.767 313.375 128.272 316.235 123.815 319.15C117.412 323.339 111.251 326.972 107.524 333.57C107.226 334.102 107.898 334.566 108.333 334.194Z" fill="#54FF65"/>
<path d="M428.881 124.377C430.666 122.861 433.834 121.696 435.885 120.428C440.113 117.811 444.136 114.8 448.338 112.127C452.258 109.634 456.22 107.198 460.174 104.754C463.002 103.004 466.975 101.346 468.504 98.2565C468.978 97.2943 468.417 95.9605 467.215 96.0079C463.732 96.1476 460.661 98.8839 457.806 100.7C453.312 103.56 448.82 106.418 444.363 109.333C437.96 113.522 431.799 117.154 428.072 123.752C427.771 124.285 428.446 124.749 428.881 124.377Z" fill="#54FF65"/>
<path d="M409.337 38.4127C408.417 40.1604 406.285 42.0662 405.054 43.7296C402.18 47.6072 399.647 51.7617 396.855 55.7026C393.774 60.0494 390.603 64.3304 387.447 68.6245C385.428 71.3687 382.573 74.2209 382.304 77.7242C382.209 78.9632 383.617 79.435 384.55 79.0132C387.611 77.6267 389.604 73.6357 391.499 70.9891C394.596 66.6607 397.694 62.3349 400.736 57.9696C405.088 51.7221 409.303 46.1363 410.299 38.6736C410.365 38.1543 409.564 37.983 409.337 38.4127Z" fill="#54FF65"/>
<path d="M190.429 352.821C189.509 354.568 187.376 356.474 186.142 358.138C183.272 362.015 180.739 366.17 177.944 370.108C174.863 374.455 171.692 378.736 168.536 383.03C166.517 385.774 163.662 388.626 163.393 392.132C163.298 393.371 164.706 393.843 165.639 393.421C168.7 392.035 170.692 388.044 172.588 385.397C175.685 381.066 178.783 376.74 181.822 372.372C186.174 366.125 190.389 360.539 191.388 353.079C191.457 352.562 190.655 352.391 190.429 352.821Z" fill="#54FF65"/>
<path d="M464.586 337.358C462.836 336.438 460.933 334.308 459.269 333.074C455.392 330.201 451.237 327.667 447.296 324.876C442.949 321.794 438.666 318.623 434.374 315.468C431.627 313.446 428.775 310.591 425.269 310.322C424.03 310.227 423.556 311.635 423.98 312.571C425.367 315.631 429.358 317.624 432.004 319.519C436.333 322.619 440.661 325.717 445.029 328.756C451.277 333.108 456.865 337.323 464.325 338.322C464.842 338.388 465.013 337.584 464.586 337.358Z" fill="#54FF65"/>
<path d="M150.178 118.449C148.428 117.529 146.527 115.399 144.861 114.165C140.983 111.292 136.832 108.759 132.888 105.967C128.541 102.885 124.26 99.7142 119.966 96.5589C117.219 94.5396 114.367 91.6848 110.864 91.4159C109.625 91.321 109.153 92.7287 109.575 93.6645C110.961 96.7249 114.952 98.7178 117.599 100.613C121.927 103.71 126.256 106.808 130.624 109.85C136.871 114.199 142.457 118.414 149.917 119.413C150.436 119.479 150.608 118.675 150.178 118.449Z" fill="#54FF65"/>
<path d="M326.552 426.891C324.639 420.57 324.285 412.464 323.149 405.819C321.921 398.63 322.511 386.243 318.106 380.283C317.355 379.271 315.779 379.313 315.376 380.642C313.18 387.92 317.511 399.685 318.818 407.01C320.144 414.446 321.09 421.282 325.611 427.287C325.941 427.727 326.734 427.492 326.552 426.891Z" fill="#54FF65"/>
<path d="M259.027 49.7846C257.113 43.4607 256.76 35.3575 255.624 28.712C254.395 21.5234 254.986 9.13659 250.578 3.17909C249.827 2.16685 248.251 2.20902 247.847 3.5376C245.651 10.8158 249.982 22.5805 251.29 29.9061C252.618 37.3398 253.562 44.1751 258.083 50.18C258.413 50.6176 259.209 50.383 259.027 49.7846Z" fill="#54FF65"/>
<path d="M76.1074 254.572C82.4313 252.661 90.5346 252.308 97.1801 251.172C104.369 249.943 116.755 250.534 122.716 246.129C123.73 245.38 123.688 243.799 122.36 243.401C115.082 241.202 103.314 245.533 95.9886 246.843C88.5523 248.169 81.7196 249.116 75.712 253.631C75.2744 253.961 75.509 254.751 76.1074 254.572Z" fill="#54FF65"/>
<path d="M453.217 187.049C459.538 185.133 467.644 184.782 474.292 183.646C481.481 182.418 493.867 183.011 499.828 178.604C500.842 177.855 500.8 176.273 499.472 175.875C492.191 173.679 480.429 178.01 473.101 179.318C465.664 180.647 458.829 181.59 452.824 186.108C452.384 186.435 452.616 187.229 453.217 187.049Z" fill="#54FF65"/>
<path d="M315.728 75.5257C315.501 76.7831 314.478 78.1012 314.078 79.4535C313.163 82.5508 312.765 85.8565 312.069 89.0171C311.096 93.4299 306.752 102.87 309.214 107.032C309.599 107.683 310.593 108.044 311.257 107.567C315.253 104.71 315.467 94.7321 316.4 90.2086C317.507 84.8363 318.551 80.4815 316.722 75.5257C316.561 75.0961 315.825 74.9774 315.728 75.5257Z" fill="#54FF65"/>
<path d="M263.734 324.554C263.505 325.814 262.482 327.13 262.084 328.482C261.169 331.582 260.769 334.888 260.073 338.048C259.1 342.461 254.756 351.898 257.218 356.063C257.603 356.714 258.597 357.075 259.261 356.598C263.257 353.741 263.473 343.763 264.404 339.24C265.511 333.867 266.552 329.513 264.725 324.554C264.567 324.125 263.834 324.006 263.734 324.554Z" fill="#54FF65"/>
<path d="M427.476 243.751C426.219 243.524 424.901 242.499 423.546 242.101C420.446 241.186 417.14 240.786 413.98 240.09C409.567 239.117 400.127 234.77 395.965 237.235C395.311 237.62 394.953 238.611 395.427 239.278C398.287 243.274 408.262 243.487 412.786 244.418C418.161 245.525 422.515 246.566 427.474 244.742C427.906 244.584 428.025 243.851 427.476 243.751Z" fill="#54FF65"/>
<path d="M178.445 191.755C177.188 191.528 175.869 190.505 174.515 190.105C171.415 189.19 168.109 188.792 164.951 188.096C160.538 187.123 151.101 182.776 146.936 185.239C146.285 185.623 145.924 186.615 146.398 187.281C149.256 191.278 159.233 191.494 163.757 192.424C169.132 193.532 173.486 194.573 178.445 192.746C178.877 192.588 178.993 191.855 178.445 191.755Z" fill="#54FF65"/>
<path d="M366.501 334.461C366.114 333.912 366.106 332.642 365.687 331.954C364.996 330.823 364.44 329.655 363.67 328.572C361.704 325.798 359.903 322.909 358.1 320.031C355.994 316.675 352.82 308.084 348.452 307.531C347.791 307.446 347.192 308.05 347.013 308.627C346.325 310.836 348.091 312.855 349.24 314.643C351.13 317.582 353.007 320.529 354.921 323.458C356.735 326.233 358.598 328.98 360.567 331.648C362.204 333.867 363.636 334.189 365.8 335.167C366.217 335.354 366.831 334.93 366.501 334.461Z" fill="#54FF65"/>
<path d="M227.178 121.607C226.791 121.056 226.783 119.788 226.363 119.1C225.673 117.969 225.117 116.801 224.347 115.715C222.38 112.945 220.58 110.053 218.777 107.177C216.673 103.821 213.5 95.2303 209.129 94.6767C208.467 94.5923 207.869 95.196 207.69 95.7733C207.002 97.9823 208.768 100.002 209.917 101.789C211.807 104.728 213.684 107.675 215.598 110.604C217.411 113.38 219.275 116.126 221.244 118.794C222.884 121.016 224.315 121.335 226.477 122.316C226.893 122.5 227.508 122.073 227.178 121.607Z" fill="#54FF65"/>
<path d="M168.541 294.524C169.089 294.137 170.36 294.129 171.048 293.707C172.179 293.016 173.349 292.46 174.433 291.69C177.203 289.724 180.098 287.924 182.974 286.12C186.329 284.014 194.92 280.84 195.471 276.473C195.555 275.808 194.952 275.21 194.375 275.033C192.168 274.345 190.146 276.109 188.359 277.258C185.42 279.148 182.473 281.028 179.547 282.939C176.771 284.755 174.024 286.616 171.356 288.585C169.137 290.225 168.815 291.656 167.837 293.818C167.645 294.24 168.072 294.854 168.541 294.524Z" fill="#54FF65"/>
<path d="M381.398 155.201C381.949 154.813 383.216 154.805 383.904 154.383C385.035 153.693 386.203 153.137 387.287 152.367C390.057 150.4 392.949 148.6 395.827 146.797C399.183 144.693 407.777 141.517 408.328 137.149C408.412 136.485 407.808 135.886 407.231 135.71C405.022 135.022 403.003 136.785 401.215 137.937C398.276 139.827 395.329 141.704 392.403 143.615C389.627 145.429 386.881 147.292 384.213 149.262C381.991 150.901 381.672 152.333 380.694 154.494C380.501 154.913 380.928 155.53 381.398 155.201Z" fill="#54FF65"/>
<path d="M368.251 97.8215C367.361 99.1975 365.328 100.328 364.313 101.907C362.521 104.702 360.61 107.412 358.672 110.103C356.629 112.939 354.536 115.744 352.459 118.554C351.172 120.294 349.38 122.139 349.999 124.411C350.165 125.012 350.788 125.566 351.439 125.508C355.643 125.15 359.61 116.609 361.798 113.49C363.752 110.707 365.663 107.897 367.479 105.023C369.09 102.474 369.1 100.782 369.211 98.0799C369.232 97.5474 368.515 97.4129 368.251 97.8215Z" fill="#54FF65"/>
<path d="M222.889 306.6C221.998 307.976 219.965 309.107 218.951 310.686C217.158 313.478 215.247 316.187 213.309 318.879C211.267 321.718 209.173 324.52 207.094 327.33C205.807 329.072 204.015 330.918 204.634 333.19C204.8 333.791 205.422 334.345 206.073 334.287C210.278 333.928 214.245 325.387 216.433 322.269C218.387 319.485 220.295 316.675 222.114 313.802C223.725 311.253 223.735 309.56 223.846 306.858C223.87 306.326 223.152 306.191 222.889 306.6Z" fill="#54FF65"/>
<path d="M405.175 296.272C403.799 295.381 402.668 293.351 401.089 292.336C398.297 290.544 395.587 288.633 392.896 286.693C390.057 284.652 387.255 282.559 384.445 280.479C382.702 279.193 380.857 277.4 378.585 278.02C377.984 278.183 377.433 278.805 377.488 279.459C377.847 283.664 386.39 287.634 389.509 289.822C392.292 291.772 395.102 293.686 397.976 295.502C400.522 297.11 402.217 297.121 404.916 297.231C405.452 297.255 405.583 296.538 405.175 296.272Z" fill="#54FF65"/>
<path d="M196.396 150.906C195.02 150.018 193.887 147.986 192.311 146.973C189.519 145.181 186.809 143.272 184.118 141.332C181.279 139.289 178.477 137.196 175.664 135.116C173.924 133.833 172.076 132.038 169.807 132.66C169.205 132.826 168.655 133.445 168.71 134.099C169.068 138.303 177.609 142.273 180.728 144.459C183.511 146.412 186.321 148.323 189.195 150.139C191.741 151.747 193.436 151.758 196.135 151.866C196.673 151.887 196.808 151.173 196.396 150.906Z" fill="#54FF65"/>
<path d="M313.593 355.831C313.306 354.437 313.736 352.375 313.559 350.714C313.24 347.704 312.397 344.675 311.893 341.683C311.181 337.431 311.627 327.18 308.015 324.372C307.243 323.771 306.236 323.79 305.669 324.673C304.451 326.576 305.171 328.719 305.482 330.844C306.073 334.866 306.834 338.879 307.562 342.875C308.532 348.215 309.207 352.449 312.729 356.329C313.103 356.741 313.691 356.306 313.593 355.831Z" fill="#54FF65"/>
<path d="M268.756 105.416C268.469 104.022 268.899 101.957 268.722 100.297C268.403 97.2864 267.56 94.2576 267.056 91.2656C266.344 87.0163 266.79 76.762 263.179 73.9573C262.406 73.3563 261.399 73.3747 260.832 74.2578C259.615 76.1584 260.334 78.3041 260.645 80.4288C261.236 84.4488 261.998 88.4609 262.725 92.4624C263.695 97.8004 264.37 102.034 267.892 105.917C268.263 106.325 268.851 105.89 268.756 105.416Z" fill="#54FF65"/>
<path d="M147.169 241.616C148.566 241.329 150.624 241.761 152.285 241.584C155.296 241.265 158.327 240.422 161.316 239.918C165.566 239.204 175.82 239.649 178.627 236.038C179.228 235.266 179.21 234.259 178.324 233.692C176.424 232.474 174.278 233.194 172.156 233.505C168.133 234.098 164.124 234.86 160.122 235.585C154.781 236.557 150.551 237.232 146.668 240.754C146.262 241.126 146.697 241.713 147.169 241.616Z" fill="#54FF65"/>
<path d="M397.586 196.777C398.98 196.489 401.044 196.919 402.702 196.742C405.713 196.423 408.741 195.58 411.733 195.076C415.983 194.365 426.234 194.81 429.044 191.199C429.643 190.426 429.627 189.419 428.741 188.853C426.841 187.635 424.695 188.354 422.573 188.665C418.55 189.256 414.541 190.018 410.539 190.745C405.199 191.715 400.965 192.39 397.082 195.915C396.679 196.286 397.114 196.874 397.586 196.777Z" fill="#54FF65"/>
<path d="M304.32 131.041C304.486 130.986 304.655 130.93 304.821 130.875C304.019 130.928 303.505 131.357 303.223 132.093C301.31 137.057 300.076 143.133 299.359 148.418C298.985 151.175 302.775 152.42 303.643 149.599C304.586 146.525 305.153 143.338 305.78 140.188C306.329 137.444 306.935 134.866 306.421 132.093C306.326 131.587 305.78 131.015 305.264 130.936C305.261 130.93 305.261 130.925 305.261 130.92C305.019 130.509 304.476 130.635 304.32 131.041Z" fill="#54FF65"/>
<path d="M272.966 281.215C273.133 281.159 273.301 281.104 273.467 281.049C272.666 281.101 272.152 281.534 271.87 282.267C269.956 287.23 268.722 293.306 268.005 298.589C267.631 301.346 271.422 302.593 272.289 299.77C273.233 296.699 273.799 293.512 274.427 290.362C274.975 287.618 275.581 285.042 275.067 282.267C274.973 281.76 274.427 281.188 273.91 281.109C273.908 281.104 273.908 281.099 273.908 281.094C273.665 280.68 273.122 280.809 272.966 281.215Z" fill="#54FF65"/>
<path d="M371.959 232.342C372.014 232.508 372.07 232.677 372.125 232.843C372.072 232.042 371.643 231.528 370.91 231.246C365.946 229.329 359.867 228.098 354.582 227.381C351.827 227.007 350.58 230.795 353.401 231.662C356.472 232.606 359.662 233.173 362.812 233.803C365.558 234.351 368.134 234.96 370.91 234.443C371.416 234.348 371.985 233.803 372.067 233.286C372.072 233.286 372.077 233.286 372.083 233.286C372.491 233.041 372.362 232.498 371.959 232.342Z" fill="#54FF65"/>
<path d="M221.785 200.989C221.84 201.155 221.896 201.324 221.951 201.49C221.896 200.686 221.471 200.177 220.733 199.892C215.77 197.976 209.693 196.745 204.408 196.031C201.653 195.656 200.407 199.447 203.227 200.311C206.301 201.255 209.488 201.822 212.635 202.452C215.379 203 217.955 203.607 220.733 203.09C221.242 202.998 221.809 202.449 221.893 201.933C221.898 201.933 221.904 201.933 221.909 201.933C222.317 201.688 222.191 201.144 221.785 200.989Z" fill="#54FF65"/>
<path d="M335.312 287.66C336.559 285.409 333.259 281.911 332.133 280.145C330.146 277.023 328.432 273.697 326.104 270.81C324.454 268.765 321.605 271.366 322.654 273.475C324.098 276.372 326.031 279.043 327.826 281.734C329.421 284.122 330.841 286.395 333.253 288.005C333.715 288.314 334.4 288.285 334.864 288.005C335.014 287.913 335.223 287.821 335.312 287.66Z" fill="#54FF65"/>
<path d="M251.296 159.3C252.54 157.046 249.245 153.553 248.116 151.784C246.129 148.661 244.415 145.336 242.09 142.45C240.44 140.404 237.588 143.006 238.637 145.115C240.082 148.012 242.014 150.682 243.809 153.374C245.404 155.759 246.825 158.034 249.239 159.642C249.701 159.948 250.386 159.922 250.85 159.642C250.998 159.55 251.206 159.46 251.296 159.3Z" fill="#54FF65"/>
<path d="M215.343 263.334C217.597 264.579 221.089 261.284 222.858 260.155C225.979 258.168 229.306 256.454 232.193 254.129C234.241 252.479 231.634 249.63 229.53 250.679C226.633 252.123 223.96 254.053 221.271 255.851C218.883 257.443 216.613 258.866 215.003 261.278C214.694 261.742 214.721 262.425 215.003 262.889C215.09 263.037 215.179 263.245 215.343 263.334Z" fill="#54FF65"/>
<path d="M343.7 179.318C345.962 180.557 349.442 177.267 351.216 176.136C354.337 174.149 357.663 172.435 360.55 170.108C362.598 168.46 359.994 165.605 357.888 166.657C354.991 168.104 352.318 170.034 349.629 171.832C347.24 173.424 344.968 174.847 343.36 177.262C343.052 177.726 343.081 178.406 343.36 178.872C343.447 179.017 343.537 179.228 343.7 179.318Z" fill="#54FF65"/>
<path d="M336.462 144.182C334.042 143.937 332.205 147.912 331.05 149.544C328.883 152.615 326.308 155.491 324.473 158.775C323.287 160.902 326.223 163.354 327.924 161.438C330.024 159.07 331.748 156.379 333.541 153.775C335.204 151.355 336.976 149.074 337.579 146.159C337.688 145.645 337.622 144.965 337.168 144.606C336.939 144.424 336.76 144.214 336.462 144.182Z" fill="#54FF65"/>
<path d="M248.802 270.083C246.379 269.838 244.544 273.813 243.39 275.444C241.223 278.515 238.645 281.391 236.813 284.676C235.627 286.803 238.563 289.255 240.263 287.338C242.364 284.971 244.088 282.28 245.881 279.675C247.544 277.255 249.316 274.975 249.919 272.06C250.027 271.546 249.961 270.866 249.508 270.507C249.279 270.325 249.099 270.114 248.802 270.083Z" fill="#54FF65"/>
<path d="M358.816 264.484C359.063 262.064 355.086 260.224 353.454 259.072C350.383 256.905 347.507 254.33 344.222 252.495C342.095 251.309 339.644 254.248 341.56 255.948C343.93 258.049 346.619 259.773 349.226 261.566C351.646 263.229 353.923 264.998 356.839 265.604C357.355 265.712 358.033 265.646 358.391 265.193C358.576 264.961 358.787 264.782 358.816 264.484Z" fill="#54FF65"/>
<path d="M232.917 176.822C233.162 174.399 229.187 172.564 227.555 171.41C224.484 169.246 221.608 166.667 218.324 164.835C216.197 163.649 213.745 166.586 215.662 168.286C218.031 170.387 220.72 172.108 223.327 173.901C225.744 175.567 228.027 177.336 230.94 177.939C231.457 178.047 232.134 177.981 232.493 177.531C232.675 177.301 232.886 177.119 232.917 176.822Z" fill="#54FF65"/>
<path d="M303.447 300.213C303.384 300.271 303.321 300.332 303.258 300.39C303.766 300.139 304.085 299.506 304.08 298.958C304.046 296.37 303.482 293.918 303.068 291.361C302.556 288.187 302.28 284.958 301.486 281.845C300.88 279.459 296.91 279.902 297.124 282.435C297.39 285.53 298.001 288.575 298.563 291.627C299.082 294.458 299.422 297.334 300.991 299.796C301.386 300.416 302.129 300.772 302.862 300.558C302.799 300.592 302.736 300.624 302.672 300.658C302.991 300.898 303.453 300.566 303.447 300.213Z" fill="#54FF65"/>
<path d="M276.409 149.201C276.346 149.262 276.283 149.32 276.22 149.378C276.728 149.13 277.05 148.494 277.042 147.946C276.966 142.453 275.803 136.163 274.448 130.833C273.842 128.447 269.872 128.89 270.085 131.423C270.352 134.518 270.963 137.563 271.525 140.615C272.044 143.446 272.384 146.322 273.953 148.784C274.348 149.404 275.094 149.762 275.824 149.546C275.761 149.581 275.698 149.612 275.634 149.646C275.951 149.889 276.415 149.557 276.409 149.201Z" fill="#54FF65"/>
<path d="M202.789 231.467C202.731 231.406 202.671 231.341 202.613 231.28C202.86 231.786 203.496 232.108 204.044 232.102C206.633 232.065 209.084 231.501 211.641 231.09C214.815 230.579 218.041 230.299 221.16 229.506C223.545 228.9 223.1 224.93 220.569 225.146C217.477 225.409 214.427 226.021 211.377 226.582C208.544 227.104 205.668 227.442 203.206 229.01C202.586 229.406 202.228 230.154 202.444 230.884C202.41 230.821 202.378 230.758 202.344 230.695C202.101 231.014 202.433 231.472 202.789 231.467Z" fill="#54FF65"/>
<path d="M353.799 204.429C353.741 204.366 353.68 204.302 353.622 204.242C353.87 204.748 354.505 205.067 355.053 205.062C360.547 204.988 366.837 203.828 372.169 202.47C374.555 201.864 374.109 197.894 371.579 198.11C368.484 198.374 365.437 198.986 362.387 199.547C359.556 200.069 356.68 200.406 354.218 201.975C353.598 202.37 353.237 203.116 353.456 203.849C353.422 203.786 353.39 203.723 353.356 203.659C353.113 203.973 353.443 204.434 353.799 204.429Z" fill="#54FF65"/>
</g>
<path d="M10.4379 591V465.72H107.182C111.474 465.72 115.36 466.764 118.84 468.852C122.436 470.94 125.278 473.782 127.366 477.378C129.57 480.974 130.672 484.918 130.672 489.21V514.092C130.672 515.716 130.498 517.282 130.15 518.79C129.918 520.182 129.512 521.516 128.932 522.792C131.02 525.692 132.644 528.592 133.804 531.492C135.08 534.276 135.718 537.118 135.718 540.018V567.51C135.718 571.802 134.616 575.746 132.412 579.342C130.324 582.938 127.482 585.78 123.886 587.868C120.406 589.956 116.52 591 112.228 591H10.4379ZM34.4499 569.946H111.532C112.344 569.946 113.04 569.656 113.62 569.076C114.316 568.496 114.664 567.742 114.664 566.814V540.888C114.664 539.96 114.316 539.206 113.62 538.626C113.04 538.046 112.344 537.756 111.532 537.756H34.4499C33.6379 537.756 32.8839 538.046 32.1879 538.626C31.6079 539.206 31.3179 539.96 31.3179 540.888V566.814C31.3179 567.742 31.6079 568.496 32.1879 569.076C32.8839 569.656 33.6379 569.946 34.4499 569.946ZM34.4499 516.702H106.312C107.24 516.702 107.994 516.412 108.574 515.832C109.154 515.136 109.444 514.382 109.444 513.57V489.906C109.444 488.978 109.154 488.224 108.574 487.644C107.994 487.064 107.24 486.774 106.312 486.774H34.4499C33.6379 486.774 32.8839 487.064 32.1879 487.644C31.6079 488.224 31.3179 488.978 31.3179 489.906V513.57C31.3179 514.382 31.6079 515.136 32.1879 515.832C32.8839 516.412 33.6379 516.702 34.4499 516.702ZM155.037 591V489.21C155.037 484.918 156.081 480.974 158.169 477.378C160.257 473.782 163.099 470.94 166.695 468.852C170.291 466.764 174.235 465.72 178.527 465.72H256.827C261.119 465.72 265.005 466.764 268.485 468.852C272.081 470.94 274.923 473.782 277.011 477.378C279.215 480.974 280.317 484.918 280.317 489.21V591H259.263V548.022H175.917V591H155.037ZM175.917 527.142H259.263V489.906C259.263 488.978 258.915 488.224 258.219 487.644C257.639 487.064 256.943 486.774 256.131 486.774H179.049C178.237 486.774 177.483 487.064 176.787 487.644C176.207 488.224 175.917 488.978 175.917 489.906V527.142ZM300.142 591V465.72H323.98L404.368 561.42V465.72H425.422V591H401.584L321.022 495.126V591H300.142ZM445.09 591V465.72H466.144V517.92H498.16L541.834 465.72H565.324V470.766L516.952 528.36L565.324 585.954V591H541.834L498.16 538.8H466.144V591H445.09ZM17.5299 681C15.7539 681 14.1219 680.568 12.6339 679.704C11.1459 678.84 9.96988 677.664 9.10588 676.176C8.24188 674.688 7.80988 673.056 7.80988 671.28V638.88C7.80988 637.104 8.24188 635.472 9.10588 633.984C9.96988 632.496 11.1459 631.32 12.6339 630.456C14.1219 629.592 15.7539 629.16 17.5299 629.16H49.9299C51.7059 629.16 53.3139 629.592 54.7539 630.456C56.2419 631.32 57.4179 632.496 58.2819 633.984C59.1939 635.472 59.6499 637.104 59.6499 638.88V671.28C59.6499 673.056 59.1939 674.688 58.2819 676.176C57.4179 677.664 56.2419 678.84 54.7539 679.704C53.3139 680.568 51.7059 681 49.9299 681H17.5299ZM17.7459 672.288H49.6419C49.9779 672.288 50.2659 672.168 50.5059 671.928C50.7939 671.688 50.9379 671.376 50.9379 670.992V639.168C50.9379 638.784 50.7939 638.472 50.5059 638.232C50.2659 637.992 49.9779 637.872 49.6419 637.872H17.7459C17.4099 637.872 17.0979 637.992 16.8099 638.232C16.5699 638.472 16.4499 638.784 16.4499 639.168V670.992C16.4499 671.376 16.5699 671.688 16.8099 671.928C17.0979 672.168 17.4099 672.288 17.7459 672.288ZM67.7229 681V629.16H115.315V637.872H76.4349V650.76H107.755V659.4H76.4349V681H67.7229ZM141.055 681V629.16H150.919L184.183 668.76V629.16H192.895V681H183.031L149.695 641.328V681H141.055ZM210.538 681C208.762 681 207.13 680.568 205.642 679.704C204.154 678.84 202.978 677.664 202.114 676.176C201.25 674.688 200.818 673.056 200.818 671.28V638.88C200.818 637.104 201.25 635.472 202.114 633.984C202.978 632.496 204.154 631.32 205.642 630.456C207.13 629.592 208.762 629.16 210.538 629.16H242.938C244.714 629.16 246.322 629.592 247.762 630.456C249.25 631.32 250.426 632.496 251.29 633.984C252.202 635.472 252.658 637.104 252.658 638.88V671.28C252.658 673.056 252.202 674.688 251.29 676.176C250.426 677.664 249.25 678.84 247.762 679.704C246.322 680.568 244.714 681 242.938 681H210.538ZM210.754 672.288H242.65C242.986 672.288 243.274 672.168 243.514 671.928C243.802 671.688 243.946 671.376 243.946 670.992V639.168C243.946 638.784 243.802 638.472 243.514 638.232C243.274 637.992 242.986 637.872 242.65 637.872H210.754C210.418 637.872 210.106 637.992 209.818 638.232C209.578 638.472 209.458 638.784 209.458 639.168V670.992C209.458 671.376 209.578 671.688 209.818 671.928C210.106 672.168 210.418 672.288 210.754 672.288ZM275.689 681L256.825 629.16H266.041L279.145 665.088L292.249 629.16H301.033L314.209 665.088L327.313 629.16H336.529L317.665 681H310.681L296.641 642.48L282.601 681H275.689ZM343.276 681V629.16H351.916V650.76H387.628V629.16H396.268V681H387.628V659.4H351.916V681H343.276ZM404.59 681V629.16H452.182V637.872H413.302V650.76H444.622V659.4H413.302V672.288H452.182V681H404.59ZM501.475 681L485.563 661.992H496.867L511.195 678.984V681H501.475ZM459.571 681V629.232H501.691C503.467 629.232 505.075 629.688 506.515 630.6C508.003 631.464 509.179 632.64 510.043 634.128C510.955 635.568 511.411 637.176 511.411 638.952V653.208C511.411 654.936 510.955 656.544 510.043 658.032C509.179 659.52 508.003 660.696 506.515 661.56C505.075 662.424 503.467 662.856 501.691 662.856L468.211 662.928V681H459.571ZM469.507 654.144H501.403C501.739 654.144 502.027 654.024 502.267 653.784C502.555 653.544 502.699 653.232 502.699 652.848V639.168C502.699 638.832 502.555 638.544 502.267 638.304C502.027 638.016 501.739 637.872 501.403 637.872H469.507C469.171 637.872 468.859 638.016 468.571 638.304C468.331 638.544 468.211 638.832 468.211 639.168V652.848C468.211 653.232 468.331 653.544 468.571 653.784C468.859 654.024 469.171 654.144 469.507 654.144ZM519.129 681V629.16H566.721V637.872H527.841V650.76H559.161V659.4H527.841V672.288H566.721V681H519.129Z" fill="#54FF65"/>
<defs>
<clipPath id="clip0_60_2186">
<rect width="432" height="432" fill="white" transform="translate(71)"/>
</clipPath>
</defs>
</svg>
