<svg width="411" height="195" viewBox="0 0 411 195" fill="none" xmlns="http://www.w3.org/2000/svg">
<path d="M2.124 186V160.08H22.608C23.4 160.08 24.12 160.272 24.768 160.656C25.44 161.04 25.968 161.568 26.352 162.24C26.736 162.888 26.928 163.608 26.928 164.4V169.908C26.928 170.244 26.88 170.58 26.784 170.916C26.712 171.228 26.604 171.528 26.46 171.816C26.988 172.608 27.384 173.292 27.648 173.868C27.912 174.444 28.044 175.032 28.044 175.632V181.68C28.044 182.472 27.852 183.204 27.468 183.876C27.084 184.524 26.556 185.04 25.884 185.424C25.236 185.808 24.516 186 23.724 186H2.124ZM6.444 183.084H23.724C24.108 183.084 24.432 182.952 24.696 182.688C24.984 182.4 25.128 182.064 25.128 181.68V175.632C25.128 175.248 24.984 174.924 24.696 174.66C24.432 174.372 24.108 174.228 23.724 174.228H6.444C6.06 174.228 5.724 174.372 5.436 174.66C5.172 174.924 5.04 175.248 5.04 175.632V181.68C5.04 182.064 5.172 182.4 5.436 182.688C5.724 182.952 6.06 183.084 6.444 183.084ZM6.444 171.312H22.608C22.992 171.312 23.316 171.18 23.58 170.916C23.844 170.628 23.976 170.292 23.976 169.908V164.4C23.976 164.016 23.844 163.692 23.58 163.428C23.316 163.14 22.992 162.996 22.608 162.996H6.444C6.06 162.996 5.724 163.14 5.436 163.428C5.172 163.692 5.04 164.016 5.04 164.4V169.908C5.04 170.292 5.172 170.628 5.436 170.916C5.724 171.18 6.06 171.312 6.444 171.312ZM32.0411 186V164.4C32.0411 163.608 32.2331 162.888 32.6171 162.24C33.0011 161.568 33.5171 161.04 34.1651 160.656C34.8371 160.272 35.5691 160.08 36.3611 160.08H53.6411C54.4331 160.08 55.1531 160.272 55.8011 160.656C56.4731 161.04 57.0011 161.568 57.3851 162.24C57.7691 162.888 57.9611 163.608 57.9611 164.4V186H55.0451V176.532H34.9571V186H32.0411ZM34.9571 173.616H55.0451V164.4C55.0451 164.016 54.9011 163.692 54.6131 163.428C54.3491 163.14 54.0251 162.996 53.6411 162.996H36.3611C35.9771 162.996 35.6411 163.14 35.3531 163.428C35.0891 163.692 34.9571 164.016 34.9571 164.4V173.616ZM62.0629 186V160.08H66.0589L85.0669 182.688V160.08H87.9829V186H83.9869L64.9789 163.392V186H62.0629ZM92.052 186V160.08H95.004V171.564H103.356L113.004 160.08H116.748V160.116L105.912 173.04L116.784 185.964V186H113.004L103.356 174.516H95.004V186H92.052ZM134.76 186C133.968 186 133.236 185.808 132.564 185.424C131.916 185.04 131.4 184.524 131.016 183.876C130.632 183.204 130.44 182.472 130.44 181.68V164.4C130.44 163.608 130.632 162.888 131.016 162.24C131.4 161.568 131.916 161.04 132.564 160.656C133.236 160.272 133.968 160.08 134.76 160.08H152.04C152.832 160.08 153.552 160.272 154.2 160.656C154.872 161.04 155.4 161.568 155.784 162.24C156.168 162.888 156.36 163.608 156.36 164.4V181.68C156.36 182.472 156.168 183.204 155.784 183.876C155.4 184.524 154.872 185.04 154.2 185.424C153.552 185.808 152.832 186 152.04 186H134.76ZM134.76 183.084H152.04C152.424 183.084 152.748 182.952 153.012 182.688C153.3 182.4 153.444 182.064 153.444 181.68V164.4C153.444 164.016 153.3 163.692 153.012 163.428C152.748 163.14 152.424 162.996 152.04 162.996H134.76C134.376 162.996 134.04 163.14 133.752 163.428C133.488 163.692 133.356 164.016 133.356 164.4V181.68C133.356 182.064 133.488 182.4 133.752 182.688C134.04 182.952 134.376 183.084 134.76 183.084ZM160.397 186V160.08H184.049V162.996H163.313V171.564H179.981V174.516H163.313V186H160.397ZM196.149 186V160.08H200.145L219.153 182.688V160.08H222.069V186H218.073L199.065 163.392V186H196.149ZM230.35 186C229.558 186 228.826 185.808 228.154 185.424C227.506 185.04 226.99 184.524 226.606 183.876C226.222 183.204 226.03 182.472 226.03 181.68V164.4C226.03 163.608 226.222 162.888 226.606 162.24C226.99 161.568 227.506 161.04 228.154 160.656C228.826 160.272 229.558 160.08 230.35 160.08H247.63C248.422 160.08 249.142 160.272 249.79 160.656C250.462 161.04 250.99 161.568 251.374 162.24C251.758 162.888 251.95 163.608 251.95 164.4V181.68C251.95 182.472 251.758 183.204 251.374 183.876C250.99 184.524 250.462 185.04 249.79 185.424C249.142 185.808 248.422 186 247.63 186H230.35ZM230.35 183.084H247.63C248.014 183.084 248.338 182.952 248.602 182.688C248.89 182.4 249.034 182.064 249.034 181.68V164.4C249.034 164.016 248.89 163.692 248.602 163.428C248.338 163.14 248.014 162.996 247.63 162.996H230.35C229.966 162.996 229.63 163.14 229.342 163.428C229.078 163.692 228.946 164.016 228.946 164.4V181.68C228.946 182.064 229.078 182.4 229.342 182.688C229.63 182.952 229.966 183.084 230.35 183.084ZM263.606 186L254.174 160.08H257.27L264.866 180.888L272.426 160.08H275.954L283.55 180.888L291.074 160.08H294.242L284.81 186H282.254L274.19 163.86L266.126 186H263.606ZM297.4 186V160.08H300.316V171.564H321.016V160.08H323.968V186H321.016V174.516H300.316V186H297.4ZM328.057 186V160.08H351.709V162.996H330.973V171.564H347.641V174.516H330.973V183.084H351.709V186H328.057ZM377.435 186L368.975 175.92H372.791L381.287 185.964V186H377.435ZM355.547 186V160.116H377.147C377.939 160.116 378.659 160.32 379.307 160.728C379.979 161.112 380.507 161.628 380.891 162.276C381.275 162.924 381.467 163.644 381.467 164.436V172.032C381.467 172.824 381.275 173.544 380.891 174.192C380.507 174.84 379.979 175.368 379.307 175.776C378.659 176.16 377.939 176.352 377.147 176.352H358.463V186H355.547ZM359.867 173.4H377.147C377.531 173.4 377.855 173.268 378.119 173.004C378.407 172.74 378.551 172.416 378.551 172.032V164.436C378.551 164.052 378.407 163.728 378.119 163.464C377.855 163.176 377.531 163.032 377.147 163.032H359.867C359.483 163.032 359.147 163.176 358.859 163.464C358.595 163.728 358.463 164.052 358.463 164.436V172.032C358.463 172.416 358.595 172.74 358.859 173.004C359.147 173.268 359.483 173.4 359.867 173.4ZM385.326 186V160.08H408.978V162.996H388.242V171.564H404.91V174.516H388.242V183.084H408.978V186H385.326Z" fill="#54FF65"/>
<path d="M2.124 186H1.124V187H2.124V186ZM2.124 160.08V159.08H1.124V160.08H2.124ZM24.768 160.656L24.2582 161.516L24.265 161.52L24.2719 161.524L24.768 160.656ZM26.352 162.24L25.4838 162.736L25.4877 162.743L25.4917 162.75L26.352 162.24ZM26.784 170.916L25.8225 170.641L25.8154 170.666L25.8096 170.691L26.784 170.916ZM26.46 171.816L25.5656 171.369L25.306 171.888L25.628 172.371L26.46 171.816ZM27.648 173.868L26.7389 174.285V174.285L27.648 173.868ZM27.468 183.876L28.3283 184.386L28.3323 184.379L28.3362 184.372L27.468 183.876ZM25.884 185.424L25.3879 184.556L25.381 184.56L25.3742 184.564L25.884 185.424ZM24.696 182.688L25.4031 183.395H25.4031L24.696 182.688ZM24.696 174.66L23.9588 175.336L23.9882 175.368L24.0203 175.397L24.696 174.66ZM5.436 182.688L4.69885 183.364L4.72823 183.396L4.76028 183.425L5.436 182.688ZM23.58 170.916L24.2871 171.623L24.3025 171.608L24.3172 171.592L23.58 170.916ZM23.58 163.428L22.8428 164.104L22.8575 164.12L22.8729 164.135L23.58 163.428ZM5.436 163.428L6.14311 164.135L6.14311 164.135L5.436 163.428ZM5.436 170.916L4.69885 171.592L4.72823 171.624L4.76028 171.653L5.436 170.916ZM3.124 186V160.08H1.124V186H3.124ZM2.124 161.08H22.608V159.08H2.124V161.08ZM22.608 161.08C23.2302 161.08 23.7726 161.229 24.2582 161.516L25.2778 159.796C24.4674 159.315 23.5698 159.08 22.608 159.08V161.08ZM24.2719 161.524C24.7888 161.82 25.1883 162.219 25.4838 162.736L27.2202 161.744C26.7477 160.917 26.0912 160.26 25.2641 159.788L24.2719 161.524ZM25.4917 162.75C25.7795 163.235 25.928 163.778 25.928 164.4H27.928C27.928 163.438 27.6925 162.541 27.2123 161.73L25.4917 162.75ZM25.928 164.4V169.908H27.928V164.4H25.928ZM25.928 169.908C25.928 170.147 25.894 170.391 25.8225 170.641L27.7455 171.191C27.866 170.769 27.928 170.341 27.928 169.908H25.928ZM25.8096 170.691C25.7555 170.926 25.6744 171.151 25.5656 171.369L27.3544 172.263C27.5336 171.905 27.6685 171.53 27.7584 171.141L25.8096 170.691ZM25.628 172.371C26.1397 173.138 26.5049 173.774 26.7389 174.285L28.5571 173.451C28.2631 172.81 27.8363 172.078 27.2921 171.261L25.628 172.371ZM26.7389 174.285C26.9464 174.737 27.044 175.184 27.044 175.632H29.044C29.044 174.88 28.8776 174.151 28.5571 173.451L26.7389 174.285ZM27.044 175.632V181.68H29.044V175.632H27.044ZM27.044 181.68C27.044 182.302 26.8953 182.863 26.5998 183.38L28.3362 184.372C28.8087 183.545 29.044 182.642 29.044 181.68H27.044ZM26.6077 183.366C26.3145 183.861 25.9138 184.255 25.3879 184.556L26.3801 186.292C27.1982 185.825 27.8535 185.187 28.3283 184.386L26.6077 183.366ZM25.3742 184.564C24.8886 184.851 24.3462 185 23.724 185V187C24.6858 187 25.5834 186.765 26.3938 186.284L25.3742 184.564ZM23.724 185H2.124V187H23.724V185ZM6.444 184.084H23.724V182.084H6.444V184.084ZM23.724 184.084C24.3648 184.084 24.9457 183.853 25.4031 183.395L23.9889 181.981C23.9183 182.051 23.8512 182.084 23.724 182.084V184.084ZM25.4031 183.395C25.866 182.932 26.128 182.347 26.128 181.68H24.128C24.128 181.781 24.102 181.868 23.9889 181.981L25.4031 183.395ZM26.128 181.68V175.632H24.128V181.68H26.128ZM26.128 175.632C26.128 174.962 25.8623 174.372 25.3717 173.923L24.0203 175.397C24.1057 175.475 24.128 175.534 24.128 175.632H26.128ZM25.4332 173.984C24.9835 173.494 24.3938 173.228 23.724 173.228V175.228C23.8222 175.228 23.8805 175.25 23.9588 175.336L25.4332 173.984ZM23.724 173.228H6.444V175.228H23.724V173.228ZM6.444 173.228C5.77745 173.228 5.1918 173.49 4.72889 173.953L6.14311 175.367C6.2562 175.254 6.34255 175.228 6.444 175.228V173.228ZM4.72889 173.953C4.27146 174.41 4.04 174.991 4.04 175.632H6.04C6.04 175.505 6.07254 175.438 6.14311 175.367L4.72889 173.953ZM4.04 175.632V181.68H6.04V175.632H4.04ZM4.04 181.68C4.04 182.319 4.26905 182.895 4.69885 183.364L6.17315 182.012C6.07495 181.905 6.04 181.809 6.04 181.68H4.04ZM4.76028 183.425C5.22915 183.855 5.80502 184.084 6.444 184.084V182.084C6.31498 182.084 6.21885 182.049 6.11173 181.951L4.76028 183.425ZM6.444 172.312H22.608V170.312H6.444V172.312ZM22.608 172.312C23.2488 172.312 23.8297 172.081 24.2871 171.623L22.8729 170.209C22.8023 170.279 22.7352 170.312 22.608 170.312V172.312ZM24.3172 171.592C24.747 171.123 24.976 170.547 24.976 169.908H22.976C22.976 170.037 22.941 170.133 22.8428 170.24L24.3172 171.592ZM24.976 169.908V164.4H22.976V169.908H24.976ZM24.976 164.4C24.976 163.759 24.7445 163.178 24.2871 162.721L22.8729 164.135C22.9435 164.206 22.976 164.273 22.976 164.4H24.976ZM24.3172 162.752C23.8675 162.262 23.2778 161.996 22.608 161.996V163.996C22.7062 163.996 22.7645 164.018 22.8428 164.104L24.3172 162.752ZM22.608 161.996H6.444V163.996H22.608V161.996ZM6.444 161.996C5.77745 161.996 5.1918 162.258 4.72889 162.721L6.14311 164.135C6.2562 164.022 6.34255 163.996 6.444 163.996V161.996ZM4.72889 162.721C4.27146 163.178 4.04 163.759 4.04 164.4H6.04C6.04 164.273 6.07254 164.206 6.14311 164.135L4.72889 162.721ZM4.04 164.4V169.908H6.04V164.4H4.04ZM4.04 169.908C4.04 170.547 4.26905 171.123 4.69885 171.592L6.17315 170.24C6.07495 170.133 6.04 170.037 6.04 169.908H4.04ZM4.76028 171.653C5.22915 172.083 5.80502 172.312 6.444 172.312V170.312C6.31498 170.312 6.21885 170.277 6.11173 170.179L4.76028 171.653ZM32.0411 186H31.0411V187H32.0411V186ZM32.6171 162.24L33.4774 162.75L33.4814 162.743L33.4854 162.736L32.6171 162.24ZM34.1651 160.656L33.669 159.788L33.6621 159.792L33.6553 159.796L34.1651 160.656ZM55.8011 160.656L55.2913 161.516L55.2981 161.52L55.305 161.524L55.8011 160.656ZM57.3851 162.24L56.5169 162.736L56.5208 162.743L56.5248 162.75L57.3851 162.24ZM57.9611 186V187H58.9611V186H57.9611ZM55.0451 186H54.0451V187H55.0451V186ZM55.0451 176.532H56.0451V175.532H55.0451V176.532ZM34.9571 176.532V175.532H33.9571V176.532H34.9571ZM34.9571 186V187H35.9571V186H34.9571ZM34.9571 173.616H33.9571V174.616H34.9571V173.616ZM55.0451 173.616V174.616H56.0451V173.616H55.0451ZM54.6131 163.428L53.876 164.104L53.9054 164.136L53.9374 164.165L54.6131 163.428ZM35.3531 163.428L36.0602 164.135L36.0602 164.135L35.3531 163.428ZM33.0411 186V164.4H31.0411V186H33.0411ZM33.0411 164.4C33.0411 163.778 33.1897 163.235 33.4774 162.75L31.7568 161.73C31.2766 162.541 31.0411 163.438 31.0411 164.4H33.0411ZM33.4854 162.736C33.7859 162.21 34.1802 161.809 34.6749 161.516L33.6553 159.796C32.8541 160.271 32.2163 160.926 31.7489 161.744L33.4854 162.736ZM34.6613 161.524C35.1785 161.229 35.7389 161.08 36.3611 161.08V159.08C35.3993 159.08 34.4957 159.315 33.669 159.788L34.6613 161.524ZM36.3611 161.08H53.6411V159.08H36.3611V161.08ZM53.6411 161.08C54.2634 161.08 54.8057 161.229 55.2913 161.516L56.3109 159.796C55.5005 159.315 54.6029 159.08 53.6411 159.08V161.08ZM55.305 161.524C55.822 161.82 56.2215 162.219 56.5169 162.736L58.2534 161.744C57.7808 160.917 57.1243 160.26 56.2973 159.788L55.305 161.524ZM56.5248 162.75C56.8126 163.235 56.9611 163.778 56.9611 164.4H58.9611C58.9611 163.438 58.7257 162.541 58.2454 161.73L56.5248 162.75ZM56.9611 164.4V186H58.9611V164.4H56.9611ZM57.9611 185H55.0451V187H57.9611V185ZM56.0451 186V176.532H54.0451V186H56.0451ZM55.0451 175.532H34.9571V177.532H55.0451V175.532ZM33.9571 176.532V186H35.9571V176.532H33.9571ZM34.9571 185H32.0411V187H34.9571V185ZM34.9571 174.616H55.0451V172.616H34.9571V174.616ZM56.0451 173.616V164.4H54.0451V173.616H56.0451ZM56.0451 164.4C56.0451 163.73 55.7794 163.14 55.2889 162.691L53.9374 164.165C54.0229 164.243 54.0451 164.302 54.0451 164.4H56.0451ZM55.3503 162.752C54.9006 162.262 54.3109 161.996 53.6411 161.996V163.996C53.7393 163.996 53.7976 164.018 53.876 164.104L55.3503 162.752ZM53.6411 161.996H36.3611V163.996H53.6411V161.996ZM36.3611 161.996C35.6946 161.996 35.1089 162.258 34.646 162.721L36.0602 164.135C36.1733 164.022 36.2597 163.996 36.3611 163.996V161.996ZM34.646 162.721C34.1886 163.178 33.9571 163.759 33.9571 164.4H35.9571C35.9571 164.273 35.9897 164.206 36.0602 164.135L34.646 162.721ZM33.9571 164.4V173.616H35.9571V164.4H33.9571ZM62.0629 186H61.0629V187H62.0629V186ZM62.0629 160.08V159.08H61.0629V160.08H62.0629ZM66.0589 160.08L66.8243 159.436L66.5246 159.08H66.0589V160.08ZM85.0669 182.688L84.3015 183.332L86.0669 185.431V182.688H85.0669ZM85.0669 160.08V159.08H84.0669V160.08H85.0669ZM87.9829 160.08H88.9829V159.08H87.9829V160.08ZM87.9829 186V187H88.9829V186H87.9829ZM83.9869 186L83.2215 186.644L83.5212 187H83.9869V186ZM64.9789 163.392L65.7443 162.748L63.9789 160.649V163.392H64.9789ZM64.9789 186V187H65.9789V186H64.9789ZM63.0629 186V160.08H61.0629V186H63.0629ZM62.0629 161.08H66.0589V159.08H62.0629V161.08ZM65.2935 160.724L84.3015 183.332L85.8323 182.044L66.8243 159.436L65.2935 160.724ZM86.0669 182.688V160.08H84.0669V182.688H86.0669ZM85.0669 161.08H87.9829V159.08H85.0669V161.08ZM86.9829 160.08V186H88.9829V160.08H86.9829ZM87.9829 185H83.9869V187H87.9829V185ZM84.7523 185.356L65.7443 162.748L64.2135 164.036L83.2215 186.644L84.7523 185.356ZM63.9789 163.392V186H65.9789V163.392H63.9789ZM64.9789 185H62.0629V187H64.9789V185ZM92.052 186H91.052V187H92.052V186ZM92.052 160.08V159.08H91.052V160.08H92.052ZM95.004 160.08H96.004V159.08H95.004V160.08ZM95.004 171.564H94.004V172.564H95.004V171.564ZM103.356 171.564V172.564H103.822L104.122 172.207L103.356 171.564ZM113.004 160.08V159.08H112.538L112.238 159.437L113.004 160.08ZM116.748 160.08H117.748V159.08H116.748V160.08ZM116.748 160.116L117.514 160.758L117.748 160.48V160.116H116.748ZM105.912 173.04L105.146 172.398L104.606 173.041L105.147 173.684L105.912 173.04ZM116.784 185.964H117.784V185.599L117.549 185.32L116.784 185.964ZM116.784 186V187H117.784V186H116.784ZM113.004 186L112.238 186.643L112.538 187H113.004V186ZM103.356 174.516L104.122 173.873L103.822 173.516H103.356V174.516ZM95.004 174.516V173.516H94.004V174.516H95.004ZM95.004 186V187H96.004V186H95.004ZM93.052 186V160.08H91.052V186H93.052ZM92.052 161.08H95.004V159.08H92.052V161.08ZM94.004 160.08V171.564H96.004V160.08H94.004ZM95.004 172.564H103.356V170.564H95.004V172.564ZM104.122 172.207L113.77 160.723L112.238 159.437L102.59 170.921L104.122 172.207ZM113.004 161.08H116.748V159.08H113.004V161.08ZM115.748 160.08V160.116H117.748V160.08H115.748ZM115.982 159.474L105.146 172.398L106.678 173.682L117.514 160.758L115.982 159.474ZM105.147 173.684L116.019 186.608L117.549 185.32L106.677 172.396L105.147 173.684ZM115.784 185.964V186H117.784V185.964H115.784ZM116.784 185H113.004V187H116.784V185ZM113.77 185.357L104.122 173.873L102.59 175.159L112.238 186.643L113.77 185.357ZM103.356 173.516H95.004V175.516H103.356V173.516ZM94.004 174.516V186H96.004V174.516H94.004ZM95.004 185H92.052V187H95.004V185ZM132.564 185.424L132.054 186.284L132.061 186.288L132.068 186.292L132.564 185.424ZM131.016 183.876L130.148 184.372L130.152 184.379L130.156 184.386L131.016 183.876ZM131.016 162.24L131.876 162.75L131.88 162.743L131.884 162.736L131.016 162.24ZM132.564 160.656L132.068 159.788L132.061 159.792L132.054 159.796L132.564 160.656ZM154.2 160.656L153.69 161.516L153.697 161.52L153.704 161.524L154.2 160.656ZM155.784 162.24L154.916 162.736L154.92 162.743L154.924 162.75L155.784 162.24ZM155.784 183.876L156.644 184.386L156.648 184.379L156.652 184.372L155.784 183.876ZM154.2 185.424L153.704 184.556L153.697 184.56L153.69 184.564L154.2 185.424ZM153.012 182.688L153.719 183.395L153.012 182.688ZM153.012 163.428L152.275 164.104L152.304 164.136L152.336 164.165L153.012 163.428ZM133.752 163.428L134.459 164.135V164.135L133.752 163.428ZM133.752 182.688L133.015 183.364L133.044 183.396L133.076 183.425L133.752 182.688ZM134.76 185C134.138 185 133.577 184.851 133.06 184.556L132.068 186.292C132.895 186.765 133.798 187 134.76 187V185ZM133.074 184.564C132.57 184.265 132.175 183.87 131.876 183.366L130.156 184.386C130.625 185.178 131.262 185.815 132.054 186.284L133.074 184.564ZM131.884 183.38C131.589 182.863 131.44 182.302 131.44 181.68H129.44C129.44 182.642 129.675 183.545 130.148 184.372L131.884 183.38ZM131.44 181.68V164.4H129.44V181.68H131.44ZM131.44 164.4C131.44 163.778 131.589 163.235 131.876 162.75L130.156 161.73C129.676 162.541 129.44 163.438 129.44 164.4H131.44ZM131.884 162.736C132.185 162.21 132.579 161.809 133.074 161.516L132.054 159.796C131.253 160.271 130.615 160.926 130.148 161.744L131.884 162.736ZM133.06 161.524C133.577 161.229 134.138 161.08 134.76 161.08V159.08C133.798 159.08 132.895 159.315 132.068 159.788L133.06 161.524ZM134.76 161.08H152.04V159.08H134.76V161.08ZM152.04 161.08C152.662 161.08 153.205 161.229 153.69 161.516L154.71 159.796C153.899 159.315 153.002 159.08 152.04 159.08V161.08ZM153.704 161.524C154.221 161.82 154.62 162.219 154.916 162.736L156.652 161.744C156.18 160.917 155.523 160.26 154.696 159.788L153.704 161.524ZM154.924 162.75C155.212 163.235 155.36 163.778 155.36 164.4H157.36C157.36 163.438 157.125 162.541 156.644 161.73L154.924 162.75ZM155.36 164.4V181.68H157.36V164.4H155.36ZM155.36 181.68C155.36 182.302 155.211 182.863 154.916 183.38L156.652 184.372C157.125 183.545 157.36 182.642 157.36 181.68H155.36ZM154.924 183.366C154.631 183.861 154.23 184.255 153.704 184.556L154.696 186.292C155.514 185.825 156.17 185.187 156.644 184.386L154.924 183.366ZM153.69 184.564C153.205 184.851 152.662 185 152.04 185V187C153.002 187 153.899 186.765 154.71 186.284L153.69 184.564ZM152.04 185H134.76V187H152.04V185ZM134.76 184.084H152.04V182.084H134.76V184.084ZM152.04 184.084C152.681 184.084 153.262 183.853 153.719 183.395L152.305 181.981C152.234 182.051 152.167 182.084 152.04 182.084V184.084ZM153.719 183.395C154.182 182.932 154.444 182.347 154.444 181.68H152.444C152.444 181.781 152.418 181.868 152.305 181.981L153.719 183.395ZM154.444 181.68V164.4H152.444V181.68H154.444ZM154.444 164.4C154.444 163.73 154.178 163.14 153.688 162.691L152.336 164.165C152.422 164.243 152.444 164.302 152.444 164.4H154.444ZM153.749 162.752C153.3 162.262 152.71 161.996 152.04 161.996V163.996C152.138 163.996 152.197 164.018 152.275 164.104L153.749 162.752ZM152.04 161.996H134.76V163.996H152.04V161.996ZM134.76 161.996C134.094 161.996 133.508 162.258 133.045 162.721L134.459 164.135C134.572 164.022 134.659 163.996 134.76 163.996V161.996ZM133.045 162.721C132.588 163.178 132.356 163.759 132.356 164.4H134.356C134.356 164.273 134.389 164.206 134.459 164.135L133.045 162.721ZM132.356 164.4V181.68H134.356V164.4H132.356ZM132.356 181.68C132.356 182.319 132.585 182.895 133.015 183.364L134.489 182.012C134.391 181.905 134.356 181.809 134.356 181.68H132.356ZM133.076 183.425C133.545 183.855 134.121 184.084 134.76 184.084V182.084C134.631 182.084 134.535 182.049 134.428 181.951L133.076 183.425ZM160.397 186H159.397V187H160.397V186ZM160.397 160.08V159.08H159.397V160.08H160.397ZM184.049 160.08H185.049V159.08H184.049V160.08ZM184.049 162.996V163.996H185.049V162.996H184.049ZM163.313 162.996V161.996H162.313V162.996H163.313ZM163.313 171.564H162.313V172.564H163.313V171.564ZM179.981 171.564H180.981V170.564H179.981V171.564ZM179.981 174.516V175.516H180.981V174.516H179.981ZM163.313 174.516V173.516H162.313V174.516H163.313ZM163.313 186V187H164.313V186H163.313ZM161.397 186V160.08H159.397V186H161.397ZM160.397 161.08H184.049V159.08H160.397V161.08ZM183.049 160.08V162.996H185.049V160.08H183.049ZM184.049 161.996H163.313V163.996H184.049V161.996ZM162.313 162.996V171.564H164.313V162.996H162.313ZM163.313 172.564H179.981V170.564H163.313V172.564ZM178.981 171.564V174.516H180.981V171.564H178.981ZM179.981 173.516H163.313V175.516H179.981V173.516ZM162.313 174.516V186H164.313V174.516H162.313ZM163.313 185H160.397V187H163.313V185ZM196.149 186H195.149V187H196.149V186ZM196.149 160.08V159.08H195.149V160.08H196.149ZM200.145 160.08L200.91 159.436L200.611 159.08H200.145V160.08ZM219.153 182.688L218.387 183.332L220.153 185.431V182.688H219.153ZM219.153 160.08V159.08H218.153V160.08H219.153ZM222.069 160.08H223.069V159.08H222.069V160.08ZM222.069 186V187H223.069V186H222.069ZM218.073 186L217.307 186.644L217.607 187H218.073V186ZM199.065 163.392L199.83 162.748L198.065 160.649V163.392H199.065ZM199.065 186V187H200.065V186H199.065ZM197.149 186V160.08H195.149V186H197.149ZM196.149 161.08H200.145V159.08H196.149V161.08ZM199.379 160.724L218.387 183.332L219.918 182.044L200.91 159.436L199.379 160.724ZM220.153 182.688V160.08H218.153V182.688H220.153ZM219.153 161.08H222.069V159.08H219.153V161.08ZM221.069 160.08V186H223.069V160.08H221.069ZM222.069 185H218.073V187H222.069V185ZM218.838 185.356L199.83 162.748L198.299 164.036L217.307 186.644L218.838 185.356ZM198.065 163.392V186H200.065V163.392H198.065ZM199.065 185H196.149V187H199.065V185ZM228.154 185.424L227.644 186.284L227.651 186.288L227.658 186.292L228.154 185.424ZM226.606 183.876L225.738 184.372L225.742 184.379L225.746 184.386L226.606 183.876ZM226.606 162.24L227.466 162.75L227.47 162.743L227.474 162.736L226.606 162.24ZM228.154 160.656L227.658 159.788L227.651 159.792L227.644 159.796L228.154 160.656ZM249.79 160.656L249.28 161.516L249.287 161.52L249.294 161.524L249.79 160.656ZM251.374 162.24L250.506 162.736L250.51 162.743L250.514 162.75L251.374 162.24ZM251.374 183.876L252.234 184.386L252.238 184.379L252.242 184.372L251.374 183.876ZM249.79 185.424L249.294 184.556L249.287 184.56L249.28 184.564L249.79 185.424ZM248.602 182.688L249.309 183.395L248.602 182.688ZM248.602 163.428L247.865 164.104L247.894 164.136L247.926 164.165L248.602 163.428ZM229.342 163.428L230.049 164.135V164.135L229.342 163.428ZM229.342 182.688L228.605 183.364L228.634 183.396L228.666 183.425L229.342 182.688ZM230.35 185C229.728 185 229.167 184.851 228.65 184.556L227.658 186.292C228.485 186.765 229.388 187 230.35 187V185ZM228.664 184.564C228.16 184.265 227.765 183.87 227.466 183.366L225.746 184.386C226.215 185.178 226.852 185.815 227.644 186.284L228.664 184.564ZM227.474 183.38C227.179 182.863 227.03 182.302 227.03 181.68H225.03C225.03 182.642 225.265 183.545 225.738 184.372L227.474 183.38ZM227.03 181.68V164.4H225.03V181.68H227.03ZM227.03 164.4C227.03 163.778 227.178 163.235 227.466 162.75L225.746 161.73C225.265 162.541 225.03 163.438 225.03 164.4H227.03ZM227.474 162.736C227.775 162.21 228.169 161.809 228.664 161.516L227.644 159.796C226.843 160.271 226.205 160.926 225.738 161.744L227.474 162.736ZM228.65 161.524C229.167 161.229 229.728 161.08 230.35 161.08V159.08C229.388 159.08 228.485 159.315 227.658 159.788L228.65 161.524ZM230.35 161.08H247.63V159.08H230.35V161.08ZM247.63 161.08C248.252 161.08 248.795 161.229 249.28 161.516L250.3 159.796C249.489 159.315 248.592 159.08 247.63 159.08V161.08ZM249.294 161.524C249.811 161.82 250.21 162.219 250.506 162.736L252.242 161.744C251.77 160.917 251.113 160.26 250.286 159.788L249.294 161.524ZM250.514 162.75C250.801 163.235 250.95 163.778 250.95 164.4H252.95C252.95 163.438 252.714 162.541 252.234 161.73L250.514 162.75ZM250.95 164.4V181.68H252.95V164.4H250.95ZM250.95 181.68C250.95 182.302 250.801 182.863 250.506 183.38L252.242 184.372C252.715 183.545 252.95 182.642 252.95 181.68H250.95ZM250.514 183.366C250.22 183.861 249.82 184.255 249.294 184.556L250.286 186.292C251.104 185.825 251.759 185.187 252.234 184.386L250.514 183.366ZM249.28 184.564C248.795 184.851 248.252 185 247.63 185V187C248.592 187 249.489 186.765 250.3 186.284L249.28 184.564ZM247.63 185H230.35V187H247.63V185ZM230.35 184.084H247.63V182.084H230.35V184.084ZM247.63 184.084C248.271 184.084 248.852 183.853 249.309 183.395L247.895 181.981C247.824 182.051 247.757 182.084 247.63 182.084V184.084ZM249.309 183.395C249.772 182.932 250.034 182.347 250.034 181.68H248.034C248.034 181.781 248.008 181.868 247.895 181.981L249.309 183.395ZM250.034 181.68V164.4H248.034V181.68H250.034ZM250.034 164.4C250.034 163.73 249.768 163.14 249.278 162.691L247.926 164.165C248.012 164.243 248.034 164.302 248.034 164.4H250.034ZM249.339 162.752C248.889 162.262 248.3 161.996 247.63 161.996V163.996C247.728 163.996 247.786 164.018 247.865 164.104L249.339 162.752ZM247.63 161.996H230.35V163.996H247.63V161.996ZM230.35 161.996C229.683 161.996 229.098 162.258 228.635 162.721L230.049 164.135C230.162 164.022 230.248 163.996 230.35 163.996V161.996ZM228.635 162.721C228.177 163.178 227.946 163.759 227.946 164.4H229.946C229.946 164.273 229.978 164.206 230.049 164.135L228.635 162.721ZM227.946 164.4V181.68H229.946V164.4H227.946ZM227.946 181.68C227.946 182.319 228.175 182.895 228.605 183.364L230.079 182.012C229.981 181.905 229.946 181.809 229.946 181.68H227.946ZM228.666 183.425C229.135 183.855 229.711 184.084 230.35 184.084V182.084C230.221 182.084 230.125 182.049 230.018 181.951L228.666 183.425ZM263.606 186L262.666 186.342L262.906 187H263.606V186ZM254.174 160.08V159.08H252.746L253.234 160.422L254.174 160.08ZM257.27 160.08L258.209 159.737L257.97 159.08H257.27V160.08ZM264.866 180.888L263.927 181.231L264.868 183.81L265.806 181.229L264.866 180.888ZM272.426 160.08V159.08H271.725L271.486 159.739L272.426 160.08ZM275.954 160.08L276.893 159.737L276.654 159.08H275.954V160.08ZM283.55 180.888L282.611 181.231L283.555 183.816L284.49 181.228L283.55 180.888ZM291.074 160.08V159.08H290.372L290.134 159.74L291.074 160.08ZM294.242 160.08L295.182 160.422L295.67 159.08H294.242V160.08ZM284.81 186V187H285.51L285.75 186.342L284.81 186ZM282.254 186L281.314 186.342L281.554 187H282.254V186ZM274.19 163.86L275.13 163.518L274.19 160.938L273.25 163.518L274.19 163.86ZM266.126 186V187H266.826L267.066 186.342L266.126 186ZM264.546 185.658L255.114 159.738L253.234 160.422L262.666 186.342L264.546 185.658ZM254.174 161.08H257.27V159.08H254.174V161.08ZM256.331 160.423L263.927 181.231L265.805 180.545L258.209 159.737L256.331 160.423ZM265.806 181.229L273.366 160.421L271.486 159.739L263.926 180.547L265.806 181.229ZM272.426 161.08H275.954V159.08H272.426V161.08ZM275.015 160.423L282.611 181.231L284.489 180.545L276.893 159.737L275.015 160.423ZM284.49 181.228L292.014 160.42L290.134 159.74L282.61 180.548L284.49 181.228ZM291.074 161.08H294.242V159.08H291.074V161.08ZM293.302 159.738L283.87 185.658L285.75 186.342L295.182 160.422L293.302 159.738ZM284.81 185H282.254V187H284.81V185ZM283.194 185.658L275.13 163.518L273.25 164.202L281.314 186.342L283.194 185.658ZM273.25 163.518L265.186 185.658L267.066 186.342L275.13 164.202L273.25 163.518ZM266.126 185H263.606V187H266.126V185ZM297.4 186H296.4V187H297.4V186ZM297.4 160.08V159.08H296.4V160.08H297.4ZM300.316 160.08H301.316V159.08H300.316V160.08ZM300.316 171.564H299.316V172.564H300.316V171.564ZM321.016 171.564V172.564H322.016V171.564H321.016ZM321.016 160.08V159.08H320.016V160.08H321.016ZM323.968 160.08H324.968V159.08H323.968V160.08ZM323.968 186V187H324.968V186H323.968ZM321.016 186H320.016V187H321.016V186ZM321.016 174.516H322.016V173.516H321.016V174.516ZM300.316 174.516V173.516H299.316V174.516H300.316ZM300.316 186V187H301.316V186H300.316ZM298.4 186V160.08H296.4V186H298.4ZM297.4 161.08H300.316V159.08H297.4V161.08ZM299.316 160.08V171.564H301.316V160.08H299.316ZM300.316 172.564H321.016V170.564H300.316V172.564ZM322.016 171.564V160.08H320.016V171.564H322.016ZM321.016 161.08H323.968V159.08H321.016V161.08ZM322.968 160.08V186H324.968V160.08H322.968ZM323.968 185H321.016V187H323.968V185ZM322.016 186V174.516H320.016V186H322.016ZM321.016 173.516H300.316V175.516H321.016V173.516ZM299.316 174.516V186H301.316V174.516H299.316ZM300.316 185H297.4V187H300.316V185ZM328.057 186H327.057V187H328.057V186ZM328.057 160.08V159.08H327.057V160.08H328.057ZM351.709 160.08H352.709V159.08H351.709V160.08ZM351.709 162.996V163.996H352.709V162.996H351.709ZM330.973 162.996V161.996H329.973V162.996H330.973ZM330.973 171.564H329.973V172.564H330.973V171.564ZM347.641 171.564H348.641V170.564H347.641V171.564ZM347.641 174.516V175.516H348.641V174.516H347.641ZM330.973 174.516V173.516H329.973V174.516H330.973ZM330.973 183.084H329.973V184.084H330.973V183.084ZM351.709 183.084H352.709V182.084H351.709V183.084ZM351.709 186V187H352.709V186H351.709ZM329.057 186V160.08H327.057V186H329.057ZM328.057 161.08H351.709V159.08H328.057V161.08ZM350.709 160.08V162.996H352.709V160.08H350.709ZM351.709 161.996H330.973V163.996H351.709V161.996ZM329.973 162.996V171.564H331.973V162.996H329.973ZM330.973 172.564H347.641V170.564H330.973V172.564ZM346.641 171.564V174.516H348.641V171.564H346.641ZM347.641 173.516H330.973V175.516H347.641V173.516ZM329.973 174.516V183.084H331.973V174.516H329.973ZM330.973 184.084H351.709V182.084H330.973V184.084ZM350.709 183.084V186H352.709V183.084H350.709ZM351.709 185H328.057V187H351.709V185ZM377.435 186L376.669 186.643L376.969 187H377.435V186ZM368.975 175.92V174.92H366.83L368.209 176.563L368.975 175.92ZM372.791 175.92L373.555 175.274L373.255 174.92H372.791V175.92ZM381.287 185.964H382.287V185.598L382.051 185.318L381.287 185.964ZM381.287 186V187H382.287V186H381.287ZM355.547 186H354.547V187H355.547V186ZM355.547 160.116V159.116H354.547V160.116H355.547ZM379.307 160.728L378.774 161.574L378.793 161.586L378.811 161.596L379.307 160.728ZM380.891 162.276L381.752 161.766V161.766L380.891 162.276ZM380.891 174.192L381.752 174.702V174.702L380.891 174.192ZM379.307 175.776L379.817 176.636L379.826 176.631L379.307 175.776ZM358.463 176.352V175.352H357.463V176.352H358.463ZM358.463 186V187H359.463V186H358.463ZM378.119 173.004L377.444 172.267L377.428 172.282L377.412 172.297L378.119 173.004ZM378.119 163.464L377.382 164.14L377.411 164.172L377.444 164.201L378.119 163.464ZM358.859 163.464L358.152 162.757V162.757L358.859 163.464ZM358.859 173.004L358.152 173.711L358.168 173.726L358.184 173.741L358.859 173.004ZM378.201 185.357L369.741 175.277L368.209 176.563L376.669 186.643L378.201 185.357ZM368.975 176.92H372.791V174.92H368.975V176.92ZM372.028 176.566L380.524 186.61L382.051 185.318L373.555 175.274L372.028 176.566ZM380.287 185.964V186H382.287V185.964H380.287ZM381.287 185H377.435V187H381.287V185ZM356.547 186V160.116H354.547V186H356.547ZM355.547 161.116H377.147V159.116H355.547V161.116ZM377.147 161.116C377.758 161.116 378.292 161.27 378.774 161.574L379.84 159.882C379.027 159.37 378.121 159.116 377.147 159.116V161.116ZM378.811 161.596C379.337 161.897 379.738 162.291 380.031 162.786L381.752 161.766C381.277 160.965 380.621 160.327 379.803 159.86L378.811 161.596ZM380.031 162.786C380.319 163.271 380.467 163.814 380.467 164.436H382.467C382.467 163.474 382.232 162.577 381.752 161.766L380.031 162.786ZM380.467 164.436V172.032H382.467V164.436H380.467ZM380.467 172.032C380.467 172.654 380.319 173.197 380.031 173.682L381.752 174.702C382.232 173.891 382.467 172.994 382.467 172.032H380.467ZM380.031 173.682C379.734 174.183 379.326 174.595 378.788 174.921L379.826 176.631C380.632 176.141 381.28 175.497 381.752 174.702L380.031 173.682ZM378.797 174.916C378.312 175.203 377.769 175.352 377.147 175.352V177.352C378.109 177.352 379.007 177.117 379.817 176.636L378.797 174.916ZM377.147 175.352H358.463V177.352H377.147V175.352ZM357.463 176.352V186H359.463V176.352H357.463ZM358.463 185H355.547V187H358.463V185ZM359.867 174.4H377.147V172.4H359.867V174.4ZM377.147 174.4C377.788 174.4 378.369 174.169 378.826 173.711L377.412 172.297C377.342 172.367 377.275 172.4 377.147 172.4V174.4ZM378.795 173.741C379.285 173.292 379.551 172.702 379.551 172.032H377.551C377.551 172.13 377.529 172.188 377.444 172.267L378.795 173.741ZM379.551 172.032V164.436H377.551V172.032H379.551ZM379.551 164.436C379.551 163.766 379.285 163.176 378.795 162.727L377.444 164.201C377.529 164.28 377.551 164.338 377.551 164.436H379.551ZM378.856 162.788C378.407 162.298 377.817 162.032 377.147 162.032V164.032C377.245 164.032 377.304 164.054 377.382 164.14L378.856 162.788ZM377.147 162.032H359.867V164.032H377.147V162.032ZM359.867 162.032C359.201 162.032 358.615 162.294 358.152 162.757L359.566 164.171C359.679 164.058 359.766 164.032 359.867 164.032V162.032ZM358.152 162.757C357.695 163.214 357.463 163.795 357.463 164.436H359.463C359.463 164.309 359.496 164.242 359.566 164.171L358.152 162.757ZM357.463 164.436V172.032H359.463V164.436H357.463ZM357.463 172.032C357.463 172.673 357.695 173.254 358.152 173.711L359.566 172.297C359.496 172.226 359.463 172.159 359.463 172.032H357.463ZM358.184 173.741C358.652 174.171 359.228 174.4 359.867 174.4V172.4C359.738 172.4 359.642 172.365 359.535 172.267L358.184 173.741ZM385.326 186H384.326V187H385.326V186ZM385.326 160.08V159.08H384.326V160.08H385.326ZM408.978 160.08H409.978V159.08H408.978V160.08ZM408.978 162.996V163.996H409.978V162.996H408.978ZM388.242 162.996V161.996H387.242V162.996H388.242ZM388.242 171.564H387.242V172.564H388.242V171.564ZM404.91 171.564H405.91V170.564H404.91V171.564ZM404.91 174.516V175.516H405.91V174.516H404.91ZM388.242 174.516V173.516H387.242V174.516H388.242ZM388.242 183.084H387.242V184.084H388.242V183.084ZM408.978 183.084H409.978V182.084H408.978V183.084ZM408.978 186V187H409.978V186H408.978ZM386.326 186V160.08H384.326V186H386.326ZM385.326 161.08H408.978V159.08H385.326V161.08ZM407.978 160.08V162.996H409.978V160.08H407.978ZM408.978 161.996H388.242V163.996H408.978V161.996ZM387.242 162.996V171.564H389.242V162.996H387.242ZM388.242 172.564H404.91V170.564H388.242V172.564ZM403.91 171.564V174.516H405.91V171.564H403.91ZM404.91 173.516H388.242V175.516H404.91V173.516ZM387.242 174.516V183.084H389.242V174.516H387.242ZM388.242 184.084H408.978V182.084H388.242V184.084ZM407.978 183.084V186H409.978V183.084H407.978ZM408.978 185H385.326V187H408.978V185Z" fill="#54FF65"/>
<path fill-rule="evenodd" clip-rule="evenodd" d="M203.965 5.70597C204.475 5.43118 205.089 5.43118 205.599 5.70597L258.571 34.2447C259.129 34.5452 259.477 35.1277 259.477 35.7613V47.9921C259.477 48.9435 258.705 49.7148 257.754 49.7148H151.811C150.859 49.7148 150.088 48.9435 150.088 47.9921V35.7613C150.088 35.1277 150.436 34.5452 150.993 34.2447L203.965 5.70597ZM153.533 36.7899V46.2695H256.031V36.7899L204.782 9.1793L153.533 36.7899Z" fill="#54FF65"/>
<path fill-rule="evenodd" clip-rule="evenodd" d="M231.633 47.8616C231.633 46.9102 232.404 46.1389 233.355 46.1389H249.721C250.672 46.1389 251.443 46.9102 251.443 47.8616V88.6312C251.443 89.5826 250.672 90.3539 249.721 90.3539H233.355C232.404 90.3539 231.633 89.5826 231.633 88.6312V47.8616ZM235.078 49.5843V86.9085H247.998V49.5843H235.078Z" fill="#54FF65"/>
<path fill-rule="evenodd" clip-rule="evenodd" d="M158.424 47.8616C158.424 46.9102 159.195 46.1389 160.146 46.1389H176.512C177.463 46.1389 178.234 46.9102 178.234 47.8616V88.6312C178.234 89.5826 177.463 90.3539 176.512 90.3539H160.146C159.195 90.3539 158.424 89.5826 158.424 88.6312V47.8616ZM161.869 49.5843V86.9085H174.789V49.5843H161.869Z" fill="#54FF65"/>
<path fill-rule="evenodd" clip-rule="evenodd" d="M150.088 88.7618C150.088 87.8104 150.859 87.0392 151.811 87.0392H257.754C258.705 87.0392 259.477 87.8104 259.477 88.7618V100.82C259.477 101.772 258.705 102.543 257.754 102.543H151.811C150.859 102.543 150.088 101.772 150.088 100.82V88.7618ZM153.533 90.4845V99.0978H256.031V90.4845H153.533Z" fill="#54FF65"/>
<path fill-rule="evenodd" clip-rule="evenodd" d="M142.056 100.82C142.056 99.8691 142.827 99.0978 143.778 99.0978H266.087C267.039 99.0978 267.81 99.8691 267.81 100.82V113.166C267.81 114.118 267.039 114.889 266.087 114.889H143.778C142.827 114.889 142.056 114.118 142.056 113.166V100.82ZM145.501 102.543V111.444H264.365V102.543H145.501Z" fill="#54FF65"/>
<path fill-rule="evenodd" clip-rule="evenodd" d="M207.155 76.3306L204.114 68.102C204.071 67.981 204.067 67.847 204.114 67.7219C204.218 67.4365 204.533 67.2897 204.823 67.3934L212.991 70.4127C213.094 70.0756 213.176 69.7299 213.241 69.3802C213.332 68.8619 213.384 68.3219 213.384 67.7646C213.384 65.2809 212.377 63.0262 210.749 61.3978C209.12 59.7735 206.87 58.7628 204.382 58.7628C201.898 58.7628 199.648 59.7735 198.015 61.3978C196.391 63.026 195.38 65.2809 195.38 67.7646C195.38 70.2485 196.391 72.4989 198.019 74.1272C199.648 75.7558 201.898 76.7665 204.382 76.7665C204.961 76.7665 205.518 76.7105 206.058 76.6109C206.429 76.5423 206.797 76.4475 207.155 76.3306ZM213.012 76.2917C211.812 77.4885 210.356 78.4343 208.74 79.0305C208.455 79.1383 208.135 78.987 208.032 78.702L207.539 77.3671C207.124 77.5054 206.697 77.6134 206.261 77.6954C205.648 77.8119 205.021 77.8727 204.382 77.8727C201.591 77.8727 199.064 76.7408 197.237 74.9094C195.406 73.0821 194.274 70.5554 194.274 67.7648C194.274 64.9788 195.406 62.4561 197.229 60.6291L197.237 60.6204C199.069 58.789 201.595 57.6573 204.382 57.6573C207.168 57.6573 209.69 58.789 211.517 60.6117L211.526 60.6161C213.357 62.4477 214.489 64.9746 214.489 67.765C214.489 68.3742 214.433 68.9789 214.325 69.575C214.252 69.9896 214.148 70.4 214.027 70.793L215.422 71.3113C215.707 71.4152 215.854 71.7347 215.75 72.0199C215.154 73.6355 214.213 75.0866 213.02 76.2834L213.012 76.2917ZM208.87 77.7906C210.131 77.2463 211.272 76.4687 212.231 75.5143L212.243 75.5011C213.194 74.5467 213.971 73.4106 214.511 72.1491L213.146 71.6481L213.133 71.6394L213.12 71.6351L205.565 68.8445L208.373 76.4514L208.381 76.4642L208.386 76.4774L208.87 77.7906ZM195.462 77.9287C197.911 80.3782 201.293 81.8941 205.03 81.8941C208.766 81.8941 212.148 80.3782 214.598 77.9287C217.047 75.4797 218.563 72.0976 218.563 68.361C218.563 64.6247 217.047 61.2424 214.598 58.7933C212.148 56.3484 208.766 54.8323 205.03 54.8323C201.293 54.8323 197.911 56.3482 195.462 58.7933C193.013 61.2424 191.501 64.6247 191.501 68.361C191.501 72.0976 193.013 75.4797 195.462 77.9287ZM205.03 82.9569C201 82.9569 197.354 81.3199 194.711 78.6806C192.071 76.0413 190.439 72.3911 190.439 68.3612C190.439 64.3357 192.071 60.6855 194.711 58.0421C197.354 55.4028 201 53.7699 205.03 53.7699C209.06 53.7699 212.71 55.4028 215.349 58.0421C217.988 60.6855 219.626 64.3314 219.626 68.3612C219.626 72.3911 217.988 76.0415 215.349 78.6806C212.71 81.3197 209.06 82.9569 205.03 82.9569ZM216.416 56.9793C216.209 56.7719 216.209 56.435 216.416 56.2278C216.619 56.0205 216.96 56.0205 217.163 56.2278C220.515 59.5798 222.191 63.9726 222.191 68.3612C222.191 72.7542 220.515 77.1472 217.163 80.4992C216.96 80.702 216.619 80.702 216.416 80.4992C216.209 80.2918 216.209 79.9549 216.416 79.7478C219.556 76.6031 221.128 72.4824 221.128 68.3614C221.129 64.2403 219.556 60.1237 216.416 56.9793ZM193.648 79.7473C193.855 79.9547 193.855 80.2916 193.648 80.4988C193.441 80.7016 193.104 80.7016 192.896 80.4988C189.544 77.1468 187.868 72.754 187.868 68.3608C187.868 63.9722 189.544 59.5794 192.896 56.2274C193.104 56.0201 193.441 56.0201 193.648 56.2274C193.855 56.4348 193.855 56.7717 193.648 56.9789C190.503 60.1235 188.931 64.2399 188.931 68.3608C188.931 72.482 190.503 76.6029 193.648 79.7473ZM179.13 59.2684C179.234 59.0137 179.07 58.7027 178.849 58.6118C178.525 58.4823 178.245 58.6334 178.128 58.923L177.791 59.9467C177.588 60.4518 178.387 60.9833 178.772 60.344C178.905 60.0159 179.009 59.6142 179.13 59.2684ZM185.989 56.1584C180.003 59.0137 174.564 63.1818 169.925 68.361C174.565 73.5444 180.003 77.7084 185.989 80.568C191.877 83.38 198.304 84.9218 205.03 84.9218C211.76 84.9218 218.183 83.38 224.07 80.568C226.619 79.3539 229.064 77.9028 231.392 76.2356C231.345 76.283 231.306 76.3434 231.275 76.4211C231.15 76.7538 231.051 77.1167 230.93 77.4537C230.826 77.7129 230.995 78.0239 231.21 78.1103C231.534 78.2399 231.82 78.0887 231.936 77.8036L232.273 76.7799C232.459 76.309 231.893 75.9634 231.517 76.145C234.619 73.9119 237.508 71.3027 240.139 68.361C235.5 63.1818 230.061 59.0137 224.07 56.1584C218.183 53.3464 211.76 51.8002 205.03 51.8002C198.304 51.8002 191.877 53.3466 185.989 56.1584Z" fill="#54FF65"/>
<g clip-path="url(#clip0_58_1361)">
<path d="M204.784 0.154649C205.029 2.26979 204.689 4.83439 204.666 7.0035C204.642 9.25719 203.87 12.6353 204.85 14.715C204.991 15.0146 205.495 15.0106 205.638 14.715C206.714 12.4806 206.047 8.69256 206.043 6.25442C206.039 4.01604 206.077 2.06037 205.078 0.0749079C205.009 -0.0587989 204.766 -0.00161108 204.784 0.154649Z" fill="#54FF65"/>
<path d="M204.784 117.216C205.029 119.331 204.689 121.896 204.666 124.065C204.642 126.318 203.87 129.696 204.85 131.776C204.991 132.076 205.495 132.072 205.638 131.776C206.714 129.542 206.047 125.754 206.043 123.315C206.039 121.076 206.077 119.122 205.078 117.136C205.009 117.002 204.766 117.06 204.784 117.216Z" fill="#54FF65"/>
<path d="M270.846 65.485C268.731 65.7307 266.166 65.39 263.997 65.3674C261.743 65.3441 258.365 64.5716 256.285 65.5511C255.985 65.6928 255.989 66.1963 256.285 66.3396C258.52 67.4157 262.309 66.7488 264.747 66.744C266.985 66.7391 268.941 66.7786 270.925 65.7798C271.059 65.7106 271.002 65.4665 270.846 65.485Z" fill="#54FF65"/>
<path d="M153.784 65.485C151.669 65.7307 149.105 65.39 146.935 65.3674C144.682 65.3441 141.304 64.5716 139.224 65.5511C138.923 65.6928 138.927 66.1963 139.224 66.3396C141.459 67.4157 145.247 66.7488 147.684 66.744C149.923 66.7391 151.878 66.7786 153.863 65.7798C153.998 65.7106 153.94 65.4665 153.784 65.485Z" fill="#54FF65"/>
<path d="M251.83 112.021C251.249 111.576 250.723 110.706 250.195 110.154C249.162 109.073 248.032 108.073 246.988 107.002C245.994 105.983 245.017 104.949 244.036 103.917C243.33 103.173 242.56 102.064 241.525 101.799C241.184 101.711 240.879 102.02 240.963 102.359C241.222 103.389 242.307 104.195 243.023 104.929C244.142 106.078 245.261 107.226 246.395 108.359C248.035 110 249.492 111.616 251.709 112.309C251.894 112.367 251.961 112.122 251.83 112.021Z" fill="#54FF65"/>
<path d="M169.056 29.2464C168.475 28.8018 167.948 27.9311 167.42 27.3786C166.387 26.2976 165.258 25.2989 164.212 24.2268C163.218 23.2079 162.241 22.1737 161.262 21.1427C160.555 20.3984 159.785 19.2901 158.75 19.0243C158.41 18.9365 158.104 19.2458 158.189 19.5849C158.448 20.6151 159.533 21.4206 160.249 22.1551C161.367 23.3037 162.486 24.4515 163.619 25.5848C165.26 27.2255 166.716 28.8421 168.934 29.5348C169.119 29.592 169.187 29.3471 169.056 29.2464Z" fill="#54FF65"/>
<path d="M158.979 112.531C159.424 111.951 160.294 111.425 160.847 110.896C161.928 109.864 162.928 108.734 163.999 107.689C165.018 106.696 166.052 105.718 167.084 104.738C167.828 104.031 168.937 103.261 169.202 102.227C169.29 101.886 168.981 101.581 168.641 101.666C167.611 101.924 166.805 103.01 166.071 103.726C164.923 104.845 163.774 105.964 162.641 107.098C161 108.738 159.384 110.195 158.691 112.412C158.634 112.594 158.878 112.663 158.979 112.531Z" fill="#54FF65"/>
<path d="M241.753 29.7563C242.199 29.1748 243.068 28.6496 243.622 28.1212C244.702 27.0886 245.702 25.9585 246.774 24.9139C247.793 23.9207 248.827 22.9429 249.859 21.9635C250.603 21.2563 251.711 20.4862 251.977 19.452C252.065 19.1113 251.755 18.8052 251.415 18.8914C250.385 19.15 249.58 20.2349 248.845 20.951C247.697 22.0698 246.549 23.1886 245.416 24.3227C243.775 25.9626 242.157 27.4197 241.466 29.6371C241.408 29.8191 241.652 29.8876 241.753 29.7563Z" fill="#54FF65"/>
<path d="M230.534 5.27902C229.959 7.24918 228.638 9.50045 227.801 11.4094C226.941 13.3723 224.721 16.429 224.895 18.6239C224.928 19.0403 225.359 19.2022 225.674 18.9461C226.55 18.2373 226.897 16.8906 227.342 15.8821C227.989 14.4146 228.634 12.9462 229.259 11.4682C230.137 9.39413 230.996 7.55042 230.843 5.3201C230.831 5.14692 230.585 5.10262 230.534 5.27902Z" fill="#54FF65"/>
<path d="M184.691 112.99C184.116 114.96 182.795 117.211 181.958 119.12C181.097 121.083 178.878 124.14 179.052 126.335C179.085 126.752 179.515 126.914 179.83 126.657C180.706 125.948 181.053 124.601 181.498 123.593C182.145 122.125 182.79 120.656 183.416 119.179C184.294 117.105 185.152 115.261 184.999 113.031C184.988 112.857 184.742 112.813 184.691 112.99Z" fill="#54FF65"/>
<path d="M265.72 91.2341C263.75 90.6598 261.499 89.338 259.59 88.5011C257.627 87.6417 254.57 85.4219 252.375 85.595C251.958 85.6281 251.796 86.0582 252.053 86.3739C252.761 87.2503 254.109 87.5958 255.117 88.0412C256.585 88.6896 258.054 89.3332 259.531 89.959C261.605 90.8378 263.45 91.6956 265.679 91.5434C265.853 91.5321 265.897 91.2856 265.72 91.2341Z" fill="#54FF65"/>
<path d="M158.01 45.3912C156.04 44.8169 153.788 43.4951 151.88 42.6582C149.918 41.7988 146.86 39.579 144.665 39.7529C144.248 39.786 144.086 40.2161 144.343 40.5318C145.051 41.4082 146.398 41.7545 147.407 42.1991C148.874 42.8467 150.343 43.4911 151.821 44.1161C153.895 44.9949 155.738 45.8527 157.969 45.7005C158.143 45.6892 158.186 45.4427 158.01 45.3912Z" fill="#54FF65"/>
<path d="M230.029 126.629C229.036 124.818 228.39 122.313 227.625 120.356C226.847 118.36 226.254 114.635 224.58 113.207C224.262 112.936 223.844 113.127 223.801 113.529C223.683 114.653 224.392 115.854 224.791 116.883C225.371 118.379 225.954 119.874 226.556 121.361C227.395 123.432 228.103 125.357 229.781 126.819C229.915 126.936 230.118 126.79 230.029 126.629Z" fill="#54FF65"/>
<path d="M186.282 18.0504C185.289 16.2389 184.643 13.734 183.878 11.7767C183.099 9.78236 182.507 6.05629 180.833 4.62901C180.515 4.35757 180.097 4.54766 180.054 4.95119C179.936 6.07401 180.645 7.27576 181.045 8.30514C181.625 9.80008 182.208 11.295 182.809 12.7819C183.649 14.8535 184.357 16.7786 186.035 18.2405C186.168 18.3573 186.371 18.2115 186.282 18.0504Z" fill="#54FF65"/>
<path d="M144.371 90.7307C146.183 89.7375 148.688 89.0924 150.646 88.3272C152.64 87.5483 156.366 86.9563 157.794 85.2825C158.066 84.9644 157.875 84.5463 157.472 84.5037C156.348 84.3861 155.147 85.0941 154.118 85.4936C152.622 86.0735 151.128 86.6558 149.64 87.2583C147.569 88.0976 145.645 88.8056 144.181 90.4834C144.064 90.6171 144.209 90.8193 144.371 90.7307Z" fill="#54FF65"/>
<path d="M252.95 46.9843C254.761 45.9904 257.267 45.3444 259.224 44.5808C261.219 43.8012 264.945 43.2091 266.373 41.5354C266.644 41.2172 266.453 40.7992 266.05 40.7565C264.927 40.6389 263.726 41.3477 262.696 41.7464C261.2 42.3264 259.706 42.9095 258.219 43.5112C256.147 44.3505 254.222 45.0585 252.76 46.7371C252.644 46.87 252.789 47.0721 252.95 46.9843Z" fill="#54FF65"/>
<path d="M204.854 22.2267C204.864 22.644 204.636 23.1571 204.598 23.6105C204.509 24.6496 204.611 25.7305 204.597 26.7744C204.578 28.1807 203.925 30.9193 204.889 32.0647C205.042 32.2451 205.382 32.2427 205.534 32.0647C206.499 30.9402 205.975 28.1719 205.974 26.7744C205.973 25.0394 206.048 23.592 205.147 22.1478C205.066 22.0181 204.85 22.0649 204.854 22.2267Z" fill="#54FF65"/>
<path d="M204.854 99.9587C204.864 100.376 204.637 100.889 204.598 101.343C204.509 102.382 204.612 103.462 204.598 104.507C204.579 105.913 203.926 108.651 204.89 109.797C205.043 109.977 205.383 109.975 205.535 109.797C206.5 108.672 205.976 105.904 205.975 104.507C205.974 102.772 206.049 101.324 205.148 99.8798C205.067 99.7509 204.85 99.7976 204.854 99.9587Z" fill="#54FF65"/>
<path d="M248.774 65.555C248.357 65.5646 247.844 65.3367 247.39 65.2988C246.351 65.211 245.27 65.3125 244.226 65.2988C242.82 65.2787 240.082 64.6263 238.936 65.5904C238.756 65.7418 238.758 66.0834 238.936 66.2356C240.061 67.2005 242.829 66.6762 244.226 66.6754C245.961 66.6746 247.41 66.7495 248.854 65.849C248.983 65.7668 248.935 65.5509 248.774 65.555Z" fill="#54FF65"/>
<path d="M171.041 65.555C170.623 65.5646 170.11 65.3367 169.657 65.2988C168.618 65.211 167.537 65.3125 166.493 65.2988C165.087 65.2787 162.348 64.6263 161.203 65.5904C161.022 65.7418 161.025 66.0834 161.203 66.2356C162.328 67.1997 165.096 66.6762 166.493 66.6754C168.228 66.6746 169.675 66.7495 171.12 65.849C171.249 65.7668 171.203 65.5509 171.041 65.555Z" fill="#54FF65"/>
<path d="M236.206 96.4896C235.868 96.1763 235.558 95.4997 235.218 95.1122C234.57 94.3736 233.781 93.7204 233.095 93.0132C232.361 92.2561 231.641 91.486 230.916 90.7192C230.483 90.2609 229.922 89.4966 229.223 89.557C228.958 89.5795 228.791 89.7487 228.767 90.0129C228.704 90.7039 229.459 91.2887 229.899 91.7365C230.638 92.4888 231.375 93.2428 232.12 93.9878C232.824 94.6926 233.54 95.3853 234.283 96.0482C234.883 96.5838 235.35 96.6015 236.053 96.753C236.199 96.7836 236.328 96.6015 236.206 96.4896Z" fill="#54FF65"/>
<path d="M181.241 41.524C180.902 41.2107 180.593 40.5341 180.254 40.1467C179.604 39.4081 178.817 38.7556 178.13 38.0468C177.397 37.2905 176.676 36.5197 175.952 35.7537C175.518 35.2954 174.958 34.531 174.258 34.5914C173.993 34.614 173.827 34.7831 173.803 35.0473C173.739 35.7384 174.494 36.3231 174.934 36.771C175.673 37.5233 176.41 38.2764 177.155 39.0223C177.86 39.7262 178.575 40.4189 179.318 41.0826C179.918 41.6175 180.385 41.6352 181.088 41.7866C181.234 41.818 181.363 41.636 181.241 41.524Z" fill="#54FF65"/>
<path d="M174.512 96.906C174.825 96.5677 175.502 96.2584 175.889 95.9193C176.627 95.2701 177.28 94.4823 177.988 93.7961C178.746 93.0623 179.516 92.3406 180.282 91.6173C180.74 91.1848 181.504 90.6234 181.444 89.9242C181.421 89.6584 181.252 89.4925 180.988 89.4683C180.297 89.4055 179.713 90.1594 179.264 90.6C178.512 91.3386 177.759 92.0748 177.013 92.8207C176.309 93.5246 175.616 94.2407 174.953 94.9841C174.418 95.5842 174.4 96.0506 174.249 96.7537C174.217 96.8995 174.399 97.0292 174.512 96.906Z" fill="#54FF65"/>
<path d="M229.478 41.9404C229.79 41.6021 230.468 41.2929 230.854 40.9529C231.593 40.3037 232.246 39.5168 232.954 38.8297C233.711 38.096 234.481 37.3751 235.247 36.6518C235.706 36.2184 236.47 35.657 236.41 34.9579C236.387 34.6921 236.218 34.5262 235.954 34.502C235.263 34.4392 234.678 35.1939 234.23 35.6337C233.478 36.3723 232.724 37.1093 231.979 37.8543C231.275 38.5583 230.582 39.2744 229.919 40.017C229.384 40.6171 229.366 41.0834 229.215 41.7866C229.183 41.9332 229.365 42.0637 229.478 41.9404Z" fill="#54FF65"/>
<path d="M221.955 25.6145C221.862 25.8505 221.485 26.1896 221.288 26.5698C220.787 27.5355 220.432 28.5859 219.992 29.5822C219.567 30.5448 219.122 31.5 218.682 32.4561C218.384 33.1061 217.848 33.8963 218.125 34.6107C218.206 34.8202 218.44 35.0304 218.686 34.9297C219.87 34.444 220.345 32.2217 220.817 31.1295C221.493 29.5669 222.281 27.9987 222.486 26.2967C222.508 26.1179 222.372 25.956 222.238 25.8642C222.349 25.9407 222.243 25.5106 222.259 25.6145C222.231 25.443 222.005 25.4865 221.955 25.6145Z" fill="#54FF65"/>
<path d="M191.514 97.138C191.421 97.374 191.044 97.7131 190.847 98.0949C190.346 99.0606 189.991 100.11 189.551 101.107C189.125 102.07 188.681 103.025 188.241 103.981C187.942 104.631 187.407 105.421 187.684 106.136C187.765 106.345 187.999 106.555 188.245 106.454C189.428 105.967 189.903 103.746 190.375 102.654C191.051 101.091 191.84 99.5222 192.044 97.8202C192.066 97.6414 191.931 97.4803 191.796 97.3877C191.907 97.4642 191.8 97.0333 191.817 97.1372C191.79 96.9672 191.564 97.0107 191.514 97.138Z" fill="#54FF65"/>
<path d="M245.386 82.6549C245.15 82.5631 244.811 82.1854 244.43 81.988C243.464 81.487 242.415 81.1318 241.417 80.692C240.454 80.2668 239.5 79.8229 238.543 79.3824C237.893 79.0835 237.103 78.5479 236.388 78.8258C236.179 78.9071 235.968 79.1407 236.069 79.3864C236.556 80.5704 238.778 81.0448 239.87 81.5176C241.433 82.1934 243.001 82.982 244.704 83.1866C244.883 83.2075 245.044 83.0722 245.136 82.9377C245.06 83.0488 245.49 82.9425 245.386 82.9586C245.558 82.9312 245.513 82.7049 245.386 82.6549Z" fill="#54FF65"/>
<path d="M173.861 52.2133C173.625 52.1215 173.286 51.7445 172.905 51.5464C171.94 51.0462 170.889 50.691 169.894 50.2512C168.93 49.8259 167.976 49.3813 167.019 48.9415C166.369 48.6427 165.578 48.1071 164.864 48.385C164.655 48.4663 164.445 48.6991 164.546 48.9456C165.031 50.1288 167.254 50.604 168.346 51.076C169.908 51.7518 171.477 52.5403 173.178 52.7449C173.356 52.7659 173.518 52.6314 173.611 52.496C173.534 52.608 173.965 52.5009 173.861 52.517C174.032 52.4896 173.989 52.2633 173.861 52.2133Z" fill="#54FF65"/>
<path d="M221.716 106.183C221.615 105.951 221.641 105.44 221.511 105.029C221.182 103.992 220.691 102.999 220.298 101.982C219.918 101 219.557 100.011 219.191 99.0228C218.949 98.3663 218.756 97.4207 218.068 97.1171C217.775 96.9882 217.52 97.0985 217.398 97.3901C216.921 98.5371 218.366 100.842 218.797 101.919C219.373 103.362 219.894 104.848 220.859 106.077C220.973 106.222 221.184 106.236 221.347 106.206C221.202 106.232 221.582 106.457 221.501 106.398C221.645 106.502 221.772 106.31 221.716 106.183Z" fill="#54FF65"/>
<path d="M192.668 34.0824C192.566 33.8496 192.593 33.3389 192.462 32.9281C192.134 31.8915 191.642 30.8976 191.249 29.8811C190.869 28.8992 190.508 27.9101 190.143 26.9218C189.9 26.2661 189.708 25.3205 189.02 25.0169C188.727 24.888 188.471 24.9983 188.35 25.2899C187.871 26.4369 189.318 28.7413 189.748 29.8182C190.325 31.2608 190.845 32.7469 191.811 33.976C191.924 34.121 192.135 34.1347 192.298 34.1049C192.153 34.1315 192.533 34.3554 192.452 34.2974C192.595 34.4021 192.723 34.2096 192.668 34.0824Z" fill="#54FF65"/>
<path d="M164.817 82.4174C165.05 82.3151 165.56 82.3417 165.97 82.212C167.008 81.8841 168.002 81.392 169.018 80.9989C170 80.618 170.99 80.2571 171.977 79.8922C172.634 79.649 173.58 79.4565 173.884 78.7694C174.014 78.4762 173.903 78.2201 173.611 78.0993C172.464 77.6208 170.159 79.0674 169.082 79.4976C167.639 80.0743 166.153 80.5946 164.923 81.5604C164.779 81.6739 164.765 81.8841 164.794 82.0477C164.768 81.9019 164.543 82.2812 164.602 82.2007C164.498 82.3449 164.691 82.4721 164.817 82.4174Z" fill="#54FF65"/>
<path d="M236.919 53.3684C237.152 53.2661 237.662 53.2926 238.072 53.163C239.109 52.8343 240.103 52.343 241.12 51.9491C242.101 51.569 243.091 51.2073 244.079 50.8424C244.735 50.5992 245.681 50.4075 245.985 49.7196C246.114 49.4264 246.004 49.1703 245.711 49.0495C244.564 48.571 242.26 50.0176 241.182 50.4478C239.739 51.0245 238.254 51.5448 237.024 52.5105C236.88 52.6249 236.865 52.8351 236.895 52.9978C236.868 52.8529 236.644 53.233 236.703 53.1517C236.6 53.2959 236.792 53.4231 236.919 53.3684Z" fill="#54FF65"/>
<path d="M204.914 39.5023C204.886 39.6739 204.638 39.9703 204.591 40.2127C204.496 40.6912 204.556 41.2059 204.553 41.6916C204.545 42.8168 204.428 43.9517 204.509 45.0753C204.571 45.9565 205.787 45.9436 205.867 45.0753C205.971 43.9549 205.931 42.8152 205.912 41.6916C205.904 41.1962 205.905 40.6976 205.796 40.2127C205.684 39.7101 205.452 39.7311 205.177 39.433C205.102 39.3509 204.933 39.3847 204.914 39.5023Z" fill="#54FF65"/>
<path d="M204.914 86.3778C204.886 86.5494 204.638 86.8458 204.591 87.0882C204.496 87.5667 204.556 88.0814 204.553 88.567C204.545 89.6923 204.428 90.8264 204.509 91.95C204.571 92.8312 205.787 92.8183 205.867 91.95C205.971 90.8296 205.931 89.6907 205.912 88.567C205.904 88.0717 205.905 87.5731 205.796 87.0882C205.684 86.5856 205.452 86.6066 205.177 86.3085C205.102 86.2272 204.933 86.261 204.914 86.3778Z" fill="#54FF65"/>
<path d="M231.499 65.6154C231.327 65.588 231.03 65.3399 230.788 65.2924C230.31 65.1973 229.795 65.2578 229.309 65.2545C228.183 65.2465 227.049 65.1297 225.925 65.2102C225.044 65.2731 225.056 66.4877 225.925 66.5691C227.045 66.673 228.184 66.6327 229.309 66.6134C229.804 66.6045 230.303 66.6061 230.788 66.4974C231.291 66.3846 231.27 66.1526 231.568 65.878C231.649 65.8039 231.616 65.6339 231.499 65.6154Z" fill="#54FF65"/>
<path d="M184.622 65.6154C184.451 65.588 184.153 65.3399 183.912 65.2924C183.433 65.1973 182.918 65.2578 182.433 65.2545C181.308 65.2465 180.173 65.1297 179.05 65.2102C178.169 65.2731 178.181 66.4877 179.05 66.5691C180.17 66.673 181.309 66.6327 182.433 66.6134C182.928 66.6045 183.427 66.6061 183.912 66.4974C184.414 66.3854 184.393 66.1526 184.691 65.878C184.773 65.8039 184.74 65.6339 184.622 65.6154Z" fill="#54FF65"/>
<path d="M223.947 84.315C223.903 84.2554 223.98 84.0218 223.902 83.9131C223.79 83.7593 223.686 83.5982 223.572 83.4451C223.274 83.0432 222.845 82.7073 222.495 82.3481C221.754 81.5869 221.033 80.4963 220.096 79.9704C219.524 79.649 218.909 80.2845 219.216 80.8507C219.723 81.7899 220.772 82.5777 221.53 83.3147C221.873 83.6489 222.248 84.1129 222.667 84.3513C222.843 84.4512 223.025 84.5333 223.213 84.6098C223.489 84.725 223.582 84.5462 223.811 84.5526C223.921 84.5543 224.019 84.4117 223.947 84.315Z" fill="#54FF65"/>
<path d="M190.8 51.1678C190.755 51.1082 190.833 50.8746 190.755 50.7667C190.642 50.612 190.539 50.451 190.425 50.2979C190.127 49.896 189.698 49.5601 189.348 49.2017C188.607 48.4397 187.886 47.3499 186.949 46.824C186.378 46.5026 185.762 47.1381 186.069 47.7043C186.576 48.6435 187.626 49.4304 188.383 50.1674C188.726 50.5017 189.101 50.9656 189.521 51.2041C189.698 51.3039 189.88 51.3861 190.067 51.4634C190.343 51.5778 190.436 51.399 190.665 51.4054C190.775 51.4078 190.874 51.2645 190.8 51.1678Z" fill="#54FF65"/>
<path d="M186.686 84.6477C186.746 84.6026 186.979 84.6807 187.088 84.6018C187.242 84.489 187.403 84.3851 187.556 84.2723C187.959 83.9743 188.294 83.545 188.653 83.1954C189.415 82.4544 190.505 81.7335 191.031 80.7959C191.352 80.2241 190.716 79.6095 190.15 79.9156C189.211 80.423 188.424 81.4725 187.687 82.2289C187.353 82.572 186.889 82.9473 186.651 83.367C186.551 83.5434 186.469 83.7254 186.392 83.9131C186.278 84.1885 186.456 84.282 186.45 84.5107C186.447 84.6211 186.589 84.7202 186.686 84.6477Z" fill="#54FF65"/>
<path d="M219.832 51.5013C219.893 51.4554 220.126 51.5343 220.234 51.4554C220.389 51.3426 220.549 51.2395 220.702 51.1251C221.104 50.8279 221.44 50.3986 221.799 50.0482C222.561 49.3072 223.651 48.5863 224.177 47.6496C224.498 47.0769 223.863 46.4615 223.297 46.7684C222.358 47.2766 221.571 48.3253 220.834 49.0825C220.499 49.4256 220.035 49.8001 219.798 50.2198C219.698 50.3962 219.616 50.5782 219.538 50.7667C219.424 51.0422 219.602 51.1348 219.596 51.3644C219.593 51.4755 219.736 51.5738 219.832 51.5013Z" fill="#54FF65"/>
<path d="M215.334 41.4604C214.52 41.7318 214.288 42.8885 213.977 43.5908C213.536 44.5872 213.015 45.5537 212.661 46.5855C212.41 47.3177 213.538 47.7784 213.9 47.1075C214.499 45.9951 214.96 44.7942 215.427 43.6206C215.492 43.4563 216.237 41.1583 215.334 41.4604Z" fill="#54FF65"/>
<path d="M196.976 84.5913C196.163 84.8627 195.93 86.0194 195.619 86.7217C195.177 87.7181 194.656 88.6847 194.303 89.7165C194.051 90.4486 195.18 90.9093 195.542 90.2384C196.141 89.126 196.601 87.9251 197.069 86.7515C197.134 86.5888 197.88 84.2901 196.976 84.5913Z" fill="#54FF65"/>
<path d="M229.539 76.0341C229.269 75.2197 228.111 74.9878 227.409 74.6769C226.412 74.2355 225.446 73.7143 224.414 73.3599C223.682 73.1086 223.221 74.2379 223.892 74.5995C225.004 75.1988 226.206 75.6587 227.38 76.1267C227.543 76.1936 229.84 76.9378 229.539 76.0341Z" fill="#54FF65"/>
<path d="M186.408 57.6768C186.137 56.8624 184.98 56.6313 184.278 56.3204C183.282 55.8798 182.315 55.3586 181.283 55.0042C180.551 54.7529 180.09 55.8822 180.761 56.243C181.874 56.8423 183.075 57.303 184.248 57.7702C184.411 57.8362 186.71 58.5805 186.408 57.6768Z" fill="#54FF65"/>
<path d="M215.194 90.2996C215.579 89.5288 214.924 88.5453 214.646 87.8244C214.254 86.8071 213.937 85.7576 213.457 84.7774C213.116 84.0798 212 84.572 212.219 85.3001C212.581 86.5115 213.107 87.6843 213.606 88.845C213.674 89.002 214.77 91.1494 215.194 90.2996Z" fill="#54FF65"/>
<path d="M197.675 46.8207C198.06 46.0499 197.405 45.0664 197.128 44.3456C196.735 43.3283 196.419 42.2787 195.939 41.2985C195.597 40.601 194.482 41.0931 194.7 41.8204C195.062 43.0318 195.588 44.2046 196.088 45.3653C196.155 45.5223 197.252 47.6697 197.675 46.8207Z" fill="#54FF65"/>
<path d="M180.7 75.8947C181.471 76.2797 182.454 75.6249 183.176 75.3462C184.193 74.9539 185.243 74.6366 186.224 74.1573C186.922 73.8166 186.429 72.7002 185.702 72.9185C184.491 73.281 183.318 73.8078 182.156 74.3071C181.998 74.3748 179.85 75.4702 180.7 75.8947Z" fill="#54FF65"/>
<path d="M224.18 58.3767C224.951 58.7609 225.933 58.1069 226.655 57.8282C227.672 57.4359 228.722 57.1194 229.703 56.6385C230.401 56.297 229.908 55.1815 229.181 55.3997C227.97 55.763 226.797 56.289 225.635 56.7883C225.478 56.8568 223.329 57.953 224.18 58.3767Z" fill="#54FF65"/>
<path d="M218.214 1.49897C218.019 3.70836 217.125 6.24476 216.637 8.44287C216.178 10.5081 214.749 13.6147 215.299 15.7089C215.379 16.015 215.842 16.1858 216.061 15.9103C217.53 14.0682 217.643 10.3663 218.117 8.10216C218.599 5.80095 219.134 3.72366 218.523 1.45709C218.475 1.27667 218.229 1.32902 218.214 1.49897Z" fill="#54FF65"/>
<path d="M194.29 116.09C194.094 118.298 193.201 120.835 192.713 123.033C192.253 125.097 190.825 128.205 191.374 130.299C191.454 130.605 191.918 130.776 192.137 130.5C193.605 128.658 193.719 124.956 194.192 122.692C194.674 120.392 195.209 118.314 194.599 116.048C194.55 115.867 194.305 115.92 194.29 116.09Z" fill="#54FF65"/>
<path d="M269.501 78.9152C267.291 78.7195 264.755 77.8262 262.557 77.3381C260.492 76.879 257.384 75.4501 255.29 76.0002C254.985 76.0808 254.813 76.5431 255.089 76.7622C256.931 78.2305 260.633 78.3441 262.898 78.8177C265.199 79.2994 267.276 79.835 269.543 79.2245C269.723 79.1762 269.671 78.9305 269.501 78.9152Z" fill="#54FF65"/>
<path d="M154.911 54.9906C152.701 54.7948 150.166 53.9016 147.967 53.4135C145.901 52.9543 142.795 51.5255 140.7 52.0756C140.394 52.1561 140.224 52.6185 140.498 52.8375C142.34 54.3059 146.042 54.4195 148.307 54.8939C150.608 55.3756 152.685 55.9112 154.952 55.2998C155.132 55.2515 155.08 55.0059 154.911 54.9906Z" fill="#54FF65"/>
<path d="M241.414 120.594C240.95 120.048 240.595 119.08 240.206 118.454C239.407 117.162 238.488 115.932 237.67 114.648C236.907 113.45 236.164 112.24 235.416 111.031C234.882 110.167 234.375 108.953 233.432 108.486C233.139 108.34 232.731 108.513 232.745 108.88C232.788 109.944 233.624 110.882 234.179 111.754C235.053 113.127 235.926 114.501 236.818 115.863C238.098 117.819 239.208 119.701 241.224 120.841C241.385 120.932 241.527 120.726 241.414 120.594Z" fill="#54FF65"/>
<path d="M177.304 22.6488C176.84 22.1027 176.485 21.1345 176.096 20.5087C175.297 19.2167 174.378 17.9868 173.561 16.7029C172.798 15.5052 172.054 14.2945 171.307 13.0864C170.773 12.2229 170.266 11.0091 169.322 10.5419C169.029 10.3961 168.621 10.5685 168.636 10.9358C168.679 11.9998 169.515 12.9373 170.07 13.8097C170.944 15.1822 171.818 16.5555 172.708 17.9175C173.988 19.874 175.098 21.7564 177.114 22.8961C177.275 22.9871 177.417 22.7817 177.304 22.6488Z" fill="#54FF65"/>
<path d="M150.408 102.115C150.953 101.652 151.921 101.296 152.548 100.908C153.84 100.108 155.069 99.1887 156.353 98.372C157.551 97.6092 158.762 96.8657 159.97 96.1183C160.834 95.5843 162.048 95.0776 162.515 94.1336C162.66 93.8396 162.489 93.4321 162.121 93.4466C161.057 93.4892 160.119 94.3253 159.247 94.8803C157.873 95.7534 156.5 96.6273 155.138 97.5182C153.182 98.7981 151.299 99.908 150.16 101.924C150.069 102.087 150.275 102.229 150.408 102.115Z" fill="#54FF65"/>
<path d="M248.352 38.0041C248.897 37.541 249.866 37.185 250.492 36.7976C251.784 35.9977 253.013 35.0779 254.297 34.2611C255.495 33.4992 256.706 32.7549 257.914 32.0083C258.778 31.4734 259.992 30.9668 260.459 30.0228C260.604 29.7288 260.432 29.3213 260.065 29.3357C259.001 29.3784 258.063 30.2145 257.19 30.7695C255.817 31.6434 254.445 32.5165 253.083 33.4074C251.126 34.6872 249.244 35.7972 248.105 37.8132C248.013 37.9759 248.219 38.1177 248.352 38.0041Z" fill="#54FF65"/>
<path d="M242.381 11.7372C242.099 12.2712 241.448 12.8536 241.072 13.3618C240.194 14.5467 239.42 15.8161 238.567 17.0202C237.625 18.3484 236.656 19.6565 235.692 20.9686C235.075 21.8071 234.203 22.6786 234.121 23.7491C234.092 24.1276 234.522 24.2718 234.807 24.1429C235.742 23.7193 236.351 22.4998 236.93 21.6911C237.876 20.3685 238.823 19.0468 239.752 17.7129C241.082 15.804 242.37 14.0972 242.675 11.817C242.695 11.6583 242.45 11.6059 242.381 11.7372Z" fill="#54FF65"/>
<path d="M175.492 107.806C175.211 108.34 174.559 108.923 174.182 109.431C173.305 110.616 172.531 111.885 171.677 113.089C170.735 114.417 169.766 115.725 168.802 117.037C168.185 117.875 167.313 118.747 167.231 119.818C167.202 120.197 167.632 120.341 167.917 120.212C168.852 119.788 169.461 118.569 170.04 117.76C170.987 116.437 171.933 115.115 172.862 113.78C174.192 111.871 175.48 110.165 175.785 107.885C175.806 107.727 175.561 107.675 175.492 107.806Z" fill="#54FF65"/>
<path d="M259.262 103.081C258.728 102.8 258.146 102.15 257.638 101.773C256.453 100.895 255.184 100.121 253.979 99.2676C252.651 98.326 251.342 97.357 250.031 96.3929C249.192 95.7751 248.32 94.9028 247.249 94.8206C246.87 94.7916 246.725 95.2218 246.855 95.5077C247.279 96.4428 248.498 97.0518 249.307 97.6309C250.629 98.5781 251.952 99.5245 253.287 100.453C255.196 101.783 256.903 103.071 259.183 103.376C259.341 103.396 259.393 103.151 259.262 103.081Z" fill="#54FF65"/>
<path d="M163.193 36.1927C162.658 35.9116 162.077 35.2607 161.568 34.8838C160.383 34.0058 159.115 33.2318 157.91 32.3788C156.582 31.4372 155.274 30.4682 153.962 29.5041C153.122 28.8871 152.251 28.0148 151.18 27.9327C150.802 27.9037 150.658 28.3338 150.786 28.6197C151.21 29.5549 152.43 30.1638 153.238 30.7429C154.561 31.6893 155.883 32.6357 157.218 33.5652C159.127 34.8943 160.834 36.1822 163.113 36.4875C163.272 36.5076 163.324 36.2619 163.193 36.1927Z" fill="#54FF65"/>
<path d="M217.085 130.439C216.5 128.508 216.393 126.031 216.045 124C215.67 121.804 215.85 118.019 214.505 116.198C214.275 115.888 213.793 115.901 213.67 116.307C212.999 118.531 214.322 122.126 214.722 124.364C215.127 126.636 215.416 128.725 216.798 130.56C216.898 130.694 217.141 130.623 217.085 130.439Z" fill="#54FF65"/>
<path d="M196.452 15.212C195.867 13.2797 195.76 10.8037 195.412 8.77311C195.037 6.57661 195.217 2.79174 193.871 0.971399C193.641 0.662102 193.159 0.674989 193.036 1.08094C192.365 3.30482 193.689 6.8996 194.088 9.13799C194.494 11.4094 194.783 13.498 196.164 15.3328C196.265 15.4665 196.508 15.3948 196.452 15.212Z" fill="#54FF65"/>
<path d="M140.561 77.7859C142.493 77.2019 144.969 77.094 147 76.7469C149.196 76.3715 152.981 76.5519 154.802 75.206C155.112 74.9773 155.099 74.494 154.694 74.3723C152.47 73.7006 148.874 75.024 146.636 75.4243C144.363 75.8294 142.276 76.1186 140.44 77.4984C140.306 77.599 140.378 77.8407 140.561 77.7859Z" fill="#54FF65"/>
<path d="M255.788 57.154C257.72 56.5684 260.197 56.4613 262.228 56.1142C264.425 55.7388 268.209 55.92 270.031 54.5733C270.341 54.3446 270.328 53.8613 269.922 53.7397C267.697 53.0687 264.103 54.3921 261.864 54.7916C259.592 55.1975 257.503 55.4859 255.668 56.8665C255.534 56.9663 255.605 57.2088 255.788 57.154Z" fill="#54FF65"/>
<path d="M213.779 23.0773C213.709 23.4615 213.397 23.8643 213.274 24.2775C212.995 25.2239 212.873 26.2339 212.661 27.1997C212.363 28.548 211.036 31.4324 211.788 32.7042C211.906 32.9031 212.21 33.0135 212.413 32.8677C213.634 31.9946 213.699 28.9459 213.984 27.5637C214.322 25.9222 214.641 24.5916 214.082 23.0773C214.033 22.946 213.808 22.9098 213.779 23.0773Z" fill="#54FF65"/>
<path d="M197.892 99.1693C197.822 99.5543 197.509 99.9563 197.387 100.369C197.108 101.317 196.986 102.327 196.773 103.292C196.476 104.641 195.148 107.524 195.901 108.797C196.018 108.996 196.322 109.106 196.525 108.961C197.746 108.087 197.812 105.039 198.096 103.657C198.435 102.015 198.753 100.684 198.195 99.1693C198.146 99.038 197.922 99.0018 197.892 99.1693Z" fill="#54FF65"/>
<path d="M247.924 74.4795C247.539 74.4102 247.137 74.0969 246.723 73.9753C245.775 73.6958 244.765 73.5733 243.8 73.3607C242.451 73.0635 239.567 71.7353 238.295 72.4884C238.095 72.606 237.986 72.9088 238.131 73.1126C239.005 74.3337 242.053 74.3989 243.435 74.6833C245.077 75.0216 246.408 75.3397 247.923 74.7823C248.055 74.734 248.091 74.5101 247.924 74.4795Z" fill="#54FF65"/>
<path d="M171.831 58.5918C171.447 58.5225 171.044 58.21 170.63 58.0875C169.683 57.808 168.673 57.6864 167.708 57.4738C166.359 57.1766 163.476 55.8484 162.203 56.6007C162.004 56.7183 161.894 57.0211 162.039 57.2249C162.912 58.446 165.961 58.512 167.343 58.7963C168.985 59.1346 170.316 59.4528 171.831 58.8946C171.963 58.8463 171.998 58.6224 171.831 58.5918Z" fill="#54FF65"/>
<path d="M229.293 102.196C229.175 102.029 229.172 101.641 229.044 101.43C228.833 101.085 228.663 100.728 228.428 100.397C227.827 99.5495 227.277 98.6668 226.726 97.7872C226.082 96.7618 225.113 94.1368 223.778 93.9677C223.576 93.9419 223.393 94.1264 223.338 94.3028C223.128 94.9777 223.668 95.5947 224.019 96.1408C224.596 97.0389 225.17 97.9394 225.755 98.8343C226.309 99.6825 226.878 100.522 227.48 101.337C227.98 102.015 228.417 102.113 229.079 102.412C229.206 102.469 229.394 102.34 229.293 102.196Z" fill="#54FF65"/>
<path d="M186.722 37.1576C186.603 36.9893 186.601 36.6018 186.473 36.3916C186.262 36.0461 186.092 35.6892 185.857 35.3574C185.256 34.5109 184.706 33.6273 184.155 32.7485C183.512 31.7231 182.542 29.0981 181.207 28.929C181.005 28.9032 180.822 29.0877 180.767 29.2641C180.557 29.939 181.096 30.556 181.448 31.1021C182.025 32.0002 182.599 32.9007 183.183 33.7956C183.737 34.6438 184.307 35.483 184.909 36.2982C185.41 36.9772 185.847 37.0746 186.507 37.3743C186.635 37.4307 186.822 37.3002 186.722 37.1576Z" fill="#54FF65"/>
<path d="M168.805 89.9935C168.972 89.8751 169.36 89.8727 169.571 89.7438C169.916 89.5328 170.274 89.3628 170.605 89.1276C171.451 88.5268 172.336 87.9766 173.215 87.4257C174.24 86.7821 176.865 85.8124 177.033 84.4777C177.059 84.2747 176.875 84.0919 176.698 84.0379C176.024 83.8277 175.406 84.3666 174.86 84.7177C173.962 85.2953 173.062 85.8696 172.168 86.4535C171.319 87.0085 170.48 87.5771 169.665 88.1788C168.987 88.6798 168.888 89.1172 168.59 89.7777C168.531 89.9065 168.661 90.0942 168.805 89.9935Z" fill="#54FF65"/>
<path d="M233.845 47.4224C234.013 47.304 234.401 47.3016 234.611 47.1727C234.956 46.9617 235.313 46.7917 235.644 46.5565C236.491 45.9557 237.374 45.4055 238.254 44.8546C239.279 44.2118 241.905 43.2413 242.073 41.9066C242.099 41.7036 241.915 41.5208 241.738 41.4668C241.063 41.2566 240.446 41.7955 239.9 42.1474C239.002 42.725 238.102 43.2984 237.208 43.8824C236.359 44.4366 235.52 45.006 234.705 45.6077C234.026 46.1087 233.929 46.5461 233.63 47.2065C233.571 47.3346 233.701 47.5231 233.845 47.4224Z" fill="#54FF65"/>
<path d="M229.828 29.8899C229.555 30.3104 228.934 30.6559 228.624 31.1384C228.076 31.9922 227.493 32.8202 226.9 33.6426C226.276 34.5092 225.637 35.3663 225.002 36.2249C224.609 36.7565 224.061 37.3203 224.251 38.0146C224.301 38.1983 224.491 38.3674 224.69 38.3497C225.975 38.2401 227.187 35.6305 227.856 34.6776C228.453 33.827 229.037 32.9684 229.592 32.0904C230.084 31.3116 230.087 30.7945 230.121 29.9689C230.127 29.8062 229.908 29.7651 229.828 29.8899Z" fill="#54FF65"/>
<path d="M185.411 93.6834C185.139 94.1038 184.518 94.4494 184.208 94.9318C183.66 95.7848 183.076 96.6128 182.484 97.4352C181.86 98.3027 181.221 99.1589 180.585 100.018C180.192 100.55 179.644 101.114 179.834 101.808C179.884 101.992 180.074 102.161 180.273 102.143C181.558 102.034 182.77 99.4239 183.439 98.471C184.036 97.6205 184.619 96.7618 185.175 95.8839C185.667 95.105 185.67 94.5879 185.704 93.7623C185.711 93.5996 185.492 93.5585 185.411 93.6834Z" fill="#54FF65"/>
<path d="M241.109 90.5275C240.689 90.2552 240.343 89.635 239.861 89.3249C239.008 88.7772 238.18 88.1933 237.358 87.6004C236.49 86.977 235.634 86.3375 234.775 85.702C234.243 85.3089 233.679 84.7612 232.985 84.9505C232.801 85.0004 232.633 85.1905 232.65 85.3903C232.759 86.675 235.37 87.888 236.323 88.5565C237.173 89.1526 238.032 89.7373 238.91 90.2923C239.688 90.7836 240.206 90.7869 241.03 90.8207C241.194 90.8279 241.234 90.6088 241.109 90.5275Z" fill="#54FF65"/>
<path d="M177.316 46.1103C176.896 45.8389 176.55 45.2179 176.068 44.9086C175.215 44.3608 174.387 43.7777 173.565 43.1849C172.697 42.5606 171.841 41.9211 170.981 41.2856C170.45 40.8933 169.885 40.3448 169.192 40.5349C169.008 40.5856 168.84 40.7749 168.857 40.9747C168.966 42.2594 171.576 43.4724 172.529 44.1401C173.379 44.737 174.238 45.321 175.116 45.8759C175.894 46.3672 176.412 46.3705 177.237 46.4035C177.401 46.4099 177.442 46.1917 177.316 46.1103Z" fill="#54FF65"/>
<path d="M213.126 108.726C213.038 108.3 213.17 107.67 213.116 107.163C213.018 106.243 212.76 105.317 212.606 104.403C212.389 103.104 212.525 99.9715 211.422 99.1137C211.186 98.9301 210.878 98.9357 210.705 99.2055C210.333 99.7871 210.553 100.442 210.648 101.091C210.828 102.32 211.061 103.546 211.283 104.767C211.58 106.399 211.786 107.693 212.862 108.878C212.976 109.004 213.156 108.871 213.126 108.726Z" fill="#54FF65"/>
<path d="M199.426 32.2104C199.338 31.7844 199.469 31.1537 199.415 30.6462C199.318 29.7264 199.06 28.8009 198.906 27.8867C198.689 26.5883 198.825 23.4551 197.721 22.5981C197.485 22.4144 197.178 22.42 197.005 22.6899C196.632 23.2706 196.852 23.9263 196.947 24.5755C197.128 25.8038 197.361 27.0297 197.583 28.2524C197.879 29.8835 198.086 31.177 199.162 32.3635C199.275 32.4883 199.455 32.3554 199.426 32.2104Z" fill="#54FF65"/>
<path d="M162.274 73.8271C162.701 73.7393 163.33 73.8714 163.838 73.8174C164.758 73.72 165.684 73.4622 166.597 73.3084C167.896 73.0901 171.029 73.2262 171.887 72.1227C172.07 71.8867 172.065 71.579 171.794 71.4059C171.213 71.0337 170.558 71.2536 169.909 71.3487C168.68 71.5299 167.455 71.7627 166.232 71.9842C164.601 72.2814 163.308 72.4876 162.121 73.5637C161.997 73.6773 162.13 73.8569 162.274 73.8271Z" fill="#54FF65"/>
<path d="M238.79 60.1262C239.216 60.0384 239.847 60.1697 240.354 60.1157C241.274 60.0182 242.199 59.7605 243.113 59.6066C244.412 59.3892 247.544 59.5253 248.403 58.4218C248.586 58.1858 248.581 57.8781 248.31 57.7049C247.729 57.3328 247.074 57.5527 246.425 57.6478C245.196 57.8282 243.971 58.061 242.748 58.2833C241.117 58.5797 239.823 58.7859 238.637 59.8628C238.513 59.9763 238.646 60.156 238.79 60.1262Z" fill="#54FF65"/>
<path d="M210.292 40.0403C210.343 40.0234 210.395 40.0065 210.445 39.9896C210.201 40.0057 210.043 40.137 209.957 40.3617C209.373 41.8784 208.996 43.735 208.776 45.35C208.662 46.1925 209.82 46.5727 210.085 45.7108C210.374 44.7716 210.547 43.7978 210.739 42.8353C210.906 41.9968 211.091 41.2091 210.934 40.3617C210.905 40.2071 210.739 40.0323 210.581 40.0081C210.58 40.0065 210.58 40.0049 210.58 40.0033C210.506 39.8776 210.34 39.9163 210.292 40.0403Z" fill="#54FF65"/>
<path d="M200.712 85.9268C200.763 85.9098 200.815 85.8929 200.865 85.876C200.62 85.8921 200.463 86.0242 200.377 86.2481C199.792 87.7648 199.415 89.6214 199.196 91.2356C199.082 92.0781 200.24 92.4591 200.505 91.5964C200.794 90.658 200.967 89.6842 201.158 88.7217C201.326 87.8832 201.511 87.0963 201.354 86.2481C201.325 86.0935 201.158 85.9187 201.001 85.8945C201 85.8929 201 85.8913 201 85.8897C200.926 85.7632 200.76 85.8027 200.712 85.9268Z" fill="#54FF65"/>
<path d="M230.96 70.9935C230.977 71.0442 230.994 71.0958 231.011 71.1465C230.995 70.9016 230.863 70.7446 230.639 70.6584C229.123 70.0728 227.265 69.6967 225.65 69.4776C224.809 69.3632 224.428 70.5207 225.29 70.7857C226.228 71.074 227.202 71.2472 228.165 71.4397C229.004 71.6072 229.791 71.7933 230.639 71.6354C230.794 71.6064 230.968 71.4397 230.993 71.2818C230.995 71.2818 230.996 71.2818 230.998 71.2818C231.123 71.2069 231.083 71.041 230.96 70.9935Z" fill="#54FF65"/>
<path d="M185.073 61.4133C185.09 61.464 185.107 61.5156 185.124 61.5663C185.107 61.3207 184.977 61.1652 184.752 61.0782C183.235 60.4926 181.379 60.1165 179.764 59.8982C178.922 59.7838 178.541 60.9421 179.403 61.2063C180.342 61.4946 181.316 61.6678 182.277 61.8603C183.116 62.0279 183.903 62.2131 184.752 62.0552C184.907 62.027 185.08 61.8595 185.106 61.7016C185.108 61.7016 185.109 61.7016 185.111 61.7016C185.236 61.6267 185.197 61.4608 185.073 61.4133Z" fill="#54FF65"/>
<path d="M219.762 87.8961C220.143 87.2082 219.135 86.1394 218.791 85.5997C218.183 84.6461 217.66 83.6296 216.949 82.7476C216.444 82.1225 215.574 82.9175 215.894 83.5619C216.336 84.4471 216.926 85.263 217.475 86.0854C217.962 86.8152 218.396 87.5095 219.133 88.0016C219.274 88.0958 219.483 88.087 219.625 88.0016C219.671 87.9734 219.735 87.9452 219.762 87.8961Z" fill="#54FF65"/>
<path d="M194.09 48.6749C194.47 47.9862 193.464 46.919 193.119 46.3785C192.512 45.4241 191.988 44.4084 191.278 43.5264C190.773 42.9013 189.902 43.6963 190.222 44.3407C190.664 45.2259 191.254 46.0418 191.803 46.8642C192.29 47.5932 192.724 48.2883 193.462 48.7796C193.603 48.873 193.812 48.865 193.954 48.7796C193.999 48.7514 194.063 48.724 194.09 48.6749Z" fill="#54FF65"/>
<path d="M183.104 80.4633C183.793 80.8435 184.86 79.8366 185.401 79.4919C186.354 78.8846 187.371 78.361 188.253 77.6506C188.879 77.1464 188.082 76.2757 187.439 76.5963C186.554 77.0377 185.737 77.6273 184.916 78.1766C184.186 78.6631 183.492 79.098 183 79.835C182.906 79.9768 182.914 80.1854 183 80.3272C183.027 80.3723 183.054 80.4359 183.104 80.4633Z" fill="#54FF65"/>
<path d="M222.325 54.7916C223.016 55.1702 224.079 54.1649 224.621 53.8194C225.575 53.2121 226.591 52.6885 227.473 51.9773C228.099 51.4739 227.303 50.6016 226.66 50.923C225.774 51.3652 224.958 51.9548 224.136 52.5041C223.406 52.9906 222.712 53.4255 222.221 54.1633C222.126 54.3051 222.135 54.5129 222.221 54.6555C222.247 54.6998 222.275 54.7642 222.325 54.7916Z" fill="#54FF65"/>
<path d="M220.113 44.0556C219.374 43.9807 218.813 45.1953 218.46 45.6939C217.798 46.6323 217.011 47.511 216.45 48.5146C216.088 49.1646 216.985 49.9137 217.504 49.3281C218.146 48.6048 218.673 47.7825 219.221 46.9867C219.729 46.2472 220.27 45.5505 220.455 44.6597C220.488 44.5026 220.468 44.2948 220.329 44.1853C220.259 44.1297 220.204 44.0652 220.113 44.0556Z" fill="#54FF65"/>
<path d="M193.328 82.5253C192.588 82.4504 192.027 83.665 191.675 84.1636C191.013 85.102 190.225 85.9807 189.665 86.9843C189.303 87.6343 190.2 88.3834 190.719 87.7978C191.361 87.0745 191.888 86.2522 192.436 85.4564C192.944 84.7169 193.485 84.0202 193.67 83.1294C193.703 82.9723 193.683 82.7645 193.544 82.655C193.474 82.5994 193.419 82.535 193.328 82.5253Z" fill="#54FF65"/>
<path d="M226.944 80.8145C227.02 80.0751 225.804 79.5129 225.306 79.1609C224.367 78.4988 223.488 77.7119 222.485 77.1513C221.835 76.7888 221.086 77.6869 221.671 78.2064C222.395 78.8484 223.217 79.3751 224.014 79.9228C224.753 80.4311 225.449 80.9716 226.34 81.1568C226.498 81.1898 226.705 81.1697 226.814 81.0312C226.871 80.9603 226.935 80.9055 226.944 80.8145Z" fill="#54FF65"/>
<path d="M188.475 54.0288C188.55 53.2886 187.335 52.728 186.837 52.3752C185.898 51.7139 185.02 50.9262 184.016 50.3664C183.366 50.0039 182.617 50.9012 183.203 51.4207C183.927 52.0627 184.748 52.5887 185.545 53.1364C186.283 53.6454 186.981 54.1859 187.871 54.3703C188.029 54.4034 188.236 54.3832 188.345 54.2455C188.401 54.1754 188.465 54.1198 188.475 54.0288Z" fill="#54FF65"/>
<path d="M210.026 91.7317C210.006 91.7494 209.987 91.768 209.968 91.7857C210.123 91.7092 210.221 91.5158 210.219 91.3483C210.209 90.5573 210.036 89.8083 209.91 89.027C209.753 88.0572 209.669 87.0705 209.426 86.1192C209.241 85.3903 208.028 85.5256 208.093 86.2997C208.175 87.2453 208.362 88.1756 208.533 89.1083C208.692 89.9734 208.796 90.8521 209.275 91.6044C209.396 91.7937 209.623 91.9025 209.847 91.8372C209.828 91.8477 209.808 91.8574 209.789 91.8678C209.886 91.9411 210.027 91.8396 210.026 91.7317Z" fill="#54FF65"/>
<path d="M201.764 45.5892C201.745 45.6077 201.725 45.6254 201.706 45.6431C201.861 45.5674 201.96 45.3733 201.957 45.2058C201.934 43.5272 201.579 41.6054 201.165 39.9767C200.979 39.2478 199.766 39.3831 199.832 40.1571C199.913 41.1027 200.1 42.0331 200.271 42.9658C200.43 43.8309 200.534 44.7096 201.013 45.4619C201.134 45.6512 201.362 45.7607 201.585 45.6947C201.566 45.7052 201.546 45.7148 201.527 45.7253C201.624 45.7994 201.766 45.6979 201.764 45.5892Z" fill="#54FF65"/>
<path d="M179.269 70.7261C179.251 70.7075 179.233 70.6874 179.215 70.6689C179.291 70.8235 179.485 70.9218 179.652 70.9202C180.443 70.9089 181.192 70.7365 181.974 70.6109C182.943 70.4546 183.929 70.3692 184.882 70.1268C185.611 69.9415 185.475 68.7285 184.702 68.7946C183.757 68.8751 182.825 69.062 181.893 69.2335C181.027 69.393 180.148 69.4961 179.396 69.9754C179.207 70.0962 179.097 70.3249 179.163 70.548C179.153 70.5287 179.143 70.5094 179.133 70.4901C179.059 70.5875 179.16 70.7277 179.269 70.7261Z" fill="#54FF65"/>
<path d="M225.411 62.4644C225.393 62.4451 225.375 62.4258 225.357 62.4072C225.433 62.5619 225.627 62.6593 225.794 62.6577C227.473 62.6352 229.395 62.2808 231.024 61.866C231.753 61.6807 231.617 60.4677 230.844 60.5337C229.898 60.6143 228.967 60.8011 228.035 60.9727C227.17 61.1322 226.291 61.2353 225.539 61.7145C225.35 61.8354 225.239 62.0633 225.306 62.2872C225.296 62.2679 225.286 62.2486 225.275 62.2292C225.201 62.3251 225.302 62.466 225.411 62.4644Z" fill="#54FF65"/>
</g>
<defs>
<clipPath id="clip0_58_1361">
<rect width="132" height="132" fill="white" transform="translate(139)"/>
</clipPath>
</defs>
</svg>
