<svg width="50" height="50" viewBox="0 0 50 50" fill="none" xmlns="http://www.w3.org/2000/svg">
<path fill-rule="evenodd" clip-rule="evenodd" d="M24.6102 2.16144C24.8034 2.05735 25.036 2.05735 25.2292 2.16144L45.2943 12.9716C45.5056 13.0854 45.6373 13.306 45.6373 13.546V18.1789C45.6373 18.5393 45.3452 18.8315 44.9848 18.8315H4.85467C4.49429 18.8315 4.20215 18.5393 4.20215 18.1789V13.546C4.20215 13.306 4.33389 13.0854 4.54518 12.9716L24.6102 2.16144ZM5.50719 13.9357V17.5264H44.3323V13.9357L24.9197 3.47709L5.50719 13.9357Z" fill="#41FF54"/>
<path fill-rule="evenodd" clip-rule="evenodd" d="M35.0889 18.1293C35.0889 17.7689 35.381 17.4767 35.7414 17.4767H41.9404C42.3007 17.4767 42.5929 17.7689 42.5929 18.1293V33.5723C42.5929 33.9327 42.3007 34.2248 41.9404 34.2248H35.7414C35.381 34.2248 35.0889 33.9327 35.0889 33.5723V18.1293ZM36.3939 18.7818V32.9198H41.2878V18.7818H36.3939Z" fill="#41FF54"/>
<path fill-rule="evenodd" clip-rule="evenodd" d="M7.35645 18.1293C7.35645 17.7689 7.64859 17.4767 8.00897 17.4767H14.2079C14.5683 17.4767 14.8605 17.7689 14.8605 18.1293V33.5723C14.8605 33.9327 14.5683 34.2248 14.2079 34.2248H8.00897C7.64859 34.2248 7.35645 33.9327 7.35645 33.5723V18.1293ZM8.66149 18.7818V32.9198H13.5554V18.7818H8.66149Z" fill="#41FF54"/>
<path fill-rule="evenodd" clip-rule="evenodd" d="M4.20215 33.6221C4.20215 33.2617 4.49429 32.9696 4.85467 32.9696H44.9848C45.3452 32.9696 45.6373 33.2617 45.6373 33.6221V38.1898C45.6373 38.5502 45.3452 38.8423 44.9848 38.8423H4.85467C4.49429 38.8423 4.20215 38.5502 4.20215 38.1898V33.6221ZM5.50719 34.2746V37.5373H44.3323V34.2746H5.50719Z" fill="#41FF54"/>
<path fill-rule="evenodd" clip-rule="evenodd" d="M1.15723 38.1894C1.15723 37.829 1.44937 37.5369 1.80975 37.5369H48.1389C48.4992 37.5369 48.7914 37.829 48.7914 38.1894V42.8658C48.7914 43.2262 48.4992 43.5183 48.1389 43.5183H1.80975C1.44937 43.5183 1.15723 43.2262 1.15723 42.8658V38.1894ZM2.46227 38.8419V42.2133H47.4863V38.8419H2.46227Z" fill="#41FF54"/>
<path fill-rule="evenodd" clip-rule="evenodd" d="M25.8167 28.9134L24.6649 25.7965C24.6485 25.7507 24.6469 25.6999 24.6649 25.6525C24.7041 25.5444 24.8235 25.4888 24.9332 25.5281L28.0272 26.6718C28.0665 26.5441 28.0976 26.4132 28.1221 26.2807C28.1565 26.0843 28.1761 25.8798 28.1761 25.6687C28.1761 24.7279 27.7949 23.8739 27.178 23.257C26.5612 22.6418 25.7088 22.259 24.7663 22.259C23.8254 22.259 22.9731 22.6418 22.3546 23.257C21.7394 23.8738 21.3565 24.7279 21.3565 25.6687C21.3565 26.6096 21.7394 27.462 22.3563 28.0788C22.9731 28.6957 23.8254 29.0785 24.7663 29.0785C24.9857 29.0785 25.1966 29.0573 25.4011 29.0196C25.5419 28.9936 25.681 28.9577 25.8167 28.9134ZM28.0354 28.8987C27.5806 29.352 27.0291 29.7103 26.4171 29.9361C26.3092 29.9769 26.1881 29.9196 26.1489 29.8117L25.9623 29.306C25.8051 29.3584 25.6432 29.3993 25.478 29.4304C25.2457 29.4745 25.0085 29.4975 24.7662 29.4975C23.7092 29.4975 22.7521 29.0688 22.06 28.3751C21.3663 27.6829 20.9376 26.7258 20.9376 25.6688C20.9376 24.6135 21.3663 23.6579 22.0567 22.9659L22.06 22.9626C22.7537 22.2689 23.7108 21.8402 24.7662 21.8402C25.8216 21.8402 26.7771 22.2689 27.4692 22.9593L27.4724 22.9609C28.1661 23.6547 28.5949 24.6119 28.5949 25.6689C28.5949 25.8996 28.5735 26.1287 28.5327 26.3544C28.5049 26.5115 28.4655 26.667 28.4198 26.8158L28.9483 27.0122C29.0563 27.0515 29.1119 27.1725 29.0725 27.2806C28.8467 27.8925 28.49 28.4422 28.0385 28.8955L28.0354 28.8987ZM26.4664 29.4665C26.9441 29.2603 27.3761 28.9657 27.7393 28.6042L27.7442 28.5992C28.1042 28.2377 28.3986 27.8074 28.6031 27.3295L28.086 27.1397L28.0811 27.1364L28.0763 27.1348L25.2146 26.0778L26.278 28.9592L26.2813 28.964L26.2829 28.969L26.4664 29.4665ZM21.3876 29.5188C22.3154 30.4466 23.5965 31.0208 25.0118 31.0208C26.427 31.0208 27.7082 30.4466 28.6359 29.5188C29.5637 28.5911 30.138 27.31 30.138 25.8946C30.138 24.4793 29.5637 23.1982 28.6359 22.2705C27.7082 21.3444 26.427 20.7701 25.0118 20.7701C23.5965 20.7701 22.3154 21.3443 21.3876 22.2705C20.4599 23.1982 19.8872 24.4793 19.8872 25.8946C19.8872 27.31 20.4599 28.5911 21.3876 29.5188ZM25.0118 31.4234C23.4852 31.4234 22.1043 30.8033 21.103 29.8035C20.1032 28.8038 19.4847 27.4212 19.4847 25.8947C19.4847 24.3699 20.1032 22.9872 21.103 21.9859C22.1043 20.9862 23.4853 20.3677 25.0118 20.3677C26.5383 20.3677 27.9209 20.9862 28.9207 21.9859C29.9203 22.9872 30.5404 24.3683 30.5404 25.8947C30.5404 27.4212 29.9203 28.8039 28.9207 29.8035C27.9209 30.8032 26.5383 31.4234 25.0118 31.4234ZM29.3247 21.5834C29.2461 21.5048 29.2461 21.3772 29.3247 21.2987C29.4016 21.2202 29.5309 21.2202 29.6077 21.2987C30.8774 22.5684 31.5123 24.2323 31.5123 25.8947C31.5123 27.5587 30.8774 29.2227 29.6077 30.4924C29.5309 30.5692 29.4016 30.5692 29.3247 30.4924C29.2461 30.4139 29.2461 30.2862 29.3247 30.2078C30.5142 29.0166 31.1097 27.4557 31.1097 25.8948C31.1098 24.3337 30.5143 22.7744 29.3247 21.5834ZM20.7005 30.2076C20.7789 30.2862 20.7789 30.4138 20.7005 30.4923C20.6219 30.5691 20.4942 30.5691 20.4157 30.4923C19.1461 29.2226 18.5112 27.5586 18.5112 25.8946C18.5112 24.2322 19.1461 22.5683 20.4157 21.2986C20.4943 21.22 20.6219 21.22 20.7005 21.2986C20.7789 21.3771 20.7789 21.5047 20.7005 21.5832C19.5092 22.7744 18.9137 24.3336 18.9137 25.8946C18.9137 27.4556 19.5092 29.0165 20.7005 30.2076ZM15.2012 22.4504C15.2406 22.354 15.1784 22.2362 15.0949 22.2017C14.9722 22.1527 14.8659 22.2099 14.8216 22.3196L14.6941 22.7074C14.6171 22.8987 14.9199 23.1 15.0655 22.8579C15.1161 22.7336 15.1555 22.5814 15.2012 22.4504ZM17.7995 21.2724C15.5318 22.354 13.4718 23.9328 11.7146 25.8946C13.4719 27.858 15.5318 29.4353 17.7995 30.5185C20.0296 31.5836 22.4643 32.1677 25.0118 32.1677C27.5609 32.1677 29.9939 31.5836 32.224 30.5185C33.1894 30.0586 34.1154 29.5089 34.9974 28.8774C34.9795 28.8954 34.9647 28.9183 34.9533 28.9477C34.9057 29.0737 34.8682 29.2112 34.8223 29.3388C34.783 29.437 34.8468 29.5548 34.9286 29.5875C35.0513 29.6366 35.1594 29.5793 35.2035 29.4714L35.3312 29.0836C35.4014 28.9052 35.1872 28.7743 35.0447 28.8431C36.2196 27.9972 37.3142 27.0089 38.3105 25.8946C36.5534 23.9328 34.4934 22.354 32.224 21.2724C29.994 20.2073 27.561 19.6216 25.0118 19.6216C22.4643 19.6216 20.0296 20.2073 17.7995 21.2724Z" fill="#41FF54"/>
<g clip-path="url(#clip0_58_1039)">
<path d="M24.9184 0.0585939C25.0115 0.859785 24.8824 1.83122 24.8739 2.65286C24.8647 3.50652 24.5724 4.78611 24.9434 5.57388C24.9971 5.68738 25.1878 5.68585 25.2421 5.57388C25.6497 4.72753 25.3968 3.29265 25.3953 2.36911C25.3938 1.52124 25.4084 0.780459 25.0298 0.028389C25.0038 -0.0222575 24.9117 -0.000595458 24.9184 0.0585939Z" fill="#41FF54"/>
<path d="M24.9184 44.4C25.0115 45.2012 24.8824 46.1726 24.8739 46.9942C24.8647 47.8479 24.5724 49.1272 24.9434 49.9152C24.9971 50.0287 25.1878 50.0272 25.2421 49.9152C25.6494 49.0689 25.3968 47.634 25.3953 46.7102C25.3938 45.8623 25.4084 45.1218 25.0298 44.3698C25.0038 44.3191 24.9117 44.3408 24.9184 44.4Z" fill="#41FF54"/>
<path d="M49.9419 24.805C49.1407 24.898 48.1692 24.769 47.3476 24.7604C46.4939 24.7516 45.2143 24.459 44.4266 24.83C44.3128 24.8837 44.3143 25.0744 44.4266 25.1287C45.2729 25.5363 46.7081 25.2837 47.6317 25.2819C48.4795 25.28 49.2203 25.295 49.9721 24.9167C50.0227 24.8904 50.0011 24.798 49.9419 24.805Z" fill="#41FF54"/>
<path d="M5.60006 24.805C4.79887 24.898 3.82774 24.769 3.0058 24.7604C2.15244 24.7516 0.872852 24.459 0.0847804 24.83C-0.0290216 24.8837 -0.0274961 25.0744 0.0847804 25.1287C0.931431 25.5363 2.36631 25.2837 3.28954 25.2819C4.13741 25.28 4.87789 25.295 5.62996 24.9167C5.68091 24.8904 5.65925 24.798 5.60006 24.805Z" fill="#41FF54"/>
<path d="M42.7387 42.4324C42.5187 42.2637 42.3195 41.9342 42.1193 41.7249C41.7282 41.3155 41.3001 40.9368 40.9044 40.531C40.5282 40.1451 40.1578 39.7533 39.7865 39.3625C39.519 39.0806 39.2273 38.6608 38.8352 38.5601C38.7062 38.5268 38.5905 38.644 38.6226 38.7724C38.7205 39.1627 39.1315 39.4678 39.4027 39.746C39.8265 40.1811 40.2503 40.6159 40.6799 41.0451C41.3014 41.6666 41.853 42.279 42.6929 42.5413C42.7628 42.5633 42.7884 42.4706 42.7387 42.4324Z" fill="#41FF54"/>
<path d="M11.3852 11.0782C11.1652 10.9098 10.9657 10.58 10.7655 10.3707C10.3744 9.96127 9.94662 9.58294 9.5506 9.17686C9.17411 8.79091 8.80402 8.39916 8.43302 8.00863C8.16515 7.72672 7.87347 7.3069 7.48172 7.20622C7.35267 7.17296 7.23703 7.29012 7.26907 7.41857C7.36701 7.80879 7.77798 8.11389 8.04921 8.39214C8.47299 8.82721 8.89678 9.26198 9.32605 9.69125C9.94754 10.3127 10.4992 10.9251 11.3391 11.1875C11.4093 11.2091 11.4349 11.1164 11.3852 11.0782Z" fill="#41FF54"/>
<path d="M7.56724 42.6255C7.73596 42.4055 8.06547 42.2063 8.27508 42.0061C8.68452 41.615 9.06315 41.1869 9.46893 40.7912C9.85488 40.415 10.2466 40.0447 10.6375 39.6734C10.9194 39.4058 11.3392 39.1141 11.4399 38.7224C11.4731 38.5933 11.356 38.4777 11.2272 38.51C10.837 38.6076 10.5319 39.0189 10.2536 39.2901C9.81888 39.7139 9.38381 40.1377 8.95453 40.5673C8.33304 41.1888 7.72071 41.7404 7.45832 42.5803C7.43666 42.6493 7.52911 42.6752 7.56724 42.6255Z" fill="#41FF54"/>
<path d="M38.9217 11.2713C39.0905 11.051 39.42 10.8521 39.6296 10.652C40.0387 10.2608 40.4176 9.83278 40.8234 9.43707C41.2094 9.06088 41.6011 8.69049 41.992 8.31949C42.2739 8.05161 42.6937 7.75994 42.7944 7.36819C42.8276 7.23913 42.7105 7.1232 42.5817 7.15584C42.1915 7.25378 41.8864 7.66475 41.6081 7.93598C41.1734 8.35976 40.7383 8.78355 40.309 9.21313C39.6875 9.83431 39.0749 10.3862 38.8128 11.2262C38.7912 11.2951 38.8836 11.3211 38.9217 11.2713Z" fill="#41FF54"/>
<path d="M34.6716 1.99964C34.454 2.74591 33.9534 3.59867 33.6364 4.32175C33.3108 5.06528 32.47 6.22313 32.5359 7.05453C32.5484 7.21226 32.7113 7.27359 32.8309 7.17657C33.1626 6.90808 33.2941 6.39795 33.4625 6.01597C33.7078 5.46008 33.9519 4.90388 34.1889 4.34402C34.5215 3.55839 34.8467 2.86002 34.7887 2.0152C34.7842 1.9496 34.6911 1.93282 34.6716 1.99964Z" fill="#41FF54"/>
<path d="M17.3066 42.7991C17.0891 43.5454 16.5884 44.3981 16.2714 45.1212C15.9456 45.8647 15.105 47.0226 15.1706 47.8543C15.1831 48.012 15.3461 48.0733 15.4657 47.9763C15.7973 47.7075 15.9288 47.1974 16.0972 46.8154C16.3425 46.2595 16.5866 45.703 16.8237 45.1435C17.1562 44.3578 17.4814 43.6595 17.4235 42.8146C17.4192 42.749 17.3262 42.7323 17.3066 42.7991Z" fill="#41FF54"/>
<path d="M48.0001 34.5584C47.2539 34.3409 46.4011 33.8402 45.678 33.5232C44.9345 33.1977 43.7763 32.3568 42.945 32.4224C42.7872 32.4349 42.7259 32.5978 42.8229 32.7174C43.0914 33.0494 43.6018 33.1803 43.9838 33.349C44.5397 33.5946 45.0962 33.8384 45.6558 34.0754C46.4414 34.4083 47.1401 34.7332 47.9846 34.6756C48.0505 34.6713 48.067 34.5779 48.0001 34.5584Z" fill="#41FF54"/>
<path d="M7.20101 17.1937C6.45474 16.9761 5.60199 16.4755 4.87921 16.1585C4.13598 15.8329 2.97752 14.9921 2.14613 15.058C1.98839 15.0705 1.92707 15.2334 2.02409 15.353C2.29257 15.685 2.8027 15.8162 3.18469 15.9846C3.74058 16.2299 4.29708 16.474 4.85663 16.7107C5.64226 17.0436 6.34063 17.3685 7.18545 17.3108C7.25135 17.3066 7.26783 17.2132 7.20101 17.1937Z" fill="#41FF54"/>
<path d="M34.4811 47.9657C34.105 47.2795 33.8603 46.3307 33.5707 45.5893C33.2757 44.8335 33.0511 43.4225 32.4171 42.8815C32.2966 42.7787 32.1383 42.851 32.1221 43.0036C32.0776 43.4292 32.3461 43.8841 32.4971 44.274C32.7167 44.8406 32.9376 45.4068 33.1656 45.97C33.4835 46.7547 33.7516 47.4839 34.3872 48.0377C34.4381 48.0819 34.5147 48.0267 34.4811 47.9657Z" fill="#41FF54"/>
<path d="M17.9098 6.83728C17.5337 6.15111 17.289 5.20225 16.9994 4.46086C16.7044 3.70543 16.4798 2.29404 15.8459 1.7534C15.7253 1.65059 15.567 1.72259 15.5508 1.87544C15.5063 2.30075 15.7748 2.75596 15.9261 3.14588C16.1458 3.71214 16.3667 4.27841 16.5946 4.84162C16.9125 5.62634 17.1807 6.35552 17.8162 6.90928C17.8668 6.95352 17.9437 6.89829 17.9098 6.83728Z" fill="#41FF54"/>
<path d="M2.03433 34.3677C2.7205 33.9915 3.66936 33.7471 4.41106 33.4573C5.16648 33.1622 6.57787 32.938 7.11881 32.304C7.22163 32.1835 7.14932 32.0251 6.99677 32.009C6.57116 31.9644 6.11626 32.2326 5.72634 32.3839C5.15977 32.6036 4.59381 32.8242 4.03029 33.0524C3.24558 33.3703 2.51669 33.6385 1.96233 34.274C1.91809 34.3247 1.97301 34.4012 2.03433 34.3677Z" fill="#41FF54"/>
<path d="M43.1633 17.7971C43.8492 17.4206 44.7984 17.1759 45.5397 16.8867C46.2955 16.5914 47.7066 16.3671 48.2475 15.7331C48.3503 15.6126 48.278 15.4543 48.1255 15.4381C47.6998 15.3935 47.2449 15.662 46.8547 15.8131C46.2882 16.0327 45.7222 16.2536 45.159 16.4815C44.3743 16.7994 43.6451 17.0676 43.091 17.7035C43.0471 17.7538 43.1023 17.8304 43.1633 17.7971Z" fill="#41FF54"/>
<path d="M24.9446 8.41922C24.9483 8.57727 24.8622 8.77161 24.8476 8.94338C24.814 9.33696 24.8528 9.74641 24.8473 10.1418C24.84 10.6745 24.5928 11.7119 24.958 12.1457C25.0157 12.2141 25.1448 12.2131 25.2024 12.1457C25.5679 11.7198 25.3693 10.6712 25.369 10.1418C25.3687 9.48463 25.3971 8.93637 25.0557 8.38932C25.0252 8.3402 24.9431 8.3579 24.9446 8.41922Z" fill="#41FF54"/>
<path d="M24.9453 37.8632C24.9489 38.0212 24.8629 38.2155 24.8483 38.3876C24.8147 38.7809 24.8538 39.1903 24.8483 39.5861C24.8409 40.1185 24.5938 41.1558 24.959 41.5896C25.0167 41.658 25.1457 41.6571 25.2034 41.5896C25.5689 41.1637 25.3703 40.1151 25.37 39.5861C25.3697 38.9289 25.3981 38.3803 25.0566 37.8333C25.0258 37.7844 24.9438 37.8021 24.9453 37.8632Z" fill="#41FF54"/>
<path d="M41.5811 24.8314C41.4231 24.8351 41.2287 24.7487 41.057 24.7344C40.6634 24.7012 40.2539 24.7396 39.8585 24.7344C39.3258 24.7268 38.2885 24.4796 37.8546 24.8449C37.7863 24.9022 37.7872 25.0316 37.8546 25.0892C38.2808 25.4547 39.3292 25.2561 39.8585 25.2558C40.5157 25.2555 41.0643 25.2839 41.6113 24.9428C41.6601 24.9117 41.6421 24.8299 41.5811 24.8314Z" fill="#41FF54"/>
<path d="M12.1368 24.8314C11.9787 24.8351 11.7844 24.7487 11.6126 24.7344C11.219 24.7012 10.8096 24.7396 10.4142 24.7344C9.88148 24.7268 8.84414 24.4796 8.41029 24.8449C8.34195 24.9022 8.34286 25.0316 8.41029 25.0892C8.83651 25.4544 9.88484 25.2561 10.4142 25.2558C11.0714 25.2555 11.6196 25.2839 12.167 24.9428C12.2158 24.9117 12.1981 24.8299 12.1368 24.8314Z" fill="#41FF54"/>
<path d="M36.821 36.5491C36.6928 36.4304 36.5757 36.1741 36.4469 36.0274C36.2013 35.7476 35.9026 35.5002 35.6427 35.2323C35.3647 34.9455 35.0917 34.6538 34.8174 34.3634C34.6532 34.1897 34.4409 33.9002 34.1761 33.9231C34.0754 33.9316 34.0122 33.9957 34.0034 34.0958C33.9793 34.3576 34.2655 34.5791 34.432 34.7487C34.7118 35.0337 34.991 35.3192 35.2732 35.6014C35.5399 35.8684 35.8111 36.1308 36.0927 36.3819C36.32 36.5848 36.4967 36.5915 36.763 36.6489C36.8182 36.6604 36.8674 36.5915 36.821 36.5491Z" fill="#41FF54"/>
<path d="M16.0007 15.7288C15.8722 15.6101 15.7551 15.3538 15.6266 15.2071C15.3807 14.9273 15.0823 14.6801 14.8224 14.4117C14.5444 14.1252 14.2714 13.8332 13.9971 13.543C13.8329 13.3694 13.6206 13.0799 13.3558 13.1028C13.2551 13.1113 13.1922 13.1754 13.1831 13.2755C13.159 13.5372 13.4452 13.7587 13.6117 13.9284C13.8915 14.2133 14.1707 14.4986 14.4529 14.7811C14.7199 15.0478 14.9908 15.3102 15.2724 15.5616C15.4997 15.7642 15.6763 15.7709 15.9427 15.8282C15.9979 15.8401 16.0467 15.7712 16.0007 15.7288Z" fill="#41FF54"/>
<path d="M13.4517 36.7068C13.5701 36.5787 13.8267 36.4615 13.9731 36.3331C14.2529 36.0871 14.5003 35.7888 14.7685 35.5288C15.0553 35.2509 15.347 34.9775 15.6371 34.7035C15.8107 34.5397 16.1 34.327 16.0774 34.0622C16.0689 33.9615 16.0048 33.8987 15.9047 33.8895C15.6429 33.8657 15.4217 34.1513 15.2518 34.3182C14.9668 34.598 14.6816 34.8768 14.3991 35.1593C14.1324 35.426 13.87 35.6972 13.6189 35.9788C13.416 36.2061 13.4093 36.3828 13.352 36.6491C13.3401 36.7044 13.4087 36.7535 13.4517 36.7068Z" fill="#41FF54"/>
<path d="M34.272 15.8866C34.3904 15.7584 34.647 15.6413 34.7934 15.5125C35.0732 15.2666 35.3207 14.9685 35.5888 14.7083C35.8756 14.4303 36.1673 14.1573 36.4575 13.8833C36.6311 13.7191 36.9206 13.5065 36.8977 13.2416C36.8892 13.141 36.8251 13.0781 36.725 13.069C36.4633 13.0452 36.2417 13.331 36.0721 13.4976C35.7872 13.7774 35.5016 14.0566 35.2194 14.3388C34.9527 14.6054 34.6903 14.8767 34.4392 15.158C34.2363 15.3853 34.2296 15.5619 34.1723 15.8283C34.1604 15.8838 34.2293 15.9332 34.272 15.8866Z" fill="#41FF54"/>
<path d="M31.4224 9.70245C31.3873 9.79185 31.2445 9.92029 31.1697 10.0643C30.98 10.4301 30.8454 10.828 30.6788 11.2054C30.5177 11.57 30.3493 11.9318 30.1827 12.294C30.0695 12.5402 29.8667 12.8395 29.9716 13.1101C30.0024 13.1894 30.0909 13.2691 30.1843 13.2309C30.6325 13.047 30.8125 12.2052 30.9913 11.7915C31.2472 11.1996 31.5459 10.6055 31.6234 9.96087C31.6317 9.89314 31.5804 9.83181 31.5294 9.79703C31.5716 9.82602 31.5313 9.66309 31.5374 9.70245C31.527 9.63747 31.4413 9.65394 31.4224 9.70245Z" fill="#41FF54"/>
<path d="M19.8911 36.7947C19.856 36.8841 19.7132 37.0125 19.6385 37.1571C19.4487 37.523 19.3145 37.9205 19.1476 38.2979C18.9865 38.6628 18.8181 39.0247 18.6515 39.3868C18.5383 39.633 18.3354 39.9323 18.4404 40.2029C18.4712 40.2823 18.5597 40.3619 18.653 40.3235C19.1012 40.1392 19.2812 39.2977 19.46 38.884C19.716 38.2921 20.0147 37.6978 20.0922 37.0531C20.1004 36.9854 20.0491 36.9243 19.9982 36.8893C20.0403 36.9182 19.9997 36.755 20.0061 36.7944C19.9958 36.73 19.91 36.7465 19.8911 36.7947Z" fill="#41FF54"/>
<path d="M40.2978 31.3087C40.2084 31.2739 40.08 31.1308 39.9357 31.0561C39.5699 30.8663 39.1723 30.7317 38.7946 30.5651C38.4297 30.4041 38.0682 30.2359 37.7057 30.0691C37.4595 29.9559 37.1602 29.753 36.8896 29.8582C36.8102 29.889 36.7303 29.9775 36.7687 30.0706C36.953 30.5191 37.7948 30.6988 38.2085 30.8779C38.8004 31.1339 39.3944 31.4325 40.0394 31.51C40.1071 31.518 40.1682 31.4667 40.2032 31.4158C40.1743 31.4579 40.3372 31.4176 40.2978 31.4237C40.3628 31.4133 40.346 31.3276 40.2978 31.3087Z" fill="#41FF54"/>
<path d="M13.2056 19.7778C13.1162 19.743 12.9878 19.6002 12.8435 19.5252C12.4776 19.3357 12.0798 19.2012 11.7027 19.0346C11.3378 18.8735 10.9762 18.7051 10.6138 18.5385C10.3676 18.4253 10.068 18.2224 9.79765 18.3277C9.71832 18.3585 9.63869 18.4466 9.67683 18.54C9.8608 18.9882 10.7029 19.1682 11.1163 19.347C11.7082 19.603 12.3022 19.9017 12.9469 19.9792C13.0143 19.9871 13.0756 19.9361 13.1107 19.8849C13.0817 19.9273 13.2447 19.8867 13.2053 19.8928C13.2703 19.8824 13.2538 19.7967 13.2056 19.7778Z" fill="#41FF54"/>
<path d="M31.332 40.221C31.2936 40.1328 31.3036 39.9394 31.2542 39.7838C31.1297 39.3911 30.9436 39.0146 30.7947 38.6296C30.6507 38.2577 30.514 37.883 30.3755 37.5086C30.2837 37.26 30.2108 36.9018 29.9502 36.7868C29.8391 36.738 29.7424 36.7798 29.6964 36.8902C29.5154 37.3247 30.0631 38.1976 30.226 38.6058C30.4445 39.1522 30.6416 39.7151 31.0074 40.1807C31.0504 40.2356 31.1303 40.2408 31.192 40.2295C31.137 40.2396 31.281 40.3247 31.2502 40.3024C31.3048 40.3418 31.3531 40.2689 31.332 40.221Z" fill="#41FF54"/>
<path d="M20.3292 12.91C20.2907 12.8218 20.3008 12.6284 20.2514 12.4728C20.1269 12.0801 19.9408 11.7036 19.7919 11.3186C19.6479 10.9467 19.5112 10.572 19.3727 10.1977C19.2808 9.94932 19.2079 9.59113 18.9474 9.47611C18.8363 9.42729 18.7396 9.46909 18.6935 9.57954C18.5123 10.014 19.0603 10.8869 19.2232 11.2948C19.4416 11.8412 19.6387 12.4041 20.0045 12.8697C20.0476 12.9246 20.1275 12.9298 20.1891 12.9185C20.1342 12.9286 20.2782 13.0134 20.2474 12.9915C20.3017 13.0311 20.3499 12.9582 20.3292 12.91Z" fill="#41FF54"/>
<path d="M9.7792 31.2187C9.86737 31.1799 10.0608 31.19 10.2161 31.1409C10.6091 31.0167 10.9856 30.8303 11.3706 30.6814C11.7425 30.5371 12.1175 30.4004 12.4915 30.2622C12.7402 30.1701 13.0984 30.0971 13.2137 29.8369C13.2628 29.7258 13.221 29.6288 13.1103 29.5831C12.6758 29.4018 11.8026 29.9498 11.3947 30.1127C10.8483 30.3312 10.2854 30.5283 9.81947 30.8941C9.76486 30.9371 9.75936 31.0167 9.77065 31.0786C9.76058 31.0234 9.67546 31.1671 9.69773 31.1366C9.65838 31.1912 9.7316 31.2394 9.7792 31.2187Z" fill="#41FF54"/>
<path d="M37.0909 20.2153C37.1791 20.1765 37.3725 20.1866 37.5278 20.1375C37.9205 20.013 38.297 19.8269 38.682 19.6777C39.0539 19.5337 39.4289 19.3967 39.803 19.2585C40.0516 19.1663 40.4098 19.0937 40.5248 18.8332C40.5739 18.7221 40.5321 18.6251 40.4214 18.5793C39.9866 18.3981 39.114 18.9461 38.7058 19.109C38.1591 19.3274 37.5965 19.5245 37.1306 19.8903C37.076 19.9337 37.0705 20.0133 37.0818 20.0749C37.0717 20.02 36.9866 20.164 37.0092 20.1332C36.9701 20.1878 37.0427 20.236 37.0909 20.2153Z" fill="#41FF54"/>
<path d="M24.9679 14.963C24.9575 15.028 24.8635 15.1403 24.8455 15.2321C24.8095 15.4134 24.8324 15.6083 24.8312 15.7923C24.8281 16.2185 24.7839 16.6484 24.8144 17.074C24.8382 17.4078 25.2986 17.4029 25.3291 17.074C25.3685 16.6496 25.3532 16.2179 25.3459 15.7923C25.3428 15.6047 25.3431 15.4158 25.3019 15.2321C25.2595 15.0418 25.1717 15.0497 25.0676 14.9368C25.0393 14.9057 24.9752 14.9185 24.9679 14.963Z" fill="#41FF54"/>
<path d="M24.9679 32.7189C24.9575 32.7839 24.8635 32.8962 24.8455 32.988C24.8095 33.1693 24.8324 33.3642 24.8312 33.5482C24.8281 33.9744 24.7839 34.404 24.8144 34.8296C24.8382 35.1634 25.2986 35.1585 25.3291 34.8296C25.3685 34.4052 25.3532 33.9738 25.3459 33.5482C25.3428 33.3605 25.3431 33.1717 25.3019 32.988C25.2595 32.7976 25.1717 32.8056 25.0676 32.6927C25.0393 32.6619 24.9752 32.6747 24.9679 32.7189Z" fill="#41FF54"/>
<path d="M35.0376 24.8543C34.9727 24.844 34.8601 24.75 34.7685 24.732C34.5873 24.696 34.3924 24.7189 34.2081 24.7176C33.7819 24.7146 33.352 24.6704 32.9264 24.7009C32.5926 24.7247 32.5972 25.1848 32.9264 25.2156C33.3507 25.2549 33.7822 25.2397 34.2081 25.2324C34.3957 25.229 34.5846 25.2296 34.7685 25.1884C34.9589 25.1457 34.951 25.0578 35.0639 24.9538C35.0947 24.9257 35.0819 24.8613 35.0376 24.8543Z" fill="#41FF54"/>
<path d="M17.2812 24.8543C17.2162 24.844 17.1036 24.75 17.0121 24.732C16.8308 24.696 16.6356 24.7189 16.4519 24.7176C16.0257 24.7146 15.5958 24.6704 15.1705 24.7009C14.8367 24.7247 14.8413 25.1848 15.1705 25.2156C15.5946 25.2549 16.0263 25.2397 16.4519 25.2324C16.6395 25.229 16.8284 25.2296 17.0121 25.1884C17.2025 25.146 17.1945 25.0578 17.3074 24.9538C17.3382 24.9257 17.3257 24.8613 17.2812 24.8543Z" fill="#41FF54"/>
<path d="M32.1766 31.9375C32.1599 31.915 32.1891 31.8265 32.1595 31.7853C32.1171 31.727 32.0778 31.666 32.0348 31.608C31.9219 31.4558 31.7593 31.3286 31.6268 31.1925C31.3462 30.9042 31.0728 30.4911 30.718 30.2918C30.5013 30.1701 30.2682 30.4108 30.3845 30.6253C30.5767 30.9811 30.9742 31.2794 31.261 31.5586C31.391 31.6852 31.5332 31.861 31.6918 31.9513C31.7586 31.9891 31.8276 32.0202 31.8987 32.0492C32.003 32.0928 32.0384 32.0251 32.1251 32.0276C32.1669 32.0282 32.2041 31.9742 32.1766 31.9375Z" fill="#41FF54"/>
<path d="M19.621 19.3818C19.6039 19.3592 19.6335 19.2707 19.6039 19.2298C19.5612 19.1712 19.5221 19.1102 19.4788 19.0523C19.3659 18.9 19.2033 18.7728 19.0709 18.637C18.7902 18.3484 18.5171 17.9356 18.1623 17.7364C17.9457 17.6146 17.7126 17.8554 17.8288 18.0698C18.021 18.4256 18.4186 18.7237 18.7054 19.0028C18.8353 19.1294 18.9772 19.3052 19.1365 19.3955C19.2033 19.4333 19.2722 19.4644 19.3433 19.4937C19.4477 19.5371 19.4831 19.4693 19.5697 19.4718C19.6112 19.4727 19.6487 19.4184 19.621 19.3818Z" fill="#41FF54"/>
<path d="M18.0624 32.0635C18.085 32.0465 18.1735 32.0761 18.2147 32.0462C18.2733 32.0034 18.334 31.9641 18.3919 31.9214C18.5445 31.8085 18.6714 31.6459 18.8075 31.5135C19.0961 31.2328 19.5089 30.9597 19.7081 30.6046C19.8299 30.3879 19.5892 30.1551 19.3747 30.2711C19.0189 30.4633 18.7208 30.8608 18.4417 31.1473C18.3151 31.2773 18.1393 31.4195 18.0493 31.5784C18.0115 31.6453 17.9804 31.7142 17.9511 31.7853C17.9078 31.8896 17.9752 31.925 17.973 32.0117C17.9718 32.0535 18.0258 32.091 18.0624 32.0635Z" fill="#41FF54"/>
<path d="M30.6181 19.5081C30.641 19.4907 30.7292 19.5206 30.7703 19.4907C30.8289 19.448 30.8896 19.409 30.9476 19.3656C31.0999 19.253 31.2271 19.0904 31.3632 18.9577C31.6518 18.677 32.0646 18.404 32.2638 18.0491C32.3855 17.8322 32.1448 17.5991 31.9303 17.7153C31.5746 17.9079 31.2765 18.3051 30.9973 18.5919C30.8707 18.7219 30.695 18.8637 30.605 19.0227C30.5671 19.0895 30.536 19.1585 30.5067 19.2299C30.4634 19.3342 30.5308 19.3693 30.5287 19.4562C30.5275 19.4983 30.5815 19.5356 30.6181 19.5081Z" fill="#41FF54"/>
<path d="M28.9147 15.7047C28.6065 15.8076 28.5187 16.2457 28.4009 16.5117C28.2337 16.8891 28.0363 17.2553 27.9024 17.6461C27.8072 17.9234 28.2346 18.0979 28.3716 17.8438C28.5986 17.4225 28.7731 16.9676 28.9501 16.523C28.9748 16.4608 29.257 15.5903 28.9147 15.7047Z" fill="#41FF54"/>
<path d="M21.9609 32.0422C21.6527 32.145 21.5646 32.5832 21.4468 32.8492C21.2796 33.2266 21.0822 33.5927 20.9483 33.9836C20.8531 34.2609 21.2805 34.4354 21.4175 34.1813C21.6445 33.7599 21.8187 33.305 21.996 32.8605C22.0207 32.7989 22.3032 31.9281 21.9609 32.0422Z" fill="#41FF54"/>
<path d="M34.2956 28.8008C34.1931 28.4923 33.7547 28.4045 33.4886 28.2867C33.1112 28.1195 32.7451 27.9221 32.3543 27.7879C32.0769 27.6927 31.9024 28.1204 32.1566 28.2574C32.5779 28.4844 33.0331 28.6586 33.4777 28.8359C33.5396 28.8612 34.4094 29.1431 34.2956 28.8008Z" fill="#41FF54"/>
<path d="M17.9577 21.8473C17.8549 21.5388 17.4168 21.4513 17.1508 21.3335C16.7733 21.1666 16.4072 20.9692 16.0164 20.835C15.7391 20.7398 15.5645 21.1675 15.8187 21.3042C16.24 21.5312 16.6952 21.7057 17.1395 21.8827C17.2011 21.9077 18.0718 22.1896 17.9577 21.8473Z" fill="#41FF54"/>
<path d="M28.8613 34.2044C29.0071 33.9124 28.7591 33.5399 28.6538 33.2668C28.5053 32.8815 28.3854 32.484 28.2035 32.1126C28.0741 31.8484 27.6516 32.0348 27.7343 32.3107C27.8716 32.7695 28.0708 33.2138 28.26 33.6534C28.2856 33.7129 28.7008 34.5263 28.8613 34.2044Z" fill="#41FF54"/>
<path d="M22.2256 17.7352C22.3714 17.4432 22.1234 17.0707 22.0181 16.7976C21.8695 16.4123 21.7496 16.0147 21.5678 15.6434C21.4384 15.3792 21.0158 15.5656 21.0985 15.8411C21.2358 16.3 21.435 16.7442 21.6242 17.1839C21.6498 17.2434 22.0651 18.0568 22.2256 17.7352Z" fill="#41FF54"/>
<path d="M15.7958 28.748C16.0878 28.8939 16.4603 28.6458 16.7337 28.5402C17.119 28.3917 17.5166 28.2715 17.8882 28.0899C18.1524 27.9609 17.9657 27.538 17.6905 27.6207C17.2316 27.758 16.7874 27.9575 16.3474 28.1467C16.2873 28.1723 15.4739 28.5872 15.7958 28.748Z" fill="#41FF54"/>
<path d="M32.2656 22.1124C32.5576 22.2579 32.9298 22.0102 33.2032 21.9046C33.5885 21.756 33.9861 21.6361 34.3577 21.454C34.6219 21.3246 34.4352 20.9021 34.16 20.9848C33.7011 21.1224 33.2569 21.3216 32.8169 21.5107C32.7571 21.5367 31.9434 21.9519 32.2656 22.1124Z" fill="#41FF54"/>
<path d="M30.0059 0.567806C29.9317 1.40469 29.5934 2.36545 29.4085 3.19807C29.2346 3.98034 28.6933 5.15711 28.9014 5.95037C28.9319 6.06631 29.1074 6.13099 29.1903 6.02665C29.7465 5.32888 29.7896 3.92665 29.969 3.06901C30.1514 2.19734 30.3543 1.41049 30.1227 0.55194C30.1044 0.483598 30.0114 0.50343 30.0059 0.567806Z" fill="#41FF54"/>
<path d="M20.9434 43.9734C20.8692 44.81 20.5309 45.7707 20.346 46.6033C20.1721 47.3853 19.6308 48.5624 19.8389 49.3556C19.8694 49.4716 20.0448 49.5363 20.1278 49.4319C20.684 48.7342 20.7271 47.3319 20.9065 46.4743C21.0889 45.6029 21.2918 44.8161 21.0605 43.9575C21.0419 43.8892 20.9492 43.909 20.9434 43.9734Z" fill="#41FF54"/>
<path d="M49.4325 29.8922C48.5956 29.818 47.6348 29.4797 46.8022 29.2948C46.0199 29.1209 44.8429 28.5796 44.0496 28.788C43.934 28.8185 43.869 28.9936 43.9733 29.0766C44.6714 29.6328 46.0733 29.6758 46.9313 29.8552C47.8029 30.0377 48.5898 30.2406 49.4483 30.0093C49.5167 29.991 49.4968 29.898 49.4325 29.8922Z" fill="#41FF54"/>
<path d="M6.02705 20.8298C5.19016 20.7556 4.22971 20.4173 3.39679 20.2324C2.61452 20.0585 1.43775 19.5172 0.644186 19.7256C0.528554 19.7561 0.463872 19.9313 0.567911 20.0143C1.26567 20.5704 2.66791 20.6135 3.52554 20.7932C4.39721 20.9756 5.18406 21.1785 6.04261 20.9469C6.11095 20.9286 6.09143 20.8356 6.02705 20.8298Z" fill="#41FF54"/>
<path d="M38.7934 45.6795C38.6177 45.4726 38.4831 45.1059 38.336 44.8689C38.0331 44.3795 37.685 43.9136 37.3753 43.4273C37.0864 42.9736 36.8048 42.515 36.5216 42.0574C36.3193 41.73 36.1271 41.2702 35.7699 41.0933C35.6588 41.038 35.5044 41.1033 35.5099 41.2424C35.5261 41.6455 35.8428 42.0009 36.053 42.331C36.384 42.8512 36.7147 43.3714 37.0525 43.8873C37.5373 44.6284 37.9577 45.3415 38.7214 45.7732C38.7824 45.8076 38.8361 45.7295 38.7934 45.6795Z" fill="#41FF54"/>
<path d="M14.5099 8.5791C14.3342 8.37225 14.1996 8.00552 14.0526 7.76845C13.7496 7.27907 13.4015 6.81319 13.0921 6.32686C12.8032 5.87318 12.5213 5.41461 12.2384 4.95696C12.0362 4.6299 11.8442 4.17011 11.4867 3.99315C11.3756 3.93793 11.2209 4.00322 11.2267 4.14235C11.2429 4.54538 11.5596 4.90052 11.7698 5.23094C12.1008 5.75083 12.4319 6.27103 12.769 6.78695C13.2538 7.52804 13.6742 8.24105 14.4379 8.67277C14.4989 8.70724 14.5526 8.62944 14.5099 8.5791Z" fill="#41FF54"/>
<path d="M4.32095 38.6799C4.5275 38.5045 4.89423 38.3696 5.1316 38.2229C5.62098 37.9196 6.08656 37.5715 6.57289 37.2621C7.02688 36.9732 7.48544 36.6916 7.94309 36.4085C8.27046 36.2062 8.73025 36.0143 8.90721 35.6567C8.96212 35.5453 8.89714 35.391 8.75801 35.3964C8.35498 35.4126 7.99954 35.7293 7.66911 35.9395C7.14892 36.2702 6.62872 36.6013 6.1128 36.9387C5.37171 37.4235 4.6587 37.844 4.22729 38.6076C4.19281 38.6692 4.27061 38.7229 4.32095 38.6799Z" fill="#41FF54"/>
<path d="M41.4216 14.3955C41.6282 14.2201 41.9949 14.0852 42.2323 13.9385C42.7217 13.6355 43.1873 13.2871 43.6736 12.9777C44.1273 12.6891 44.5858 12.4072 45.0435 12.1243C45.3709 11.9218 45.8306 11.7298 46.0076 11.3723C46.0625 11.2609 45.9975 11.1065 45.8584 11.112C45.4554 11.1282 45.0999 11.4449 44.7695 11.6551C44.2493 11.9861 43.7294 12.3169 43.2135 12.6543C42.4724 13.1391 41.7594 13.5595 41.328 14.3232C41.2932 14.3848 41.3713 14.4385 41.4216 14.3955Z" fill="#41FF54"/>
<path d="M39.1596 4.44591C39.0531 4.64819 38.8063 4.86877 38.6638 5.06129C38.3312 5.51009 38.038 5.99093 37.7149 6.44705C37.3583 6.95016 36.9913 7.44564 36.626 7.94265C36.3923 8.26026 36.0619 8.59038 36.0308 8.99585C36.0198 9.13925 36.1827 9.19386 36.2907 9.14505C36.645 8.98457 36.8756 8.52264 37.095 8.21633C37.4535 7.71535 37.812 7.21468 38.1641 6.70944C38.6678 5.98635 39.1556 5.33985 39.271 4.47611C39.2786 4.41601 39.1858 4.39617 39.1596 4.44591Z" fill="#41FF54"/>
<path d="M13.823 40.8358C13.7165 41.038 13.4697 41.2586 13.3269 41.4511C12.9946 41.8999 12.7014 42.3808 12.378 42.8366C12.0214 43.3397 11.6543 43.8352 11.2891 44.3322C11.0554 44.6498 10.725 44.9799 10.6939 45.3857C10.6829 45.5291 10.8458 45.5837 10.9538 45.5349C11.3081 45.3744 11.5387 44.9125 11.7581 44.6062C12.1166 44.1049 12.4751 43.6042 12.8268 43.0987C13.3306 42.3756 13.8184 41.7291 13.934 40.8657C13.942 40.8059 13.8492 40.786 13.823 40.8358Z" fill="#41FF54"/>
<path d="M45.5543 39.046C45.3517 38.9395 45.1314 38.693 44.9389 38.5502C44.4901 38.2177 44.0092 37.9245 43.5531 37.6014C43.05 37.2447 42.5542 36.8777 42.0575 36.5125C41.7396 36.2785 41.4095 35.948 41.0037 35.9169C40.8603 35.9059 40.8054 36.0688 40.8545 36.1772C41.015 36.5314 41.4769 36.762 41.7832 36.9814C42.2842 37.3402 42.7852 37.6987 43.2907 38.0505C44.0138 38.5542 44.6606 39.042 45.5241 39.1577C45.5839 39.1653 45.6037 39.0722 45.5543 39.046Z" fill="#41FF54"/>
<path d="M9.16419 13.7093C8.96161 13.6029 8.74163 13.3563 8.54881 13.2136C8.1 12.881 7.61947 12.5878 7.16304 12.2647C6.65993 11.908 6.16445 11.541 5.66745 11.1758C5.34953 10.9421 5.01941 10.6117 4.61394 10.5805C4.47054 10.5696 4.41593 10.7325 4.46474 10.8408C4.62523 11.195 5.08715 11.4257 5.39347 11.645C5.89444 12.0035 6.39541 12.362 6.90096 12.7141C7.62405 13.2175 8.27055 13.7054 9.13399 13.821C9.19409 13.8286 9.21392 13.7356 9.16419 13.7093Z" fill="#41FF54"/>
<path d="M29.5782 49.4087C29.3567 48.6771 29.3158 47.7389 29.1843 46.9698C29.0421 46.1378 29.1105 44.7041 28.6006 44.0143C28.5137 43.8971 28.3312 43.902 28.2846 44.0558C28.0304 44.8981 28.5317 46.2598 28.683 47.1077C28.8365 47.9684 28.946 48.7595 29.4693 49.4545C29.5074 49.5055 29.5992 49.4783 29.5782 49.4087Z" fill="#41FF54"/>
<path d="M21.7621 5.76213C21.5406 5.0302 21.4997 4.09232 21.3682 3.32317C21.226 2.49116 21.2944 1.0575 20.7842 0.367975C20.6973 0.250816 20.5148 0.255698 20.4682 0.409468C20.214 1.25185 20.7153 2.61351 20.8666 3.46138C21.0204 4.32176 21.1296 5.11288 21.6529 5.8079C21.691 5.85855 21.7831 5.83139 21.7621 5.76213Z" fill="#41FF54"/>
<path d="M0.591417 29.4644C1.32335 29.2432 2.26123 29.2023 3.03038 29.0708C3.86239 28.9286 5.29605 28.997 5.98588 28.4871C6.10334 28.4005 6.09846 28.2174 5.94469 28.1714C5.10231 27.9169 3.74035 28.4182 2.89248 28.5698C2.03179 28.7233 1.24097 28.8328 0.545653 29.3555C0.495006 29.3936 0.52216 29.4851 0.591417 29.4644Z" fill="#41FF54"/>
<path d="M44.2379 21.6493C44.9695 21.4275 45.9077 21.3869 46.6772 21.2554C47.5092 21.1132 48.9428 21.1819 49.6327 20.6718C49.7501 20.5851 49.7452 20.402 49.5915 20.356C48.7488 20.1018 47.3874 20.6031 46.5393 20.7544C45.6786 20.9082 44.8875 21.0174 44.1924 21.5404C44.1415 21.5782 44.1683 21.67 44.2379 21.6493Z" fill="#41FF54"/>
<path d="M28.3245 8.74145C28.2983 8.88699 28.1799 9.03954 28.1335 9.19605C28.0277 9.55454 27.9816 9.93714 27.9011 10.303C27.7885 10.8137 27.2857 11.9062 27.5706 12.388C27.6152 12.4634 27.7302 12.5052 27.8071 12.4499C28.2696 12.1192 28.2943 10.9644 28.4023 10.4409C28.5305 9.81907 28.6513 9.31504 28.4396 8.74145C28.421 8.69172 28.3358 8.67799 28.3245 8.74145Z" fill="#41FF54"/>
<path d="M22.3073 37.5642C22.2807 37.71 22.1623 37.8623 22.1163 38.0188C22.0104 38.3776 21.964 38.7602 21.8835 39.126C21.7709 39.6367 21.2681 40.729 21.5531 41.2111C21.5976 41.2864 21.7126 41.3282 21.7895 41.273C22.252 40.9423 22.2771 39.7875 22.3848 39.2639C22.5129 38.6421 22.6334 38.1381 22.422 37.5642C22.4037 37.5145 22.3189 37.5007 22.3073 37.5642Z" fill="#41FF54"/>
<path d="M41.258 28.212C41.1125 28.1858 40.9599 28.0671 40.8031 28.021C40.4443 27.9151 40.0617 27.8688 39.6959 27.7882C39.1851 27.6756 38.0926 27.1725 37.6108 27.4578C37.5352 27.5023 37.4937 27.617 37.5486 27.6942C37.8796 28.1568 39.0341 28.1815 39.5577 28.2892C40.1798 28.4173 40.6838 28.5378 41.2577 28.3267C41.3077 28.3084 41.3214 28.2236 41.258 28.212Z" fill="#41FF54"/>
<path d="M12.4353 22.1939C12.2898 22.1676 12.1373 22.0493 11.9804 22.0029C11.6216 21.897 11.2391 21.851 10.8735 21.7704C10.3628 21.6578 9.27055 21.1547 8.78849 21.4397C8.71313 21.4842 8.67134 21.5989 8.72625 21.6761C9.05698 22.1387 10.2118 22.1637 10.7353 22.2714C11.3574 22.3995 11.8615 22.52 12.4353 22.3086C12.4854 22.2903 12.4988 22.2055 12.4353 22.1939Z" fill="#41FF54"/>
<path d="M34.2012 38.7108C34.1564 38.6473 34.1554 38.5003 34.1069 38.4206C34.027 38.2897 33.9626 38.1546 33.8735 38.0292C33.6459 37.7082 33.4376 37.3738 33.2289 37.0407C32.9851 36.6523 32.6177 35.6579 32.1122 35.5939C32.0356 35.5841 31.9664 35.654 31.9456 35.7208C31.866 35.9765 32.0704 36.2102 32.2034 36.417C32.4222 36.7572 32.6394 37.0983 32.8609 37.4373C33.0708 37.7586 33.2865 38.0765 33.5144 38.3852C33.7039 38.6421 33.8696 38.6793 34.1201 38.7925C34.1683 38.8142 34.2394 38.7651 34.2012 38.7108Z" fill="#41FF54"/>
<path d="M18.0752 14.0749C18.0304 14.0111 18.0295 13.8644 17.981 13.7848C17.901 13.6539 17.8366 13.5187 17.7476 13.393C17.52 13.0723 17.3116 12.7377 17.1029 12.4048C16.8594 12.0164 16.4921 11.0221 15.9862 10.958C15.9096 10.9482 15.8404 11.0181 15.8196 11.0849C15.74 11.3406 15.9444 11.5743 16.0774 11.7812C16.2962 12.1214 16.5134 12.4625 16.7349 12.8014C16.9448 13.1227 17.1605 13.4406 17.3885 13.7494C17.5782 14.0066 17.7439 14.0435 17.9941 14.157C18.0423 14.1783 18.1134 14.1289 18.0752 14.0749Z" fill="#41FF54"/>
<path d="M11.2891 34.0885C11.3525 34.0437 11.4996 34.0427 11.5792 33.9939C11.7101 33.914 11.8456 33.8496 11.971 33.7605C12.2916 33.5329 12.6266 33.3245 12.9595 33.1158C13.3479 32.8721 14.3422 32.5047 14.406 31.9992C14.4157 31.9223 14.3459 31.853 14.2791 31.8326C14.0237 31.753 13.7897 31.9571 13.5828 32.0901C13.2426 32.3089 12.9015 32.5264 12.5629 32.7476C12.2416 32.9578 11.9237 33.1732 11.6149 33.4011C11.358 33.5909 11.3208 33.7566 11.2076 34.0067C11.1853 34.0556 11.2348 34.1266 11.2891 34.0885Z" fill="#41FF54"/>
<path d="M35.9248 17.9631C35.9886 17.9182 36.1353 17.9173 36.215 17.8685C36.3459 17.7886 36.481 17.7242 36.6064 17.6351C36.9271 17.4075 37.2618 17.1991 37.5949 16.9904C37.9833 16.7469 38.978 16.3793 39.0417 15.8738C39.0515 15.7969 38.9816 15.7276 38.9148 15.7072C38.6591 15.6275 38.4254 15.8316 38.2186 15.965C37.8784 16.1837 37.5373 16.401 37.1986 16.6222C36.8773 16.8321 36.5594 17.0478 36.2507 17.2757C35.9935 17.4655 35.9566 17.6311 35.8434 17.8813C35.8211 17.9298 35.8705 18.0012 35.9248 17.9631Z" fill="#41FF54"/>
<path d="M34.4035 11.322C34.3004 11.4812 34.0651 11.6121 33.9477 11.7949C33.7402 12.1183 33.519 12.4319 33.2948 12.7434C33.0583 13.0717 32.8161 13.3963 32.5757 13.7216C32.4268 13.9229 32.2193 14.1365 32.291 14.3995C32.3102 14.4691 32.3822 14.5331 32.4576 14.5264C32.9442 14.4849 33.4034 13.4964 33.6566 13.1355C33.8827 12.8133 34.1039 12.4881 34.3141 12.1555C34.5005 11.8605 34.5017 11.6646 34.5146 11.3519C34.517 11.2902 34.434 11.2747 34.4035 11.322Z" fill="#41FF54"/>
<path d="M17.5796 35.4862C17.4765 35.6454 17.2412 35.7763 17.1238 35.9591C16.9163 36.2822 16.6951 36.5958 16.4709 36.9073C16.2344 37.2359 15.9922 37.5602 15.7514 37.8855C15.6025 38.0871 15.3951 38.3007 15.4668 38.5637C15.486 38.6333 15.558 38.6973 15.6334 38.6906C16.12 38.6491 16.5792 37.6606 16.8324 37.2997C17.0585 36.9775 17.2794 36.6522 17.4899 36.3197C17.6763 36.0247 17.6775 35.8288 17.6903 35.5161C17.6931 35.4544 17.6101 35.4389 17.5796 35.4862Z" fill="#41FF54"/>
<path d="M38.6776 34.2908C38.5183 34.1876 38.3874 33.9527 38.2047 33.8353C37.8816 33.6278 37.5679 33.4066 37.2564 33.182C36.9278 32.9459 36.6035 32.7036 36.2783 32.4629C36.0766 32.314 35.863 32.1066 35.6 32.1783C35.5305 32.1972 35.4667 32.2692 35.4731 32.3448C35.5146 32.8315 36.5034 33.291 36.8644 33.5442C37.1865 33.77 37.5118 33.9915 37.8443 34.2017C38.1391 34.3878 38.3352 34.389 38.6477 34.4018C38.7096 34.4046 38.7249 34.3216 38.6776 34.2908Z" fill="#41FF54"/>
<path d="M14.5135 17.4661C14.3542 17.3633 14.223 17.128 14.0406 17.0109C13.7175 16.8034 13.4039 16.5825 13.0923 16.358C12.7638 16.1215 12.4394 15.8793 12.1139 15.6386C11.9125 15.49 11.6987 15.2822 11.436 15.3542C11.3664 15.3734 11.3026 15.4451 11.309 15.5208C11.3505 16.0074 12.3391 16.4669 12.7 16.7198C13.0222 16.9459 13.3474 17.1671 13.68 17.3773C13.9747 17.5634 14.1709 17.5646 14.4833 17.5772C14.5455 17.5796 14.5611 17.4969 14.5135 17.4661Z" fill="#41FF54"/>
<path d="M28.0772 41.1842C28.044 41.0228 28.0937 40.7842 28.0733 40.592C28.0364 40.2436 27.9387 39.893 27.8804 39.5467C27.7981 39.0546 27.8496 37.8681 27.4316 37.5431C27.3423 37.4736 27.2257 37.4757 27.1601 37.5779C27.0192 37.7982 27.1024 38.0462 27.1384 38.2922C27.2068 38.7577 27.295 39.2221 27.3792 39.6846C27.4914 40.3028 27.5695 40.7927 27.9772 41.2419C28.0205 41.2894 28.0885 41.2391 28.0772 41.1842Z" fill="#41FF54"/>
<path d="M22.8878 12.201C22.8545 12.0396 22.9043 11.8007 22.8838 11.6085C22.8469 11.26 22.7493 10.9095 22.691 10.5632C22.6086 10.0714 22.6602 8.88454 22.2422 8.55992C22.1528 8.49036 22.0362 8.49249 21.9707 8.5947C21.8297 8.81468 21.913 9.06303 21.949 9.30894C22.0173 9.77421 22.1055 10.2386 22.1897 10.7017C22.302 11.3195 22.3801 11.8095 22.7877 12.2589C22.8307 12.3062 22.8988 12.2559 22.8878 12.201Z" fill="#41FF54"/>
<path d="M8.81487 27.9649C8.97657 27.9316 9.21486 27.9817 9.40707 27.9612C9.75549 27.9243 10.1064 27.8267 10.4523 27.7684C10.9442 27.6857 12.131 27.7373 12.4559 27.3193C12.5255 27.2299 12.5234 27.1133 12.4208 27.0477C12.2009 26.9068 11.9525 26.9901 11.7069 27.0261C11.2413 27.0947 10.7773 27.1829 10.3141 27.2668C9.696 27.3794 9.20631 27.4575 8.7569 27.8651C8.70992 27.9081 8.76026 27.9762 8.81487 27.9649Z" fill="#41FF54"/>
<path d="M37.7994 22.7751C37.9608 22.7419 38.1997 22.7916 38.3916 22.7711C38.74 22.7342 39.0905 22.6366 39.4368 22.5783C39.9286 22.4959 41.1152 22.5475 41.4404 22.1295C41.5097 22.0401 41.5078 21.9236 41.4053 21.858C41.1854 21.717 40.937 21.8003 40.6914 21.8363C40.2258 21.9047 39.7618 21.9928 39.2986 22.077C38.6805 22.1893 38.1905 22.2674 37.7411 22.6753C37.6944 22.7184 37.7447 22.7864 37.7994 22.7751Z" fill="#41FF54"/>
<path d="M27.0049 15.1668C27.0242 15.1604 27.0437 15.154 27.0629 15.1476C26.9701 15.1537 26.9107 15.2034 26.878 15.2886C26.6565 15.8631 26.5137 16.5663 26.4307 17.178C26.3874 17.4972 26.8261 17.6412 26.9265 17.3147C27.0357 16.959 27.1013 16.5901 27.174 16.2255C27.2374 15.9079 27.3076 15.6095 27.2481 15.2886C27.2371 15.23 27.174 15.1638 27.1142 15.1546C27.1139 15.154 27.1139 15.1534 27.1139 15.1528C27.0858 15.1052 27.0229 15.1198 27.0049 15.1668Z" fill="#41FF54"/>
<path d="M23.376 32.5481C23.3952 32.5416 23.4148 32.5352 23.434 32.5288C23.3412 32.5349 23.2817 32.585 23.2491 32.6698C23.0276 33.2443 22.8848 33.9475 22.8018 34.559C22.7585 34.8781 23.1972 35.0224 23.2976 34.6957C23.4068 34.3402 23.4724 33.9713 23.545 33.6068C23.6085 33.2891 23.6787 32.9911 23.6192 32.6698C23.6082 32.6112 23.545 32.545 23.4852 32.5359C23.4849 32.5352 23.4849 32.5346 23.4849 32.534C23.4569 32.4861 23.394 32.5011 23.376 32.5481Z" fill="#41FF54"/>
<path d="M34.8327 26.8915C34.8391 26.9107 34.8455 26.9302 34.8519 26.9494C34.8458 26.8567 34.796 26.7972 34.7112 26.7645C34.1367 26.5427 33.4332 26.4003 32.8214 26.3173C32.5026 26.2739 32.3583 26.7124 32.6848 26.8128C33.0402 26.922 33.4094 26.9876 33.774 27.0605C34.0919 27.124 34.39 27.1944 34.7112 27.1346C34.7698 27.1236 34.8357 27.0605 34.8452 27.0007C34.8458 27.0007 34.8464 27.0007 34.847 27.0007C34.8943 26.9723 34.8793 26.9095 34.8327 26.8915Z" fill="#41FF54"/>
<path d="M17.4518 23.2626C17.4582 23.2818 17.4646 23.3014 17.471 23.3206C17.4646 23.2275 17.4155 23.1687 17.3301 23.1357C16.7556 22.9139 16.0523 22.7714 15.4406 22.6887C15.1218 22.6454 14.9774 23.0841 15.3039 23.1842C15.6596 23.2934 16.0285 23.359 16.3928 23.432C16.7104 23.4954 17.0085 23.5656 17.3301 23.5058C17.3889 23.4951 17.4545 23.4316 17.4643 23.3718C17.4649 23.3718 17.4655 23.3718 17.4661 23.3718C17.5134 23.3435 17.4988 23.2806 17.4518 23.2626Z" fill="#41FF54"/>
<path d="M30.5918 33.294C30.7362 33.0334 30.3542 32.6286 30.2239 32.4242C29.9939 32.0629 29.7955 31.6779 29.5261 31.3438C29.3351 31.1071 29.0053 31.4082 29.1268 31.6523C29.294 31.9876 29.5176 32.2966 29.7254 32.6081C29.91 32.8846 30.0744 33.1476 30.3536 33.334C30.407 33.3697 30.4863 33.3663 30.54 33.334C30.5574 33.3233 30.5815 33.3126 30.5918 33.294Z" fill="#41FF54"/>
<path d="M20.8672 18.4375C21.0112 18.1766 20.6299 17.7724 20.4993 17.5677C20.2692 17.2061 20.0709 16.8214 19.8018 16.4873C19.6108 16.2505 19.2807 16.5517 19.4021 16.7958C19.5693 17.1311 19.793 17.4401 20.0007 17.7516C20.1853 18.0277 20.3498 18.2911 20.6292 18.4772C20.6826 18.5126 20.762 18.5095 20.8157 18.4772C20.8327 18.4665 20.8569 18.4561 20.8672 18.4375Z" fill="#41FF54"/>
<path d="M16.7066 30.4786C16.9675 30.6226 17.3717 30.2412 17.5764 30.1106C17.9377 29.8806 18.3227 29.6823 18.6568 29.4132C18.8939 29.2222 18.5921 28.8924 18.3486 29.0138C18.0133 29.181 17.704 29.4043 17.3928 29.6124C17.1163 29.7967 16.8537 29.9614 16.6672 30.2406C16.6315 30.2943 16.6346 30.3733 16.6672 30.427C16.6773 30.4441 16.6877 30.4682 16.7066 30.4786Z" fill="#41FF54"/>
<path d="M31.562 20.7544C31.8237 20.8978 32.2265 20.517 32.4318 20.3862C32.793 20.1561 33.1781 19.9578 33.5122 19.6884C33.7492 19.4977 33.4478 19.1673 33.204 19.289C32.8687 19.4565 32.5593 19.6798 32.2481 19.8879C31.9717 20.0722 31.7087 20.237 31.5226 20.5164C31.4869 20.5701 31.4903 20.6488 31.5226 20.7028C31.5327 20.7196 31.543 20.744 31.562 20.7544Z" fill="#41FF54"/>
<path d="M30.7241 16.6877C30.444 16.6593 30.2313 17.1194 30.0977 17.3083C29.8469 17.6637 29.5488 17.9966 29.3365 18.3767C29.1992 18.623 29.5391 18.9067 29.7359 18.6849C29.979 18.4109 30.1786 18.0994 30.386 17.798C30.5785 17.5179 30.7836 17.254 30.8534 16.9165C30.8659 16.857 30.8583 16.7783 30.8058 16.7368C30.7793 16.7158 30.7586 16.6914 30.7241 16.6877Z" fill="#41FF54"/>
<path d="M20.5786 31.2596C20.2982 31.2312 20.0858 31.6913 19.9522 31.8802C19.7014 32.2356 19.403 32.5685 19.191 32.9486C19.0537 33.1949 19.3936 33.4786 19.5903 33.2568C19.8335 32.9828 20.0331 32.6713 20.2405 32.3699C20.433 32.0898 20.6381 31.8259 20.7079 31.4884C20.7204 31.4289 20.7128 31.3502 20.6603 31.3087C20.6338 31.2877 20.613 31.2633 20.5786 31.2596Z" fill="#41FF54"/>
<path d="M33.3116 30.6116C33.3403 30.3315 32.8799 30.1185 32.6911 29.9852C32.3356 29.7344 32.0027 29.4363 31.6226 29.224C31.3764 29.0867 31.0926 29.4269 31.3144 29.6237C31.5887 29.8668 31.8999 30.0664 32.2017 30.2738C32.4818 30.4663 32.7454 30.6711 33.0828 30.7412C33.1426 30.7537 33.221 30.7461 33.2625 30.6936C33.2839 30.6668 33.3083 30.646 33.3116 30.6116Z" fill="#41FF54"/>
<path d="M18.7403 20.4655C18.7687 20.1851 18.3086 19.9727 18.1198 19.8391C17.7643 19.5886 17.4315 19.2902 17.0513 19.0782C16.8051 18.9409 16.5213 19.2808 16.7432 19.4776C17.0174 19.7207 17.3286 19.92 17.6304 20.1274C17.9102 20.3202 18.1744 20.525 18.5115 20.5948C18.5713 20.6073 18.6497 20.5997 18.6912 20.5475C18.7123 20.521 18.7367 20.4999 18.7403 20.4655Z" fill="#41FF54"/>
<path d="M26.9038 34.7469C26.8965 34.7536 26.8891 34.7606 26.8818 34.7673C26.9407 34.7383 26.9776 34.6651 26.977 34.6016C26.9731 34.302 26.9078 34.0183 26.8599 33.7223C26.8007 33.355 26.7686 32.9813 26.6768 32.6209C26.6066 32.3448 26.1471 32.3961 26.1719 32.6893C26.2027 33.0475 26.2735 33.3999 26.3384 33.7532C26.3985 34.0808 26.4379 34.4137 26.6194 34.6987C26.6652 34.7704 26.7512 34.8115 26.8361 34.7868C26.8287 34.7908 26.8214 34.7945 26.8141 34.7984C26.851 34.8262 26.9044 34.7878 26.9038 34.7469Z" fill="#41FF54"/>
<path d="M23.7739 17.2687C23.7666 17.2757 23.7593 17.2824 23.7519 17.2891C23.8108 17.2604 23.848 17.1869 23.8471 17.1234C23.8383 16.4876 23.7037 15.7596 23.5469 15.1427C23.4767 14.8666 23.0173 14.9179 23.042 15.2111C23.0728 15.5693 23.1436 15.9216 23.2086 16.2749C23.2687 16.6026 23.308 16.9355 23.4896 17.2205C23.5353 17.2922 23.6217 17.3336 23.7062 17.3086C23.6989 17.3126 23.6915 17.3163 23.6842 17.3202C23.7208 17.3483 23.7745 17.3098 23.7739 17.2687Z" fill="#41FF54"/>
<path d="M15.2535 26.7902C15.2468 26.7832 15.2398 26.7756 15.2331 26.7686C15.2618 26.8271 15.3353 26.8644 15.3988 26.8638C15.6984 26.8595 15.9821 26.7942 16.2781 26.7466C16.6454 26.6874 17.0188 26.6551 17.3798 26.5632C17.6559 26.4931 17.6043 26.0336 17.3114 26.0586C16.9536 26.0891 16.6006 26.1599 16.2476 26.2249C15.9196 26.2853 15.5867 26.3243 15.3017 26.5059C15.2301 26.5516 15.1886 26.6383 15.2136 26.7228C15.2096 26.7155 15.2059 26.7082 15.202 26.7008C15.1739 26.7378 15.2124 26.7908 15.2535 26.7902Z" fill="#41FF54"/>
<path d="M32.7308 23.6608C32.7241 23.6535 32.7171 23.6461 32.7104 23.6391C32.7391 23.6977 32.8126 23.7346 32.876 23.734C33.5119 23.7255 34.2398 23.5912 34.8571 23.4341C35.1332 23.3639 35.0816 22.9044 34.7887 22.9295C34.4305 22.96 34.0778 23.0307 33.7248 23.0957C33.3972 23.1561 33.0643 23.1952 32.7793 23.3767C32.7076 23.4225 32.6658 23.5088 32.6912 23.5937C32.6872 23.5863 32.6835 23.579 32.6796 23.5717C32.6515 23.608 32.6896 23.6614 32.7308 23.6608Z" fill="#41FF54"/>
</g>
<defs>
<clipPath id="clip0_58_1039">
<rect width="50" height="50" fill="white"/>
</clipPath>
</defs>
</svg>
