<svg width="605" height="117" viewBox="0 0 605 117" fill="none" xmlns="http://www.w3.org/2000/svg">
<path d="M7.10267 43C5.80467 43 4.60501 42.6853 3.50367 42.056C2.44167 41.4267 1.59601 40.581 0.966672 39.519C0.337339 38.4177 0.022672 37.218 0.022672 35.92V34.268H4.80167V35.92C4.80167 36.5493 5.01801 37.1 5.45067 37.572C5.92267 38.0047 6.47334 38.221 7.10267 38.221H35.4227C36.052 38.221 36.583 38.0047 37.0157 37.572C37.4877 37.1 37.7237 36.5493 37.7237 35.92V26.421C37.7237 25.7917 37.4877 25.2607 37.0157 24.828C36.583 24.3953 36.052 24.179 35.4227 24.179H7.10267C5.80467 24.179 4.60501 23.8643 3.50367 23.235C2.44167 22.5663 1.59601 21.701 0.966672 20.639C0.337339 19.577 0.022672 18.397 0.022672 17.099V7.6C0.022672 6.302 0.337339 5.122 0.966672 4.06C1.59601 2.95867 2.44167 2.09333 3.50367 1.464C4.60501 0.834664 5.80467 0.519998 7.10267 0.519998H35.4227C36.7207 0.519998 37.9007 0.834664 38.9627 1.464C40.064 2.09333 40.9293 2.95867 41.5587 4.06C42.188 5.122 42.5027 6.302 42.5027 7.6V9.252H37.7237V7.6C37.7237 6.97066 37.4877 6.43966 37.0157 6.007C36.583 5.535 36.052 5.299 35.4227 5.299H7.10267C6.47334 5.299 5.92267 5.535 5.45067 6.007C5.01801 6.43966 4.80167 6.97066 4.80167 7.6V17.099C4.80167 17.7283 5.01801 18.2593 5.45067 18.692C5.92267 19.1247 6.47334 19.341 7.10267 19.341H35.4227C36.7207 19.341 37.9007 19.6753 38.9627 20.344C40.064 20.9733 40.9293 21.819 41.5587 22.881C42.188 23.943 42.5027 25.123 42.5027 26.421V35.92C42.5027 37.218 42.188 38.4177 41.5587 39.519C40.9293 40.581 40.064 41.4267 38.9627 42.056C37.9007 42.6853 36.7207 43 35.4227 43H7.10267ZM48.8313 43V0.519998H55.3803L73.0213 21.524L90.6623 0.519998H97.2113V43H92.4323V5.948L73.0213 29.017L53.6103 5.948V43H48.8313ZM103.686 43V7.6C103.686 6.302 104 5.122 104.63 4.06C105.259 2.95867 106.105 2.09333 107.167 1.464C108.268 0.834664 109.468 0.519998 110.766 0.519998H139.086C140.384 0.519998 141.564 0.834664 142.626 1.464C143.727 2.09333 144.592 2.95867 145.222 4.06C145.851 5.122 146.166 6.302 146.166 7.6V43H141.387V27.483H108.465V43H103.686ZM108.465 22.704H141.387V7.6C141.387 6.97066 141.151 6.43966 140.679 6.007C140.246 5.535 139.715 5.299 139.086 5.299H110.766C110.136 5.299 109.586 5.535 109.114 6.007C108.681 6.43966 108.465 6.97066 108.465 7.6V22.704ZM152.947 43V0.460999H157.726V38.221H195.427V43H152.947ZM198.926 43V0.460999H203.705V38.221H241.406V43H198.926ZM261.097 43V0.519998H294.668C295.966 0.519998 297.146 0.834664 298.208 1.464C299.31 2.09333 300.175 2.95867 300.804 4.06C301.434 5.122 301.748 6.302 301.748 7.6V16.627C301.748 17.1777 301.67 17.7283 301.512 18.279C301.394 18.7903 301.217 19.282 300.981 19.754C301.847 21.052 302.496 22.173 302.928 23.117C303.361 24.061 303.577 25.0247 303.577 26.008V35.92C303.577 37.218 303.263 38.4177 302.633 39.519C302.004 40.581 301.139 41.4267 300.037 42.056C298.975 42.6853 297.795 43 296.497 43H261.097ZM268.177 38.221H296.497C297.127 38.221 297.658 38.0047 298.09 37.572C298.562 37.1 298.798 36.5493 298.798 35.92V26.008C298.798 25.3787 298.562 24.8477 298.09 24.415C297.658 23.943 297.127 23.707 296.497 23.707H268.177C267.548 23.707 266.997 23.943 266.525 24.415C266.093 24.8477 265.876 25.3787 265.876 26.008V35.92C265.876 36.5493 266.093 37.1 266.525 37.572C266.997 38.0047 267.548 38.221 268.177 38.221ZM268.177 18.928H294.668C295.298 18.928 295.829 18.7117 296.261 18.279C296.694 17.807 296.91 17.2563 296.91 16.627V7.6C296.91 6.97066 296.694 6.43966 296.261 6.007C295.829 5.535 295.298 5.299 294.668 5.299H268.177C267.548 5.299 266.997 5.535 266.525 6.007C266.093 6.43966 265.876 6.97066 265.876 7.6V16.627C265.876 17.2563 266.093 17.807 266.525 18.279C266.997 18.7117 267.548 18.928 268.177 18.928ZM316.972 43C315.674 43 314.474 42.6853 313.373 42.056C312.311 41.4267 311.465 40.581 310.836 39.519C310.207 38.4177 309.892 37.218 309.892 35.92V0.519998H314.671V35.92C314.671 36.5493 314.887 37.1 315.32 37.572C315.792 38.0047 316.343 38.221 316.972 38.221H345.292C345.921 38.221 346.452 38.0047 346.885 37.572C347.357 37.1 347.593 36.5493 347.593 35.92V0.519998H352.372V35.92C352.372 37.218 352.057 38.4177 351.428 39.519C350.799 40.581 349.933 41.4267 348.832 42.056C347.77 42.6853 346.59 43 345.292 43H316.972ZM365.654 43C364.356 43 363.157 42.6853 362.055 42.056C360.993 41.4267 360.148 40.581 359.518 39.519C358.889 38.4177 358.574 37.218 358.574 35.92V34.268H363.353V35.92C363.353 36.5493 363.57 37.1 364.002 37.572C364.474 38.0047 365.025 38.221 365.654 38.221H393.974C394.604 38.221 395.135 38.0047 395.567 37.572C396.039 37.1 396.275 36.5493 396.275 35.92V26.421C396.275 25.7917 396.039 25.2607 395.567 24.828C395.135 24.3953 394.604 24.179 393.974 24.179H365.654C364.356 24.179 363.157 23.8643 362.055 23.235C360.993 22.5663 360.148 21.701 359.518 20.639C358.889 19.577 358.574 18.397 358.574 17.099V7.6C358.574 6.302 358.889 5.122 359.518 4.06C360.148 2.95867 360.993 2.09333 362.055 1.464C363.157 0.834664 364.356 0.519998 365.654 0.519998H393.974C395.272 0.519998 396.452 0.834664 397.514 1.464C398.616 2.09333 399.481 2.95867 400.11 4.06C400.74 5.122 401.054 6.302 401.054 7.6V9.252H396.275V7.6C396.275 6.97066 396.039 6.43966 395.567 6.007C395.135 5.535 394.604 5.299 393.974 5.299H365.654C365.025 5.299 364.474 5.535 364.002 6.007C363.57 6.43966 363.353 6.97066 363.353 7.6V17.099C363.353 17.7283 363.57 18.2593 364.002 18.692C364.474 19.1247 365.025 19.341 365.654 19.341H393.974C395.272 19.341 396.452 19.6753 397.514 20.344C398.616 20.9733 399.481 21.819 400.11 22.881C400.74 23.943 401.054 25.123 401.054 26.421V35.92C401.054 37.218 400.74 38.4177 400.11 39.519C399.481 40.581 398.616 41.4267 397.514 42.056C396.452 42.6853 395.272 43 393.974 43H365.654ZM407.973 43V0.519998H412.811V43H407.973ZM420.001 43V0.519998H426.55L457.702 37.572V0.519998H462.481V43H455.932L424.78 5.948V43H420.001ZM469.209 43V0.519998H507.972V5.299H473.988V19.341H501.305V24.179H473.988V38.221H507.972V43H469.209ZM521.048 43C519.75 43 518.55 42.6853 517.449 42.056C516.387 41.4267 515.541 40.581 514.912 39.519C514.283 38.4177 513.968 37.218 513.968 35.92V34.268H518.747V35.92C518.747 36.5493 518.963 37.1 519.396 37.572C519.868 38.0047 520.419 38.221 521.048 38.221H549.368C549.997 38.221 550.528 38.0047 550.961 37.572C551.433 37.1 551.669 36.5493 551.669 35.92V26.421C551.669 25.7917 551.433 25.2607 550.961 24.828C550.528 24.3953 549.997 24.179 549.368 24.179H521.048C519.75 24.179 518.55 23.8643 517.449 23.235C516.387 22.5663 515.541 21.701 514.912 20.639C514.283 19.577 513.968 18.397 513.968 17.099V7.6C513.968 6.302 514.283 5.122 514.912 4.06C515.541 2.95867 516.387 2.09333 517.449 1.464C518.55 0.834664 519.75 0.519998 521.048 0.519998H549.368C550.666 0.519998 551.846 0.834664 552.908 1.464C554.009 2.09333 554.875 2.95867 555.504 4.06C556.133 5.122 556.448 6.302 556.448 7.6V9.252H551.669V7.6C551.669 6.97066 551.433 6.43966 550.961 6.007C550.528 5.535 549.997 5.299 549.368 5.299H521.048C520.419 5.299 519.868 5.535 519.396 6.007C518.963 6.43966 518.747 6.97066 518.747 7.6V17.099C518.747 17.7283 518.963 18.2593 519.396 18.692C519.868 19.1247 520.419 19.341 521.048 19.341H549.368C550.666 19.341 551.846 19.6753 552.908 20.344C554.009 20.9733 554.875 21.819 555.504 22.881C556.133 23.943 556.448 25.123 556.448 26.421V35.92C556.448 37.218 556.133 38.4177 555.504 39.519C554.875 40.581 554.009 41.4267 552.908 42.056C551.846 42.6853 550.666 43 549.368 43H521.048ZM569.562 43C568.264 43 567.064 42.6853 565.963 42.056C564.901 41.4267 564.055 40.581 563.426 39.519C562.796 38.4177 562.482 37.218 562.482 35.92V34.268H567.261V35.92C567.261 36.5493 567.477 37.1 567.91 37.572C568.382 38.0047 568.932 38.221 569.562 38.221H597.882C598.511 38.221 599.042 38.0047 599.475 37.572C599.947 37.1 600.183 36.5493 600.183 35.92V26.421C600.183 25.7917 599.947 25.2607 599.475 24.828C599.042 24.3953 598.511 24.179 597.882 24.179H569.562C568.264 24.179 567.064 23.8643 565.963 23.235C564.901 22.5663 564.055 21.701 563.426 20.639C562.796 19.577 562.482 18.397 562.482 17.099V7.6C562.482 6.302 562.796 5.122 563.426 4.06C564.055 2.95867 564.901 2.09333 565.963 1.464C567.064 0.834664 568.264 0.519998 569.562 0.519998H597.882C599.18 0.519998 600.36 0.834664 601.422 1.464C602.523 2.09333 603.388 2.95867 604.018 4.06C604.647 5.122 604.962 6.302 604.962 7.6V9.252H600.183V7.6C600.183 6.97066 599.947 6.43966 599.475 6.007C599.042 5.535 598.511 5.299 597.882 5.299H569.562C568.932 5.299 568.382 5.535 567.91 6.007C567.477 6.43966 567.261 6.97066 567.261 7.6V17.099C567.261 17.7283 567.477 18.2593 567.91 18.692C568.382 19.1247 568.932 19.341 569.562 19.341H597.882C599.18 19.341 600.36 19.6753 601.422 20.344C602.523 20.9733 603.388 21.819 604.018 22.881C604.647 23.943 604.962 25.123 604.962 26.421V35.92C604.962 37.218 604.647 38.4177 604.018 39.519C603.388 40.581 602.523 41.4267 601.422 42.056C600.36 42.6853 599.18 43 597.882 43H569.562ZM88.3033 117V74.52H121.874C123.172 74.52 124.352 74.8347 125.414 75.464C126.516 76.0933 127.381 76.9587 128.01 78.06C128.64 79.122 128.954 80.302 128.954 81.6V90.627C128.954 91.1777 128.876 91.7283 128.718 92.279C128.6 92.7903 128.423 93.282 128.187 93.754C129.053 95.052 129.702 96.173 130.134 97.117C130.567 98.061 130.783 99.0247 130.783 100.008V109.92C130.783 111.218 130.469 112.418 129.839 113.519C129.21 114.581 128.345 115.427 127.243 116.056C126.181 116.685 125.001 117 123.703 117H88.3033ZM95.3833 112.221H123.703C124.333 112.221 124.864 112.005 125.296 111.572C125.768 111.1 126.004 110.549 126.004 109.92V100.008C126.004 99.3787 125.768 98.8477 125.296 98.415C124.864 97.943 124.333 97.707 123.703 97.707H95.3833C94.7539 97.707 94.2033 97.943 93.7313 98.415C93.2986 98.8477 93.0823 99.3787 93.0823 100.008V109.92C93.0823 110.549 93.2986 111.1 93.7313 111.572C94.2033 112.005 94.7539 112.221 95.3833 112.221ZM95.3833 92.928H121.874C122.504 92.928 123.035 92.7117 123.467 92.279C123.9 91.807 124.116 91.2563 124.116 90.627V81.6C124.116 80.9707 123.9 80.4397 123.467 80.007C123.035 79.535 122.504 79.299 121.874 79.299H95.3833C94.7539 79.299 94.2033 79.535 93.7313 80.007C93.2986 80.4397 93.0823 80.9707 93.0823 81.6V90.627C93.0823 91.2563 93.2986 91.807 93.7313 92.279C94.2033 92.7117 94.7539 92.928 95.3833 92.928ZM137.806 117V74.52H142.644V117H137.806ZM156.914 117C155.616 117 154.417 116.685 153.315 116.056C152.253 115.427 151.408 114.581 150.778 113.519C150.149 112.418 149.834 111.218 149.834 109.92V81.6C149.834 80.302 150.149 79.122 150.778 78.06C151.408 76.9587 152.253 76.0933 153.315 75.464C154.417 74.8347 155.616 74.52 156.914 74.52H185.234C186.532 74.52 187.712 74.8347 188.774 75.464C189.876 76.0933 190.741 76.9587 191.37 78.06C192 79.122 192.314 80.302 192.314 81.6V83.311H187.535V81.6C187.535 80.9707 187.299 80.4397 186.827 80.007C186.395 79.535 185.864 79.299 185.234 79.299H156.914C156.285 79.299 155.734 79.535 155.262 80.007C154.83 80.4397 154.613 80.9707 154.613 81.6V109.92C154.613 110.549 154.83 111.1 155.262 111.572C155.734 112.005 156.285 112.221 156.914 112.221H185.234C185.864 112.221 186.395 112.005 186.827 111.572C187.299 111.1 187.535 110.549 187.535 109.92V99.418H177.033V94.58H192.314V109.92C192.314 111.218 192 112.418 191.37 113.519C190.741 114.581 189.876 115.427 188.774 116.056C187.712 116.685 186.532 117 185.234 117H156.914ZM215.002 117V74.52H250.402C251.7 74.52 252.88 74.8347 253.942 75.464C255.043 76.0933 255.909 76.9587 256.538 78.06C257.167 79.122 257.482 80.302 257.482 81.6V109.92C257.482 111.218 257.167 112.418 256.538 113.519C255.909 114.581 255.043 115.427 253.942 116.056C252.88 116.685 251.7 117 250.402 117H215.002ZM222.082 112.221H250.402C251.031 112.221 251.562 112.005 251.995 111.572C252.467 111.1 252.703 110.549 252.703 109.92V81.6C252.703 80.9707 252.467 80.4397 251.995 80.007C251.562 79.535 251.031 79.299 250.402 79.299H222.082C221.453 79.299 220.902 79.535 220.43 80.007C219.997 80.4397 219.781 80.9707 219.781 81.6V109.92C219.781 110.549 219.997 111.1 220.43 111.572C220.902 112.005 221.453 112.221 222.082 112.221ZM299.961 117L286.096 100.48H292.35L306.274 116.941V117H299.961ZM264.089 117V74.579H299.489C300.787 74.579 301.967 74.9133 303.029 75.582C304.13 76.2113 304.996 77.057 305.625 78.119C306.254 79.181 306.569 80.361 306.569 81.659V94.108C306.569 95.406 306.254 96.586 305.625 97.648C304.996 98.71 304.13 99.5753 303.029 100.244C301.967 100.873 300.787 101.188 299.489 101.188H268.868V117H264.089ZM271.169 96.35H299.489C300.118 96.35 300.649 96.1337 301.082 95.701C301.554 95.2683 301.79 94.7373 301.79 94.108V81.659C301.79 81.0297 301.554 80.4987 301.082 80.066C300.649 79.594 300.118 79.358 299.489 79.358H271.169C270.54 79.358 269.989 79.594 269.517 80.066C269.084 80.4987 268.868 81.0297 268.868 81.659V94.108C268.868 94.7373 269.084 95.2683 269.517 95.701C269.989 96.1337 270.54 96.35 271.169 96.35ZM312.894 117V74.52H351.657V79.299H317.673V93.341H344.99V98.179H317.673V112.221H351.657V117H312.894ZM358.066 117V81.6C358.066 80.302 358.38 79.122 359.01 78.06C359.639 76.9587 360.485 76.0933 361.547 75.464C362.648 74.8347 363.848 74.52 365.146 74.52H393.466C394.764 74.52 395.944 74.8347 397.006 75.464C398.107 76.0933 398.972 76.9587 399.602 78.06C400.231 79.122 400.546 80.302 400.546 81.6V117H395.767V101.483H362.845V117H358.066ZM362.845 96.704H395.767V81.6C395.767 80.9707 395.531 80.4397 395.059 80.007C394.626 79.535 394.095 79.299 393.466 79.299H365.146C364.516 79.299 363.966 79.535 363.494 80.007C363.061 80.4397 362.845 80.9707 362.845 81.6V96.704ZM407.268 117V74.52H413.817L431.458 95.524L449.099 74.52H455.648V117H450.869V79.948L431.458 103.017L412.047 79.948V117H407.268ZM468.789 117C467.491 117 466.292 116.685 465.19 116.056C464.128 115.427 463.283 114.581 462.653 113.519C462.024 112.418 461.709 111.218 461.709 109.92V108.268H466.488V109.92C466.488 110.549 466.705 111.1 467.137 111.572C467.609 112.005 468.16 112.221 468.789 112.221H497.109C497.739 112.221 498.27 112.005 498.702 111.572C499.174 111.1 499.41 110.549 499.41 109.92V100.421C499.41 99.7917 499.174 99.2607 498.702 98.828C498.27 98.3953 497.739 98.179 497.109 98.179H468.789C467.491 98.179 466.292 97.8643 465.19 97.235C464.128 96.5663 463.283 95.701 462.653 94.639C462.024 93.577 461.709 92.397 461.709 91.099V81.6C461.709 80.302 462.024 79.122 462.653 78.06C463.283 76.9587 464.128 76.0933 465.19 75.464C466.292 74.8347 467.491 74.52 468.789 74.52H497.109C498.407 74.52 499.587 74.8347 500.649 75.464C501.751 76.0933 502.616 76.9587 503.245 78.06C503.875 79.122 504.189 80.302 504.189 81.6V83.252H499.41V81.6C499.41 80.9707 499.174 80.4397 498.702 80.007C498.27 79.535 497.739 79.299 497.109 79.299H468.789C468.16 79.299 467.609 79.535 467.137 80.007C466.705 80.4397 466.488 80.9707 466.488 81.6V91.099C466.488 91.7283 466.705 92.2593 467.137 92.692C467.609 93.1247 468.16 93.341 468.789 93.341H497.109C498.407 93.341 499.587 93.6753 500.649 94.344C501.751 94.9733 502.616 95.819 503.245 96.881C503.875 97.943 504.189 99.123 504.189 100.421V109.92C504.189 111.218 503.875 112.418 503.245 113.519C502.616 114.581 501.751 115.427 500.649 116.056C499.587 116.685 498.407 117 497.109 117H468.789ZM510.636 105.023V74.52H515.474V105.023H510.636ZM510.636 117V112.162H515.474V117H510.636Z" fill="#41FF54"/>
</svg>
