<svg width="218" height="30" viewBox="0 0 218 30" fill="none" xmlns="http://www.w3.org/2000/svg">
<path d="M23 27C20.7809 28.8426 18.114 29.9391 15.2404 29.9967C15.1603 29.9989 15.0801 30 15 30C14.9199 30 14.8397 29.9989 14.7596 29.9967C11.886 29.9391 9.21906 28.8426 7 27H23V27Z" fill="white"/>
<path d="M28 22.8C27.3 23.977 26.4565 25.053 25.4964 26H4.5036C3.54348 25.053 2.70097 23.977 2 22.8H4.43379C4.33625 22.538 4.24731 22.271 4.16699 22H25.833C25.7527 22.271 25.6637 22.538 25.5662 22.8H28V22.8Z" fill="white"/>
<path d="M30 18.6C29.8152 19.427 29.5688 20.228 29.2646 21H0.735417C0.431239 20.228 0.184817 19.427 0 18.6H3.60489C3.63088 18.075 3.69826 17.541 3.79933 17H26.2007C26.3017 17.541 26.3691 18.075 26.3951 18.6H30Z" fill="white"/>
<path d="M26 5H4C4.23311 4.73674 4.47459 4.48207 4.72442 4.23693H11.2646C13.3153 1.69019 15 0 15 0C15 0 16.6847 1.69019 18.7354 4.23693H25.2756C25.5254 4.48207 25.7669 4.73674 26 5Z" fill="white"/>
<path d="M26 5H4C4.23311 4.73674 4.47459 4.48207 4.72442 4.23693H11.2646C13.3153 1.69019 15 0 15 0C15 0 16.6847 1.69019 18.7354 4.23693H25.2756C25.5254 4.48207 25.7669 4.73674 26 5Z" fill="white"/>
<path d="M29 10H1C1.12845 9.592 1.27076 9.192 1.42785 8.8H7.73016C8.31142 7.826 8.92409 6.886 9.53676 6H20.4632C21.0759 6.886 21.6886 7.826 22.2708 8.8H28.5721C28.7292 9.192 28.8716 9.592 29 10Z" fill="white"/>
<path d="M30 14.6685C30 14.7795 29.9981 14.8897 29.9944 15H0.005625C0.001875 14.8897 0 14.7795 0 14.6685C0 14.3768 0.013125 14.0865 0.039375 13.8H5.01469C5.32125 13.1985 5.67938 12.5962 6.07406 12H23.9259C24.3206 12.5962 24.6788 13.1985 24.9853 13.8H29.9606C29.9869 14.0865 30 14.3768 30 14.6685Z" fill="white"/>
<path d="M52.6617 6.46927C52.7415 6.31285 52.8911 6.23464 53.1104 6.23464H56.5803C56.68 6.23464 56.7598 6.27374 56.8196 6.35195C56.8994 6.41061 56.9392 6.48883 56.9392 6.58659V26.4134C56.9392 26.5112 56.8994 26.5992 56.8196 26.6774C56.7598 26.736 56.68 26.7654 56.5803 26.7654H53.0805C52.9808 26.7654 52.8911 26.736 52.8113 26.6774C52.7515 26.5992 52.7216 26.5112 52.7216 26.4134V13.2444C52.7216 13.1662 52.7016 13.1271 52.6617 13.1271C52.6219 13.1271 52.582 13.1564 52.5421 13.2151L50.2089 17.2626C50.1092 17.419 50.0294 17.4972 49.9696 17.4972C49.9098 17.4972 49.83 17.419 49.7303 17.2626L47.3971 13.2151C47.3573 13.1564 47.3174 13.1271 47.2775 13.1271C47.2376 13.1271 47.2177 13.1662 47.2177 13.2444V26.4134C47.2177 26.5112 47.1778 26.5992 47.098 26.6774C47.0382 26.736 46.9584 26.7654 46.8587 26.7654H43.359C43.2592 26.7654 43.1695 26.736 43.0897 26.6774C43.0299 26.5992 43 26.5112 43 26.4134V6.58659C43 6.48883 43.0299 6.41061 43.0897 6.35195C43.1695 6.27374 43.2592 6.23464 43.359 6.23464H46.7989C46.9983 6.23464 47.1479 6.31285 47.2476 6.46927L49.9098 11.1327C49.9696 11.2109 50.0294 11.2109 50.0893 11.1327L52.6617 6.46927Z" fill="white"/>
<path d="M66.1179 27C64.2833 27 62.8176 26.4721 61.7208 25.4162C60.624 24.3603 60.0756 22.9525 60.0756 21.1927V11.8073C60.0756 10.0475 60.624 8.63966 61.7208 7.5838C62.8176 6.52793 64.2833 6 66.1179 6C67.9526 6 69.4183 6.52793 70.5151 7.5838C71.6318 8.63966 72.1902 10.0475 72.1902 11.8073V21.1927C72.1902 22.9525 71.6318 24.3603 70.5151 25.4162C69.4183 26.4721 67.9526 27 66.1179 27ZM66.1179 23.4511C66.6763 23.4511 67.125 23.2654 67.464 22.8939C67.803 22.5028 67.9725 21.9944 67.9725 21.3687V11.6313C67.9725 11.0056 67.803 10.507 67.464 10.1355C67.125 9.74441 66.6763 9.54888 66.1179 9.54888C65.5596 9.54888 65.1109 9.74441 64.7719 10.1355C64.4528 10.507 64.2933 11.0056 64.2933 11.6313V21.3687C64.2933 21.9944 64.4528 22.5028 64.7719 22.8939C65.1109 23.2654 65.5596 23.4511 66.1179 23.4511Z" fill="white"/>
<path d="M75.7694 26.7654C75.6697 26.7654 75.58 26.736 75.5002 26.6774C75.4404 26.5992 75.4105 26.5112 75.4105 26.4134V6.58659C75.4105 6.48883 75.4404 6.41061 75.5002 6.35195C75.58 6.27374 75.6697 6.23464 75.7694 6.23464H81.1836C82.9983 6.23464 84.454 6.75279 85.5508 7.78911C86.6476 8.82542 87.196 10.2039 87.196 11.9246V21.0754C87.196 22.7961 86.6476 24.1746 85.5508 25.2109C84.454 26.2472 82.9983 26.7654 81.1836 26.7654H75.7694ZM79.6281 23.0698C79.6281 23.1676 79.678 23.2165 79.7777 23.2165L81.1238 23.1871C81.6622 23.1676 82.1009 22.9427 82.4399 22.5126C82.7789 22.0824 82.9584 21.5154 82.9783 20.8115V12.1885C82.9783 11.4455 82.8088 10.8589 82.4698 10.4288C82.1308 9.9986 81.6721 9.78352 81.0938 9.78352H79.7777C79.678 9.78352 79.6281 9.8324 79.6281 9.93017V23.0698Z" fill="white"/>
<path d="M96.3967 27C94.6019 27 93.1561 26.4525 92.0594 25.3575C90.9825 24.243 90.4441 22.7668 90.4441 20.9288V6.58659C90.4441 6.48883 90.474 6.41061 90.5338 6.35195C90.6136 6.27374 90.7033 6.23464 90.803 6.23464H94.3028C94.4025 6.23464 94.4823 6.27374 94.5421 6.35195C94.6219 6.41061 94.6617 6.48883 94.6617 6.58659V21.3394C94.6617 21.9651 94.8213 22.4735 95.1403 22.8645C95.4594 23.2556 95.8782 23.4511 96.3967 23.4511C96.9152 23.4511 97.324 23.2556 97.6231 22.8645C97.9422 22.4735 98.1017 21.9651 98.1017 21.3394V6.58659C98.1017 6.48883 98.1316 6.41061 98.1914 6.35195C98.2712 6.27374 98.3609 6.23464 98.4606 6.23464H101.96C102.06 6.23464 102.14 6.27374 102.2 6.35195C102.279 6.41061 102.319 6.48883 102.319 6.58659V20.9288C102.319 22.7668 101.771 24.243 100.674 25.3575C99.5973 26.4525 98.1715 27 96.3967 27Z" fill="white"/>
<path d="M106.104 26.7654C106.004 26.7654 105.914 26.736 105.835 26.6774C105.775 26.5992 105.745 26.5112 105.745 26.4134V6.58659C105.745 6.48883 105.775 6.41061 105.835 6.35195C105.914 6.27374 106.004 6.23464 106.104 6.23464H109.604C109.703 6.23464 109.783 6.27374 109.843 6.35195C109.923 6.41061 109.962 6.48883 109.962 6.58659V23.0698C109.962 23.1676 110.012 23.2165 110.112 23.2165H116.394C116.493 23.2165 116.573 23.2556 116.633 23.3338C116.713 23.3925 116.753 23.4707 116.753 23.5684V26.4134C116.753 26.5112 116.713 26.5992 116.633 26.6774C116.573 26.736 116.493 26.7654 116.394 26.7654H106.104Z" fill="white"/>
<path d="M125.241 27C123.446 27 122.001 26.4525 120.904 25.3575C119.827 24.243 119.289 22.7668 119.289 20.9288V6.58659C119.289 6.48883 119.319 6.41061 119.378 6.35195C119.458 6.27374 119.548 6.23464 119.648 6.23464H123.147C123.247 6.23464 123.327 6.27374 123.387 6.35195C123.466 6.41061 123.506 6.48883 123.506 6.58659V21.3394C123.506 21.9651 123.666 22.4735 123.985 22.8645C124.304 23.2556 124.723 23.4511 125.241 23.4511C125.76 23.4511 126.169 23.2556 126.468 22.8645C126.787 22.4735 126.946 21.9651 126.946 21.3394V6.58659C126.946 6.48883 126.976 6.41061 127.036 6.35195C127.116 6.27374 127.205 6.23464 127.305 6.23464H130.805C130.905 6.23464 130.984 6.27374 131.044 6.35195C131.124 6.41061 131.164 6.48883 131.164 6.58659V20.9288C131.164 22.7668 130.616 24.243 129.519 25.3575C128.442 26.4525 127.016 27 125.241 27Z" fill="white"/>
<path d="M139.974 27C138.817 27 137.8 26.7751 136.923 26.3254C136.045 25.8757 135.367 25.25 134.888 24.4483C134.41 23.6271 134.171 22.6885 134.171 21.6327V20.7821C134.171 20.6844 134.2 20.6061 134.26 20.5475C134.34 20.4693 134.43 20.4302 134.53 20.4302H137.969C138.069 20.4302 138.149 20.4693 138.209 20.5475C138.289 20.6061 138.328 20.6844 138.328 20.7821V21.4274C138.328 22.0335 138.488 22.5223 138.807 22.8939C139.126 23.2654 139.525 23.4511 140.004 23.4511C140.482 23.4511 140.881 23.2751 141.2 22.9232C141.519 22.5712 141.679 22.1117 141.679 21.5447C141.679 20.9581 141.479 20.4595 141.08 20.0489C140.682 19.6187 139.904 18.993 138.747 18.1718C137.75 17.4679 136.942 16.8422 136.324 16.2947C135.706 15.7472 135.178 15.0726 134.739 14.2709C134.3 13.4693 134.081 12.5405 134.081 11.4846C134.081 9.82263 134.609 8.49302 135.666 7.49581C136.723 6.4986 138.119 6 139.854 6C141.609 6 143.015 6.51816 144.072 7.55447C145.148 8.59078 145.687 9.94972 145.687 11.6313V12.3352C145.687 12.433 145.647 12.5209 145.567 12.5992C145.507 12.6578 145.428 12.6872 145.328 12.6872H141.888C141.788 12.6872 141.699 12.6578 141.619 12.5992C141.559 12.5209 141.529 12.433 141.529 12.3352V11.5433C141.529 10.9372 141.37 10.4581 141.05 10.1061C140.751 9.73464 140.353 9.54888 139.854 9.54888C139.375 9.54888 138.987 9.72486 138.687 10.0768C138.388 10.4092 138.239 10.8785 138.239 11.4846C138.239 12.0712 138.428 12.5894 138.807 13.0391C139.186 13.4888 139.934 14.1145 141.05 14.9162C142.287 15.8156 143.214 16.5489 143.832 17.1159C144.47 17.6634 144.959 18.2793 145.298 18.9637C145.657 19.6285 145.836 20.4302 145.836 21.3687C145.836 23.0894 145.298 24.4581 144.221 25.4749C143.144 26.4916 141.728 27 139.974 27Z" fill="white"/>
<path d="M152.378 26.7654C152.159 26.7654 152.029 26.6578 151.989 26.4427L147.712 6.61592L147.682 6.4986C147.682 6.32262 147.791 6.23464 148.011 6.23464H151.869C152.109 6.23464 152.238 6.34218 152.258 6.55726L154.322 19.4623C154.342 19.5405 154.372 19.5796 154.412 19.5796C154.452 19.5796 154.482 19.5405 154.502 19.4623L156.506 6.55726C156.526 6.34218 156.655 6.23464 156.895 6.23464H160.634C160.893 6.23464 160.993 6.36173 160.933 6.61592L156.626 26.4427C156.586 26.6578 156.456 26.7654 156.237 26.7654H152.378Z" fill="white"/>
<path d="M174.821 9.43156C174.821 9.52933 174.781 9.61732 174.701 9.69553C174.641 9.75419 174.562 9.78352 174.462 9.78352H168.21C168.11 9.78352 168.061 9.8324 168.061 9.93017V14.5642C168.061 14.662 168.11 14.7109 168.21 14.7109H171.8C171.899 14.7109 171.979 14.75 172.039 14.8282C172.119 14.8869 172.159 14.9651 172.159 15.0628V17.9078C172.159 18.0056 172.119 18.0936 172.039 18.1718C171.979 18.2304 171.899 18.2598 171.8 18.2598H168.21C168.11 18.2598 168.061 18.3087 168.061 18.4064V23.0698C168.061 23.1676 168.11 23.2165 168.21 23.2165H174.462C174.562 23.2165 174.641 23.2556 174.701 23.3338C174.781 23.3925 174.821 23.4707 174.821 23.5684V26.4134C174.821 26.5112 174.781 26.5992 174.701 26.6774C174.641 26.736 174.562 26.7654 174.462 26.7654H164.202C164.102 26.7654 164.012 26.736 163.933 26.6774C163.873 26.5992 163.843 26.5112 163.843 26.4134V6.58659C163.843 6.48883 163.873 6.41061 163.933 6.35195C164.012 6.27374 164.102 6.23464 164.202 6.23464H174.462C174.562 6.23464 174.641 6.27374 174.701 6.35195C174.781 6.41061 174.821 6.48883 174.821 6.58659V9.43156Z" fill="white"/>
<path d="M186.112 26.7654C185.893 26.7654 185.753 26.6676 185.693 26.4721L183.39 18.3771C183.35 18.2989 183.3 18.2598 183.24 18.2598H182.223C182.124 18.2598 182.074 18.3087 182.074 18.4064V26.4134C182.074 26.5112 182.034 26.5992 181.954 26.6774C181.894 26.736 181.815 26.7654 181.715 26.7654H178.215C178.115 26.7654 178.026 26.736 177.946 26.6774C177.886 26.5992 177.856 26.5112 177.856 26.4134V6.58659C177.856 6.48883 177.886 6.41061 177.946 6.35195C178.026 6.27374 178.115 6.23464 178.215 6.23464H184.257C185.354 6.23464 186.331 6.4986 187.189 7.02654C188.046 7.53492 188.704 8.25838 189.163 9.19693C189.642 10.1355 189.881 11.2109 189.881 12.4232C189.881 13.5768 189.652 14.5936 189.193 15.4735C188.754 16.3534 188.136 17.0377 187.338 17.5265C187.299 17.5461 187.269 17.5754 187.249 17.6145C187.229 17.6341 187.229 17.6634 187.249 17.7025L190.001 26.3547L190.031 26.4721C190.031 26.6676 189.921 26.7654 189.702 26.7654H186.112ZM182.223 9.78352C182.124 9.78352 182.074 9.8324 182.074 9.93017V14.9455C182.074 15.0433 182.124 15.0922 182.223 15.0922H183.569C184.188 15.0922 184.686 14.8575 185.065 14.3883C185.464 13.8994 185.663 13.2542 185.663 12.4525C185.663 11.6313 185.464 10.986 185.065 10.5168C184.686 10.0279 184.188 9.78352 183.569 9.78352H182.223Z" fill="white"/>
<path d="M198.305 27C197.149 27 196.132 26.7751 195.254 26.3254C194.377 25.8757 193.699 25.25 193.22 24.4483C192.742 23.6271 192.502 22.6885 192.502 21.6327V20.7821C192.502 20.6844 192.532 20.6061 192.592 20.5475C192.672 20.4693 192.762 20.4302 192.861 20.4302H196.301C196.401 20.4302 196.481 20.4693 196.541 20.5475C196.62 20.6061 196.66 20.6844 196.66 20.7821V21.4274C196.66 22.0335 196.82 22.5223 197.139 22.8939C197.458 23.2654 197.857 23.4511 198.335 23.4511C198.814 23.4511 199.213 23.2751 199.532 22.9232C199.851 22.5712 200.01 22.1117 200.01 21.5447C200.01 20.9581 199.811 20.4595 199.412 20.0489C199.013 19.6187 198.236 18.993 197.079 18.1718C196.082 17.4679 195.274 16.8422 194.656 16.2947C194.038 15.7472 193.509 15.0726 193.071 14.2709C192.632 13.4693 192.413 12.5405 192.413 11.4846C192.413 9.82263 192.941 8.49302 193.998 7.49581C195.055 6.4986 196.451 6 198.186 6C199.941 6 201.347 6.51816 202.403 7.55447C203.48 8.59078 204.019 9.94972 204.019 11.6313V12.3352C204.019 12.433 203.979 12.5209 203.899 12.5992C203.839 12.6578 203.759 12.6872 203.66 12.6872H200.22C200.12 12.6872 200.03 12.6578 199.951 12.5992C199.891 12.5209 199.861 12.433 199.861 12.3352V11.5433C199.861 10.9372 199.701 10.4581 199.382 10.1061C199.083 9.73464 198.684 9.54888 198.186 9.54888C197.707 9.54888 197.318 9.72486 197.019 10.0768C196.72 10.4092 196.57 10.8785 196.57 11.4846C196.57 12.0712 196.76 12.5894 197.139 13.0391C197.518 13.4888 198.266 14.1145 199.382 14.9162C200.619 15.8156 201.546 16.5489 202.164 17.1159C202.802 17.6634 203.291 18.2793 203.63 18.9637C203.989 19.6285 204.168 20.4302 204.168 21.3687C204.168 23.0894 203.63 24.4581 202.553 25.4749C201.476 26.4916 200.06 27 198.305 27Z" fill="white"/>
<path d="M218 9.43156C218 9.52933 217.96 9.61732 217.88 9.69553C217.821 9.75419 217.741 9.78352 217.641 9.78352H211.389C211.29 9.78352 211.24 9.8324 211.24 9.93017V14.5642C211.24 14.662 211.29 14.7109 211.389 14.7109H214.979C215.079 14.7109 215.158 14.75 215.218 14.8282C215.298 14.8869 215.338 14.9651 215.338 15.0628V17.9078C215.338 18.0056 215.298 18.0936 215.218 18.1718C215.158 18.2304 215.079 18.2598 214.979 18.2598H211.389C211.29 18.2598 211.24 18.3087 211.24 18.4064V23.0698C211.24 23.1676 211.29 23.2165 211.389 23.2165H217.641C217.741 23.2165 217.821 23.2556 217.88 23.3338C217.96 23.3925 218 23.4707 218 23.5684V26.4134C218 26.5112 217.96 26.5992 217.88 26.6774C217.821 26.736 217.741 26.7654 217.641 26.7654H207.381C207.281 26.7654 207.192 26.736 207.112 26.6774C207.052 26.5992 207.022 26.5112 207.022 26.4134V6.58659C207.022 6.48883 207.052 6.41061 207.112 6.35195C207.192 6.27374 207.281 6.23464 207.381 6.23464H217.641C217.741 6.23464 217.821 6.27374 217.88 6.35195C217.96 6.41061 218 6.48883 218 6.58659V9.43156Z" fill="white"/>
</svg>
