<svg width="38" height="30" viewBox="0 0 38 30" fill="none" xmlns="http://www.w3.org/2000/svg">
<path d="M33.661 7.4715C33.6759 7.79666 33.6833 8.12334 33.6833 8.45146C33.6833 18.4599 25.944 30 11.7943 30C7.44917 30 3.40466 28.7461 0 26.5971C0.602644 26.6674 1.21424 26.7033 1.83553 26.7033C5.44031 26.7033 8.75713 25.4926 11.391 23.4608C8.02356 23.4001 5.18287 21.2102 4.20376 18.2014C4.67402 18.29 5.15543 18.3376 5.65166 18.3376C6.3525 18.3376 7.03249 18.2447 7.67836 18.0718C4.15914 17.3759 1.50661 14.3152 1.50661 10.6457C1.50661 10.6135 1.50661 10.582 1.50742 10.5505C2.54458 11.1174 3.73057 11.458 4.99236 11.4975C2.92773 10.1397 1.56987 7.82151 1.56987 5.19358C1.56987 3.80568 1.94854 2.5049 2.61143 1.38646C6.40599 5.96845 12.0739 8.98308 18.4681 9.2995C18.3371 8.74505 18.2686 8.16719 18.2686 7.57322C18.2686 3.39109 21.7134 0 25.9618 0C28.176 0 30.1744 0.919923 31.5776 2.39134C33.3306 2.05224 34.9763 1.42164 36.4628 0.553659C35.8884 2.32249 34.6697 3.80633 33.0806 4.74381C34.637 4.56068 36.1206 4.15352 37.5 3.55146C36.4689 5.06983 35.1639 6.40356 33.661 7.4715Z" fill="white"/>
</svg>
