<svg width="42" height="30" viewBox="0 0 42 30" fill="none" xmlns="http://www.w3.org/2000/svg">
<path d="M36.4281 0.62426C36.4281 0.62426 31.4234 0 20.675 0C10.2753 0 5.04056 0.62426 5.04056 0.62426C3.70355 0.624756 2.42147 1.15173 1.47623 2.0893C0.530998 3.02687 2.59082e-07 4.29827 3.52506e-07 5.62395V24.3779C-0.000247239 25.0345 0.129934 25.6847 0.383112 26.2914C0.63629 26.898 1.00751 27.4493 1.47557 27.9138C1.94362 28.3782 2.49936 28.7467 3.11104 28.9982C3.72273 29.2497 4.37838 29.3792 5.04056 29.3795C5.04056 29.3795 9.9077 30 20.675 30C31.4366 30 36.4281 29.3795 36.4281 29.3795C37.0906 29.38 37.7467 29.2509 38.3588 28.9997C38.9709 28.7485 39.5271 28.3801 39.9955 27.9155C40.4638 27.451 40.8352 26.8994 41.0883 26.2924C41.3414 25.6853 41.4713 25.0348 41.4706 24.3779V5.62021C41.4706 4.96382 41.3401 4.31386 41.0867 3.70748C40.8332 3.1011 40.4617 2.55018 39.9935 2.08622C39.5252 1.62225 38.9693 1.25433 38.3575 1.00348C37.7458 0.752632 37.0901 0.623769 36.4281 0.62426ZM15.1952 22.4285V7.57897L28.643 14.9991L15.1952 22.4285Z" fill="white"/>
</svg>
