<svg width="50" height="50" viewBox="0 0 50 50" fill="none" xmlns="http://www.w3.org/2000/svg">
<path d="M22.7817 24.9436C19.5991 21.7528 14.6768 16.8402 12.788 14.9772C12.2973 14.4948 12.0106 14.2135 12.0106 14.2135C9.26287 11.4643 4.80701 11.4643 2.06082 14.2135C-0.686939 16.9606 -0.686939 21.4172 2.06082 24.1633C2.06082 24.1633 2.36472 24.4628 2.88201 24.9717C2.36482 25.4972 2.06082 25.8065 2.06082 25.8065C-0.686939 28.5543 -0.686939 33.0093 2.06082 35.7563C4.80711 38.5033 9.26297 38.5033 12.0106 35.7563C12.0106 35.7563 12.3312 35.4289 12.8757 34.8777C14.828 32.8944 19.6498 28.0672 22.7817 24.9436Z" fill="#54FF65"/>
<path d="M47.0756 25.0578C47.5959 24.5361 47.9044 24.2291 47.9044 24.2291C50.6703 21.5018 50.702 17.0459 47.974 14.28C45.2474 11.5133 40.792 11.4808 38.0245 14.2081C38.0245 14.2081 37.7016 14.5332 37.1534 15.0807C35.1867 17.0496 30.3309 21.8427 27.177 24.9436C30.3361 28.1571 35.2221 33.1053 37.0989 34.9812C37.5858 35.4666 37.8702 35.7502 37.8702 35.7502C40.5983 38.5191 45.0538 38.5509 47.8212 35.822C50.5871 33.094 50.6188 28.6388 47.8923 25.8722C47.8923 25.8722 47.5899 25.5704 47.0756 25.0578Z" fill="#54FF65"/>
<path d="M15.1228 12.8759C17.1053 14.8283 21.9333 19.6501 25.056 22.7819C28.2469 19.5986 33.1602 14.6778 35.0218 12.7875C35.5042 12.2968 35.7862 12.0101 35.7862 12.0101C38.5348 9.26314 38.5348 4.80728 35.7862 2.0603C33.0384 -0.686768 28.5833 -0.686768 25.8363 2.0603C25.8363 2.0603 25.5361 2.36499 25.028 2.88218C24.5025 2.36499 24.1932 2.0603 24.1932 2.0603C21.4463 -0.686768 16.9904 -0.686768 14.2434 2.0603C11.4957 4.80728 11.4957 9.26314 14.2434 12.0101C14.2434 12.0101 14.5709 12.3315 15.1228 12.8759Z" fill="#54FF65"/>
<path d="M34.9191 37.1528C32.9501 35.1868 28.1571 30.331 25.0562 27.1764C21.8434 30.3363 16.8944 35.2223 15.0186 37.0991C14.5331 37.5867 14.2496 37.871 14.2496 37.871C11.4807 40.5984 11.4489 45.0535 14.1778 47.8208C16.906 50.5875 21.3611 50.6193 24.1277 47.8919C24.1277 47.8919 24.4294 47.5895 24.942 47.0761C25.4637 47.5963 25.7707 47.904 25.7707 47.904C28.4988 50.6707 32.9539 50.7025 35.7205 47.9745C38.4879 45.2471 38.5197 40.7912 35.7924 38.0252C35.7924 38.0252 35.4672 37.7018 34.9191 37.1528Z" fill="#54FF65"/>
</svg>
