<svg width="822" height="271" viewBox="0 0 822 271" fill="none" xmlns="http://www.w3.org/2000/svg">
<path d="M30.3057 175L3.58172 101.56H12.3537L33.8757 160.516L55.2957 101.56H65.2917L86.8137 160.516L108.132 101.56H117.108L90.3837 175H83.1417L60.2937 112.27L37.4457 175H30.3057ZM126.054 175V101.56H134.316V134.098H192.966V101.56H201.33V175H192.966V142.462H134.316V175H126.054ZM213.732 175V101.56H222.096V175H213.732ZM263.494 175V109.822H230.854V101.56H304.294V109.822H271.756V175H263.494ZM312.127 175V101.56H379.141V109.822H320.389V134.098H367.615V142.462H320.389V166.738H379.141V175H312.127ZM417.808 175V101.662H479.008C481.252 101.662 483.292 102.24 485.128 103.396C487.032 104.484 488.528 105.946 489.616 107.782C490.704 109.618 491.248 111.658 491.248 113.902V135.424C491.248 137.668 490.704 139.708 489.616 141.544C488.528 143.38 487.032 144.876 485.128 146.032C483.292 147.12 481.252 147.664 479.008 147.664H426.07V175H417.808ZM430.048 139.3H479.008C480.096 139.3 481.014 138.926 481.762 138.178C482.578 137.43 482.986 136.512 482.986 135.424V113.902C482.986 112.814 482.578 111.896 481.762 111.148C481.014 110.332 480.096 109.924 479.008 109.924H430.048C428.96 109.924 428.008 110.332 427.192 111.148C426.444 111.896 426.07 112.814 426.07 113.902V135.424C426.07 136.512 426.444 137.43 427.192 138.178C428.008 138.926 428.96 139.3 430.048 139.3ZM499.691 175V113.8C499.691 111.556 500.235 109.516 501.323 107.68C502.411 105.776 503.873 104.28 505.709 103.192C507.613 102.104 509.687 101.56 511.931 101.56H560.891C563.135 101.56 565.175 102.104 567.011 103.192C568.915 104.28 570.411 105.776 571.499 107.68C572.587 109.516 573.131 111.556 573.131 113.8V175H564.869V148.174H507.953V175H499.691ZM507.953 139.912H564.869V113.8C564.869 112.712 564.461 111.794 563.645 111.046C562.897 110.23 561.979 109.822 560.891 109.822H511.931C510.843 109.822 509.891 110.23 509.075 111.046C508.327 111.794 507.953 112.712 507.953 113.8V139.912ZM584.753 175V101.662H645.953C648.197 101.662 650.237 102.24 652.073 103.396C653.977 104.484 655.473 105.946 656.561 107.782C657.649 109.618 658.193 111.658 658.193 113.902V135.424C658.193 137.668 657.649 139.708 656.561 141.544C655.473 143.38 653.977 144.876 652.073 146.032C650.237 147.12 648.197 147.664 645.953 147.664H593.015V175H584.753ZM596.993 139.3H645.953C647.041 139.3 647.959 138.926 648.707 138.178C649.523 137.43 649.931 136.512 649.931 135.424V113.902C649.931 112.814 649.523 111.896 648.707 111.148C647.959 110.332 647.041 109.924 645.953 109.924H596.993C595.905 109.924 594.953 110.332 594.137 111.148C593.389 111.896 593.015 112.814 593.015 113.902V135.424C593.015 136.512 593.389 137.43 594.137 138.178C594.953 138.926 595.905 139.3 596.993 139.3ZM665.641 175V101.56H732.655V109.822H673.903V134.098H721.129V142.462H673.903V166.738H732.655V175H665.641ZM805.546 175L781.576 146.44H792.388L816.46 174.898V175H805.546ZM743.53 175V101.662H804.73C806.974 101.662 809.014 102.24 810.85 103.396C812.754 104.484 814.25 105.946 815.338 107.782C816.426 109.618 816.97 111.658 816.97 113.902V135.424C816.97 137.668 816.426 139.708 815.338 141.544C814.25 143.38 812.754 144.876 810.85 146.032C809.014 147.12 806.974 147.664 804.73 147.664H751.792V175H743.53ZM755.77 139.3H804.73C805.818 139.3 806.736 138.926 807.484 138.178C808.3 137.43 808.708 136.512 808.708 135.424V113.902C808.708 112.814 808.3 111.896 807.484 111.148C806.736 110.332 805.818 109.924 804.73 109.924H755.77C754.682 109.924 753.73 110.332 752.914 111.148C752.166 111.896 751.792 112.814 751.792 113.902V135.424C751.792 136.512 752.166 137.43 752.914 138.178C753.73 138.926 754.682 139.3 755.77 139.3Z" fill="#54FF65"/>
<path opacity="0.0526316" d="M293.605 218.595C299.472 226.401 318.225 239.463 346.296 229.265C381.386 216.517 394.957 182.725 426.275 165.204C449.39 152.272 511.501 132.86 547.216 154.31" stroke="#54FF65" stroke-width="1.45842"/>
<path opacity="0.105263" d="M287.818 202.23C292.837 210.606 310.121 225.557 339.105 218.349C375.335 209.339 392.364 177.151 425.342 162.999C449.682 152.554 513.482 139.741 546.759 164.807" stroke="#54FF65" stroke-width="1.45842"/>
<path opacity="0.157895" d="M283.446 185.645C287.562 194.5 303.189 211.176 332.768 207.037C369.741 201.863 390.041 171.632 424.318 161.005C449.616 153.161 514.406 147.087 544.881 175.494" stroke="#54FF65" stroke-width="1.45842"/>
<path opacity="0.210526" d="M280.504 168.988C283.672 178.225 297.47 196.443 327.319 195.418C364.631 194.137 387.98 166.194 423.18 159.208C449.16 154.051 514.229 154.783 541.568 186.22" stroke="#54FF65" stroke-width="1.45842"/>
<path opacity="0.263158" d="M278.993 152.41C281.178 161.927 292.996 181.487 322.789 183.589C360.03 186.215 386.172 160.865 421.909 157.596C448.286 155.184 512.922 162.713 536.825 196.836" stroke="#54FF65" stroke-width="1.45842"/>
<path opacity="0.315789" d="M278.895 136.058C280.074 145.752 289.783 166.441 319.193 171.645C355.955 178.149 384.604 155.671 420.487 156.156C446.971 156.514 510.467 170.758 530.671 207.192" stroke="#54FF65" stroke-width="1.45842"/>
<path opacity="0.368421" d="M280.18 120.081C280.339 129.845 287.832 151.435 316.537 159.684C352.418 169.996 383.26 150.635 418.895 154.869C445.197 157.993 506.856 178.797 523.142 217.143" stroke="#54FF65" stroke-width="1.45842"/>
<path opacity="0.421053" d="M282.801 104.62C281.938 114.347 287.134 136.602 314.819 147.807C349.426 161.813 382.122 145.782 417.12 153.717C442.951 159.573 502.097 186.708 514.286 226.547" stroke="#54FF65" stroke-width="1.45842"/>
<path opacity="0.473684" d="M286.697 89.8125C284.822 99.396 287.663 122.072 314.025 136.109C346.978 153.656 381.171 141.131 415.148 152.68C440.225 161.205 496.211 194.373 504.169 235.268" stroke="#54FF65" stroke-width="1.45842"/>
<path opacity="0.526316" d="M291.792 75.7877C288.926 85.1226 289.38 107.972 314.131 124.688C345.07 145.583 380.385 136.7 412.968 151.738C437.017 162.837 489.229 201.676 492.868 243.178" stroke="#54FF65" stroke-width="1.45842"/>
<path opacity="0.578947" d="M297.999 62.6664C294.173 71.6506 292.237 94.422 315.105 113.634C343.689 137.648 379.739 132.505 410.572 150.867C433.329 164.419 481.196 208.503 480.477 250.158" stroke="#54FF65" stroke-width="1.45842"/>
<path opacity="0.631579" d="M305.215 50.5609C300.471 59.0959 296.165 81.5401 316.899 103.037C342.818 129.908 379.207 128.561 407.952 150.045C429.168 165.902 472.164 214.748 467.095 256.099" stroke="#54FF65" stroke-width="1.45842"/>
<path opacity="0.684211" d="M313.331 39.5703C307.72 47.5626 301.092 69.4338 319.466 92.9801C342.433 122.413 378.765 124.878 405.106 149.249C424.548 167.236 462.203 220.309 452.839 260.904" stroke="#54FF65" stroke-width="1.45842"/>
<path opacity="0.736842" d="M322.223 29.7825C315.808 37.1445 306.93 58.203 322.741 83.541C342.506 115.213 378.381 121.462 402.031 148.453C419.486 168.374 451.387 225.092 437.831 264.486" stroke="#54FF65" stroke-width="1.45842"/>
<path opacity="0.789474" d="M331.763 21.2728C324.613 27.9239 313.583 47.9391 326.66 74.791C343.006 108.356 378.03 118.32 398.729 147.635C414.007 169.272 439.805 229.014 422.205 266.775" stroke="#54FF65" stroke-width="1.45842"/>
<path opacity="0.842105" d="M341.814 14.101C334.008 19.9683 320.946 38.7209 331.144 66.7926C343.892 101.882 377.683 115.453 395.205 146.771C408.137 169.886 427.548 231.997 406.098 267.712" stroke="#54FF65" stroke-width="1.45842"/>
<path opacity="0.894737" d="M352.231 8.31385C343.855 13.3331 328.904 30.6175 336.112 59.6014C345.122 95.8314 377.31 112.86 391.462 145.838C401.907 170.178 414.72 233.978 389.654 267.255" stroke="#54FF65" stroke-width="1.45842"/>
<path opacity="0.947368" d="M362.87 3.94169C354.014 8.05783 337.339 23.6848 341.478 53.2634C346.652 90.2367 376.883 110.537 387.51 144.813C395.354 170.112 401.428 234.902 373.021 265.376" stroke="#54FF65" stroke-width="1.45842"/>
<path d="M373.579 1C364.342 4.16796 346.124 17.9662 347.149 47.8155C348.43 85.127 376.374 108.476 383.359 143.676C388.516 169.656 387.784 234.725 356.347 262.064" stroke="#54FF65" stroke-width="1.45842"/>
</svg>
