<svg width="30" height="30" viewBox="0 0 30 30" fill="none" xmlns="http://www.w3.org/2000/svg">
<path d="M23 27C20.7809 28.8426 18.114 29.9391 15.2404 29.9967C15.1603 29.9989 15.0801 30 15 30C14.9199 30 14.8397 29.9989 14.7596 29.9967C11.886 29.9391 9.21906 28.8426 7 27H23V27Z" fill="#F32249"/>
<path d="M28 22.8C27.3 23.977 26.4565 25.053 25.4964 26H4.5036C3.54348 25.053 2.70097 23.977 2 22.8H4.43379C4.33625 22.538 4.24731 22.271 4.16699 22H25.833C25.7527 22.271 25.6637 22.538 25.5662 22.8H28V22.8Z" fill="#F32249"/>
<path d="M30 18.6C29.8152 19.427 29.5688 20.228 29.2646 21H0.735417C0.431239 20.228 0.184817 19.427 0 18.6H3.60489C3.63088 18.075 3.69826 17.541 3.79933 17H26.2007C26.3017 17.541 26.3691 18.075 26.3951 18.6H30Z" fill="#F32249"/>
<path d="M26 5H4C4.23311 4.73674 4.47459 4.48207 4.72442 4.23693H11.2646C13.3153 1.69019 15 0 15 0C15 0 16.6847 1.69019 18.7354 4.23693H25.2756C25.5254 4.48207 25.7669 4.73674 26 5Z" fill="#F32249"/>
<path d="M26 5H4C4.23311 4.73674 4.47459 4.48207 4.72442 4.23693H11.2646C13.3153 1.69019 15 0 15 0C15 0 16.6847 1.69019 18.7354 4.23693H25.2756C25.5254 4.48207 25.7669 4.73674 26 5Z" fill="#F32249"/>
<path d="M29 10H1C1.12845 9.592 1.27076 9.192 1.42785 8.8H7.73016C8.31142 7.826 8.92409 6.886 9.53676 6H20.4632C21.0759 6.886 21.6886 7.826 22.2708 8.8H28.5721C28.7292 9.192 28.8716 9.592 29 10Z" fill="#F32249"/>
<path d="M30 14.6685C30 14.7795 29.9981 14.8897 29.9944 15H0.005625C0.001875 14.8897 0 14.7795 0 14.6685C0 14.3768 0.013125 14.0865 0.039375 13.8H5.01469C5.32125 13.1985 5.67938 12.5962 6.07406 12H23.9259C24.3206 12.5962 24.6788 13.1985 24.9853 13.8H29.9606C29.9869 14.0865 30 14.3768 30 14.6685Z" fill="#F32249"/>
</svg>
