<svg width="334" height="119" viewBox="0 0 334 119" fill="none" xmlns="http://www.w3.org/2000/svg">
<path d="M93.2383 25.7969V33.6719H101.387C105.379 33.6719 107.375 32.4323 107.375 29.9531C107.375 27.1823 105.424 25.7969 101.523 25.7969H93.2383ZM101.25 19.125C105.333 19.125 107.375 17.9492 107.375 15.5977C107.375 12.6992 105.288 11.25 101.113 11.25H93.2383V19.125H101.25ZM104.121 2.52734C114.184 2.52734 119.215 6.20052 119.215 13.5469C119.215 18.487 117.064 21.4128 112.762 22.3242C117.064 23.2357 119.215 26.3893 119.215 31.7852C119.215 38.6758 114.184 42.1211 104.121 42.1211H79.3477L81.6719 39.1406V6.05469L79.3477 2.52734H104.121ZM132.23 2.5H145.574L164.906 42.1211H148.418L150.742 39.1133L148.965 35.0391H130.043L127.992 39.1133L130.316 42.1211H116.016L133.57 5.48047L132.23 2.5ZM132.777 27.8203H145.984L139.449 13.6562L132.777 27.8203ZM166.301 2.52734H178.66L198.922 25.3594V5.37109L196.625 2.52734H210.488L208.055 5.50781V42.0938H199.195L177.73 18.8516V39.1133L180.164 42.0938H166.301L168.625 39.168V5.69922L166.301 2.52734ZM230.258 27.1914L226.594 30.3906V39.25L228.918 42.0938H212.32L214.781 39.1133V5.50781L212.32 2.52734H228.918L226.594 5.37109V18.4961L241.031 5.50781L238.57 2.52734H258.449L238.051 20.3555L258.039 42.1211H238.297L240.73 39.1406L230.258 27.1914ZM154.539 44.8633C164.125 44.8633 168.918 49.2695 168.918 58.082C168.918 66.7773 164.213 71.125 154.803 71.125C144.971 71.125 140.055 66.6836 140.055 57.8008C140.055 49.1758 144.883 44.8633 154.539 44.8633ZM147.877 57.748C147.877 63.0801 150.162 65.7461 154.732 65.7461C158.975 65.7461 161.096 63.1914 161.096 58.082C161.096 52.8555 158.869 50.2422 154.416 50.2422C150.057 50.2422 147.877 52.7441 147.877 57.748ZM171.361 45.2676H195.303V52.0879L193.299 50.5059H180.361V55.498H188.588L190.504 53.916V62.0547L188.588 60.4727H180.361V68.7344L182.119 70.6855H171.361L172.943 68.7871V47.1836L171.361 45.2676ZM4.78125 76.5273H17.1406L37.4023 99.3594V79.3711L35.1055 76.5273H48.9688L46.5352 79.5078V116.094H37.6758L16.2109 92.8516V113.113L18.6445 116.094H4.78125L7.10547 113.168V79.6992L4.78125 76.5273ZM74.2617 75.8984C89.1732 75.8984 96.6289 82.7526 96.6289 96.4609C96.6289 109.987 89.3099 116.75 74.6719 116.75C59.3776 116.75 51.7305 109.841 51.7305 96.0234C51.7305 82.6068 59.2409 75.8984 74.2617 75.8984ZM63.8984 95.9414C63.8984 104.236 67.4531 108.383 74.5625 108.383C81.1615 108.383 84.4609 104.409 84.4609 96.4609C84.4609 88.3307 80.9974 84.2656 74.0703 84.2656C67.2891 84.2656 63.8984 88.1576 63.8984 95.9414ZM161.461 76.5273L145.574 115.766H136.961L129.688 95.5586L121.922 115.766H113.035L97.832 76.5273H113.609L111.312 79.4805L118.285 101.055L127.719 76.5273H134.555L142.758 101.055L150.988 79.4805L148.691 76.5273H161.461ZM176.254 100.562V113.25L178.578 116.094H161.98L164.441 113.113V79.5078L161.98 76.5273H178.578L176.254 79.3711V91.4023H195.066V79.5078L192.605 76.5273H209.203L206.879 79.3711V113.25L209.203 116.094H192.605L195.066 113.113V100.562H176.254ZM212.32 76.5273H249.562V87.1367L246.445 84.6758H226.32V92.4414H239.117L242.098 89.9805V102.641L239.117 100.18H226.32V107.945H246.445L249.562 105.484V116.094H212.32L214.781 113.113V79.5078L212.32 76.5273ZM252.188 76.5273H276.961C287.023 76.5273 292.055 80.5195 292.055 88.5039C292.055 95.0299 289.065 99.0221 283.086 100.48L293.832 116.121H276.277L278.711 113.141L271.246 101.984H266.078V113.141L268.512 116.121H252.188L254.512 113.414V79.207L252.188 76.5273ZM266.078 84.7031V94.4922H274.09C278.155 94.4922 280.197 92.8151 280.215 89.4609C280.215 86.2891 278.128 84.7031 273.953 84.7031H266.078ZM296.047 76.5273H333.289V87.1367L330.172 84.6758H310.047V92.4414H322.844L325.824 89.9805V102.641L322.844 100.18H310.047V107.945H330.172L333.289 105.484V116.094H296.047L298.508 113.113V79.5078L296.047 76.5273Z" fill="black"/>
<path d="M14.9722 52L16.0948 55.4549H19.7275L16.7886 57.5902L17.9112 61.0451L14.9722 58.9098L12.0333 61.0451L13.1559 57.5902L10.2169 55.4549H13.8497L14.9722 52Z" fill="black"/>
<path d="M28.9722 52L30.0948 55.4549H33.7275L30.7886 57.5902L31.9112 61.0451L28.9722 58.9098L26.0333 61.0451L27.1559 57.5902L24.2169 55.4549H27.8497L28.9722 52Z" fill="black"/>
<path d="M42.9722 52L44.0948 55.4549H47.7275L44.7886 57.5902L45.9112 61.0451L42.9722 58.9098L40.0333 61.0451L41.1559 57.5902L38.2169 55.4549H41.8497L42.9722 52Z" fill="black"/>
<path d="M56.9722 52L58.0948 55.4549H61.7275L58.7886 57.5902L59.9112 61.0451L56.9722 58.9098L54.0333 61.0451L55.1559 57.5902L52.2169 55.4549H55.8497L56.9722 52Z" fill="black"/>
<path d="M70.9722 52L72.0948 55.4549H75.7275L72.7886 57.5902L73.9112 61.0451L70.9722 58.9098L68.0333 61.0451L69.1559 57.5902L66.2169 55.4549H69.8497L70.9722 52Z" fill="black"/>
<path d="M84.9722 52L86.0948 55.4549H89.7275L86.7886 57.5902L87.9112 61.0451L84.9722 58.9098L82.0333 61.0451L83.1559 57.5902L80.2169 55.4549H83.8497L84.9722 52Z" fill="black"/>
<path d="M98.9722 52L100.095 55.4549H103.728L100.789 57.5902L101.911 61.0451L98.9722 58.9098L96.0333 61.0451L97.1559 57.5902L94.2169 55.4549H97.8497L98.9722 52Z" fill="black"/>
<path d="M112.972 52L114.095 55.4549H117.728L114.789 57.5902L115.911 61.0451L112.972 58.9098L110.033 61.0451L111.156 57.5902L108.217 55.4549H111.85L112.972 52Z" fill="black"/>
<path d="M126.972 52L128.095 55.4549H131.728L128.789 57.5902L129.911 61.0451L126.972 58.9098L124.033 61.0451L125.156 57.5902L122.217 55.4549H125.85L126.972 52Z" fill="black"/>
<line x1="5" y1="48" x2="138" y2="48" stroke="black" stroke-width="6"/>
<line x1="5" y1="67" x2="138" y2="67" stroke="black" stroke-width="6"/>
<path d="M209.46 52L210.583 55.4549H214.216L211.277 57.5902L212.399 61.0451L209.46 58.9098L206.521 61.0451L207.644 57.5902L204.705 55.4549H208.338L209.46 52Z" fill="black"/>
<path d="M223.46 52L224.583 55.4549H228.216L225.277 57.5902L226.399 61.0451L223.46 58.9098L220.521 61.0451L221.644 57.5902L218.705 55.4549H222.338L223.46 52Z" fill="black"/>
<path d="M237.46 52L238.583 55.4549H242.216L239.277 57.5902L240.399 61.0451L237.46 58.9098L234.521 61.0451L235.644 57.5902L232.705 55.4549H236.338L237.46 52Z" fill="black"/>
<path d="M251.46 52L252.583 55.4549H256.216L253.277 57.5902L254.399 61.0451L251.46 58.9098L248.521 61.0451L249.644 57.5902L246.705 55.4549H250.338L251.46 52Z" fill="black"/>
<path d="M265.46 52L266.583 55.4549H270.216L267.277 57.5902L268.399 61.0451L265.46 58.9098L262.521 61.0451L263.644 57.5902L260.705 55.4549H264.338L265.46 52Z" fill="black"/>
<path d="M279.46 52L280.583 55.4549H284.216L281.277 57.5902L282.399 61.0451L279.46 58.9098L276.521 61.0451L277.644 57.5902L274.705 55.4549H278.338L279.46 52Z" fill="black"/>
<path d="M293.46 52L294.583 55.4549H298.216L295.277 57.5902L296.399 61.0451L293.46 58.9098L290.521 61.0451L291.644 57.5902L288.705 55.4549H292.338L293.46 52Z" fill="black"/>
<path d="M307.46 52L308.583 55.4549H312.216L309.277 57.5902L310.399 61.0451L307.46 58.9098L304.521 61.0451L305.644 57.5902L302.705 55.4549H306.338L307.46 52Z" fill="black"/>
<path d="M321.46 52L322.583 55.4549H326.216L323.277 57.5902L324.399 61.0451L321.46 58.9098L318.521 61.0451L319.644 57.5902L316.705 55.4549H320.338L321.46 52Z" fill="black"/>
<line x1="198" y1="48" x2="334" y2="48" stroke="black" stroke-width="6"/>
<line x1="198" y1="67" x2="334" y2="67" stroke="black" stroke-width="6"/>
</svg>
