<svg width="160" height="41" viewBox="0 0 160 41" fill="none" xmlns="http://www.w3.org/2000/svg">
<path d="M32.215 37.5839C28.9385 39.5625 25.0007 40.7399 20.7579 40.8018C20.6396 40.8042 20.5212 40.8053 20.4029 40.8053C20.2846 40.8053 20.1662 40.8042 20.0479 40.8018C15.8051 40.7399 11.8673 39.5625 8.59082 37.5839H32.215Z" fill="#41FF54"/>
<path d="M37.5841 31.141C36.6589 32.7208 35.5442 34.1651 34.2753 35.4363H6.53052C5.26158 34.1651 4.1481 32.7208 3.22168 31.141H6.43826C6.30934 30.7893 6.1918 30.4309 6.08564 30.0671H34.7201C34.614 30.4309 34.4964 30.7893 34.3675 31.141H37.5841Z" fill="#41FF54"/>
<path d="M40.8054 24.698C40.554 25.8081 40.2188 26.8832 39.8051 27.9195H1.0003C0.586563 26.8832 0.251384 25.8081 0 24.698H4.9033C4.93865 23.9933 5.0303 23.2765 5.16777 22.5504H35.6376C35.7751 23.2765 35.8667 23.9933 35.9021 24.698H40.8054Z" fill="#41FF54"/>
<path d="M35.4363 6.44295H5.36914C5.68773 6.10372 6.01775 5.77555 6.35919 5.45967H15.2976C18.1002 2.17797 20.4027 0 20.4027 0C20.4027 0 22.7052 2.17797 25.5078 5.45967H34.4462C34.7876 5.77555 35.1177 6.10372 35.4363 6.44295Z" fill="#41FF54"/>
<path d="M35.4363 6.44295H5.36914C5.68773 6.10372 6.01775 5.77555 6.35919 5.45967H15.2976C18.1002 2.17797 20.4027 0 20.4027 0C20.4027 0 22.7052 2.17797 25.5078 5.45967H34.4462C34.7876 5.77555 35.1177 6.10372 35.4363 6.44295Z" fill="#41FF54"/>
<path d="M39.7319 13.9597H1.07422C1.25156 13.4121 1.44804 12.8751 1.66493 12.349H10.3661C11.1686 11.0416 12.0145 9.77984 12.8604 8.59058H27.9458C28.7917 9.77984 29.6376 11.0416 30.4413 12.349H39.1412C39.3581 12.8751 39.5546 13.4121 39.7319 13.9597Z" fill="#41FF54"/>
<path d="M40.8054 20.8832C40.8054 21.0819 40.8028 21.2792 40.7977 21.4765H0.00765101C0.00255034 21.2792 0 21.0819 0 20.8832C0 20.3611 0.0178523 19.8416 0.053557 19.3288H6.82087C7.23785 18.2523 7.72497 17.1745 8.26181 16.1074H32.5436C33.0804 17.1745 33.5675 18.2523 33.9845 19.3288H40.7518C40.7875 19.8416 40.8054 20.3611 40.8054 20.8832Z" fill="#41FF54"/>
<path d="M55.8389 27.6684V9.66443H60.4106L65.7029 22.0688L71.2561 9.66443H75.0948V27.6684H71.3306V17.097L66.7713 27.6684H64.0506L59.6031 17.097V27.6684H55.8389Z" fill="#41FF54"/>
<path d="M84.9514 14.7869C85.8541 14.7869 86.7031 14.9543 87.4981 15.2891C88.3015 15.6239 88.9889 16.0842 89.5604 16.6701C90.1401 17.2477 90.5957 17.9466 90.927 18.7668C91.2665 19.5787 91.4363 20.445 91.4363 21.3657C91.4363 22.5961 91.1506 23.7135 90.5791 24.7179C90.0159 25.7223 89.2374 26.5091 88.2435 27.0783C87.258 27.6391 86.1606 27.9195 84.9514 27.9195C83.1045 27.9195 81.5599 27.2959 80.3175 26.0488C79.0752 24.8016 78.4541 23.2406 78.4541 21.3657C78.4541 19.4908 79.0752 17.9256 80.3175 16.6701C81.5599 15.4146 83.1045 14.7869 84.9514 14.7869ZM84.9514 18.2521C84.0983 18.2521 83.3861 18.5492 82.8146 19.1435C82.2514 19.7294 81.9698 20.4701 81.9698 21.3657C81.9698 22.2362 82.2514 22.9686 82.8146 23.5629C83.3861 24.1571 84.0983 24.4543 84.9514 24.4543C85.7879 24.4543 86.4919 24.1571 87.0633 23.5629C87.6348 22.9686 87.9205 22.2362 87.9205 21.3657C87.9205 20.4701 87.6348 19.7294 87.0633 19.1435C86.5002 18.5492 85.7962 18.2521 84.9514 18.2521Z" fill="#41FF54"/>
<path d="M103.579 9.66443H107.169V27.6684H103.579V26.1743C103.272 26.6933 102.775 27.1159 102.088 27.4424C101.409 27.7604 100.676 27.9195 99.889 27.9195C98.8207 27.9195 97.8392 27.6265 96.9447 27.0406C96.0503 26.4547 95.3463 25.6596 94.8328 24.6552C94.3193 23.6424 94.0626 22.5375 94.0626 21.3406C94.0626 19.516 94.6258 17.9675 95.7521 16.6953C96.8868 15.423 98.2658 14.7869 99.889 14.7869C100.668 14.7869 101.401 14.9501 102.088 15.2765C102.775 15.603 103.272 16.0215 103.579 16.532V9.66443ZM100.684 24.4794C101.289 24.4794 101.852 24.3329 102.374 24.04C102.904 23.747 103.305 23.3704 103.579 22.91V19.8215C103.305 19.3444 102.904 18.9552 102.374 18.6538C101.852 18.3525 101.289 18.2019 100.684 18.2019C99.8062 18.2019 99.0691 18.5032 98.4728 19.1058C97.8765 19.7001 97.5783 20.445 97.5783 21.3406C97.5783 22.2362 97.8765 22.9853 98.4728 23.588C99.0691 24.1822 99.8062 24.4794 100.684 24.4794Z" fill="#41FF54"/>
<path d="M119.448 15.038H123.038V27.6684H119.448V26.1743C119.092 26.71 118.607 27.1369 117.995 27.4549C117.39 27.7646 116.74 27.9195 116.044 27.9195C114.462 27.9195 113.216 27.4089 112.305 26.3877C111.402 25.3666 110.951 23.9604 110.951 22.1693V15.038H114.541V21.5792C114.541 22.4413 114.756 23.1109 115.187 23.588C115.626 24.0651 116.218 24.3036 116.963 24.3036C117.452 24.3036 117.92 24.1781 118.367 23.927C118.823 23.6675 119.183 23.3201 119.448 22.8849V15.038Z" fill="#41FF54"/>
<path d="M130.423 9.66443V27.6684H126.832V9.66443H130.423Z" fill="#41FF54"/>
<path d="M142.739 15.038H146.329V27.6684H142.739V26.1743C142.383 26.71 141.899 27.1369 141.286 27.4549C140.681 27.7646 140.031 27.9195 139.335 27.9195C137.753 27.9195 136.507 27.4089 135.596 26.3877C134.693 25.3666 134.242 23.9604 134.242 22.1693V15.038H137.832V21.5792C137.832 22.4413 138.047 23.1109 138.478 23.588C138.917 24.0651 139.509 24.3036 140.255 24.3036C140.743 24.3036 141.211 24.1781 141.658 23.927C142.114 23.6675 142.474 23.3201 142.739 22.8849V15.038Z" fill="#41FF54"/>
<path d="M155.068 27.9195C152.799 27.9195 150.931 27.3921 149.465 26.3375L150.533 23.814C151.71 24.7012 153.117 25.1448 154.757 25.1448C155.312 25.1448 155.755 25.0485 156.087 24.856C156.426 24.6635 156.596 24.4166 156.596 24.1153C156.596 23.8558 156.468 23.6424 156.211 23.475C155.962 23.2992 155.639 23.1611 155.242 23.0607C154.844 22.9602 154.405 22.8598 153.925 22.7593C153.445 22.6505 152.964 22.5124 152.484 22.345C152.004 22.1693 151.565 21.9558 151.167 21.7047C150.77 21.4452 150.442 21.0853 150.186 20.625C149.937 20.1563 149.809 19.608 149.8 18.9803C149.784 17.7917 150.248 16.7957 151.192 15.9922C152.136 15.1886 153.341 14.7869 154.807 14.7869C156.786 14.7869 158.372 15.2682 159.565 16.2307L158.546 18.8547C158.049 18.4781 157.441 18.1642 156.72 17.9131C156.008 17.662 155.321 17.5364 154.658 17.5364C154.202 17.5364 153.834 17.6327 153.552 17.8252C153.271 18.0177 153.13 18.2563 153.13 18.5408C153.13 18.7585 153.229 18.951 153.428 19.1184C153.627 19.2774 153.884 19.4071 154.198 19.5076C154.521 19.608 154.886 19.721 155.292 19.8466C155.706 19.9637 156.124 20.0809 156.546 20.1981C156.969 20.3153 157.383 20.4785 157.789 20.6878C158.203 20.897 158.571 21.1356 158.894 21.4034C159.217 21.6629 159.478 22.006 159.677 22.4329C159.884 22.8598 159.992 23.3452 160 23.8893C160 25.0611 159.536 26.0278 158.609 26.7895C157.689 27.5428 156.509 27.9195 155.068 27.9195Z" fill="#41FF54"/>
</svg>
