<svg width="764" height="370" viewBox="0 0 764 370" fill="none" xmlns="http://www.w3.org/2000/svg">
<path d="M379.631 23.2754C404.161 23.2754 428.537 26.0194 451.866 31.4068L381.237 185.803L379.631 23.2754Z" fill="#E9E8E8"/>
<path d="M451.979 30.4109C474.526 35.5607 495.289 43.9788 514.469 53.7744L382.039 181.79L451.979 30.4109Z" fill="#54FF65"/>
<path fill-rule="evenodd" clip-rule="evenodd" d="M606.619 205.822C587.485 279.858 494.952 336.011 383.685 336.011C272.418 336.011 179.885 279.858 160.751 205.822C158.368 196.6 157.123 187.1 157.123 177.397V211.386C157.123 298.986 258.558 370 383.685 370C508.811 370 610.247 298.986 610.247 211.386V177.397C610.247 187.1 609.002 196.6 606.619 205.822ZM606.374 218.692C595.776 247.228 574.484 272.57 545.966 292.536C504.286 321.716 446.899 339.648 383.685 339.648C320.47 339.648 263.084 321.716 221.404 292.536C192.886 272.57 171.594 247.228 160.996 218.692C163.639 258.111 187.563 293.961 225.559 320.561C265.878 348.789 321.773 366.363 383.685 366.363C445.597 366.363 501.492 348.789 541.811 320.561C579.807 293.961 603.731 258.111 606.374 218.692Z" fill="#54FF65"/>
<path fill-rule="evenodd" clip-rule="evenodd" d="M384.848 23.335C383.637 23.335 379.237 23.3217 378.03 23.335C268.17 24.5471 175.148 80.7161 157.905 156.704C140.473 233.527 205.672 307.791 311.653 331.827C417.633 355.863 532.918 322.531 583.508 253.228C634.098 183.925 604.968 99.2327 514.816 53.5143L381.658 181.441L384.848 23.335ZM515.461 57.9228L378.03 189.955V26.9607C324.298 27.5601 274.742 41.4507 236.389 64.3146C197.152 87.7055 169.881 120.322 161.443 157.506C153.026 194.6 164.49 231.216 191.226 261.67C217.997 292.163 260.062 316.409 312.455 328.291C417.483 352.111 531.088 318.886 580.577 251.091C605.208 217.35 610.333 180.082 598.509 145.705C586.859 111.834 558.608 80.3864 515.461 57.9228Z" fill="#54FF65"/>
<path d="M5.30561 313.345H2.55124V318.128H1.01392V306.31H4.87858C6.18815 306.31 7.19168 306.613 7.88917 307.219C8.6009 307.825 8.95676 308.705 8.95676 309.86C8.95676 310.596 8.75747 311.238 8.35891 311.786C7.97458 312.335 7.43367 312.746 6.73618 313.02L9.4692 318.02V318.128H7.82512L5.30561 313.345ZM2.55124 312.068H4.92128C5.68994 312.068 6.29491 311.873 6.73618 311.483C7.19168 311.079 7.41943 310.538 7.41943 309.86C7.41943 309.138 7.20592 308.583 6.77888 308.193C6.35185 307.804 5.73265 307.602 4.92128 307.587H2.55124V312.068ZM17.1772 312.674H12.1168V316.851H17.9885V318.128H10.5795V306.31H17.9245V307.587H12.1168V311.397H17.1772V312.674ZM22.1308 306.31L25.9527 315.942L29.7533 306.31H31.7604V318.128H30.2231V313.518L30.3725 308.561L26.5292 318.128H25.3549L21.5329 308.583L21.6824 313.518V318.128H20.1451V306.31H22.1308ZM40.2584 315.033H35.3688L34.2799 318.128H32.6999L37.141 306.31H38.4862L42.9487 318.128H41.3687L40.2584 315.033ZM35.8386 313.756H39.81L37.8243 308.237L35.8386 313.756ZM46.4077 318.128H44.8704V306.31H46.4077V318.128ZM57.8095 318.128H56.2722L50.4005 309.016V318.128H48.8418V306.31H50.4005L56.2722 315.466V306.31H57.8095V318.128ZM62.8058 318.128H61.2685V306.31H62.8058V318.128ZM74.2076 318.128H72.6703L66.7986 309.016V318.128H65.2399V306.31H66.7986L72.6703 315.466V306.31H74.2076V318.128ZM86.1646 316.57C85.766 317.147 85.2109 317.58 84.4992 317.868C83.7874 318.157 82.9618 318.301 82.0224 318.301C81.0829 318.301 80.2431 318.078 79.5029 317.63C78.7627 317.169 78.1933 316.519 77.7947 315.682C77.3962 314.845 77.1898 313.879 77.1755 312.782V311.765C77.1755 309.975 77.5812 308.59 78.3926 307.609C79.2182 306.628 80.3712 306.137 81.8515 306.137C83.0757 306.137 84.0579 306.454 84.7981 307.089C85.5383 307.724 85.9938 308.619 86.1646 309.773H84.6273C84.3283 308.215 83.4102 307.436 81.8729 307.436C80.8338 307.436 80.0509 307.804 79.5242 308.54C78.9975 309.261 78.7271 310.322 78.7128 311.721V312.674C78.7128 314.001 79.0118 315.062 79.6096 315.855C80.2075 316.635 81.0188 317.024 82.0437 317.024C82.6131 317.024 83.1113 316.959 83.5383 316.829C83.9796 316.7 84.3426 316.476 84.6273 316.159V313.518H81.937V312.241H86.1646V316.57Z" fill="#54FF65"/>
<path d="M6.79401 337.187C6.4976 337.558 6.13061 337.858 5.69304 338.086C5.26959 338.3 4.8038 338.407 4.29566 338.407C3.63225 338.407 3.05354 338.243 2.55951 337.915C2.06549 337.587 1.68438 337.123 1.41619 336.524C1.14801 335.91 1.01392 335.239 1.01392 334.511C1.01392 333.741 1.15507 333.042 1.43737 332.414C1.73378 331.786 2.15017 331.308 2.68654 330.98C3.23703 330.637 3.87221 330.466 4.59207 330.466C5.73539 330.466 6.63169 330.901 7.28098 331.772C7.94439 332.642 8.27609 333.819 8.27609 335.303V335.732C8.27609 338.015 7.83146 339.677 6.94222 340.719C6.05297 341.761 4.71205 342.296 2.91944 342.324H2.62303V341.083H2.94061C4.15451 341.054 5.0861 340.733 5.73539 340.12C6.38468 339.506 6.73755 338.529 6.79401 337.187ZM4.52855 337.187C5.02258 337.187 5.47426 337.037 5.88359 336.738C6.30704 336.424 6.61757 336.045 6.81518 335.603V335.004C6.81518 334.033 6.60346 333.241 6.18001 332.628C5.75656 332.014 5.22725 331.707 4.59207 331.707C3.94278 331.707 3.42053 331.957 3.0253 332.457C2.6442 332.956 2.45365 333.62 2.45365 334.447C2.45365 335.246 2.63714 335.903 3.00413 336.417C3.38524 336.93 3.89338 337.187 4.52855 337.187ZM17.9096 337.337C17.9096 339.078 17.6132 340.377 17.0203 341.233C16.4416 342.075 15.5241 342.496 14.2679 342.496C13.0399 342.496 12.1295 342.082 11.5367 341.254C10.9438 340.426 10.6333 339.185 10.6051 337.53V335.56C10.6051 333.834 10.8944 332.556 11.4731 331.729C12.066 330.887 12.9905 330.466 14.2467 330.466C15.4889 330.466 16.4063 330.873 16.9992 331.686C17.592 332.485 17.8955 333.727 17.9096 335.41V337.337ZM16.4275 335.303C16.4275 334.048 16.2511 333.134 15.8982 332.564C15.5594 331.978 15.0089 331.686 14.2467 331.686C13.4986 331.686 12.9482 331.978 12.5953 332.564C12.2565 333.134 12.0871 334.012 12.0871 335.196V337.572C12.0871 338.828 12.2636 339.763 12.6165 340.377C12.9834 340.976 13.5339 341.276 14.2679 341.276C14.9878 341.276 15.5241 340.99 15.877 340.419C16.2299 339.849 16.4134 338.957 16.4275 337.744V335.303ZM20.2386 344.658L19.4128 344.08C19.9069 343.38 20.168 342.653 20.1962 341.896V340.569H21.6359V341.725C21.6359 342.267 21.5019 342.81 21.2337 343.352C20.9655 343.894 20.6338 344.329 20.2386 344.658ZM30.105 337.337C30.105 339.078 29.8085 340.377 29.2157 341.233C28.637 342.075 27.7195 342.496 26.4633 342.496C25.2353 342.496 24.3249 342.082 23.732 341.254C23.1392 340.426 22.8287 339.185 22.8004 337.53V335.56C22.8004 333.834 23.0898 332.556 23.6685 331.729C24.2613 330.887 25.1859 330.466 26.4421 330.466C27.6842 330.466 28.6017 330.873 29.1945 331.686C29.7874 332.485 30.0908 333.727 30.105 335.41V337.337ZM28.6229 335.303C28.6229 334.048 28.4464 333.134 28.0936 332.564C27.7548 331.978 27.2043 331.686 26.4421 331.686C25.694 331.686 25.1435 331.978 24.7906 332.564C24.4519 333.134 24.2825 334.012 24.2825 335.196V337.572C24.2825 338.828 24.4589 339.763 24.8118 340.377C25.1788 340.976 25.7293 341.276 26.4633 341.276C27.1831 341.276 27.7195 340.99 28.0724 340.419C28.4253 339.849 28.6088 338.957 28.6229 337.744V335.303ZM32.201 332.885C32.201 332.185 32.4198 331.607 32.8574 331.151C33.3091 330.694 33.8807 330.466 34.5724 330.466C35.2781 330.466 35.8498 330.694 36.2873 331.151C36.7249 331.607 36.9437 332.2 36.9437 332.927V333.505C36.9437 334.205 36.7178 334.783 36.2662 335.239C35.8286 335.682 35.271 335.903 34.5935 335.903C33.9019 335.903 33.3302 335.682 32.8786 335.239C32.4269 334.783 32.201 334.183 32.201 333.441V332.885ZM33.302 333.505C33.302 333.919 33.4149 334.262 33.6408 334.533C33.8807 334.804 34.1983 334.94 34.5935 334.94C34.9746 334.94 35.2781 334.811 35.5039 334.554C35.7298 334.283 35.8427 333.919 35.8427 333.463V332.885C35.8427 332.471 35.7298 332.128 35.5039 331.857C35.2781 331.572 34.9676 331.429 34.5724 331.429C34.1771 331.429 33.8666 331.572 33.6408 331.857C33.4149 332.128 33.302 332.478 33.302 332.906V333.505ZM37.8329 339.456C37.8329 338.757 38.0517 338.186 38.4893 337.744C38.9409 337.287 39.5126 337.059 40.2042 337.059C40.8959 337.059 41.4605 337.287 41.898 337.744C42.3497 338.186 42.5756 338.778 42.5756 339.52V340.077C42.5756 340.776 42.3568 341.354 41.9192 341.811C41.4816 342.267 40.917 342.496 40.2254 342.496C39.5338 342.496 38.9621 342.274 38.5104 341.832C38.0588 341.375 37.8329 340.776 37.8329 340.034V339.456ZM38.9339 340.077C38.9339 340.505 39.0468 340.855 39.2726 341.126C39.5126 341.397 39.8302 341.532 40.2254 341.532C40.6065 341.532 40.91 341.404 41.1358 341.147C41.3617 340.876 41.4746 340.512 41.4746 340.055V339.456C41.4746 339.028 41.3546 338.685 41.1147 338.429C40.8888 338.158 40.5853 338.022 40.2042 338.022C39.8231 338.022 39.5126 338.158 39.2726 338.429C39.0468 338.685 38.9339 339.042 38.9339 339.499V340.077ZM34.9323 341.447L34.0854 340.912L39.7384 331.772L40.5642 332.307L34.9323 341.447Z" fill="#54FF65"/>
<path fill-rule="evenodd" clip-rule="evenodd" d="M0 326.411V322.356H315.26V326.411H0Z" fill="#54FF65"/>
<path d="M318.301 323.877C318.301 322.477 316.94 321.342 315.26 321.342C313.581 321.342 312.219 322.477 312.219 323.877C312.219 325.276 313.581 326.411 315.26 326.411C316.94 326.411 318.301 325.276 318.301 323.877Z" fill="#54FF65"/>
<path d="M722.767 11.9887V0H726.638C727.922 0 728.88 0.270807 729.515 0.812423C730.164 1.3394 730.488 2.12986 730.488 3.18382C730.488 3.75471 730.329 4.25973 730.012 4.69888C729.709 5.12339 729.284 5.45275 728.736 5.68696C729.385 5.86262 729.89 6.20662 730.25 6.71896C730.625 7.21666 730.812 7.81682 730.812 8.51946C730.812 9.60269 730.466 10.4517 729.774 11.0665C729.097 11.6813 728.131 11.9887 726.876 11.9887H722.767ZM724.324 6.38959V10.6932H726.898C727.633 10.6932 728.21 10.5029 728.628 10.1223C729.046 9.74175 729.255 9.21478 729.255 8.54142C729.255 7.10687 728.477 6.38959 726.919 6.38959H724.324ZM724.324 5.11607H726.682C727.359 5.11607 727.9 4.94773 728.304 4.61105C728.722 4.25973 728.931 3.78399 728.931 3.18382C728.931 2.5251 728.743 2.04935 728.368 1.75659C727.994 1.44919 727.417 1.29548 726.638 1.29548H724.324V5.11607ZM740.782 0V8.14618C740.768 9.27333 740.415 10.2029 739.723 10.9348C739.031 11.652 738.093 12.0546 736.911 12.1424L736.479 12.1644C735.195 12.1644 734.165 11.8131 733.386 11.1104C732.622 10.3932 732.24 9.41239 732.24 8.16814V0H733.775V8.12423C733.775 8.98788 734.006 9.66124 734.467 10.1443C734.943 10.6274 735.614 10.8689 736.479 10.8689C737.373 10.8689 738.05 10.6274 738.512 10.1443C738.973 9.66124 739.204 8.98788 739.204 8.12423V0H740.782ZM747.876 7.13615H745.086V11.9887H743.529V0H747.444C748.77 0 749.786 0.307403 750.493 0.92221C751.214 1.53702 751.574 2.42995 751.574 3.60101C751.574 4.34756 751.372 4.99896 750.969 5.55521C750.579 6.11147 750.032 6.52866 749.325 6.80678L752.093 11.8789V11.9887H750.428L747.876 7.13615ZM745.086 5.84066H747.487C748.265 5.84066 748.878 5.64304 749.325 5.24781C749.786 4.83794 750.017 4.28901 750.017 3.60101C750.017 2.8691 749.801 2.30552 749.368 1.91029C748.936 1.51506 748.309 1.31012 747.487 1.29548H745.086V5.84066ZM762.301 11.9887H760.744L754.797 2.74467V11.9887H753.218V0H754.797L760.744 9.28797V0H762.301V11.9887Z" fill="#54FF65"/>
<path d="M731.276 30.3221L731.865 24.4999H737.75V25.8698H733.105L732.747 29.0592C733.322 28.7167 733.967 28.5455 734.681 28.5455C735.718 28.5455 736.545 28.9022 737.162 29.6157C737.778 30.315 738.087 31.264 738.087 32.4627C738.087 33.6614 737.764 34.6103 737.12 35.3096C736.489 36.0088 735.599 36.3584 734.45 36.3584C733.441 36.3584 732.614 36.073 731.97 35.5022C731.325 34.9171 730.961 34.118 730.877 33.1048H732.243C732.341 33.7755 732.579 34.2821 732.958 34.6246C733.336 34.9671 733.833 35.1383 734.45 35.1383C735.123 35.1383 735.655 34.9029 736.048 34.432C736.44 33.961 736.636 33.3117 736.636 32.4841C736.636 31.6992 736.426 31.0713 736.006 30.6004C735.585 30.1295 735.025 29.894 734.324 29.894C733.693 29.894 733.196 30.0296 732.832 30.3007L732.453 30.6218L731.276 30.3221ZM740.125 38.5204L739.306 37.9424C739.796 37.2432 740.055 36.5154 740.083 35.7591V34.432H741.513V35.5879C741.513 36.1301 741.38 36.6724 741.113 37.2147C740.847 37.7569 740.518 38.1922 740.125 38.5204ZM749.921 31.1997C749.921 32.9407 749.626 34.2393 749.038 35.0955C748.463 35.9375 747.552 36.3584 746.305 36.3584C745.086 36.3584 744.182 35.9446 743.594 35.1169C743.005 34.2893 742.697 33.0477 742.669 31.3924V29.4231C742.669 27.6964 742.956 26.4192 743.531 25.5915C744.119 24.7496 745.037 24.3286 746.284 24.3286C747.517 24.3286 748.428 24.7353 749.017 25.5487C749.605 26.3479 749.907 27.5894 749.921 29.2733V31.1997ZM748.449 29.1662C748.449 27.9105 748.274 26.9972 747.924 26.4263C747.587 25.8413 747.041 25.5487 746.284 25.5487C745.542 25.5487 744.995 25.8413 744.645 26.4263C744.308 26.9972 744.14 27.8748 744.14 29.0592V31.4352C744.14 32.691 744.315 33.6257 744.666 34.2393C745.03 34.8387 745.577 35.1383 746.305 35.1383C747.02 35.1383 747.552 34.8529 747.903 34.2821C748.253 33.7113 748.435 32.8194 748.449 31.6064V29.1662ZM752.002 26.7474C752.002 26.0482 752.219 25.4702 752.653 25.0136C753.102 24.5569 753.669 24.3286 754.356 24.3286C755.057 24.3286 755.624 24.5569 756.058 25.0136C756.493 25.4702 756.71 26.0625 756.71 26.7902V27.3682C756.71 28.0674 756.486 28.6454 756.037 29.102C755.603 29.5444 755.05 29.7656 754.377 29.7656C753.69 29.7656 753.123 29.5444 752.674 29.102C752.226 28.6454 752.002 28.046 752.002 27.304V26.7474ZM753.095 27.3682C753.095 27.782 753.207 28.1245 753.431 28.3956C753.669 28.6668 753.985 28.8023 754.377 28.8023C754.755 28.8023 755.057 28.6739 755.281 28.417C755.505 28.1459 755.617 27.782 755.617 27.3254V26.7474C755.617 26.3336 755.505 25.9911 755.281 25.72C755.057 25.4346 754.748 25.2919 754.356 25.2919C753.963 25.2919 753.655 25.4346 753.431 25.72C753.207 25.9911 753.095 26.3407 753.095 26.7688V27.3682ZM757.593 33.3189C757.593 32.6196 757.81 32.0488 758.245 31.6064C758.693 31.1498 759.26 30.9215 759.947 30.9215C760.634 30.9215 761.194 31.1498 761.629 31.6064C762.077 32.0488 762.301 32.641 762.301 33.3831V33.9396C762.301 34.6389 762.084 35.2168 761.65 35.6735C761.215 36.1301 760.655 36.3584 759.968 36.3584C759.282 36.3584 758.714 36.1373 758.266 35.6949C757.817 35.2382 757.593 34.6389 757.593 33.8968V33.3189ZM758.686 33.9396C758.686 34.3677 758.798 34.7174 759.022 34.9885C759.26 35.2596 759.576 35.3952 759.968 35.3952C760.347 35.3952 760.648 35.2668 760.872 35.0099C761.096 34.7388 761.208 34.3749 761.208 33.9182V33.3189C761.208 32.8908 761.089 32.5483 760.851 32.2914C760.627 32.0203 760.325 31.8847 759.947 31.8847C759.569 31.8847 759.26 32.0203 759.022 32.2914C758.798 32.5483 758.686 32.905 758.686 33.3617V33.9396ZM754.713 35.3096L753.872 34.7744L759.485 25.6343L760.304 26.1695L754.713 35.3096Z" fill="#54FF65"/>
<path fill-rule="evenodd" clip-rule="evenodd" d="M616.307 16.2192H763.315V19.7598H616.442L415.887 34.4658L415.616 30.9351L616.307 16.2192Z" fill="#54FF65"/>
<path d="M418.657 32.9451C418.657 31.5455 417.296 30.4109 415.616 30.4109C413.937 30.4109 412.575 31.5455 412.575 32.9451C412.575 34.3448 413.937 35.4794 415.616 35.4794C417.296 35.4794 418.657 34.3448 418.657 32.9451Z" fill="#54FF65"/>
<path d="M704.908 53.4988H700.067L698.989 56.594H697.425L701.822 44.7759H703.154L707.572 56.594H706.007L704.908 53.4988ZM700.532 52.2218H704.464L702.498 46.7023L700.532 52.2218ZM710.996 56.594H709.474V44.7759H710.996V56.594ZM717.655 51.8105H714.928V56.594H713.406V44.7759H717.232C718.529 44.7759 719.522 45.079 720.213 45.685C720.918 46.2911 721.27 47.1713 721.27 48.3257C721.27 49.0616 721.073 49.7037 720.678 50.2521C720.298 50.8004 719.762 51.2117 719.072 51.4858L721.777 56.4858V56.594H720.15L717.655 51.8105ZM714.928 50.5335H717.275C718.036 50.5335 718.635 50.3387 719.072 49.9491C719.522 49.545 719.748 49.0039 719.748 48.3257C719.748 47.6042 719.537 47.0487 719.114 46.659C718.691 46.2694 718.078 46.0674 717.275 46.053H714.928V50.5335ZM722.877 56.594V44.7759H726.153C727.154 44.7759 728.035 45.0068 728.796 45.4686C729.571 45.9159 730.17 46.558 730.592 47.395C731.015 48.2319 731.227 49.1987 731.227 50.2954V51.0313C731.227 52.1568 731.015 53.1381 730.592 53.975C730.184 54.8119 729.585 55.454 728.796 55.9014C728.02 56.3487 727.119 56.5796 726.09 56.594H722.877ZM724.399 46.053V55.317H726.005C727.175 55.317 728.084 54.949 728.732 54.2131C729.395 53.4627 729.726 52.3949 729.726 51.0096V50.317C729.726 48.975 729.416 47.9361 728.796 47.2002C728.19 46.4498 727.316 46.0674 726.174 46.053H724.399ZM737.949 51.8105H735.222V56.594H733.7V44.7759H737.526C738.823 44.7759 739.816 45.079 740.507 45.685C741.211 46.2911 741.564 47.1713 741.564 48.3257C741.564 49.0616 741.366 49.7037 740.972 50.2521C740.591 50.8004 740.056 51.2117 739.365 51.4858L742.071 56.4858V56.594H740.443L737.949 51.8105ZM735.222 50.5335H737.568C738.329 50.5335 738.928 50.3387 739.365 49.9491C739.816 49.545 740.042 49.0039 740.042 48.3257C740.042 47.6042 739.83 47.0487 739.408 46.659C738.985 46.2694 738.372 46.0674 737.568 46.053H735.222V50.5335ZM752.049 51.0746C752.049 52.229 751.859 53.2391 751.478 54.1049C751.098 54.9562 750.555 55.6128 749.85 56.0745C749.16 56.5363 748.35 56.7672 747.419 56.7672C746.517 56.7672 745.714 56.5363 745.01 56.0745C744.305 55.6128 743.755 54.9634 743.361 54.1265C742.98 53.2751 742.783 52.2867 742.769 51.1612V50.317C742.769 49.177 742.959 48.1742 743.34 47.3084C743.734 46.4426 744.284 45.7788 744.988 45.3171C745.693 44.8409 746.503 44.6028 747.419 44.6028C748.335 44.6028 749.146 44.8337 749.85 45.2954C750.555 45.7572 751.098 46.4209 751.478 47.2867C751.859 48.1525 752.049 49.1626 752.049 50.317V51.0746ZM750.548 50.2954C750.548 48.8957 750.273 47.8206 749.724 47.0703C749.174 46.3199 748.406 45.9448 747.419 45.9448C746.447 45.9448 745.686 46.3199 745.136 47.0703C744.587 47.8206 744.305 48.8596 744.291 50.1871V51.0746C744.291 52.431 744.566 53.4988 745.115 54.278C745.679 55.0428 746.447 55.4252 747.419 55.4252C748.406 55.4252 749.167 55.0644 749.702 54.3429C750.252 53.607 750.534 52.5536 750.548 51.1828V50.2954ZM755.516 51.962V56.594H753.994V44.7759H758.264C759.518 44.7759 760.505 45.1078 761.223 45.7716C761.942 46.4209 762.302 47.294 762.302 48.3906C762.302 49.5306 761.949 50.4108 761.245 51.0313C760.554 51.6518 759.553 51.962 758.243 51.962H755.516ZM755.516 50.685H758.264C759.081 50.685 759.701 50.4902 760.124 50.1006C760.561 49.711 760.779 49.1482 760.779 48.4123C760.779 47.7052 760.561 47.1424 760.124 46.724C759.701 46.2911 759.109 46.0674 758.348 46.053H755.516V50.685Z" fill="#54FF65"/>
<path d="M731.276 74.9252L731.865 69.1029H737.75V70.4728H733.105L732.747 73.6622C733.322 73.3197 733.967 73.1485 734.681 73.1485C735.718 73.1485 736.545 73.5053 737.162 74.2188C737.778 74.918 738.087 75.867 738.087 77.0657C738.087 78.2644 737.764 79.2134 737.12 79.9126C736.489 80.6119 735.599 80.9615 734.45 80.9615C733.441 80.9615 732.614 80.6761 731.97 80.1053C731.325 79.5202 730.961 78.721 730.877 77.7079H732.243C732.341 78.3786 732.579 78.8852 732.958 79.2276C733.336 79.5701 733.833 79.7414 734.45 79.7414C735.123 79.7414 735.655 79.5059 736.048 79.035C736.44 78.5641 736.636 77.9148 736.636 77.0871C736.636 76.3022 736.426 75.6743 736.006 75.2034C735.585 74.7325 735.025 74.497 734.324 74.497C733.693 74.497 733.196 74.6326 732.832 74.9037L732.453 75.2248L731.276 74.9252ZM740.125 83.1234L739.306 82.5455C739.796 81.8462 740.055 81.1184 740.083 80.3621V79.035H741.513V80.1909C741.513 80.7332 741.38 81.2754 741.113 81.8177C740.847 82.36 740.518 82.7952 740.125 83.1234ZM749.921 75.8028C749.921 77.5437 749.626 78.8423 749.038 79.6986C748.463 80.5405 747.552 80.9615 746.305 80.9615C745.086 80.9615 744.182 80.5476 743.594 79.72C743.005 78.8923 742.697 77.6508 742.669 75.9954V74.0261C742.669 72.2994 742.956 71.0222 743.531 70.1946C744.119 69.3526 745.037 68.9316 746.284 68.9316C747.517 68.9316 748.428 69.3383 749.017 70.1517C749.605 70.9509 749.907 72.1924 749.921 73.8763V75.8028ZM748.449 73.7693C748.449 72.5135 748.274 71.6002 747.924 71.0294C747.587 70.4443 747.041 70.1517 746.284 70.1517C745.542 70.1517 744.995 70.4443 744.645 71.0294C744.308 71.6002 744.14 72.4778 744.14 73.6622V76.0382C744.14 77.294 744.315 78.2287 744.666 78.8423C745.03 79.4417 745.577 79.7414 746.305 79.7414C747.02 79.7414 747.552 79.456 747.903 78.8852C748.253 78.3143 748.435 77.4224 748.449 76.2095V73.7693ZM752.002 71.3505C752.002 70.6512 752.219 70.0733 752.653 69.6166C753.102 69.16 753.669 68.9316 754.356 68.9316C755.057 68.9316 755.624 69.16 756.058 69.6166C756.493 70.0733 756.71 70.6655 756.71 71.3933V71.9712C756.71 72.6704 756.486 73.2484 756.037 73.705C755.603 74.1474 755.05 74.3686 754.377 74.3686C753.69 74.3686 753.123 74.1474 752.674 73.705C752.226 73.2484 752.002 72.649 752.002 71.907V71.3505ZM753.095 71.9712C753.095 72.385 753.207 72.7275 753.431 72.9987C753.669 73.2698 753.985 73.4054 754.377 73.4054C754.755 73.4054 755.057 73.2769 755.281 73.0201C755.505 72.7489 755.617 72.385 755.617 71.9284V71.3505C755.617 70.9366 755.505 70.5941 755.281 70.323C755.057 70.0376 754.748 69.8949 754.356 69.8949C753.963 69.8949 753.655 70.0376 753.431 70.323C753.207 70.5941 753.095 70.9437 753.095 71.3719V71.9712ZM757.593 77.9219C757.593 77.2227 757.81 76.6519 758.245 76.2095C758.693 75.7528 759.26 75.5245 759.947 75.5245C760.634 75.5245 761.194 75.7528 761.629 76.2095C762.077 76.6519 762.301 77.2441 762.301 77.9861V78.5427C762.301 79.2419 762.084 79.8199 761.65 80.2765C761.215 80.7332 760.655 80.9615 759.968 80.9615C759.282 80.9615 758.714 80.7403 758.266 80.2979C757.817 79.8413 757.593 79.2419 757.593 78.4999V77.9219ZM758.686 78.5427C758.686 78.9708 758.798 79.3204 759.022 79.5915C759.26 79.8627 759.576 79.9982 759.968 79.9982C760.347 79.9982 760.648 79.8698 760.872 79.6129C761.096 79.3418 761.208 78.9779 761.208 78.5213V77.9219C761.208 77.4938 761.089 77.1513 760.851 76.8944C760.627 76.6233 760.325 76.4877 759.947 76.4877C759.569 76.4877 759.26 76.6233 759.022 76.8944C758.798 77.1513 758.686 77.5081 758.686 77.9647V78.5427ZM754.713 79.9126L753.872 79.3775L759.485 70.2374L760.304 70.7725L754.713 79.9126Z" fill="#54FF65"/>
<path fill-rule="evenodd" clip-rule="evenodd" d="M616.48 60.3213L479.875 45.6165L479.479 49.1369L616.282 63.863H763.315V60.3213H616.48Z" fill="#54FF65"/>
<path d="M482.52 47.137C482.52 45.7374 481.159 44.6028 479.479 44.6028C477.8 44.6028 476.438 45.7374 476.438 47.137C476.438 48.5367 477.8 49.6713 479.479 49.6713C481.159 49.6713 482.52 48.5367 482.52 47.137Z" fill="#54FF65"/>
</svg>
