<svg width="105" height="105" viewBox="0 0 105 105" fill="none" xmlns="http://www.w3.org/2000/svg">
<path fill-rule="evenodd" clip-rule="evenodd" d="M105 52.5C105 81.4947 81.4947 105 52.5 105C23.505 105 0 81.4947 0 52.5C0 23.505 23.505 0 52.5 0C81.4947 0 105 23.505 105 52.5ZM54.3811 38.7578C49.2749 40.8817 39.0693 45.2776 23.7645 51.9456C21.2792 52.9342 19.9773 53.9012 19.8588 54.8462C19.6585 56.4443 21.6593 57.0733 24.3839 57.9301C24.7545 58.0466 25.1385 58.1674 25.5322 58.2949C28.2127 59.1665 31.8186 60.186 33.6931 60.2264C35.3935 60.2632 37.2913 59.5623 39.3865 58.1233C53.6865 48.4706 61.068 43.5918 61.531 43.4863C61.8581 43.4123 62.3112 43.3188 62.6183 43.5918C62.9255 43.8648 62.895 44.3814 62.8624 44.52C62.6645 45.3652 54.8105 52.667 50.746 56.4454C49.4792 57.6235 48.5803 58.4588 48.3966 58.6498C47.985 59.0772 47.5655 59.4814 47.1623 59.8699C44.6723 62.2708 42.8043 64.071 47.2658 67.011C49.4099 68.4238 51.125 69.5919 52.8365 70.7574C54.7055 72.0305 56.5698 73.3 58.9822 74.8813C59.5964 75.284 60.1834 75.7024 60.7551 76.1098C62.9302 77.6606 64.8842 79.054 67.2987 78.8314C68.7015 78.7027 70.1505 77.3834 70.8866 73.4491C72.6259 64.1513 76.0447 44.0055 76.8348 35.7043C76.9041 34.977 76.8169 34.0461 76.7471 33.6375C76.6768 33.2289 76.5308 32.6467 75.9995 32.2157C75.3706 31.7053 74.3998 31.5977 73.9651 31.605C71.9906 31.6402 68.9609 32.6936 54.3811 38.7578Z" fill="black"/>
</svg>
