<svg width="105" height="105" viewBox="0 0 105 105" fill="none" xmlns="http://www.w3.org/2000/svg">
<g clip-path="url(#clip0_3_70)">
<path d="M52.5 0C23.502 0 0 23.502 0 52.5C0 81.498 23.502 105 52.5 105C81.498 105 105 81.498 105 52.5C105 23.502 81.498 0 52.5 0ZM73.459 44.3379C73.4795 44.7891 73.4795 45.2607 73.4795 45.7324C73.4795 59.9854 62.6309 76.4326 42.7793 76.4326C36.6885 76.4326 31.0078 74.6484 26.25 71.5928C27.0908 71.6953 27.9522 71.7363 28.834 71.7363C33.8789 71.7363 38.5342 70.0137 42.2256 67.1221C37.5088 67.04 33.5098 63.9228 32.1562 59.6367C32.8125 59.7598 33.4893 59.8213 34.1865 59.8213C35.1709 59.8213 36.1348 59.6982 37.0371 59.4316C32.0947 58.4473 28.3828 54.0791 28.3828 48.8496V48.7266C29.8389 49.5264 31.5 50.0186 33.2637 50.0801C30.3721 48.1523 28.4648 44.8301 28.4648 41.0977C28.4648 39.1289 28.998 37.2627 29.9209 35.6631C35.2529 42.2051 43.1895 46.4912 52.1514 46.9424C51.9668 46.1631 51.8643 45.3428 51.8643 44.4814C51.8643 38.5342 56.7041 33.6943 62.6514 33.6943C65.748 33.6943 68.5576 35.0068 70.5264 37.0986C72.9873 36.6064 75.2842 35.7246 77.376 34.4736C76.5762 36.9961 74.8535 39.1084 72.6387 40.4414C74.8125 40.1748 76.9043 39.6006 78.832 38.7393C77.3965 40.9131 75.5713 42.7998 73.459 44.3379Z" fill="black"/>
</g>
<defs>
<clipPath id="clip0_3_70">
<rect width="105" height="105" fill="white"/>
</clipPath>
</defs>
</svg>
