<svg width="105" height="105" viewBox="0 0 105 105" fill="none" xmlns="http://www.w3.org/2000/svg">
<circle cx="52.5" cy="52.5" r="52.5" fill="black"/>
<path d="M39.1755 25.1361C38.3644 25.0101 38.3301 24.9953 38.7119 24.9366C39.4435 24.8238 41.1709 24.9775 42.3613 25.2609C45.1403 25.9225 47.6691 27.6174 50.3684 30.6274L51.0855 31.4272L52.1113 31.262C56.4332 30.5664 60.8297 31.1192 64.5071 32.8206C65.5187 33.2887 67.1137 34.2205 67.313 34.46C67.3766 34.5362 67.4932 35.0275 67.5721 35.5516C67.8452 37.365 67.7086 38.7551 67.1547 39.7932C66.8534 40.3582 66.8366 40.5372 67.0392 41.0207C67.2009 41.4066 67.6518 41.6921 68.0983 41.6915C69.0122 41.6903 69.9958 40.2106 70.4514 38.152L70.6325 37.3343L70.9911 37.741C72.9583 39.9733 74.5034 43.0175 74.7687 45.1843L74.8379 45.7492L74.5073 45.2357C73.9381 44.3519 73.3664 43.7502 72.6342 43.265C71.3144 42.3903 69.9188 42.0927 66.223 41.8976C62.8851 41.7214 60.9959 41.4359 59.1226 40.824C55.9356 39.7833 54.3288 38.3973 50.5429 33.4223C48.8614 31.2127 47.822 29.9901 46.7881 29.0055C44.4389 26.7684 42.1304 25.5952 39.1755 25.1361Z" fill="white"/>
<path d="M68.0659 30.0698C68.1499 28.5892 68.3504 27.6124 68.7535 26.7206C68.913 26.3675 69.0626 26.0786 69.0856 26.0786C69.1087 26.0786 69.0394 26.3392 68.9315 26.6576C68.6384 27.5233 68.5904 28.7071 68.7921 30.0847C69.0484 31.8324 69.1941 32.0845 71.0385 33.9726C71.9036 34.8581 72.9098 35.9749 73.2746 36.4544L73.9379 37.3263L73.2746 36.7032C72.4635 35.9413 70.5981 34.4553 70.186 34.2428C69.9098 34.1004 69.8687 34.1027 69.6982 34.2727C69.5412 34.4293 69.5081 34.6644 69.4863 35.7765C69.4525 37.5096 69.2166 38.6221 68.6473 39.7345C68.3395 40.3361 68.2909 40.2077 68.5695 39.5287C68.7775 39.0217 68.7986 38.7987 68.7971 37.1208C68.7939 33.7498 68.3943 32.9393 66.0509 31.5509C65.4572 31.1992 64.479 30.6919 63.8772 30.4237C63.2754 30.1554 62.7973 29.9217 62.8147 29.9043C62.881 29.8381 65.1664 30.5062 66.0863 30.8605C67.4545 31.3877 67.6804 31.456 67.8466 31.3924C67.9579 31.3499 68.0118 31.0249 68.0659 30.0698Z" fill="white"/>
<path d="M40.7513 35.8368C39.1045 33.5661 38.0856 30.0844 38.3061 27.4817L38.3744 26.6762L38.7492 26.7448C39.4533 26.8734 40.6669 27.3259 41.2353 27.6716C42.795 28.6203 43.4702 29.8694 44.1572 33.0769C44.3584 34.0162 44.6223 35.0794 44.7438 35.4394C44.9395 36.0187 45.6784 37.372 46.2792 38.2508C46.712 38.8837 46.4245 39.1837 45.4679 39.0972C44.007 38.9651 42.028 37.5972 40.7513 35.8368Z" fill="white"/>
<path d="M66.0684 52.7374C58.3722 49.6338 55.6616 46.9399 55.6616 42.3945C55.6616 41.7256 55.6847 41.1782 55.7126 41.1782C55.7406 41.1782 56.0384 41.3991 56.3743 41.6688C57.9349 42.9225 59.6826 43.458 64.5207 44.1649C67.3675 44.5809 68.9697 44.9169 70.4476 45.4078C75.145 46.9681 78.0513 50.1345 78.7443 54.4474C78.9457 55.7007 78.8276 58.0507 78.501 59.2893C78.2433 60.2676 77.4568 62.0309 77.2481 62.0985C77.1902 62.1173 77.1335 61.8953 77.1187 61.5932C77.0395 59.9738 76.2224 58.3971 74.8502 57.216C73.29 55.8732 71.1937 54.8041 66.0684 52.7374Z" fill="white"/>
<path d="M60.6655 54.0266C60.569 53.452 60.4018 52.718 60.2938 52.3957L60.0975 51.8097L60.4622 52.2198C60.9669 52.7872 61.3658 53.5133 61.7039 54.4804C61.9619 55.2185 61.9909 55.438 61.9889 56.6375C61.987 57.8151 61.9548 58.0619 61.7165 58.7262C61.3408 59.7739 60.8746 60.5168 60.0922 61.3142C58.6864 62.7472 56.8789 63.5406 54.2707 63.8697C53.8172 63.9269 52.4958 64.0233 51.3341 64.0838C48.4062 64.2362 46.4793 64.5513 44.7479 65.1602C44.499 65.2479 44.2767 65.301 44.2542 65.2785C44.1841 65.2086 45.363 64.5047 46.3367 64.035C47.7097 63.3726 49.0763 63.0112 52.1386 62.5004C53.6513 62.248 55.2134 61.9419 55.6101 61.8201C59.3562 60.6698 61.2817 57.7012 60.6655 54.0266Z" fill="white"/>
<path d="M64.1934 60.3021C63.171 58.1005 62.9362 55.9749 63.4963 53.9924C63.5562 53.7806 63.6526 53.6072 63.7106 53.6072C63.7685 53.6072 64.0099 53.7379 64.2467 53.8976C64.718 54.2153 65.663 54.7503 68.1808 56.1252C71.3226 57.8408 73.1138 59.1693 74.332 60.687C75.3988 62.0163 76.059 63.5302 76.3768 65.3762C76.5566 66.422 76.4513 68.938 76.1834 69.991C75.3387 73.3111 73.3754 75.919 70.5752 77.4407C70.1649 77.6636 69.7967 77.8468 69.7568 77.8476C69.717 77.8483 69.8664 77.4677 70.0889 77.0016C71.031 75.0294 71.1382 73.111 70.426 70.9757C69.9899 69.6682 69.1009 68.0729 67.3058 65.3766C65.2186 62.2419 64.7069 61.4075 64.1934 60.3021Z" fill="white"/>
<path d="M35.2858 72.1808C38.1419 69.7656 41.6954 68.0498 44.9324 67.5232C46.3274 67.2961 48.6512 67.3862 49.9431 67.7173C52.0138 68.2481 53.866 69.4368 54.8293 70.8532C55.7708 72.2374 56.1747 73.4436 56.5953 76.1275C56.7611 77.1862 56.9416 78.2494 56.9961 78.4901C57.3119 79.881 57.9265 80.9928 58.688 81.5511C59.8976 82.4378 61.9804 82.493 64.0292 81.6926C64.377 81.5567 64.6789 81.4627 64.7001 81.484C64.7744 81.5578 63.7428 82.2496 63.0148 82.6137C62.0355 83.1036 61.2568 83.2932 60.2219 83.2932C58.3454 83.2932 56.7875 82.337 55.4874 80.3875C55.2317 80.0038 54.6566 78.8546 54.2097 77.8338C52.8372 74.6983 52.1593 73.743 50.5656 72.6977C49.1787 71.7881 47.3901 71.6253 46.0446 72.2861C44.2771 73.154 43.7839 75.4162 45.0499 76.85C45.5529 77.4197 46.4912 77.9112 47.2585 78.0067C48.6937 78.1855 49.9272 77.0919 49.9272 75.6406C49.9272 74.6981 49.5655 74.1604 48.6551 73.7489C47.4116 73.1869 46.0751 73.8437 46.0815 75.0138C46.0843 75.5126 46.3011 75.8259 46.8004 76.0522C47.1208 76.1974 47.1282 76.2089 46.8669 76.1545C45.726 75.9176 45.4588 74.54 46.3761 73.6254C47.4774 72.5275 49.7549 73.012 50.537 74.5107C50.8656 75.1401 50.9037 76.3937 50.6173 77.1508C49.9761 78.8451 48.1068 79.7361 46.2105 79.2512C44.9195 78.921 44.3938 78.5636 42.8372 76.9578C40.1324 74.1672 39.0823 73.6264 35.1828 73.0167L34.4355 72.8999L35.2858 72.1808Z" fill="white"/>
<path fill-rule="evenodd" clip-rule="evenodd" d="M14.8895 9.66918C23.9225 20.6497 37.8486 37.7456 38.54 38.7028C39.1108 39.4931 38.896 40.2035 37.9181 40.7603C37.3743 41.07 36.2561 41.3838 35.6963 41.3838C35.0632 41.3838 34.3499 41.0784 33.8305 40.5848C33.4633 40.2361 31.9815 38.02 28.5608 32.7039C25.9434 28.6363 23.753 25.262 23.6933 25.2055C23.5551 25.0748 23.5575 25.0792 28.2939 33.5672C31.268 38.897 32.272 40.7813 32.272 41.0333C32.272 41.5459 32.1324 41.8153 31.5011 42.5206C30.4487 43.6965 29.9782 45.0177 29.6386 47.7523C29.2578 50.8176 28.1873 52.983 25.2204 56.6888C23.4837 58.8582 23.1995 59.2558 22.7613 60.1302C22.2093 61.2312 22.0575 61.8479 21.996 63.2383C21.931 64.7083 22.0577 65.658 22.5061 67.0635C22.8986 68.294 23.3084 69.1064 24.356 70.7317C25.26 72.134 25.7807 73.1762 25.7807 73.5838C25.7807 73.9083 25.8425 73.9087 27.2434 73.5919C30.5958 72.8336 33.3182 71.5 34.8492 69.8657C35.7967 68.8542 36.0191 68.2956 36.0264 66.9094C36.0311 66.0027 35.9993 65.8129 35.7546 65.2912C35.3563 64.4423 34.6311 63.7364 33.0327 62.6421C30.9385 61.2082 30.0441 60.0539 29.7969 58.4663C29.5942 57.1637 29.8294 56.2447 30.9879 53.8128C32.1871 51.2954 32.4843 50.2227 32.6853 47.6854C32.8151 46.046 32.9949 45.3995 33.4652 44.8806C33.9556 44.3394 34.3971 44.1562 35.6109 43.9901C37.5898 43.7193 38.8498 43.2066 39.8856 42.2507C40.784 41.4214 41.16 40.6224 41.2178 39.4195L41.2615 38.5078L40.7595 37.9215C38.9411 35.798 13.6718 8 13.5599 8C13.536 8 14.1343 8.75119 14.8895 9.66918ZM26.8013 64.9016C27.2124 64.1725 26.994 63.2349 26.3063 62.777C25.6565 62.3442 24.6471 62.5481 24.6471 63.112C24.6471 63.284 24.7422 63.4093 24.9563 63.5197C25.3168 63.7055 25.343 63.9144 25.0594 64.3415C24.7721 64.7739 24.7953 65.1541 25.1248 65.4125C25.6558 65.829 26.4076 65.6 26.8013 64.9016Z" fill="white"/>
<path fill-rule="evenodd" clip-rule="evenodd" d="M42.5103 44.4683C41.5814 44.7541 40.6784 45.7402 40.3987 46.7742C40.2282 47.405 40.325 48.5115 40.5805 48.8532C40.9931 49.4051 41.3922 49.5506 42.4728 49.543C44.5883 49.5282 46.4274 48.6194 46.6412 47.4833C46.8166 46.5521 46.0088 45.2615 44.8962 44.695C44.3221 44.4027 43.1011 44.2867 42.5103 44.4683ZM44.9834 46.4052C45.3097 45.941 45.167 45.4391 44.6121 45.0998C43.5555 44.4535 41.9575 44.9882 41.9575 45.9881C41.9575 46.4858 42.7908 47.0287 43.5547 47.0287C44.063 47.0287 44.7588 46.7251 44.9834 46.4052Z" fill="white"/>
</svg>
