<svg width="413" height="109" viewBox="0 0 413 109" fill="none" xmlns="http://www.w3.org/2000/svg">
<path d="M379.909 57.5012L379.908 57.501L355.08 32.8434C354.647 32.4133 354.515 32.0835 354.501 31.8312C354.487 31.5752 354.588 31.2919 354.846 30.9418C355.105 30.5891 355.485 30.2214 355.947 29.8026C356.059 29.701 356.176 29.5963 356.297 29.4889C356.658 29.1656 357.048 28.8168 357.421 28.4473C357.806 28.0649 358.15 27.6813 358.457 27.3396C358.546 27.2404 358.632 27.1446 358.715 27.0535C359.096 26.6349 359.403 26.3231 359.69 26.127C359.964 25.9406 360.176 25.889 360.387 25.9256C360.62 25.9661 360.944 26.1301 361.397 26.5795L382.714 47.7579L383.066 48.108L383.418 47.758L404.74 26.5833C405.187 26.139 405.523 25.9716 405.776 25.9294C406.014 25.8897 406.256 25.9479 406.555 26.1377C406.865 26.3349 407.195 26.6482 407.59 27.0626C407.715 27.1939 407.847 27.3362 407.986 27.4854C408.268 27.7889 408.577 28.1211 408.906 28.4473C409.228 28.7673 409.564 29.0766 409.878 29.3653C410.04 29.515 410.197 29.6592 410.342 29.7964C410.784 30.2133 411.139 30.5789 411.374 30.9272C411.606 31.2704 411.692 31.5522 411.667 31.8134C411.641 32.0763 411.493 32.414 411.057 32.8473L386.228 57.5048C385.357 58.3701 384.214 58.8005 383.066 58.8005C381.921 58.8005 380.779 58.367 379.909 57.5012Z" stroke="#54FF65"/>
<path d="M383.066 33.886C381.795 33.886 380.524 33.4044 379.556 32.4412L354.727 7.78369C352.788 5.85732 355.129 4.60439 357.068 2.67802C359.008 0.751649 359.809 -1.11615 361.749 0.810224L383.066 21.9887L404.387 0.814076C406.327 -1.1123 407.318 0.751654 409.258 2.67803C411.198 4.6044 413.349 5.86117 411.409 7.78754L386.581 32.4451C385.611 33.4083 384.338 33.886 383.066 33.886Z" fill="#54FF65"/>
<path d="M383.066 83.5855C381.795 83.5855 380.524 83.1039 379.556 82.1407L354.727 57.4831C352.788 55.5568 355.129 54.3039 357.068 52.3775C359.008 50.4511 359.809 48.5833 361.749 50.5097L383.066 71.6882L404.387 50.5135C406.327 48.5872 407.318 50.4511 409.258 52.3775C411.198 54.3039 413.349 55.5606 411.409 57.487L386.581 82.1446C385.611 83.1077 384.338 83.5855 383.066 83.5855Z" fill="#54FF65"/>
<path d="M379.909 107.201L379.908 107.2L355.08 82.5429C354.647 82.1128 354.515 81.783 354.501 81.5307C354.487 81.2747 354.588 80.9914 354.846 80.6413C355.105 80.2886 355.485 79.9209 355.947 79.5021C356.059 79.4005 356.176 79.2958 356.297 79.1884C356.658 78.8651 357.048 78.5163 357.421 78.1468C357.806 77.7644 358.15 77.3808 358.457 77.0392C358.546 76.9399 358.632 76.8442 358.715 76.753C359.096 76.3344 359.403 76.0226 359.69 75.8266C359.964 75.6401 360.176 75.5885 360.387 75.6251C360.62 75.6656 360.944 75.8296 361.397 76.279L382.714 97.4575L383.066 97.8075L383.418 97.4575L404.74 76.2829C405.187 75.8385 405.523 75.6712 405.776 75.6289C406.014 75.5893 406.256 75.6474 406.555 75.8372C406.865 76.0344 407.195 76.3478 407.59 76.7622C407.715 76.8934 407.847 77.0357 407.986 77.1849C408.268 77.4885 408.577 77.8207 408.906 78.1468C409.228 78.4668 409.564 78.7761 409.878 79.0649C410.04 79.2145 410.197 79.3587 410.342 79.496C410.784 79.9129 411.139 80.2784 411.374 80.6267C411.606 80.97 411.692 81.2518 411.667 81.5129C411.641 81.7758 411.493 82.1136 411.057 82.5468L386.228 107.204C385.357 108.07 384.214 108.5 383.066 108.5C381.921 108.5 380.779 108.067 379.909 107.201Z" stroke="#54FF65"/>
<g filter="url(#filter0_d_69_1051)">
<path d="M4 0H5.8457V52.9272H4V0ZM7.69141 0H13.2285V52.9272H7.69141V0ZM18.7827 0H20.6284V52.9272H18.7827V0ZM31.7026 0V52.9272H26.1655V0H31.7026ZM24.3198 0V52.9272H22.4741V0H24.3198ZM16.1851 71.6919H21.0044C21.2778 71.464 21.5399 71.3501 21.7905 71.3501C22.1209 71.3501 22.3944 71.464 22.6108 71.6919C22.8159 71.897 22.9185 72.2673 22.9185 72.8027V73.9307H12.8354V71.5723C16.7889 68.3138 19.1929 66.2061 20.0474 65.249C20.4575 64.7705 20.6626 64.3148 20.6626 63.8818C20.6626 63.3577 20.4347 62.8792 19.979 62.4463C19.5005 62.0361 18.8796 61.8311 18.1162 61.8311C17.3415 61.8311 16.6921 62.0589 16.168 62.5146C15.8831 62.7653 15.6667 63.1242 15.5186 63.5913C15.416 63.8647 15.2736 64.0755 15.0913 64.2236C14.8862 64.349 14.6641 64.4116 14.4248 64.4116C14.1058 64.4116 13.8381 64.3034 13.6216 64.0869C13.3937 63.8818 13.2798 63.6312 13.2798 63.335C13.2798 62.9248 13.4792 62.3893 13.8779 61.7285C14.2539 61.1019 14.835 60.5835 15.6211 60.1733C16.4072 59.786 17.2446 59.5923 18.1333 59.5923C19.5233 59.5923 20.6683 60.0138 21.5684 60.8569C22.4684 61.7114 22.9185 62.7311 22.9185 63.916C22.9185 64.5199 22.7874 65.0895 22.5254 65.625C22.2633 66.1377 21.6481 66.8555 20.6797 67.7783C19.9961 68.4277 18.4979 69.7323 16.1851 71.6919Z" fill="#54FF65"/>
<path d="M33.5654 0H35.4111V52.9272H33.5654V0ZM37.2568 0H39.1025V52.9272H37.2568V0ZM44.6567 0H50.1938V52.9272H44.6567V0ZM52.0396 0H57.5767V52.9272H52.0396V0ZM59.4224 0H61.2681V52.9272H59.4224V0ZM52.7061 65.7104V68.1543C52.7061 69.5898 52.2845 70.9684 51.4414 72.29C50.5983 73.5889 49.3963 74.244 47.8354 74.2554C46.9468 74.2554 46.1891 74.0617 45.5625 73.6743C44.9359 73.2983 44.3434 72.5749 43.7852 71.5039C43.2269 70.4329 42.9478 69.3164 42.9478 68.1543V65.7104C42.9478 64.2977 43.3693 62.9191 44.2124 61.5747C45.0441 60.2531 46.2404 59.5923 47.8013 59.5923C48.6785 59.5923 49.4362 59.786 50.0742 60.1733C50.7008 60.5835 51.2933 61.307 51.8516 62.3438C52.4212 63.4147 52.7061 64.5369 52.7061 65.7104ZM50.4673 65.7275C50.4673 64.5199 50.1255 63.4717 49.4419 62.583C49.0545 62.0817 48.5133 61.8311 47.8184 61.8311C47.1348 61.8311 46.5822 62.1045 46.1606 62.6514C45.5226 63.4831 45.2036 64.5085 45.2036 65.7275V68.1372C45.2036 69.3449 45.5397 70.3931 46.2119 71.2817C46.5879 71.783 47.1291 72.0337 47.8354 72.0337C48.5076 72.0337 49.0602 71.7603 49.4932 71.2134C50.1426 70.3931 50.4673 69.3677 50.4673 68.1372V65.7275Z" fill="#54FF65"/>
<path d="M63.1309 0H64.9766V52.9272H63.1309V0ZM66.8223 0H68.668V52.9272H66.8223V0ZM74.2222 0H79.7593V52.9272H74.2222V0ZM81.605 0H87.1421V52.9272H81.605V0ZM88.9878 0H90.8335V52.9272H88.9878V0ZM79.6909 62.1729H74.6494C74.6494 62.7539 74.5469 63.1641 74.3418 63.4033C74.1253 63.6312 73.8519 63.7451 73.5215 63.7451C73.1911 63.7451 72.9233 63.6312 72.7183 63.4033C72.5132 63.1641 72.4106 62.7539 72.4106 62.1729V59.9341H82.0493V62.1729L78.4775 72.8369C78.318 73.2812 78.1414 73.5718 77.9478 73.7085C77.7655 73.8566 77.5376 73.9307 77.2642 73.9307C76.9338 73.9307 76.6603 73.8224 76.4438 73.606C76.216 73.4009 76.1021 73.1616 76.1021 72.8882C76.1021 72.7629 76.159 72.5065 76.2729 72.1191L79.6909 62.1729Z" fill="#54FF65"/>
<path d="M92.6963 0H94.542V52.9272H92.6963V0ZM96.3877 0H98.2334V52.9272H96.3877V0ZM103.788 0H109.325V52.9272H103.788V0ZM111.17 0H116.708V52.9272H111.17V0ZM118.553 0H120.399V52.9272H118.553V0ZM105.001 62.1729V64.856C105.833 64.5597 106.585 64.4116 107.257 64.4116C108.635 64.4116 109.78 64.8787 110.692 65.813C111.603 66.7472 112.059 67.9435 112.059 69.4019C112.059 70.9286 111.598 72.1191 110.675 72.9736C109.752 73.8281 108.345 74.2554 106.454 74.2554C104.802 74.2554 103.48 73.9421 102.489 73.3154C101.919 72.9395 101.634 72.5122 101.634 72.0337C101.634 71.7375 101.748 71.4754 101.976 71.2476C102.181 71.0197 102.443 70.9058 102.762 70.9058C103.024 70.9058 103.298 71.0311 103.583 71.2817C103.879 71.5324 104.192 71.709 104.522 71.8115C105.012 71.9596 105.605 72.0337 106.3 72.0337C107.656 72.0337 108.578 71.8172 109.068 71.3843C109.57 70.9627 109.82 70.3133 109.82 69.436C109.82 68.5702 109.581 67.8866 109.103 67.3853C108.613 66.8953 107.997 66.6504 107.257 66.6504C106.448 66.6504 105.525 66.8896 104.488 67.3682C104.272 67.4821 104.072 67.5391 103.89 67.5391C103.548 67.5391 103.281 67.4251 103.087 67.1973C102.87 66.9808 102.762 66.6846 102.762 66.3086V59.9341H109.752C110.299 59.9341 110.686 60.0366 110.914 60.2417C111.153 60.4468 111.273 60.7202 111.273 61.062C111.273 61.3924 111.153 61.6602 110.914 61.8652C110.675 62.0703 110.282 62.1729 109.735 62.1729H105.001Z" fill="#54FF65"/>
<path d="M122.262 0H124.107V52.9272H122.262V0ZM144.427 0H149.964V52.9272H144.427V0ZM133.353 0H135.199V52.9272H133.353V0ZM137.044 0H142.582V52.9272H137.044V0ZM129.645 0H131.49V52.9272H129.645V0ZM141.18 68.667H131.883V66.6504H141.18V68.667Z" fill="#54FF65"/>
<path d="M151.827 0H153.673V52.9272H151.827V0ZM173.993 0H179.53V52.9272H173.993V0ZM162.918 0H164.764V52.9272H162.918V0ZM166.61 0H172.147V52.9272H166.61V0ZM159.21 0H161.056V52.9272H159.21V0ZM170.746 68.667H161.449V66.6504H170.746V68.667Z" fill="#54FF65"/>
<path d="M181.393 0H183.238V52.9272H181.393V0ZM185.084 0H190.621V52.9272H185.084V0ZM196.175 0H198.021V52.9272H196.175V0ZM209.095 0V52.9272H203.558V0H209.095ZM201.712 0V52.9272H199.867V0H201.712ZM193.578 71.6919H198.397C198.67 71.464 198.932 71.3501 199.183 71.3501C199.514 71.3501 199.787 71.464 200.003 71.6919C200.208 71.897 200.311 72.2673 200.311 72.8027V73.9307H190.228V71.5723C194.181 68.3138 196.585 66.2061 197.44 65.249C197.85 64.7705 198.055 64.3148 198.055 63.8818C198.055 63.3577 197.827 62.8792 197.372 62.4463C196.893 62.0361 196.272 61.8311 195.509 61.8311C194.734 61.8311 194.085 62.0589 193.561 62.5146C193.276 62.7653 193.059 63.1242 192.911 63.5913C192.809 63.8647 192.666 64.0755 192.484 64.2236C192.279 64.349 192.057 64.4116 191.817 64.4116C191.498 64.4116 191.231 64.3034 191.014 64.0869C190.786 63.8818 190.672 63.6312 190.672 63.335C190.672 62.9248 190.872 62.3893 191.271 61.7285C191.646 61.1019 192.228 60.5835 193.014 60.1733C193.8 59.786 194.637 59.5923 195.526 59.5923C196.916 59.5923 198.061 60.0138 198.961 60.8569C199.861 61.7114 200.311 62.7311 200.311 63.916C200.311 64.5199 200.18 65.0895 199.918 65.625C199.656 66.1377 199.041 66.8555 198.072 67.7783C197.389 68.4277 195.89 69.7323 193.578 71.6919Z" fill="#54FF65"/>
<path d="M210.958 0H212.804V52.9272H210.958V0ZM214.649 0H216.495V52.9272H214.649V0ZM222.049 0H227.586V52.9272H222.049V0ZM229.432 0H234.969V52.9272H229.432V0ZM236.815 0H238.661V52.9272H236.815V0ZM230.099 65.7104V68.1543C230.099 69.5898 229.677 70.9684 228.834 72.29C227.991 73.5889 226.789 74.244 225.228 74.2554C224.339 74.2554 223.582 74.0617 222.955 73.6743C222.328 73.2983 221.736 72.5749 221.178 71.5039C220.619 70.4329 220.34 69.3164 220.34 68.1543V65.7104C220.34 64.2977 220.762 62.9191 221.605 61.5747C222.437 60.2531 223.633 59.5923 225.194 59.5923C226.071 59.5923 226.829 59.786 227.467 60.1733C228.093 60.5835 228.686 61.307 229.244 62.3438C229.814 63.4147 230.099 64.5369 230.099 65.7104ZM227.86 65.7275C227.86 64.5199 227.518 63.4717 226.834 62.583C226.447 62.0817 225.906 61.8311 225.211 61.8311C224.527 61.8311 223.975 62.1045 223.553 62.6514C222.915 63.4831 222.596 64.5085 222.596 65.7275V68.1372C222.596 69.3449 222.932 70.3931 223.604 71.2817C223.98 71.783 224.522 72.0337 225.228 72.0337C225.9 72.0337 226.453 71.7603 226.886 71.2134C227.535 70.3931 227.86 69.3677 227.86 68.1372V65.7275Z" fill="#54FF65"/>
<path d="M240.523 0H242.369V52.9272H240.523V0ZM244.215 0H246.061V52.9272H244.215V0ZM251.615 0H257.152V52.9272H251.615V0ZM258.998 0H264.535V52.9272H258.998V0ZM266.38 0H268.226V52.9272H266.38V0ZM257.083 62.1729H252.042C252.042 62.7539 251.939 63.1641 251.734 63.4033C251.518 63.6312 251.244 63.7451 250.914 63.7451C250.584 63.7451 250.316 63.6312 250.111 63.4033C249.906 63.1641 249.803 62.7539 249.803 62.1729V59.9341H259.442V62.1729L255.87 72.8369C255.711 73.2812 255.534 73.5718 255.34 73.7085C255.158 73.8566 254.93 73.9307 254.657 73.9307C254.326 73.9307 254.053 73.8224 253.836 73.606C253.609 73.4009 253.495 73.1616 253.495 72.8882C253.495 72.7629 253.552 72.5065 253.666 72.1191L257.083 62.1729Z" fill="#54FF65"/>
<path d="M270.089 0H271.935V52.9272H270.089V0ZM273.78 0H275.626V52.9272H273.78V0ZM281.18 0H286.717V52.9272H281.18V0ZM288.563 0H294.1V52.9272H288.563V0ZM295.946 0H297.792V52.9272H295.946V0ZM282.394 62.1729V64.856C283.225 64.5597 283.977 64.4116 284.649 64.4116C286.028 64.4116 287.173 64.8787 288.084 65.813C288.996 66.7472 289.452 67.9435 289.452 69.4019C289.452 70.9286 288.99 72.1191 288.067 72.9736C287.145 73.8281 285.737 74.2554 283.846 74.2554C282.194 74.2554 280.873 73.9421 279.881 73.3154C279.312 72.9395 279.027 72.5122 279.027 72.0337C279.027 71.7375 279.141 71.4754 279.369 71.2476C279.574 71.0197 279.836 70.9058 280.155 70.9058C280.417 70.9058 280.69 71.0311 280.975 71.2817C281.271 71.5324 281.585 71.709 281.915 71.8115C282.405 71.9596 282.997 72.0337 283.692 72.0337C285.048 72.0337 285.971 71.8172 286.461 71.3843C286.962 70.9627 287.213 70.3133 287.213 69.436C287.213 68.5702 286.974 67.8866 286.495 67.3853C286.005 66.8953 285.39 66.6504 284.649 66.6504C283.84 66.6504 282.918 66.8896 281.881 67.3682C281.664 67.4821 281.465 67.5391 281.283 67.5391C280.941 67.5391 280.673 67.4251 280.479 67.1973C280.263 66.9808 280.155 66.6846 280.155 66.3086V59.9341H287.145C287.691 59.9341 288.079 60.0366 288.307 60.2417C288.546 60.4468 288.666 60.7202 288.666 61.062C288.666 61.3924 288.546 61.6602 288.307 61.8652C288.067 62.0703 287.674 62.1729 287.127 62.1729H282.394Z" fill="#54FF65"/>
</g>
<defs>
<filter id="filter0_d_69_1051" x="0" y="0" width="301.791" height="82.2554" filterUnits="userSpaceOnUse" color-interpolation-filters="sRGB">
<feFlood flood-opacity="0" result="BackgroundImageFix"/>
<feColorMatrix in="SourceAlpha" type="matrix" values="0 0 0 0 0 0 0 0 0 0 0 0 0 0 0 0 0 0 127 0" result="hardAlpha"/>
<feOffset dy="4"/>
<feGaussianBlur stdDeviation="2"/>
<feComposite in2="hardAlpha" operator="out"/>
<feColorMatrix type="matrix" values="0 0 0 0 0 0 0 0 0 0 0 0 0 0 0 0 0 0 0.25 0"/>
<feBlend mode="normal" in2="BackgroundImageFix" result="effect1_dropShadow_69_1051"/>
<feBlend mode="normal" in="SourceGraphic" in2="effect1_dropShadow_69_1051" result="shape"/>
</filter>
</defs>
</svg>
