<svg width="89" height="45" viewBox="0 0 89 45" fill="none" xmlns="http://www.w3.org/2000/svg">
<path d="M20.0197 38.515C19.0429 37.6832 18.4837 36.8849 18.3421 36.12C18.1948 35.3245 22.9123 37.1604 21.4086 34.1688C20.2941 31.9514 22.6167 32.4566 23.4734 32.2979C24.3301 32.1393 25.5755 33.5215 25.7176 33.233C26.2423 33.6738 27.2009 33.546 28.087 33.8883C28.9675 34.1999 29.7443 34.2934 30.4175 34.1688C33.2629 33.6419 34.4704 32.2158 34.0398 29.8904C33.9095 29.1867 33.4041 28.679 32.5236 28.3674C31.668 28.0195 30.6391 27.8461 29.4368 27.8472C28.2344 27.8483 26.9177 27.744 25.4864 27.5344C24.0495 27.2941 22.6903 26.9604 21.4086 26.5332C20.127 26.1059 18.9609 25.2775 17.9105 24.048C16.885 22.7822 16.1909 21.1702 15.8283 19.212C15.3297 16.5195 15.8907 13.9948 17.5112 11.6378C19.1566 9.24446 19.9201 8.17275 23.9397 8.39137C26.8805 9.10784 28.7141 6.68356 30.304 6.89549C31.9188 7.07116 33.0622 7.34994 33.7341 7.73184L35.043 8.39138C36.1558 9.10304 36.7688 9.76484 36.8821 10.3768C36.9954 10.9887 36.7841 11.8981 36.2481 13.1049C35.4911 14.8274 34.5618 15.7906 33.4604 15.9946C32.8178 16.1135 31.9657 15.9549 30.9039 15.5186C30.8007 15.4744 30.5888 15.3554 30.2681 15.1616C29.9781 14.9622 29.7118 14.8058 29.4692 14.6925C28.7531 14.4137 27.8901 14.3678 26.8805 14.5547C25.9014 14.736 25.1206 15.1338 24.5381 15.748C23.9806 16.3259 23.7811 17.0432 23.9398 17.8999C24.0927 18.726 24.5998 19.3283 25.4611 19.7068C26.3529 20.0796 27.3971 20.2502 28.5938 20.2185C29.7904 20.1868 31.114 20.2423 32.5645 20.3851C34.0093 20.4973 35.3641 20.7212 36.6287 21.0566C37.8934 21.392 39.0356 22.1774 40.0555 23.4126C41.1003 24.6115 41.8068 26.2054 42.1751 28.1941C42.5433 30.1829 42.4713 32.0159 41.9591 33.693C41.4412 35.3395 40.6162 36.6948 39.4841 37.7589C37.3061 39.8394 34.8097 41.1403 31.9948 41.6615C30.5567 41.9278 29.164 42.0116 27.8167 41.913C26.4636 41.7838 25.3412 41.5328 24.4494 41.16C22.6465 40.4812 21.3388 39.7423 20.5263 38.9434L20.0197 38.515Z" fill="#E9C46A"/>
<path d="M37.5281 14.7455C37.5281 12.5557 38.2917 10.7492 39.819 9.3258C41.3463 7.90244 43.0917 7.19077 45.0553 7.19077C47.019 7.19077 48.7553 7.90244 50.2644 9.3258C51.7735 10.7309 52.5281 12.5284 52.5281 14.7181C52.5281 16.2327 52.1372 17.5831 51.3553 18.7692C50.5735 19.9371 49.619 20.8039 48.4917 21.3696C47.3826 21.917 46.2281 22.1908 45.0281 22.1908C43.8281 22.1908 42.6644 21.8988 41.5372 21.3149C40.4099 20.7127 39.4553 19.8367 38.6735 18.6871C37.9099 17.5192 37.5281 16.2054 37.5281 14.7455ZM43.2281 16.7163C43.8099 17.1543 44.4008 17.3732 45.0008 17.3732C45.6008 17.3732 46.2008 17.1451 46.8008 16.6889C47.4008 16.2327 47.7008 15.5576 47.7008 14.6634C47.7008 13.7692 47.419 13.1032 46.8553 12.6652C46.2917 12.2273 45.6826 12.0083 45.0281 12.0083C44.3735 12.0083 43.7644 12.2364 43.2008 12.6926C42.6372 13.1488 42.3554 13.824 42.3554 14.7181C42.3554 15.5941 42.6463 16.2601 43.2281 16.7163Z" fill="#E9C46A"/>
<path d="M59.9884 26.612L53.562 14.8891C53.3933 14.5814 53.2752 14.3502 53.2079 14.1957C53.154 14.0338 53.1225 13.8335 53.1135 13.5948C53.1028 13.1308 53.452 12.7043 54.1613 12.3155C54.8705 11.9267 55.397 11.7599 55.7405 11.8152C56.0902 11.8498 56.3804 12.0301 56.6113 12.356C56.7384 11.3814 57.3439 10.5969 58.4278 10.0027C59.5252 9.40114 60.8447 9.34781 62.3865 9.8427C63.9283 10.3376 65.0733 11.2675 65.8216 12.6325C66.5699 13.9975 66.738 15.463 66.326 17.029C65.9274 18.5876 65.1794 19.6677 64.082 20.2693C62.9847 20.8708 62.0197 20.9995 61.1871 20.6554L63.41 24.7102C63.5787 25.018 63.69 25.2528 63.744 25.4147C63.8113 25.5692 63.8428 25.7695 63.8384 26.0156C63.8548 26.2677 63.7645 26.4999 63.5677 26.7122C63.3708 26.9246 63.0649 27.1444 62.6501 27.3719C62.2352 27.5993 61.8787 27.7425 61.5804 27.8016C61.2955 27.8534 61.0482 27.8149 60.8384 27.6863C60.642 27.5503 60.4901 27.416 60.3826 27.2835C60.2886 27.1436 60.1572 26.9198 59.9884 26.612ZM58.78 14.9786C58.6703 15.5087 58.7328 15.9878 58.9675 16.416C59.2023 16.8443 59.5726 17.1547 60.0785 17.3473C60.5904 17.5191 61.0872 17.473 61.569 17.2089C62.0641 16.9375 62.3836 16.5361 62.5274 16.0048C62.6846 15.4661 62.6422 14.9759 62.4001 14.5343C62.158 14.0927 61.781 13.786 61.2691 13.6141C60.7498 13.4288 60.2293 13.4793 59.7073 13.7654C59.1988 14.0441 58.8897 14.4486 58.78 14.9786Z" fill="#E9C46A"/>
<path d="M68.0885 29.9088L64.5982 22.6084C64.4729 22.3814 64.4052 22.2034 64.3951 22.0743C64.3791 21.9485 64.4085 21.8425 64.4832 21.7564C64.558 21.6703 64.6744 21.5835 64.8325 21.4962C64.9848 21.4122 67.347 19.2818 67.4597 19.2645C67.5724 19.2472 67.6691 19.2701 67.7498 19.3332C67.8805 19.4316 68.0085 19.5943 68.1339 19.8213L72.5192 28.4431C72.785 28.9247 72.8294 29.2681 72.6524 29.4736C72.5814 29.5666 70.2138 31.7493 70.0088 31.8625L65.1239 34.5591C64.9892 34.6335 64.8877 34.685 64.8195 34.7137C64.7416 34.7387 64.6435 34.748 64.5253 34.7415C64.314 34.7325 64.0868 34.5078 63.8437 34.0676C63.5779 33.586 63.5287 33.2407 63.696 33.0317C63.7766 32.9423 63.5256 32.4276 63.7306 32.3144L68.0885 29.9088Z" fill="#E9C46A"/>
<path fill-rule="evenodd" clip-rule="evenodd" d="M44.7271 39.9965C49.8205 38.7653 56.8888 36.3846 64.7766 31.7878C65.1099 31.5936 65.5556 32.0148 65.7721 32.7286C65.9886 33.4424 65.8939 34.1785 65.5606 34.3728C57.6036 39.0099 50.4714 41.4128 45.3254 42.6567C42.7522 43.2787 40.6749 43.611 39.2386 43.788C38.5204 43.8765 37.9624 43.9261 37.5827 43.9536C37.3928 43.9674 37.2476 43.9756 37.1491 43.9805C37.0999 43.9829 37.0624 43.9844 37.0368 43.9854L37.0076 43.9864L36.9997 43.9867L36.9969 43.9867C36.9967 43.9868 36.9965 43.9868 36.7688 42.6552L36.9965 43.9868C36.6197 43.9968 36.2117 43.4052 36.0852 42.6655C35.9588 41.9259 36.1616 41.3182 36.5384 41.3081C36.5384 41.3081 36.5384 41.3081 36.5384 41.3081L36.5398 41.308L36.5457 41.3079L36.5712 41.307C36.5941 41.3061 36.629 41.3047 36.6756 41.3024C36.7689 41.2978 36.9088 41.2899 37.0932 41.2765C37.4621 41.2498 38.0088 41.2012 38.7154 41.1142C40.1285 40.9401 42.1806 40.612 44.7271 39.9965Z" fill="#E9C46A"/>
<path d="M51.289 21.5298C51.3266 21.2914 51.4422 21.0893 51.6358 20.9236C51.8294 20.7578 52.5105 21.4349 52.8401 21.2947C53.1815 21.1495 53.0451 20.2337 53.2703 20.2074C53.4954 20.1811 53.6785 20.1867 53.8194 20.224C53.9604 20.2613 54.0895 20.3524 54.2067 20.4971C54.3624 20.6672 54.5279 20.9582 54.7032 21.3702L56.9714 26.7022C57.6324 28.2559 57.7507 29.8736 57.3263 31.5554C57.1108 32.356 56.7124 33.1024 56.1311 33.7945C55.5448 34.4748 54.7985 35.0077 53.8922 35.3933C52.9976 35.7738 52.0995 35.9335 51.1977 35.8723C50.3077 35.8061 49.503 35.5646 48.7835 35.1478C47.2994 34.3057 46.2218 33.0961 45.5509 31.5188L43.2901 26.2045C43.1699 25.922 43.0882 25.7135 43.0449 25.579C43.0083 25.4278 42.9996 25.2438 43.0186 25.0272C43.0377 24.8106 43.144 24.6194 43.3376 24.4536C43.5312 24.2879 43.8163 24.1249 44.193 23.9647C44.5697 23.8044 44.8848 23.7121 45.1385 23.6875C45.3922 23.663 45.5978 23.7215 45.7553 23.863C46.0117 24.0737 46.24 24.4144 46.4403 24.8852L48.6936 30.1819C48.999 30.8999 49.466 31.5075 50.0945 32.0047C50.4112 32.2591 50.7887 32.4113 51.227 32.4612C51.6652 32.5111 52.1256 32.4333 52.6082 32.2281C53.4675 31.8625 53.9738 31.2718 54.1271 30.456C54.2804 29.6401 54.1794 28.8143 53.8239 27.9786L51.5256 22.576C51.3303 22.1169 51.2514 21.7682 51.289 21.5298Z" fill="#E9C46A"/>
<path d="M67.8959 24.4484L67.9651 24.5874L68.2501 24.4229C68.2872 24.4015 68.3109 24.3805 68.321 24.3599C68.3304 24.338 68.326 24.3112 68.3077 24.2795C68.2886 24.2465 68.2757 24.2209 68.2689 24.2028C68.2599 24.1841 68.2554 24.162 68.2553 24.1363C68.2549 24.0943 68.2919 24.0519 68.3662 24.009C68.4529 23.9589 68.517 23.9476 68.5586 23.975C68.5801 23.9901 68.5971 24.0051 68.6093 24.02C68.6195 24.0344 68.6333 24.0567 68.6507 24.087C68.7334 24.2301 68.7638 24.3575 68.7421 24.4692C68.7203 24.5809 68.6323 24.6813 68.4781 24.7703L68.1725 24.9467C68.1918 24.9705 68.2101 24.9975 68.2276 25.0278C68.2451 25.0581 68.2481 25.0903 68.2366 25.1244C68.2243 25.1572 68.19 25.1899 68.1335 25.2225C68.0771 25.2551 68.0345 25.2751 68.0058 25.2825C67.9756 25.2907 67.9515 25.2918 67.9333 25.2858C67.9027 25.2741 67.8779 25.2517 67.8588 25.2187L67.8277 25.1458L67.615 25.2686C67.5834 25.2868 67.5596 25.2997 67.5437 25.307C67.5269 25.313 67.5064 25.3157 67.4822 25.315C67.4374 25.317 67.3896 25.2739 67.3388 25.1858C67.2847 25.0922 67.278 25.0217 67.3186 24.9744C67.3367 24.9549 67.3698 24.9311 67.4179 24.9033L67.6203 24.7865C67.5798 24.7291 67.5508 24.6853 67.5334 24.655C67.5151 24.6233 67.5029 24.5991 67.497 24.5824C67.4888 24.5651 67.4843 24.5429 67.4834 24.5159C67.4806 24.4698 67.5232 24.4213 67.6113 24.3705C67.6981 24.3204 67.7618 24.3084 67.8025 24.3344C67.8241 24.3495 67.841 24.3645 67.8533 24.3794C67.8634 24.3938 67.8776 24.4168 67.8959 24.4484Z" fill="#264653"/>
<path d="M67.1924 23.1155C67.2764 23.0671 67.3513 23.0522 67.4173 23.0711C67.481 23.0893 67.5276 23.1239 67.557 23.1748L67.8395 23.6642C67.8781 23.6419 67.8973 23.6005 67.8972 23.54C67.8972 23.4795 67.884 23.4265 67.8578 23.3811C67.8117 23.3013 67.7673 23.2434 67.7245 23.2075L67.7032 23.1896C67.6689 23.1653 67.6455 23.1421 67.6328 23.1201C67.6073 23.076 67.6164 23.0203 67.6601 22.9529C67.6869 22.9135 67.7134 22.8863 67.7396 22.8712C67.8621 22.8005 68.008 22.9117 68.1773 23.2049C68.2361 23.3068 68.2713 23.4075 68.283 23.5073C68.2925 23.6064 68.2811 23.6947 68.2487 23.7721C68.1873 23.9232 68.0877 24.0385 67.9501 24.1179C67.7766 24.2181 67.6061 24.2422 67.4385 24.1903C67.2687 24.1378 67.1353 24.0276 67.0384 23.8597C66.9279 23.6683 66.9143 23.489 66.9976 23.3216C67.0421 23.2335 67.1071 23.1648 67.1924 23.1155ZM67.5038 23.5166C67.4736 23.4643 67.4365 23.4509 67.3924 23.4763C67.3608 23.4946 67.3425 23.5217 67.3375 23.5576C67.3317 23.5921 67.342 23.6321 67.3682 23.6775C67.3936 23.7216 67.4376 23.7549 67.5002 23.7775C67.5615 23.8009 67.6127 23.8006 67.654 23.7768L67.5038 23.5166Z" fill="#264653"/>
<path d="M67.6859 22.64C67.6845 22.6757 67.6659 22.7038 67.6301 22.7245C67.5943 22.7452 67.5249 22.7504 67.4217 22.7402C67.3896 22.7386 67.364 22.7213 67.3449 22.6882C67.325 22.6538 67.3156 22.5978 67.3166 22.5201C67.3163 22.4432 67.3026 22.3813 67.2756 22.3345C67.2271 22.2506 67.1863 22.2181 67.1533 22.2372C67.1272 22.2523 67.1345 22.3095 67.1754 22.4089C67.213 22.5028 67.2304 22.6075 67.2273 22.723C67.2256 22.7773 67.2061 22.8326 67.1689 22.8889C67.1303 22.9461 67.0746 22.9957 67.0016 23.0378C66.7841 23.1634 66.5892 23.0768 66.4167 22.7781C66.3603 22.6804 66.3257 22.5664 66.3129 22.4361C66.3071 22.3752 66.3207 22.3352 66.3537 22.3162C66.3868 22.2971 66.4361 22.2888 66.5018 22.2913C66.5674 22.2937 66.6094 22.3108 66.6277 22.3424C66.6372 22.359 66.6448 22.3959 66.6504 22.4532C66.6551 22.5092 66.6726 22.5634 66.7028 22.6157C66.7497 22.6969 66.7883 22.7287 66.8186 22.7113C66.8599 22.6874 66.8597 22.6251 66.8181 22.5244C66.7752 22.4279 66.7505 22.3248 66.7439 22.2148C66.7402 22.1637 66.7548 22.1112 66.7879 22.0572C66.8188 22.0027 66.87 21.9548 66.9416 21.9134C67.0132 21.8721 67.0824 21.8505 67.1492 21.8486C67.2139 21.8462 67.2725 21.8619 67.3251 21.8958C67.4186 21.9592 67.5039 22.0577 67.581 22.1912C67.6573 22.3234 67.6923 22.473 67.6859 22.64Z" fill="#264653"/>
<path d="M66.1357 21.3997L66.2049 21.5386L66.4898 21.3741C66.527 21.3527 66.5507 21.3317 66.5608 21.3111C66.5702 21.2892 66.5657 21.2624 66.5475 21.2307C66.5284 21.1977 66.5155 21.1721 66.5087 21.154C66.4997 21.1353 66.4952 21.1132 66.4951 21.0876C66.4947 21.0456 66.5317 21.0031 66.606 20.9602C66.6927 20.9101 66.7568 20.8988 66.7984 20.9262C66.8199 20.9413 66.8368 20.9563 66.8491 20.9712C66.8592 20.9856 66.873 21.0079 66.8905 21.0382C66.9732 21.1813 67.0036 21.3088 66.9818 21.4204C66.9601 21.5321 66.8721 21.6325 66.7179 21.7215L66.4123 21.8979C66.4316 21.9217 66.4499 21.9487 66.4674 21.979C66.4849 22.0093 66.4879 22.0415 66.4764 22.0757C66.4641 22.1084 66.4298 22.1411 66.3733 22.1737C66.3169 22.2063 66.2743 22.2263 66.2456 22.2337C66.2154 22.2419 66.1913 22.243 66.1731 22.237C66.1425 22.2253 66.1177 22.2029 66.0986 22.1699L66.0675 22.097L65.8548 22.2198C65.8232 22.2381 65.7994 22.2509 65.7834 22.2583C65.7667 22.2642 65.7462 22.2669 65.722 22.2662C65.6772 22.2682 65.6294 22.2251 65.5786 22.137C65.5245 22.0434 65.5178 21.973 65.5584 21.9257C65.5764 21.9061 65.6096 21.8824 65.6577 21.8546L65.8601 21.7377C65.8196 21.6803 65.7906 21.6365 65.7731 21.6062C65.7549 21.5746 65.7427 21.5504 65.7367 21.5336C65.7286 21.5163 65.724 21.4942 65.7231 21.4672C65.7204 21.421 65.763 21.3725 65.8511 21.3217C65.9379 21.2716 66.0016 21.2596 66.0423 21.2856C66.0639 21.3007 66.0808 21.3157 66.0931 21.3307C66.1032 21.345 66.1174 21.368 66.1357 21.3997Z" fill="#264653"/>
<path fill-rule="evenodd" clip-rule="evenodd" d="M64.8705 39.1907C64.6085 38.4853 64.9681 37.7011 65.6734 37.4392C71.0642 35.4376 73.7765 31.5575 75.0116 27.4483C76.2631 23.284 75.9785 18.913 75.331 16.196C75.1566 15.464 75.6086 14.7293 76.3405 14.5549C77.0724 14.3805 77.8072 14.8324 77.9816 15.5643C78.7159 18.6457 79.0385 23.5164 77.6211 28.2325C76.1871 33.0036 72.9543 37.6424 66.6219 39.9936C65.9165 40.2556 65.1324 39.896 64.8705 39.1907Z" fill="#E9C46A"/>
<path fill-rule="evenodd" clip-rule="evenodd" d="M73.0405 39.0282C72.8434 38.4994 73.1123 37.911 73.6411 37.7139C77.4514 36.2937 79.3663 33.5296 80.2361 30.5917C81.1179 27.6133 80.9096 24.4827 80.4459 22.5363C80.3152 21.9873 80.6542 21.4363 81.2032 21.3055C81.7521 21.1748 82.3032 21.5138 82.4339 22.0627C82.9619 24.2793 83.1994 27.7816 82.1957 31.1718C81.1799 34.6026 78.8781 37.9429 74.3548 39.6288C73.8261 39.8259 73.2376 39.557 73.0405 39.0282Z" fill="#E9C46A"/>
<path fill-rule="evenodd" clip-rule="evenodd" d="M79.0482 39.2498C78.9168 38.8973 79.096 38.505 79.4485 38.3736C82.3581 37.2891 83.8216 35.1758 84.4851 32.935C85.1565 30.6671 84.9979 28.2861 84.6448 26.8039C84.5576 26.4379 84.7836 26.0706 85.1496 25.9834C85.5156 25.8962 85.883 26.1223 85.9701 26.4882C86.3661 28.1505 86.5441 30.7793 85.7914 33.3217C85.0307 35.8912 83.3092 38.3886 79.9244 39.6502C79.5719 39.7816 79.1796 39.6024 79.0482 39.2498Z" fill="#E9C46A"/>
<path fill-rule="evenodd" clip-rule="evenodd" d="M24.7781 2.24259C25.0073 2.95925 24.6122 3.72605 23.8955 3.95529C18.4185 5.70722 15.5308 9.45869 14.1084 13.5069C12.6669 17.6092 12.7505 21.9887 13.2725 24.7326C13.4132 25.4718 12.9279 26.185 12.1888 26.3257C11.4496 26.4663 10.7364 25.9811 10.5957 25.2419C10.0037 22.13 9.90514 17.2497 11.5377 12.6036C13.1892 7.90343 16.6317 3.41798 23.0654 1.36003C23.782 1.13079 24.5488 1.52592 24.7781 2.24259Z" fill="#E9C46A"/>
<path fill-rule="evenodd" clip-rule="evenodd" d="M16.6092 2.02967C16.7818 2.56695 16.4861 3.14243 15.9489 3.31503C12.0774 4.55876 10.0375 7.23201 9.03371 10.1268C8.01606 13.0616 8.08042 16.1984 8.45419 18.1641C8.55961 18.7185 8.19565 19.2534 7.64125 19.3588C7.08686 19.4642 6.55198 19.1003 6.44657 18.5459C6.02091 16.3074 5.94456 12.7978 7.10289 9.45732C8.27509 6.07684 10.7279 2.8458 15.3238 1.36936C15.8611 1.19676 16.4366 1.49239 16.6092 2.02967Z" fill="#E9C46A"/>
<path fill-rule="evenodd" clip-rule="evenodd" d="M10.6181 1.53236C10.7331 1.89055 10.536 2.2742 10.1779 2.38926C7.22155 3.33898 5.66252 5.38285 4.89688 7.59088C4.122 9.82555 4.17114 12.2113 4.45575 13.7081C4.52603 14.0777 4.28339 14.4343 3.91379 14.5046C3.5442 14.5749 3.18761 14.3322 3.11734 13.9626C2.79813 12.2839 2.74099 9.64969 3.60967 7.14453C4.48758 4.61274 6.32193 2.19701 9.76116 1.09215C10.1193 0.977085 10.503 1.17417 10.6181 1.53236Z" fill="#E9C46A"/>
</svg>
